<svg width="38" height="46" viewBox="0 0 38 46" fill="none" xmlns="http://www.w3.org/2000/svg">
<path d="M17.8242 39.3422C17.8242 41.0647 17.8242 42.7872 17.8242 44.5096C17.8242 45.2621 17.6126 45.4105 16.9395 45.1166C11.4693 42.724 6.00216 40.3255 0.527625 37.9402C0.132282 37.7668 -0.00145771 37.5287 1.19608e-05 37.101C0.0161784 33.7119 0.00736033 30.3214 0.00883 26.9309C0.00883 26.2137 0.223402 26.0652 0.871528 26.3415C6.34753 28.6754 11.8206 31.0121 17.2981 33.3401C17.6905 33.5076 17.8389 33.7428 17.833 34.1749C17.811 35.8973 17.8242 37.6198 17.8242 39.3422Z" fill="#FF6F3C"/>
<path d="M18.7033 32.0202C18.5607 31.9673 18.4226 31.9232 18.2888 31.8659C13.0847 29.6438 7.88061 27.4187 2.67503 25.198C2.43547 25.0951 2.18563 25.0143 2.19151 24.6851C2.19592 24.3823 2.42666 24.2971 2.65005 24.2118C6.37861 22.7716 10.1116 21.3401 13.8343 19.8851C14.3178 19.6955 14.5911 19.7955 14.8983 20.1982C16.2166 21.9294 17.3512 23.746 17.8362 25.9049C17.9346 26.3429 18.23 26.6118 18.693 26.6162C19.1574 26.6206 19.4528 26.3532 19.563 25.9196C20.1142 23.7812 21.2781 21.9824 22.6273 20.2761C22.9257 19.8998 23.1828 19.7999 23.6473 19.9821C27.2494 21.3989 30.8604 22.7907 34.4685 24.1898C34.7227 24.2883 35.0122 24.3573 35.0034 24.7189C34.9961 25.076 34.6933 25.1407 34.4494 25.2465C30.5959 26.9146 26.7409 28.5782 22.886 30.2434C21.6456 30.7783 20.4052 31.3133 19.1648 31.8468C19.0149 31.9115 18.8605 31.9629 18.7018 32.0232L18.7033 32.0202Z" fill="#FF6F3C"/>
<path d="M18.7844 0.000564739C22.1543 0.0990328 24.4588 1.86852 26.0666 4.69617C27.7979 7.7428 27.6392 10.7306 25.7212 13.6479C24.7512 15.122 23.5799 16.433 22.4365 17.7674C21.2681 19.1313 20.1453 20.526 19.2459 22.0897C18.9578 22.5909 18.5434 22.6115 18.2803 22.1236C17.0193 19.7794 15.2175 17.8439 13.5538 15.8025C12.4413 14.4386 11.3934 13.0336 10.7849 11.3538C9.94282 9.0273 10.3984 6.84924 11.5448 4.76084C12.8028 2.46961 14.5679 0.780961 17.2001 0.176925C17.7174 0.057882 18.245 -0.00678363 18.7844 0.000564739ZM22.6614 8.5908C22.6628 6.41569 20.8948 4.63591 18.7227 4.62856C16.5446 4.62122 14.7589 6.38335 14.7457 8.55259C14.7325 10.7527 16.5152 12.5472 18.7124 12.5442C20.886 12.5413 22.6599 10.7644 22.6614 8.5908Z" fill="#FF6F3C"/>
<path d="M19.5848 39.3157C19.5848 37.6109 19.5995 35.9061 19.5745 34.2027C19.5671 33.7486 19.717 33.5105 20.1344 33.3312C25.487 31.0326 30.8322 28.7179 36.1803 26.4091C37.0048 26.0534 37.1812 26.171 37.1812 27.0675C37.1812 30.4036 37.1709 33.7383 37.1929 37.0745C37.1959 37.5595 37.0195 37.7873 36.5918 37.9754C31.2275 40.3386 25.8706 42.7195 20.5107 45.0945C19.8023 45.4075 19.5877 45.265 19.5877 44.4846C19.5877 42.7621 19.5877 41.0397 19.5877 39.3157H19.5848ZM33.9567 36.0766C33.9567 36.0766 33.9567 36.0766 33.9567 36.0751C34.2492 36.0751 34.5431 36.0971 34.8326 36.0707C35.3103 36.0266 35.6424 35.6474 35.638 35.1918C35.6336 34.7348 35.2985 34.3541 34.8179 34.3306C34.2712 34.3027 33.7215 34.3041 33.1748 34.3306C32.6898 34.3541 32.3533 34.7245 32.343 35.1815C32.3327 35.6592 32.681 36.0369 33.1895 36.0766C33.4438 36.0957 33.701 36.0795 33.9567 36.0795V36.0766ZM30.9042 35.6401C30.6485 35.6386 30.3927 35.6254 30.137 35.6401C29.6182 35.6724 29.2684 36.0295 29.264 36.5101C29.2611 36.9892 29.6109 37.3684 30.1238 37.3905C30.6529 37.4125 31.1834 37.414 31.711 37.3905C32.2181 37.3669 32.5693 36.9731 32.5576 36.4969C32.5458 36.0413 32.2078 35.6827 31.7243 35.6445C31.4524 35.6239 31.1775 35.6401 30.9027 35.6401H30.9042Z" fill="#FF6F3C"/>
<path d="M20.9012 8.59516C20.8968 9.8047 19.9033 10.7894 18.6923 10.7835C17.4827 10.7791 16.4995 9.78707 16.5039 8.57459C16.5083 7.36211 17.4989 6.38184 18.7114 6.38625C19.9224 6.39065 20.9041 7.38121 20.8997 8.59369L20.9012 8.59516Z" fill="#FF6F3C"/>
</svg>
