<svg width="46" height="46" viewBox="0 0 46 46" fill="none" xmlns="http://www.w3.org/2000/svg">
<path d="M22.4733 45.0816C10.0092 45.0087 -0.0827213 34.8648 0.000511163 22.5048C0.0837436 9.98869 10.2173 -0.103243 22.5929 0.000797264C35.0778 0.104838 45.1801 10.28 45.0345 22.5984C44.8888 35.1405 34.8437 45.1492 22.4681 45.0764L22.4733 45.0816ZM22.4889 34.0845C25.7037 34.0845 28.9134 34.0793 32.1282 34.0949C32.508 34.0949 32.612 34.0064 32.6068 33.6215C32.5912 28.4923 32.5912 23.3579 32.6068 18.2287C32.6068 17.8229 32.5184 17.7189 32.1022 17.7189C25.7141 17.7345 19.3208 17.7345 12.9327 17.7189C12.527 17.7189 12.4229 17.8125 12.4229 18.2235C12.4386 23.3371 12.4386 28.4507 12.4229 33.5591C12.4229 33.9856 12.527 34.0949 12.9536 34.0949C16.132 34.0741 19.3052 34.0845 22.4837 34.0845H22.4889ZM12.3969 15.404C15.3725 15.404 18.2076 15.404 21.0479 15.4092C21.36 15.4092 21.3444 15.2375 21.3444 15.0242C21.3444 14.0931 21.3288 13.1619 21.3496 12.236C21.3548 11.9082 21.2768 11.799 20.9283 11.8042C19.3625 11.825 17.7914 11.8146 16.2256 11.8094C16.0176 11.8094 15.8511 11.8354 15.6898 12.0019C14.6338 13.1099 13.5622 14.2023 12.3969 15.404ZM32.4768 15.404C32.508 15.352 32.5392 15.3 32.5704 15.2479C31.4468 14.1503 30.3231 13.0579 29.2047 11.9603C29.0746 11.8302 28.929 11.8094 28.7625 11.8146C27.2123 11.8146 25.6569 11.825 24.1067 11.8146C23.8206 11.8146 23.6801 11.8562 23.6905 12.1943C23.7113 13.1411 23.7061 14.0931 23.6905 15.0451C23.6905 15.326 23.7634 15.43 24.0599 15.4196C24.6269 15.3988 25.1939 15.4144 25.7557 15.4144C27.9978 15.4144 30.2399 15.4144 32.4768 15.4144V15.404Z" fill="#6333FF"/>
<path d="M21.3024 27.1084C21.3024 25.9328 21.3024 24.7519 21.3024 23.5762C21.3024 23.0092 21.2971 22.4474 21.3024 21.8804C21.3128 21.1105 21.7965 20.5747 22.4728 20.5799C23.1491 20.5851 23.6225 21.1157 23.6225 21.9012C23.6277 23.6335 23.6225 25.3657 23.6225 27.15C24.0126 26.9888 24.2051 26.6506 24.4756 26.4061C24.7617 26.1512 25.0166 25.8599 25.2923 25.5998C25.8489 25.0744 26.5096 25.0432 26.9934 25.5166C27.4876 26.0004 27.472 26.7027 26.9257 27.2645C26.2547 27.9563 25.5628 28.6326 24.8761 29.3193C24.3715 29.8239 23.8774 30.3337 23.3676 30.8279C22.7693 31.4001 22.1295 31.4001 21.5364 30.8123C20.3556 29.647 19.1851 28.4713 18.0147 27.2905C17.4529 26.7235 17.4164 26.0368 17.895 25.5478C18.3996 25.0328 19.0811 25.064 19.6741 25.6518C20.1787 26.1512 20.6677 26.6662 21.1619 27.176C21.2087 27.1552 21.2503 27.1396 21.2971 27.1188L21.3024 27.1084Z" fill="#6333FF"/>
</svg>
