<svg width="19" height="20" viewBox="0 0 19 20" fill="none" xmlns="http://www.w3.org/2000/svg">
<path d="M9.02733 1.46342C8.07269 1.46342 7.25864 2.07321 6.95695 2.92677C6.82228 3.30779 6.40424 3.5075 6.02322 3.37282C5.64221 3.23815 5.44251 2.82011 5.57718 2.4391C6.07907 1.01912 7.43328 0 9.02733 0C10.6215 0 11.9756 1.01912 12.4776 2.4391C12.6122 2.82011 12.4125 3.23815 12.0315 3.37282C11.6505 3.5075 11.2324 3.30779 11.0978 2.92677C10.7961 2.07321 9.98197 1.46342 9.02733 1.46342Z" fill="#1A3E59"/>
<path d="M0 4.63442C0 4.23031 0.327601 3.90271 0.73171 3.90271H17.3172C17.7213 3.90271 18.0489 4.23031 18.0489 4.63442C18.0489 5.03853 17.7213 5.36613 17.3172 5.36613H0.73171C0.327601 5.36613 0 5.03853 0 4.63442Z" fill="#1A3E59"/>
<path d="M3.09073 7.02462C3.06385 6.6214 2.71518 6.31632 2.31197 6.3432C1.90875 6.37008 1.60367 6.71874 1.63056 7.12196L2.0827 13.9041C2.16611 15.1557 2.23348 16.1665 2.3915 16.9598C2.5558 17.7845 2.83523 18.4733 3.41241 19.0132C3.98957 19.5532 4.69547 19.7862 5.52928 19.8953C6.33127 20.0002 7.34442 20.0002 8.59867 20.0002H9.45604C10.7103 20.0002 11.7234 20.0002 12.5254 19.8953C13.3592 19.7862 14.0651 19.5532 14.6423 19.0132C15.2195 18.4733 15.4989 17.7845 15.6632 16.9598C15.8211 16.1665 15.8885 15.1557 15.972 13.9041L16.4242 7.12196C16.451 6.71874 16.1459 6.37008 15.7427 6.3432C15.3395 6.31632 14.9908 6.6214 14.964 7.02462L14.5152 13.7555C14.4276 15.0705 14.365 15.9854 14.228 16.6738C14.0949 17.3416 13.9092 17.6951 13.6425 17.9446C13.3758 18.1941 13.0107 18.356 12.3356 18.4443C11.6396 18.5353 10.7225 18.5367 9.40462 18.5367H8.65008C7.33222 18.5367 6.4151 18.5353 5.7191 18.4443C5.04397 18.356 4.67894 18.1941 4.41218 17.9446C4.14544 17.6951 3.95975 17.3416 3.82673 16.6738C3.68959 15.9854 3.62712 15.0705 3.53946 13.7555L3.09073 7.02462Z" fill="#1A3E59"/>
<path d="M6.51064 8.7842C6.91275 8.74401 7.27127 9.03737 7.31156 9.43952L7.79937 14.3176C7.83956 14.7196 7.5462 15.0783 7.14405 15.1185C6.74196 15.1587 6.38338 14.8653 6.34318 14.4631L5.85537 9.58508C5.81516 9.18303 6.10853 8.8244 6.51064 8.7842Z" fill="#FF6F3C"/>
<path d="M12.1899 9.58508C12.2301 9.18303 11.9367 8.8244 11.5346 8.7842C11.1325 8.74401 10.7739 9.03737 10.7337 9.43952L10.2459 14.3176C10.2057 14.7196 10.499 15.0783 10.9012 15.1185C11.3032 15.1587 11.6618 14.8653 11.7021 14.4631L12.1899 9.58508Z" fill="#FF6F3C"/>
</svg>
