<svg width="33" height="34" viewBox="0 0 33 34" fill="none" xmlns="http://www.w3.org/2000/svg">
<path d="M23.7651 33.4186C23.2831 33.2036 22.9717 32.8715 22.9919 32.2926C22.9945 32.2272 22.9101 32.1283 22.8426 32.0956C22.5953 31.9786 22.3387 31.8831 22.0618 31.7695C21.9969 31.828 21.9209 31.9003 21.8416 31.9674C21.444 32.3072 20.8912 32.3227 20.5139 31.9665C20.059 31.5355 19.6192 31.0865 19.1972 30.6219C19.0546 30.4654 18.9854 30.2391 18.8622 30.0043H18.5305C12.9473 30.0043 7.36492 30.0043 1.78173 30.0043C1.6872 30.0043 1.59183 30.0077 1.4973 30.0026C1.19514 29.9862 1.00608 29.8064 1.00017 29.5329C0.99342 29.2438 1.18586 29.0468 1.50405 29.0399C1.90159 29.0313 2.29996 29.0382 2.73548 29.0382C2.73548 28.8834 2.73548 28.7586 2.73548 28.6339C2.73548 26.38 2.73548 24.1253 2.73548 21.8714C2.73548 21.7535 2.72957 21.6331 2.75151 21.5187C2.80215 21.252 2.96589 21.0989 3.23851 21.1152C3.50944 21.1316 3.65546 21.2967 3.6774 21.5703C3.68584 21.677 3.68247 21.7845 3.68247 21.892C3.68247 24.1356 3.68247 26.3791 3.68247 28.6218C3.68247 28.7483 3.68247 28.8748 3.68247 29.0184H5.88367C5.88873 28.9049 5.89802 28.7922 5.89802 28.6795C5.89802 23.6771 5.89802 18.6755 5.90224 13.6731C5.90224 13.4667 5.84316 13.3359 5.69123 13.1828C5.5334 13.0236 5.40511 12.7716 5.38232 12.5479C5.3359 12.0911 5.357 11.6257 5.37135 11.1646C5.38654 10.6803 5.73681 10.3241 6.21031 10.2811C6.29386 10.2734 6.37827 10.2725 6.46267 10.2725C12.8772 10.2725 19.2926 10.2708 25.7072 10.2768C25.9215 10.2768 26.1553 10.3104 26.3469 10.3998C26.655 10.5452 26.8086 10.8317 26.8145 11.1818C26.8221 11.6214 26.8187 12.0618 26.8154 12.5023C26.8128 12.8129 26.6744 13.0494 26.4448 13.2516C26.3647 13.3221 26.2921 13.4546 26.2921 13.5596C26.2828 15.3308 26.2836 17.1021 26.2904 18.8725C26.2904 18.9749 26.3385 19.1048 26.4094 19.1736C26.6356 19.3956 26.7664 19.6545 26.7546 19.9719C26.7478 20.1552 26.812 20.2532 26.9867 20.2868C27.0475 20.2988 27.1082 20.3246 27.1631 20.3547C27.4762 20.5234 27.7725 20.6662 28.0603 20.2859C28.1379 20.1836 28.3219 20.1646 28.4992 20.0898C28.4992 20.0149 28.4992 19.9109 28.4992 19.8068C28.4992 16.4578 28.4975 13.1088 28.5034 9.75979C28.5034 9.54559 28.4477 9.41569 28.2612 9.29353C24.393 6.75749 20.5291 4.21542 16.6694 1.66648C16.4609 1.52883 16.32 1.52883 16.1098 1.66131C12.0636 4.21026 8.01398 6.75319 3.95846 9.28579C3.73564 9.42515 3.67656 9.57656 3.67656 9.82431C3.68331 12.9161 3.68162 16.007 3.68078 19.0988C3.68078 19.6184 3.54996 19.824 3.21994 19.8291C2.88149 19.8343 2.73294 19.608 2.73294 19.085C2.73294 15.8866 2.73801 12.6873 2.72619 9.48881C2.7245 9.08793 2.8528 8.84018 3.19209 8.62855C7.46705 5.96691 11.7319 3.28892 15.9933 0.606636C16.2828 0.424261 16.5158 0.42082 16.8028 0.610077C20.8929 3.30871 24.9881 6.00132 29.0849 8.68963C29.3559 8.86685 29.4538 9.08793 29.4529 9.41053C29.4453 13.0279 29.4504 16.6453 29.4436 20.2627C29.4436 20.4829 29.4926 20.6464 29.6555 20.7978C29.9425 21.0662 30.2142 21.3518 30.486 21.6365C30.9375 22.1097 30.9409 22.6508 30.524 23.1609C30.4581 23.2409 30.4666 23.3932 30.4615 23.5128C30.459 23.5704 30.5147 23.628 30.5324 23.6891C30.6362 24.0513 30.7662 24.3076 31.2389 24.3111C31.6575 24.3145 31.9782 24.7705 31.9884 25.2152C32.0035 25.8484 32.0044 26.4815 31.99 27.1147C31.9774 27.6566 31.5798 28.0635 31.0397 28.0756C30.8059 28.0807 30.6919 28.1599 30.6455 28.381C30.6303 28.4532 30.6042 28.5281 30.5645 28.59C30.3864 28.8722 30.394 29.0924 30.6379 29.3685C30.9561 29.7299 30.9004 30.2658 30.5603 30.6314C30.14 31.083 29.7095 31.5252 29.263 31.9502C28.8655 32.3287 28.2882 32.3227 27.8932 31.933C27.7294 31.7712 27.602 31.7652 27.4315 31.8753C27.3876 31.9037 27.3378 31.927 27.2872 31.9399C26.9361 32.0302 26.7301 32.1885 26.7166 32.6246C26.7039 33.0487 26.3427 33.2655 25.9764 33.4169H23.7642L23.7651 33.4186ZM8.977 29.0244C8.977 28.8842 8.977 28.7681 8.977 28.6519C8.977 26.9349 8.97447 25.2169 8.97869 23.4999C8.97953 22.9226 9.2952 22.6043 9.85985 22.6009C10.6186 22.5966 11.3766 22.6009 12.1353 22.5992C12.2358 22.5992 12.337 22.5897 12.4518 22.5837C12.4518 22.4349 12.4518 22.3179 12.4518 22.2009C12.4518 20.5053 12.451 18.8089 12.4518 17.1133C12.4518 16.4733 12.7531 16.1627 13.3777 16.1618C15.3899 16.1601 17.4012 16.1601 19.4133 16.1618C20.037 16.1618 20.3443 16.475 20.3459 17.1098C20.3485 18.1404 20.3459 19.171 20.3476 20.2008C20.3476 20.2894 20.3595 20.3788 20.367 20.4846C21.022 19.996 21.3284 20.0055 21.9656 20.5036C22.0095 20.538 22.0838 20.5801 22.1235 20.5647C22.3885 20.4631 22.6518 20.3522 22.9084 20.2292C22.9557 20.2068 22.9894 20.1147 22.997 20.0511C23.0882 19.2269 23.4106 18.931 24.2284 18.9302C24.5922 18.9302 24.956 18.9302 25.3155 18.9302V13.4348C25.167 13.4348 25.0412 13.4348 24.9155 13.4348C22.472 13.4348 20.0278 13.4348 17.5843 13.4348C17.1902 13.4348 16.9631 13.255 16.9589 12.9539C16.9547 12.6503 17.1767 12.4748 17.5733 12.4696C17.6577 12.4688 17.7421 12.4696 17.8265 12.4696C20.3755 12.4696 22.9244 12.4696 25.4734 12.4696H25.8447V11.2652H6.33184V12.4696H6.72009C9.41674 12.4696 12.1134 12.4696 14.8092 12.4696C14.9459 12.4696 15.0835 12.4653 15.2202 12.4731C15.5207 12.4911 15.7106 12.6804 15.7097 12.9505C15.7089 13.2043 15.5241 13.4004 15.2481 13.4305C15.1443 13.4417 15.0379 13.4357 14.9324 13.4357C12.3725 13.4357 9.81343 13.4357 7.25351 13.4357H6.8678V29.0244H8.97785H8.977ZM31.0312 25.2333C30.8447 25.2333 30.6978 25.2341 30.551 25.2333C30.1349 25.2298 30.0277 25.1309 29.8901 24.736C29.7568 24.3532 29.6057 23.9756 29.4335 23.61C29.2504 23.2194 29.2495 23.0775 29.5449 22.785C29.6631 22.668 29.8049 22.5768 29.9002 22.5011C29.4116 21.9944 28.9929 21.5617 28.4899 21.0404C28.403 21.1668 28.3219 21.3217 28.2063 21.4438C27.9261 21.7406 27.7944 21.738 27.4239 21.5617C27.0348 21.3767 26.6364 21.2073 26.2305 21.0645C25.9502 20.9655 25.8135 20.7935 25.8135 20.4993C25.8135 20.31 25.8135 20.1208 25.8135 19.9169H23.9474C23.9474 20.1251 23.9474 20.3152 23.9474 20.5062C23.9474 20.7866 23.8166 20.9569 23.5532 21.0567C23.1118 21.2253 22.6763 21.412 22.2458 21.6099C22.0028 21.7217 21.7943 21.7062 21.6128 21.5118C21.4769 21.3664 21.3588 21.203 21.2752 21.1006C20.7857 21.6013 20.3603 22.0366 19.8927 22.5149C19.994 22.6017 20.1349 22.7144 20.2658 22.8383C20.4692 23.0293 20.4953 23.2444 20.3789 23.5067C20.1839 23.9437 20.0075 24.3902 19.837 24.8393C19.7425 25.0888 19.5846 25.2281 19.3213 25.2324C19.1247 25.2359 18.928 25.2324 18.7237 25.2324V27.1224C18.9305 27.1224 19.1179 27.1215 19.3044 27.1224C19.5813 27.1241 19.7442 27.2652 19.8421 27.531C20.0041 27.9706 20.1763 28.4085 20.3713 28.8335C20.497 29.1087 20.4633 29.3247 20.2565 29.5311C20.1248 29.6628 19.9999 29.803 19.9172 29.8924C20.3628 30.3518 20.7823 30.7837 21.2701 31.2861C21.347 31.1785 21.4271 31.0349 21.536 30.9213C21.8323 30.6116 21.9538 30.6133 22.3454 30.8009C22.7151 30.9781 23.0924 31.1484 23.4806 31.2749C23.8014 31.3798 23.9583 31.5605 23.9465 31.9011C23.9406 32.0784 23.9457 32.2556 23.9457 32.4293H25.811C25.811 32.2478 25.8093 32.0887 25.811 31.9287C25.8169 31.5132 25.9055 31.416 26.2803 31.2757C26.6837 31.1252 27.0829 30.9574 27.4686 30.7656C27.7472 30.6271 27.9683 30.6521 28.181 30.8749C28.3093 31.0091 28.4468 31.1338 28.5431 31.2258C28.9938 30.7665 29.4149 30.3381 29.8791 29.8658C29.7627 29.7617 29.6183 29.6378 29.4799 29.507C29.2731 29.3109 29.2698 29.0907 29.3829 28.8352C29.5719 28.4068 29.7492 27.9715 29.9112 27.5319C30.0142 27.2523 30.1906 27.1164 30.4801 27.1215C30.6632 27.125 30.8472 27.1215 31.0295 27.1215V25.2324L31.0312 25.2333ZM11.6289 23.5928H9.951V29.0184H15.9005V23.585H14.2201C14.2201 24.1588 14.2243 24.7137 14.2184 25.2694C14.215 25.6471 14.0462 25.82 13.6773 25.8251C13.2039 25.8312 12.7304 25.8286 12.256 25.8269C11.7817 25.8251 11.6298 25.6729 11.6281 25.1971C11.6264 24.6715 11.6281 24.1468 11.6281 23.5945L11.6289 23.5928ZM17.6949 17.1382C17.6949 17.6948 17.6957 18.2187 17.6949 18.7426C17.6932 19.2373 17.5438 19.387 17.0501 19.3887C16.6078 19.3904 16.1664 19.3904 15.7241 19.3887C15.2514 19.3861 15.1046 19.2364 15.1029 18.7547C15.1012 18.2222 15.1029 17.6897 15.1029 17.1537H13.4157V22.5863H18.9339C18.8925 22.1871 19.031 21.8705 19.3002 21.5935C19.3736 21.5178 19.3939 21.363 19.3947 21.2434C19.4015 19.978 19.399 18.7125 19.3981 17.4471C19.3981 17.3456 19.3897 17.2432 19.3846 17.1391H17.6949V17.1382ZM19.2504 23.5893H16.888V29.0382H19.3745C19.2673 28.7707 19.1652 28.5487 19.09 28.3173C19.036 28.153 18.9601 28.0876 18.7794 28.0807C18.1321 28.0549 17.7616 27.6489 17.7582 26.9882C17.7548 26.4411 17.754 25.894 17.7582 25.3468C17.7632 24.6956 18.1481 24.2896 18.7955 24.2715C18.9618 24.2672 19.0419 24.213 19.085 24.0556C19.1272 23.9033 19.1905 23.7571 19.2513 23.5885L19.2504 23.5893ZM16.0676 18.4002H16.7234V17.1443H16.0676V18.4002ZM13.2494 24.8453V23.5816H12.5945V24.8453H13.2494Z" fill="#3F3F3F" stroke="#3F3F3F" stroke-width="0.5"/>
<path d="M16.3678 5.32684C16.6522 5.32684 16.9367 5.31908 17.2203 5.32942C17.5072 5.33976 17.6862 5.51811 17.698 5.78002C17.7098 6.04453 17.5435 6.27026 17.2675 6.27974C16.6793 6.30041 16.0884 6.29955 15.5002 6.28318C15.2301 6.27543 15.0435 6.04625 15.0469 5.79639C15.0511 5.53275 15.2512 5.33717 15.5466 5.3277C15.82 5.31908 16.0935 5.32597 16.3678 5.32597V5.32684Z" fill="#3F3F3F" stroke="#3F3F3F" stroke-width="0.5"/>
<path d="M16.3678 7.25896C16.6522 7.25896 16.9367 7.25121 17.2203 7.26155C17.5072 7.27189 17.6862 7.44937 17.698 7.71215C17.7098 7.97666 17.5444 8.20153 17.2675 8.211C16.6793 8.23254 16.0893 8.23168 15.5002 8.21445C15.2284 8.2067 15.0435 7.97752 15.0469 7.72766C15.0511 7.46402 15.2529 7.26844 15.5474 7.25983C15.8209 7.25121 16.0943 7.2581 16.3687 7.2581L16.3678 7.25896Z" fill="#3F3F3F" stroke="#3F3F3F" stroke-width="0.5"/>
<path d="M27.7046 26.1874C27.6979 27.7875 26.4352 29.0581 24.862 29.0495C23.2938 29.0409 22.0446 27.7505 22.0547 26.1504C22.0649 24.5606 23.3385 23.2926 24.9143 23.3038C26.4622 23.3141 27.7122 24.6054 27.7046 26.1882V26.1874ZM24.8966 28.0834C25.9322 28.0774 26.7576 27.2317 26.7576 26.1762C26.7576 25.1095 25.9161 24.2621 24.8645 24.269C23.8314 24.2759 23.0034 25.125 23.0034 26.1779C23.0034 27.2438 23.8441 28.0894 24.8974 28.0834H24.8966Z" fill="#3F3F3F" stroke="#3F3F3F" stroke-width="0.5"/>
</svg>
