<svg width="24" height="26" viewBox="0 0 24 26" fill="none" xmlns="http://www.w3.org/2000/svg">
<path d="M11.91 1.87095C10.6895 1.87095 9.64875 2.65054 9.26304 3.7418C9.09087 4.22892 8.55641 4.48425 8.06929 4.31207C7.58218 4.13989 7.32687 3.60544 7.49904 3.11833C8.14069 1.30291 9.87201 0 11.91 0C13.9481 0 15.6793 1.30291 16.321 3.11833C16.4932 3.60544 16.2378 4.13989 15.7508 4.31207C15.2636 4.48425 14.7291 4.22892 14.557 3.7418C14.1713 2.65054 13.1305 1.87095 11.91 1.87095Z" fill="#1A3E59"/>
<path d="M0.367188 5.92491C0.367188 5.40827 0.786017 4.98944 1.30266 4.98944H22.5068C23.0235 4.98944 23.4423 5.40827 23.4423 5.92491C23.4423 6.44156 23.0235 6.86039 22.5068 6.86039H1.30266C0.786017 6.86039 0.367188 6.44156 0.367188 5.92491Z" fill="#1A3E59"/>
<path d="M4.31812 8.9807C4.28376 8.4652 3.838 8.07517 3.3225 8.10953C2.80699 8.14389 2.41695 8.58965 2.45133 9.10516L3.02939 17.776C3.13602 19.376 3.22216 20.6684 3.42418 21.6825C3.63423 22.7369 3.99148 23.6176 4.72938 24.3078C5.46727 24.9982 6.36975 25.2961 7.43575 25.4355C8.46108 25.5696 9.75636 25.5696 11.3599 25.5696H12.456C14.0595 25.5696 15.3547 25.5696 16.3801 25.4355C17.4461 25.2961 18.3486 24.9982 19.0865 24.3078C19.8244 23.6176 20.1816 22.7369 20.3917 21.6825C20.5936 20.6684 20.6798 19.376 20.7865 17.776L21.3646 9.10516C21.3989 8.58965 21.0089 8.14389 20.4933 8.10953C19.9778 8.07517 19.5321 8.4652 19.4977 8.9807L18.924 17.5859C18.812 19.2671 18.732 20.4369 18.5568 21.317C18.3867 22.1707 18.1493 22.6226 17.8083 22.9417C17.4673 23.2606 17.0005 23.4675 16.1374 23.5804C15.2476 23.6968 14.0751 23.6987 12.3903 23.6987H11.4256C9.74077 23.6987 8.56825 23.6968 7.67842 23.5804C6.8153 23.4675 6.34861 23.2606 6.00757 22.9417C5.66655 22.6226 5.42915 22.1707 5.25908 21.317C5.08375 20.4369 5.00388 19.2671 4.89181 17.5859L4.31812 8.9807Z" fill="#1A3E59"/>
<path d="M8.69012 11.2302C9.2042 11.1788 9.66256 11.5539 9.71407 12.068L10.3377 18.3045C10.3891 18.8185 10.014 19.277 9.49991 19.3284C8.98585 19.3798 8.52742 19.0048 8.47602 18.4906L7.85237 12.2541C7.80096 11.7401 8.17603 11.2816 8.69012 11.2302Z" fill="#FF6F3C"/>
<path d="M15.9549 12.2542C16.0063 11.7402 15.6312 11.2817 15.1171 11.2303C14.6031 11.1789 14.1446 11.554 14.0932 12.0681L13.4696 18.3046C13.4182 18.8186 13.7932 19.2771 14.3074 19.3285C14.8214 19.3799 15.2798 19.0048 15.3313 18.4907L15.9549 12.2542Z" fill="#FF6F3C"/>
</svg>
