<svg width="33" height="31" viewBox="0 0 33 31" fill="none" xmlns="http://www.w3.org/2000/svg">
<path d="M1 28.5136C1.17551 28.2908 1.41248 28.2476 1.68909 28.2492C3.31313 28.2578 4.93718 28.2539 6.56122 28.2531C7.09583 28.2531 7.19774 28.1534 7.19854 27.6332C7.19935 26.5275 7.19854 25.421 7.19854 24.3153C7.19854 24.2274 7.1945 24.1388 7.2034 24.0517C7.23251 23.7715 7.41206 23.6083 7.67411 23.6185C7.92241 23.6279 8.09387 23.7888 8.10034 24.0603C8.11247 24.579 8.106 25.0977 8.10681 25.6164C8.10681 25.9476 8.10681 26.2779 8.10681 26.602C8.62767 26.6632 9.11941 26.6985 9.60307 26.7825C10.4191 26.9245 11.1357 27.3091 11.8466 27.7014C12.8795 28.2711 13.8993 28.866 14.954 29.3941C16.2117 30.0242 17.5235 30.0219 18.8111 29.4733C20.3785 28.8055 21.9298 28.1032 23.4843 27.4072C25.5871 26.4647 27.6859 25.5144 29.7863 24.5664C30.3711 24.3028 30.8709 23.9551 31.044 23.3062C31.2284 22.6133 30.7763 21.9713 30.0387 21.9407C29.695 21.9266 29.3229 21.9666 29.0043 22.0843C26.277 23.0974 23.5595 24.1341 20.8412 25.1675C20.7538 25.2005 20.6648 25.2648 20.6099 25.3378C19.9434 26.2206 19.1265 26.5047 18.0436 26.1798C17.682 26.0715 17.3221 25.9185 17.0035 25.7223C15.6156 24.8693 14.2423 23.9944 12.8681 23.1202C12.7484 23.0441 12.5964 22.9201 12.5843 22.8055C12.5681 22.6548 12.6336 22.4563 12.7387 22.3433C12.89 22.1793 13.1043 22.224 13.2911 22.3425C13.9414 22.7529 14.5933 23.1626 15.2444 23.573C15.9545 24.0203 16.6597 24.4754 17.3763 24.9125C17.6303 25.0679 17.9012 25.2076 18.1827 25.308C19.1912 25.6682 19.9774 25.1895 20.0607 24.1498C20.1521 23.008 19.8092 21.9737 18.8685 21.2745C17.4604 20.2285 15.982 19.2727 14.2544 18.7602C12.6886 18.2957 11.1446 18.2596 9.61843 18.9133C9.22294 19.0828 8.81369 19.2248 8.40445 19.3613C8.18526 19.4343 8.09306 19.5363 8.10034 19.7796C8.12056 20.5133 8.11247 21.2478 8.10358 21.9815C8.10034 22.2758 7.90462 22.4657 7.64661 22.4602C7.39831 22.4547 7.22443 22.275 7.20259 21.9941C7.19531 21.9062 7.19935 21.8183 7.19935 21.7297C7.19935 20.624 7.19935 19.5175 7.19935 18.4118C7.19935 17.89 7.10392 17.799 6.5596 17.799C4.93556 17.799 3.31151 17.795 1.68747 17.8021C1.41006 17.8037 1.17308 17.7566 1.00081 17.5306V17.1782C1.17712 16.9577 1.41248 16.9075 1.6899 16.9138C2.27465 16.9271 2.8594 16.9177 3.44415 16.9177C4.53278 16.9177 5.62222 16.9114 6.71085 16.9201C7.54956 16.9263 8.07446 17.4254 8.10681 18.2243C8.11086 18.3161 8.11975 18.4079 8.12703 18.5146C8.84281 18.2604 9.51815 18.0061 10.2048 17.7856C10.4021 17.7221 10.4458 17.6404 10.445 17.4592C10.4394 15.8748 10.4418 14.2897 10.4418 12.7053C10.4418 12.6268 10.445 12.5483 10.4418 12.4707C10.4321 12.2698 10.3625 12.1701 10.1369 12.2808C9.97592 12.36 9.79152 12.3985 9.63946 12.4887C9.54969 12.5421 9.45263 12.6566 9.44293 12.7524C9.38227 13.3229 9.05471 13.665 8.47966 13.6823C7.93616 13.6988 7.39023 13.6995 6.84672 13.6823C6.27814 13.6634 5.9239 13.2954 5.90125 12.7414C5.89882 12.6833 5.89478 12.6252 5.89154 12.5617C5.68288 12.4777 5.47259 12.4079 5.27848 12.309C5.11187 12.2243 5.00107 12.2376 4.8563 12.3663C4.47131 12.7092 3.94237 12.7178 3.57033 12.382C3.14976 12.0022 2.74294 11.6075 2.34825 11.2025C2.03444 10.88 1.97701 10.3864 2.2698 10.0765C2.50839 9.82377 2.49787 9.62445 2.33854 9.36863C2.28759 9.28623 2.27546 9.17951 2.22208 9.09947C2.18083 9.03747 2.10157 8.95743 2.03929 8.95822C1.51358 8.96371 1.2022 8.6867 1.00081 8.25039V6.19441C1.21514 5.76673 1.53137 5.49364 2.05547 5.50777C2.10966 5.50934 2.18973 5.43401 2.21722 5.37594C2.32318 5.15543 2.41295 4.92707 2.46957 4.79602C2.32479 4.44525 2.13715 4.16903 2.11693 3.88103C2.10157 3.66288 2.25605 3.39607 2.41133 3.21166C2.6847 2.88757 3.01631 2.60977 3.32284 2.31236C3.96259 1.69321 4.34838 1.67752 5.03908 2.2433C5.27848 2.14992 5.52597 2.06596 5.75971 1.95452C5.82684 1.92235 5.8875 1.81484 5.89397 1.73637C5.95059 1.10467 6.29756 0.785281 6.95348 0.782142C7.45816 0.779788 7.96285 0.775864 8.46672 0.783712C9.02155 0.791559 9.40411 1.13841 9.42513 1.67359C9.43241 1.86585 9.5052 1.94746 9.68233 2.00239C9.891 2.06674 10.09 2.16169 10.2461 2.22526C10.4871 2.09264 10.682 1.93961 10.9044 1.8737C11.2449 1.77247 11.5611 1.87527 11.8183 2.12324C12.1402 2.43399 12.4629 2.74396 12.7832 3.05628C13.3906 3.64954 13.4019 4.04504 12.822 4.68538C12.9183 4.92079 13.0129 5.16484 13.1221 5.4034C13.1447 5.45284 13.2208 5.49835 13.279 5.51012C14.1525 5.68119 14.2908 5.83265 14.332 6.68172C14.3329 6.70056 14.3409 6.7186 14.3579 6.78609C14.4712 6.78609 14.5973 6.78609 14.7227 6.78609C19.1718 6.78609 23.621 6.78609 28.0709 6.78609C29.0601 6.78609 29.7855 7.27105 30.0217 8.10129C30.0799 8.30611 30.1018 8.52583 30.1026 8.73849C30.1091 10.3048 30.1066 11.8711 30.105 13.4374C30.105 13.5434 30.1002 13.6556 30.0678 13.7553C29.9991 13.9687 29.8308 14.0762 29.606 14.0535C29.3844 14.0315 29.2364 13.9028 29.2073 13.6776C29.1951 13.581 29.1984 13.4822 29.1984 13.3841C29.1984 11.8476 29.1984 10.3103 29.1984 8.7738C29.1984 8.03302 28.8271 7.66812 28.0717 7.66734C26.3361 7.66577 24.6012 7.66734 22.8656 7.66734C22.7758 7.66734 22.686 7.66734 22.5501 7.66734V7.99222C22.5501 9.22581 22.5501 10.4594 22.5501 11.6922C22.5501 12.4102 22.2387 12.7171 21.5108 12.7178C20.6632 12.7194 19.8156 12.7202 18.968 12.7178C18.3266 12.7155 18.0015 12.4016 17.9999 11.777C17.9959 10.5237 17.9991 9.27132 17.9983 8.01811C17.9983 7.91296 17.9983 7.80781 17.9983 7.6846H14.3288C14.3288 7.7976 14.332 7.9106 14.3288 8.02282C14.3118 8.53525 13.9487 8.92212 13.4238 8.94017C13.2135 8.94723 13.1059 9.00687 13.0639 9.19913C13.0534 9.24621 13.0356 9.29486 13.0097 9.33567C12.8366 9.6064 12.8107 9.82691 13.0784 10.0953C13.338 10.3558 13.3178 10.8259 13.0606 11.1021C12.6215 11.5729 12.1435 12.01 11.6736 12.4526C11.5911 12.5303 11.4657 12.5664 11.3622 12.6205V17.5023C11.9858 17.5416 12.6004 17.5439 13.2038 17.6263C14.6216 17.8201 15.9181 18.3514 17.1321 19.0734C17.7678 19.4516 18.393 19.8479 19.0085 20.2567C20.3211 21.1278 20.9617 22.3519 20.9884 23.8869C20.99 23.9646 20.9884 24.0415 20.9884 24.1607C23.7318 23.1241 26.4501 22.0977 29.1911 21.0618C29.1911 20.7927 29.1927 20.5 29.1911 20.2073C29.1822 18.7877 29.1717 17.3681 29.1652 15.9494C29.1652 15.8246 29.1482 15.659 29.2194 15.5829C29.3342 15.4597 29.5251 15.3145 29.6666 15.3294C29.809 15.3443 29.9489 15.5303 30.0532 15.6676C30.1026 15.732 30.0702 15.8575 30.071 15.9556C30.0816 17.5416 30.0921 19.1275 30.1026 20.7126C30.1026 20.81 30.1026 20.9073 30.1026 21.0195C30.1802 21.0383 30.2449 21.0556 30.3096 21.0697C31.7719 21.382 32.4351 22.8314 31.6967 24.1035C31.3562 24.6904 30.8289 25.0694 30.211 25.3472C28.4656 26.1335 26.7219 26.9214 24.9773 27.7085C23.2691 28.4791 21.5634 29.2544 19.8512 30.0164C19.0149 30.3883 18.1528 30.6873 17.2218 30.7477C16.0726 30.8223 15.0292 30.4723 14.0441 29.9528C12.9466 29.3745 11.875 28.7498 10.7904 28.1479C9.97268 27.6951 9.08868 27.5084 8.12218 27.5319C8.11571 27.6528 8.11086 27.7673 8.10439 27.8819C8.06475 28.5811 7.58434 29.0684 6.8629 29.1249C6.60247 29.1453 6.3388 29.1367 6.07676 29.1367C4.61366 29.1375 3.15056 29.1328 1.68828 29.1406C1.41086 29.1422 1.17389 29.0935 1.00081 28.8691V28.5168L1 28.5136ZM3.01711 10.523C3.44092 10.9428 3.82752 11.325 4.26912 11.7628C4.33867 11.6757 4.40904 11.5674 4.49962 11.478C4.81181 11.1696 4.93071 11.1664 5.32297 11.3446C5.67722 11.5054 6.0436 11.6443 6.41321 11.7707C6.67849 11.8617 6.81114 12.0194 6.80709 12.291C6.80466 12.4534 6.80709 12.6158 6.80709 12.7838H8.52576C8.52576 12.637 8.52495 12.5115 8.52576 12.3859C8.529 11.9724 8.60907 11.8876 9.00214 11.7503C9.36124 11.6247 9.71549 11.4827 10.0568 11.3179C10.3431 11.1798 10.5728 11.197 10.7879 11.4293C10.8923 11.5415 11.0104 11.642 11.0945 11.7212C11.5158 11.3132 11.9057 10.9342 12.319 10.5332C12.226 10.45 12.1168 10.3495 12.0044 10.2522C11.7666 10.0466 11.7383 9.82848 11.8871 9.54598C12.065 9.20854 12.213 8.85306 12.3392 8.49366C12.4411 8.20252 12.6045 8.04558 12.9312 8.06598C13.0873 8.07618 13.2442 8.06755 13.3979 8.06755V6.39373C13.2369 6.39373 13.097 6.3953 12.9579 6.39373C12.5632 6.38745 12.4718 6.30819 12.34 5.96134C12.2009 5.59566 12.0488 5.23312 11.8725 4.88313C11.7472 4.63437 11.7633 4.43191 11.9704 4.24907C12.0966 4.13764 12.2357 4.04033 12.3351 3.96264C11.8887 3.52398 11.4964 3.13789 11.054 2.70315C10.9812 2.7934 10.9044 2.91032 10.8057 3.00684C10.5146 3.29405 10.3973 3.29719 10.0325 3.12848C9.6977 2.97389 9.35234 2.83499 9.00295 2.71493C8.61473 2.58152 8.529 2.48735 8.52576 2.07616C8.52495 1.94432 8.52576 1.81249 8.52576 1.68144H6.80709C6.80709 1.8376 6.8079 1.97257 6.80709 2.10833C6.80305 2.47558 6.71004 2.58074 6.35579 2.70551C5.9975 2.83185 5.64244 2.97232 5.29709 3.12926C4.92747 3.29719 4.82314 3.2917 4.52389 3.00527C4.41955 2.90561 4.31522 2.80595 4.23191 2.7267C3.81215 3.13632 3.42232 3.51613 2.99851 3.9289C3.1166 4.0317 3.25571 4.1447 3.3843 4.2679C3.56466 4.44054 3.5768 4.6328 3.47165 4.85723C3.28887 5.24724 3.1174 5.64353 2.9605 6.04374C2.87396 6.26425 2.73242 6.38353 2.49221 6.38823C2.30376 6.39216 2.11532 6.38902 1.92606 6.38902V8.0652C2.08297 8.0652 2.22208 8.0652 2.36119 8.0652C2.76882 8.06755 2.87153 8.14445 2.99366 8.51327C3.06402 8.72672 3.11498 8.95822 3.2363 9.14184C3.59863 9.6888 3.6787 10.173 3.01631 10.5198L3.01711 10.523ZM21.6411 7.6846H18.9292V11.8123H21.6411V7.6846Z" fill="#3F3F3F" stroke="#3F3F3F" stroke-width="0.5"/>
<path d="M25.5084 20.2865C25.0846 20.2865 24.6608 20.2904 24.2378 20.2857C23.9078 20.2817 23.7064 20.1129 23.7032 19.849C23.6999 19.5867 23.9029 19.4077 24.2281 19.4069C25.0854 19.4029 25.9427 19.4029 26.8 19.4069C27.1235 19.4084 27.3298 19.5922 27.3225 19.8537C27.316 20.1027 27.1138 20.2802 26.8097 20.2849C26.3762 20.2912 25.9427 20.2865 25.5084 20.2865Z" fill="#3F3F3F" stroke="#3F3F3F" stroke-width="0.5"/>
<path d="M25.4869 18.509C25.0736 18.509 24.6603 18.5145 24.247 18.5075C23.8976 18.502 23.693 18.3229 23.7035 18.0496C23.7132 17.7865 23.9065 17.631 24.2503 17.6295C25.0971 17.6255 25.9439 17.6248 26.7898 17.6295C27.1174 17.631 27.3228 17.8085 27.322 18.0661C27.3204 18.3221 27.1134 18.5012 26.7874 18.5067C26.3539 18.5138 25.9204 18.5083 25.4869 18.5083V18.509Z" fill="#3F3F3F" stroke="#3F3F3F" stroke-width="0.5"/>
<path d="M7.64691 10.5404C5.77214 10.5364 4.24838 9.05016 4.25 7.22802C4.25162 5.39725 5.80449 3.89764 7.68168 3.91569C9.5605 3.93295 11.0891 5.42236 11.0875 7.23273C11.0859 9.05722 9.53866 10.5443 7.64691 10.5404ZM5.15827 7.22567C5.15503 8.5652 6.27197 9.6544 7.65338 9.65832C9.04692 9.66225 10.1905 8.55814 10.1792 7.21939C10.1679 5.88535 9.03559 4.79537 7.66227 4.79694C6.28491 4.79851 5.1615 5.88849 5.15908 7.22567H5.15827Z" fill="#3F3F3F" stroke="#3F3F3F" stroke-width="0.5"/>
</svg>
