<svg width="33" height="33" viewBox="0 0 33 33" fill="none" xmlns="http://www.w3.org/2000/svg">
<path d="M32.0005 16.5139C32.0005 20.7235 32.0005 24.9331 32.0005 29.1358C32.0005 30.502 31.1586 31.5978 29.868 31.9029C29.5989 31.9653 29.3159 31.9861 29.033 31.9861C22.5666 31.9861 16.1002 31.9861 9.62694 31.9861C7.83954 31.9861 6.67324 30.8141 6.67324 29.0179C6.67324 25.1481 6.67324 21.2714 6.67324 17.4016C6.67324 17.138 6.60423 17.0409 6.34198 16.9785C3.05703 16.2087 0.855564 13.2544 1.00739 9.86309C1.14541 6.8047 3.40899 4.12081 6.4179 3.46197C6.62493 3.42036 6.72155 3.35794 6.76986 3.12908C7.039 1.97092 7.97756 1.15951 9.15076 1.02774C9.32329 1.00694 9.49581 1 9.66834 1C16.114 1 22.5597 1 29.0054 1C30.3856 1 31.4277 1.66577 31.8211 2.84474C31.9453 3.20537 31.9936 3.60761 31.9936 3.98904C32.0074 8.16398 32.0005 12.3389 32.0005 16.5139ZM7.80503 3.28166C11.5455 3.15682 14.996 6.38166 14.8166 10.5497C14.6579 14.2322 11.5869 17.2559 7.71531 17.2004C7.71531 17.3045 7.71531 17.4154 7.71531 17.5195C7.71531 21.3615 7.71531 25.1966 7.71531 29.0387C7.71531 30.2523 8.41233 30.9597 9.61313 30.9597C16.1002 30.9597 22.5942 30.9597 29.0813 30.9597C30.2614 30.9597 30.9722 30.2385 30.9722 29.0595C30.9722 20.6888 30.9722 12.3181 30.9722 3.94049C30.9722 3.78792 30.9722 3.63535 30.9446 3.48971C30.779 2.60201 30.082 2.04027 29.1089 2.04027C22.6218 2.04027 16.1278 2.04027 9.64074 2.04027C9.46131 2.04027 9.27498 2.05414 9.09555 2.08881C8.46064 2.23445 8.03277 2.61588 7.80503 3.27472V3.28166ZM11.4281 14.9257C11.2763 14.7593 11.1452 14.6067 11.0072 14.4541C9.90298 13.2266 8.8057 11.9991 7.69461 10.7716C7.48758 10.5427 7.39096 10.3 7.39096 9.98792C7.39786 8.24027 7.39096 6.48568 7.39096 4.73803V4.38434C5.46554 4.4745 3.07774 5.88926 2.2841 8.53848C1.52498 11.0559 2.51874 13.7676 4.72021 15.2031C6.88718 16.6179 9.64074 16.3613 11.4212 14.9327L11.4281 14.9257ZM13.7262 9.70358C13.6641 7.2 11.3453 4.51611 8.46064 4.39128V9.70358H13.7262ZM9.10245 10.7785C10.1721 11.9714 11.1866 13.1018 12.2149 14.2461C13.112 13.2405 13.6365 12.117 13.7538 10.7785H9.10245Z" fill="#3F3F3F" stroke="#3F3F3F" stroke-width="0.5"/>
<path d="M23.3861 28.782C22.551 29.3299 20.2668 29.3368 19.3972 28.8028C18.4725 29.3299 16.271 29.3299 15.3876 28.7889C15.0012 29.1496 14.5181 29.1912 14.0143 29.1773C13.4967 29.1634 12.9791 29.1773 12.4685 29.1773C11.6265 29.1634 10.9571 28.5878 10.9295 27.7417C10.8881 26.4449 10.8881 25.148 10.9295 23.8511C10.9571 23.005 11.6196 22.4225 12.4616 22.4086C13.2552 22.4017 14.0488 22.4086 14.8908 22.4086C14.8908 22.0619 14.8908 21.6596 14.8908 21.2505C14.8908 20.0368 15.4843 19.4335 16.692 19.4335C17.2302 19.4335 17.7685 19.4335 18.3068 19.4335C19.2454 19.4335 19.901 20.0992 19.9217 21.0493C19.9217 21.514 19.9217 21.9786 19.9217 22.4294H22.8685C22.8685 22.3254 22.8685 22.2144 22.8685 22.0965C22.8685 21.1672 22.8685 20.2379 22.8685 19.3086C22.8754 18.2476 23.5103 17.6165 24.5593 17.6165C25.139 17.6165 25.7187 17.6165 26.3053 17.6165C27.2093 17.6234 27.8787 18.2822 27.8787 19.1977C27.8787 21.9995 27.8787 24.8012 27.8787 27.603C27.8787 28.5185 27.2231 29.1704 26.3122 29.1842C25.7532 29.1912 25.1942 29.1773 24.6352 29.1842C24.1797 29.1981 23.7587 29.108 23.3999 28.7959L23.3861 28.782ZM26.8436 23.4003C26.8436 22.0272 26.8436 20.654 26.8436 19.2809C26.8436 18.8301 26.6641 18.6429 26.2225 18.6429C25.6497 18.6429 25.0838 18.6429 24.511 18.6429C24.09 18.6429 23.9106 18.8232 23.8968 19.2601C23.8968 19.6068 23.8968 19.9536 23.8968 20.3003C23.8968 22.686 23.8968 25.0786 23.8968 27.4643C23.8968 27.9637 24.0624 28.1301 24.5524 28.1301C25.0907 28.1301 25.629 28.1301 26.1672 28.1301C26.6848 28.1301 26.8436 27.9706 26.8436 27.4574C26.8436 26.105 26.8436 24.7527 26.8436 23.4073V23.4003ZM18.8865 24.3088C18.8865 23.2408 18.8865 22.1659 18.8865 21.0979C18.8865 20.654 18.6933 20.4668 18.2585 20.4668C17.6857 20.4668 17.1198 20.4668 16.547 20.4668C16.1261 20.4668 15.9328 20.661 15.9328 21.084C15.9328 23.2339 15.9328 25.3838 15.9328 27.5406C15.9328 27.9498 16.1261 28.1301 16.5332 28.137C17.0922 28.137 17.6512 28.137 18.2102 28.137C18.7209 28.137 18.8865 27.9706 18.8865 27.4574C18.8865 26.4102 18.8865 25.363 18.8865 24.3088ZM19.9217 25.7652C19.9217 26.3616 19.9217 26.9511 19.9217 27.5476C19.9217 27.9359 20.108 28.1232 20.4945 28.1301C21.088 28.1301 21.6746 28.1301 22.2681 28.1301C22.6753 28.1301 22.8616 27.9498 22.8616 27.5337C22.8685 26.3686 22.8685 25.1965 22.8616 24.0314C22.8616 23.6153 22.6684 23.435 22.2681 23.435C21.6884 23.435 21.1087 23.435 20.529 23.435C20.1011 23.435 19.9217 23.6153 19.9217 24.0453C19.9217 24.6209 19.9217 25.1896 19.9217 25.7652ZM14.8977 25.7999C14.8977 25.2173 14.8977 24.6348 14.8977 24.0523C14.8977 23.6223 14.7182 23.442 14.2904 23.442C13.7176 23.442 13.1517 23.442 12.5789 23.442C12.1441 23.442 11.9578 23.6084 11.9578 24.0384C11.9509 25.2035 11.9509 26.3755 11.9578 27.5406C11.9578 27.9567 12.1441 28.1301 12.5513 28.137C13.131 28.137 13.7107 28.137 14.2904 28.137C14.7182 28.137 14.8908 27.9567 14.8977 27.5198C14.8977 26.9442 14.8977 26.3755 14.8977 25.7999Z" fill="#3F3F3F" stroke="#3F3F3F" stroke-width="0.5"/>
<path d="M21.4362 17.9771C21.2568 17.9146 21.1326 17.8869 21.0153 17.8314C20.0491 17.4361 19.0829 17.0408 18.1237 16.6316C17.9029 16.5346 17.7441 16.5484 17.5509 16.7149C16.3363 17.7551 15.1148 18.7746 13.8864 19.7941C13.7691 19.8912 13.6172 19.9813 13.4654 20.0091C13.2308 20.0507 13.0444 19.9328 12.9547 19.7108C12.8512 19.4612 12.934 19.2462 13.1411 19.0797C13.9416 18.407 14.7421 17.7343 15.5427 17.0616C16.1155 16.5831 16.6882 16.1115 17.2472 15.6261C17.5026 15.4041 17.751 15.3556 18.0685 15.4943C19.0277 15.9035 20.0008 16.2849 20.9601 16.6941C21.1878 16.7912 21.3258 16.7842 21.5122 16.597C22.5473 15.5567 23.6032 14.5372 24.6591 13.5178C24.7488 13.4276 24.8523 13.2889 24.9558 13.282C25.1491 13.282 25.3906 13.2959 25.5355 13.4068C25.7357 13.5525 25.7219 13.8091 25.5907 14.024C25.5493 14.0934 25.4803 14.1558 25.4182 14.2182C24.2312 15.3833 23.0442 16.5415 21.8503 17.6997C21.7261 17.8176 21.5605 17.8938 21.4362 17.9771Z" fill="#3F3F3F" stroke="#3F3F3F" stroke-width="0.5"/>
<path d="M23.4143 6.10425C25.043 6.10425 26.6647 6.10425 28.2865 6.11118C28.4728 6.11118 28.7006 6.18747 28.8248 6.31924C29.087 6.58971 28.9076 7.03355 28.528 7.12371C28.4176 7.15145 28.2934 7.14452 28.1761 7.14452C25.0085 7.14452 21.8477 7.14452 18.6801 7.14452C18.6042 7.14452 18.5283 7.14452 18.4524 7.14452C18.1211 7.11678 17.9141 6.90872 17.9141 6.61051C17.9141 6.3123 18.128 6.11118 18.4662 6.10425C19.6739 6.10425 20.8747 6.10425 22.0824 6.10425C22.524 6.10425 22.9657 6.10425 23.4074 6.10425H23.4143Z" fill="#3F3F3F" stroke="#3F3F3F" stroke-width="0.5"/>
<path d="M25.0714 10.7507C24.05 10.7507 23.0287 10.7507 22.0073 10.7507C21.89 10.7507 21.7658 10.7507 21.6553 10.7299C21.3862 10.6814 21.2344 10.4941 21.2344 10.2306C21.2344 9.96705 21.3793 9.7798 21.6484 9.73125C21.752 9.71045 21.8624 9.71045 21.9728 9.71045C24.05 9.71045 26.1273 9.71045 28.2045 9.71045C28.2805 9.71045 28.3564 9.71045 28.4323 9.71045C28.7428 9.73819 28.9499 9.94624 28.9499 10.2236C28.9499 10.5011 28.7497 10.723 28.4323 10.7368C27.9492 10.7507 27.4661 10.7438 26.983 10.7438C26.3481 10.7438 25.7132 10.7438 25.0783 10.7438L25.0714 10.7507Z" fill="#3F3F3F" stroke="#3F3F3F" stroke-width="0.5"/>
</svg>
