<svg width="33" height="33" viewBox="0 0 33 33" fill="none" xmlns="http://www.w3.org/2000/svg">
<path d="M32.0005 16.503C32.0005 20.7097 32.0005 24.9164 32.0005 29.1161C32.0005 30.4813 31.1586 31.5763 29.868 31.8813C29.5989 31.9436 29.3159 31.9644 29.033 31.9644C22.5666 31.9644 16.1002 31.9644 9.62694 31.9644C7.83954 31.9644 6.67324 30.7932 6.67324 28.9983C6.67324 25.1312 6.67324 21.2572 6.67324 17.3901C6.67324 17.1268 6.60423 17.0297 6.34198 16.9674C3.05703 16.1981 0.855564 13.2458 1.00739 9.85694C1.14541 6.8007 3.40899 4.1187 6.4179 3.46033C6.62493 3.41875 6.72155 3.35637 6.76986 3.12768C7.039 1.97033 7.97756 1.15949 9.15076 1.02781C9.32329 1.00702 9.49581 1.00009 9.66834 1.00009C16.114 1.00009 22.5597 1.00009 29.0054 1.00009C30.3856 1.00009 31.4277 1.66539 31.8211 2.84354C31.9453 3.20391 31.9936 3.60586 31.9936 3.98703C32.0074 8.15903 32.0005 12.331 32.0005 16.503ZM7.80503 3.28014C11.5455 3.1554 14.996 6.37796 14.8166 10.543C14.6579 14.223 11.5869 17.2446 7.71531 17.1891C7.71531 17.2931 7.71531 17.404 7.71531 17.5079C7.71531 21.3473 7.71531 25.1797 7.71531 29.0191C7.71531 30.2319 8.41233 30.9387 9.61313 30.9387C16.1002 30.9387 22.5942 30.9387 29.0813 30.9387C30.2614 30.9387 30.9722 30.218 30.9722 29.0399C30.9722 20.675 30.9722 12.3102 30.9722 3.93851C30.9722 3.78605 30.9722 3.63358 30.9446 3.48805C30.779 2.60098 30.082 2.03963 29.1089 2.03963C22.6218 2.03963 16.1278 2.03963 9.64074 2.03963C9.46131 2.03963 9.27498 2.05349 9.09555 2.08814C8.46064 2.23367 8.03277 2.61484 7.80503 3.27321V3.28014ZM11.4281 14.916C11.2763 14.7497 11.1452 14.5972 11.0072 14.4448C9.90298 13.2181 8.8057 11.9915 7.69461 10.7648C7.48758 10.5361 7.39096 10.2935 7.39096 9.98169C7.39786 8.23526 7.39096 6.48191 7.39096 4.73549V4.38205C5.46554 4.47214 3.07774 5.88591 2.2841 8.53326C1.52498 11.0489 2.51874 13.7587 4.72021 15.1932C6.88718 16.607 9.64074 16.3506 11.4212 14.9229L11.4281 14.916ZM13.7262 9.69755C13.6641 7.19573 11.3453 4.51372 8.46064 4.38898V9.69755H13.7262ZM9.10245 10.7717C10.1721 11.9637 11.1866 13.0934 12.2149 14.2369C13.112 13.232 13.6365 12.1093 13.7538 10.7717H9.10245Z" fill="#3F3F3F" stroke="#3F3F3F" stroke-width="0.5"/>
<path d="M23.3861 28.7626C22.551 29.31 20.2668 29.317 19.3972 28.7833C18.4725 29.31 16.271 29.31 15.3876 28.7695C15.0012 29.1299 14.5181 29.1714 14.0143 29.1576C13.4967 29.1437 12.9791 29.1576 12.4685 29.1576C11.6265 29.1437 10.9571 28.5685 10.9295 27.723C10.8881 26.4271 10.8881 25.1311 10.9295 23.8351C10.9571 22.9897 11.6196 22.4075 12.4616 22.3937C13.2552 22.3867 14.0488 22.3937 14.8908 22.3937C14.8908 22.0471 14.8908 21.6452 14.8908 21.2363C14.8908 20.0235 15.4843 19.4206 16.692 19.4206C17.2302 19.4206 17.7685 19.4206 18.3068 19.4206C19.2454 19.4206 19.901 20.0859 19.9217 21.0353C19.9217 21.4997 19.9217 21.964 19.9217 22.4144H22.8685C22.8685 22.3105 22.8685 22.1996 22.8685 22.0818C22.8685 21.1531 22.8685 20.2245 22.8685 19.2958C22.8754 18.2355 23.5103 17.6049 24.5593 17.6049C25.139 17.6049 25.7187 17.6049 26.3053 17.6049C27.2093 17.6118 27.8787 18.2702 27.8787 19.185C27.8787 21.9848 27.8787 24.7846 27.8787 27.5844C27.8787 28.4992 27.2231 29.1506 26.3122 29.1645C25.7532 29.1714 25.1942 29.1576 24.6352 29.1645C24.1797 29.1784 23.7587 29.0883 23.3999 28.7764L23.3861 28.7626ZM26.8436 23.3847C26.8436 22.0125 26.8436 20.6403 26.8436 19.2681C26.8436 18.8177 26.6641 18.6305 26.2225 18.6305C25.6497 18.6305 25.0838 18.6305 24.511 18.6305C24.09 18.6305 23.9106 18.8107 23.8968 19.2473C23.8968 19.5938 23.8968 19.9404 23.8968 20.2869C23.8968 22.6709 23.8968 25.0618 23.8968 27.4458C23.8968 27.9448 24.0624 28.1111 24.5524 28.1111C25.0907 28.1111 25.629 28.1111 26.1672 28.1111C26.6848 28.1111 26.8436 27.9517 26.8436 27.4389C26.8436 26.0875 26.8436 24.7361 26.8436 23.3916V23.3847ZM18.8865 24.2925C18.8865 23.2253 18.8865 22.1511 18.8865 21.0838C18.8865 20.6403 18.6933 20.4532 18.2585 20.4532C17.6857 20.4532 17.1198 20.4532 16.547 20.4532C16.1261 20.4532 15.9328 20.6472 15.9328 21.07C15.9328 23.2184 15.9328 25.3667 15.9328 27.522C15.9328 27.9309 16.1261 28.1111 16.5332 28.118C17.0922 28.118 17.6512 28.118 18.2102 28.118C18.7209 28.118 18.8865 27.9517 18.8865 27.4389C18.8865 26.3924 18.8865 25.3459 18.8865 24.2925ZM19.9217 25.7479C19.9217 26.3439 19.9217 26.933 19.9217 27.529C19.9217 27.9171 20.108 28.1042 20.4945 28.1111C21.088 28.1111 21.6746 28.1111 22.2681 28.1111C22.6753 28.1111 22.8616 27.9309 22.8616 27.5151C22.8685 26.3508 22.8685 25.1796 22.8616 24.0153C22.8616 23.5995 22.6684 23.4193 22.2681 23.4193C21.6884 23.4193 21.1087 23.4193 20.529 23.4193C20.1011 23.4193 19.9217 23.5995 19.9217 24.0292C19.9217 24.6044 19.9217 25.1727 19.9217 25.7479ZM14.8977 25.7825C14.8977 25.2004 14.8977 24.6183 14.8977 24.0361C14.8977 23.6065 14.7182 23.4263 14.2904 23.4263C13.7176 23.4263 13.1517 23.4263 12.5789 23.4263C12.1441 23.4263 11.9578 23.5926 11.9578 24.0223C11.9509 25.1865 11.9509 26.3578 11.9578 27.522C11.9578 27.9379 12.1441 28.1111 12.5513 28.118C13.131 28.118 13.7107 28.118 14.2904 28.118C14.7182 28.118 14.8908 27.9379 14.8977 27.5012C14.8977 26.926 14.8977 26.3578 14.8977 25.7825Z" fill="#3F3F3F" stroke="#3F3F3F" stroke-width="0.5"/>
<path d="M21.4362 17.9652C21.2568 17.9028 21.1326 17.8751 21.0153 17.8197C20.0491 17.4247 19.0829 17.0296 18.1237 16.6207C17.9029 16.5237 17.7441 16.5376 17.5509 16.7039C16.3363 17.7434 15.1148 18.7622 13.8864 19.7809C13.7691 19.878 13.6172 19.9681 13.4654 19.9958C13.2308 20.0374 13.0444 19.9195 12.9547 19.6978C12.8512 19.4483 12.934 19.2334 13.1411 19.0671C13.9416 18.3949 14.7421 17.7227 15.5427 17.0504C16.1155 16.5722 16.6882 16.101 17.2472 15.6159C17.5026 15.3941 17.751 15.3456 18.0685 15.4842C19.0277 15.8931 20.0008 16.2742 20.9601 16.6831C21.1878 16.7801 21.3258 16.7732 21.5122 16.5861C22.5473 15.5466 23.6032 14.5278 24.6591 13.5091C24.7488 13.419 24.8523 13.2804 24.9558 13.2734C25.1491 13.2734 25.3906 13.2873 25.5355 13.3982C25.7357 13.5437 25.7219 13.8001 25.5907 14.015C25.5493 14.0843 25.4803 14.1466 25.4182 14.209C24.2312 15.3733 23.0442 16.5307 21.8503 17.688C21.7261 17.8058 21.5605 17.882 21.4362 17.9652Z" fill="#3F3F3F" stroke="#3F3F3F" stroke-width="0.5"/>
<path d="M23.4143 6.10074C25.043 6.10074 26.6647 6.10074 28.2865 6.10767C28.4728 6.10767 28.7006 6.18396 28.8248 6.31573C29.087 6.5862 28.9076 7.03004 28.528 7.1202C28.4176 7.14794 28.2934 7.14101 28.1761 7.14101C25.0085 7.14101 21.8477 7.14101 18.6801 7.14101C18.6042 7.14101 18.5283 7.14101 18.4524 7.14101C18.1211 7.11327 17.9141 6.90521 17.9141 6.607C17.9141 6.30879 18.128 6.10767 18.4662 6.10074C19.6739 6.10074 20.8747 6.10074 22.0824 6.10074C22.524 6.10074 22.9657 6.10074 23.4074 6.10074H23.4143Z" fill="#3F3F3F" stroke="#3F3F3F" stroke-width="0.5"/>
<path d="M25.0714 10.7447C24.05 10.7447 23.0287 10.7447 22.0073 10.7447C21.89 10.7447 21.7658 10.7447 21.6553 10.7239C21.3862 10.6753 21.2344 10.4881 21.2344 10.2245C21.2344 9.96101 21.3793 9.77376 21.6484 9.72521C21.752 9.70441 21.8624 9.70441 21.9728 9.70441C24.05 9.70441 26.1273 9.70441 28.2045 9.70441C28.2805 9.70441 28.3564 9.70441 28.4323 9.70441C28.7428 9.73215 28.9499 9.9402 28.9499 10.2176C28.9499 10.495 28.7497 10.7169 28.4323 10.7308C27.9492 10.7447 27.4661 10.7377 26.983 10.7377C26.3481 10.7377 25.7132 10.7377 25.0783 10.7377L25.0714 10.7447Z" fill="#3F3F3F" stroke="#3F3F3F" stroke-width="0.5"/>
</svg>
