<svg width="33" height="33" viewBox="0 0 33 33" fill="none" xmlns="http://www.w3.org/2000/svg">
<path d="M18.2413 29.4365C17.4832 29.7043 16.7727 29.9772 16.0487 30.2077C14.4049 30.7297 12.7611 31.2559 11.1037 31.7322C9.11442 32.3025 7.47487 31.6906 6.14588 30.1543C6.12546 30.1314 6.09908 30.1136 6.01229 30.0382C6.01229 30.2509 6.01229 30.4077 6.01229 30.5653C6.01144 30.872 6.0208 31.1788 6.00464 31.4847C5.99017 31.755 5.82766 31.9076 5.55625 31.9288C5.27548 31.9508 5.07893 31.8322 5.01597 31.55C4.98875 31.4288 4.9981 31.2983 4.9981 31.172C4.9964 30.306 4.9981 29.4408 4.9981 28.5595C4.71563 28.5196 4.40252 28.4764 4.08942 28.4323C3.80524 28.3925 3.62316 28.2476 3.49128 27.9798C2.6915 26.3596 1.85769 24.7554 1.08173 23.125C0.958363 22.8665 0.986441 22.4683 1.08769 22.1852C1.28849 21.6234 1.54459 21.0709 1.85599 20.5616C2.47284 19.5523 3.31176 18.7219 4.15663 17.9016C4.55142 17.5185 4.9411 17.1304 5.32567 16.7516C4.9964 16.0822 5.00321 16.044 5.52137 15.528C6.05313 14.9983 6.58575 14.4679 7.08094 13.9755C6.77549 13.3688 6.49046 12.7951 6.19607 12.2256C6.168 12.1714 6.09057 12.1324 6.02761 12.1087C4.56418 11.5578 4.08601 10.1274 4.92068 8.79359C4.9377 8.76647 4.95301 8.73935 4.9913 8.6758C4.52334 8.2326 4.52589 7.6428 4.53866 7.04368C4.55142 6.46236 4.54121 5.88019 4.54121 5.29886C4.54121 3.44388 5.3529 2.22954 7.092 1.58042C8.68475 0.986386 10.3439 0.840632 12.0064 1.17875C13.6681 1.51771 14.6865 2.58884 15.1128 4.22095C15.1366 4.31332 15.1553 4.40654 15.1783 4.49806C15.1834 4.5167 15.197 4.5328 15.2191 4.57263C15.8105 4.57263 16.4145 4.57263 17.0186 4.57263C18.146 4.57263 18.9322 5.12599 19.4316 6.09628C19.8791 6.96487 19.6486 7.81822 18.8522 8.38598C18.2472 8.81731 17.5496 8.9868 16.828 9.07493C16.4826 9.1173 16.1338 9.13255 15.7671 9.16221C15.6616 11.0375 15.5033 12.9018 14.1335 14.4399C14.5759 14.8772 14.9792 15.3848 15.4888 15.7407C15.8207 15.972 16.3073 15.9839 16.7676 16.1051C16.7676 15.944 16.7676 15.8305 16.7676 15.7178C16.7676 14.7339 16.7651 13.7509 16.7693 12.7671C16.771 12.3586 16.9412 12.1892 17.353 12.1883C22.0547 12.1866 26.7564 12.1866 31.4581 12.1883C31.8784 12.1883 31.9992 12.3197 31.9984 12.7434C31.9984 17.2058 31.9984 21.6683 31.9984 26.1308C31.9984 26.8104 31.8963 26.9104 31.202 26.9104C30.1214 26.9104 29.0409 26.9104 27.9433 26.9104C27.9229 27.0655 27.9135 27.2002 27.8871 27.3316C27.7153 28.1756 27.0874 28.7179 26.0859 28.8722C25.8043 28.9154 25.5167 28.9374 25.2308 28.9382C23.9682 28.9425 22.7047 28.912 21.4421 28.9425C20.7172 28.9603 19.9948 29.0696 19.258 29.1391C19.258 29.9645 19.264 30.7034 19.2555 31.4432C19.2504 31.883 18.8394 32.1474 18.5008 31.9093C18.3638 31.8127 18.2617 31.5839 18.2506 31.4093C18.2183 30.872 18.2387 30.3314 18.2387 29.7924C18.2387 29.6891 18.2387 29.5857 18.2387 29.4357L18.2413 29.4365ZM17.7988 13.2052V24.8749C17.9333 24.8393 18.0524 24.802 18.1741 24.7758C18.7841 24.6419 19.3899 24.4249 20.005 24.3953C21.2541 24.3351 22.509 24.3639 23.7615 24.38C24.483 24.3893 25.0386 24.8885 25.1858 25.6003C25.2045 25.6927 25.2266 25.785 25.2479 25.8808H31.0173V13.2272H26.9597C26.9597 13.3332 26.9597 13.4171 26.9597 13.501C26.9597 14.5687 26.9648 15.6373 26.9572 16.705C26.9538 17.1897 26.6168 17.3796 26.1906 17.1626C25.6903 16.9084 25.1909 16.6499 24.6804 16.4186C24.5595 16.3635 24.3715 16.3618 24.2515 16.4169C23.7308 16.6525 23.2246 16.9194 22.7124 17.1728C22.2266 17.4135 21.8735 17.1982 21.8667 16.6508C21.8607 16.1432 21.865 15.6356 21.865 15.128C21.865 14.4967 21.865 13.8653 21.865 13.2239C21.7952 13.2145 21.7552 13.2052 21.7152 13.2052C20.4211 13.2052 19.1278 13.2052 17.8005 13.2052H17.7988ZM12.7424 17.2685C12.5101 17.8566 12.3033 18.3753 12.1017 18.8964C12.0209 19.104 11.8813 19.2667 11.6576 19.2269C11.4908 19.1973 11.3291 19.0795 11.1913 18.9685C11.1181 18.9091 11.0977 18.7837 11.0569 18.6863C10.8595 18.2117 10.6629 17.7363 10.4494 17.2194C9.98567 17.8075 9.55345 18.3549 9.12208 18.9024C8.72049 19.4116 8.53756 19.4286 8.03472 19.01C7.4017 18.4829 6.76698 17.9575 6.11439 17.4151C5.78853 17.7431 5.47457 18.0422 5.18018 18.3592C4.40252 19.1956 3.59168 20.0065 2.87954 20.8946C2.50602 21.3598 2.30267 21.9632 2.04487 22.5157C1.99638 22.6199 2.01935 22.7928 2.07295 22.903C2.79105 24.386 3.51936 25.8647 4.25278 27.3409C4.29617 27.429 4.40423 27.5222 4.49782 27.5426C5.92976 27.8586 7.28599 27.1544 7.88242 25.8105C7.97771 25.5961 7.98112 25.4317 7.85009 25.2266C7.42297 24.5588 7.01287 23.8792 6.60703 23.1979C6.37815 22.8132 6.53385 22.4394 6.9397 22.37C7.22983 22.32 7.38809 22.4954 7.51826 22.7199C8.15043 23.8072 8.7809 24.8961 9.42242 25.9782C9.91335 26.8053 10.8169 27.1646 11.7188 26.874C13.3005 26.3638 14.8754 25.8308 16.4545 25.313C16.6085 25.2622 16.6655 25.1851 16.6655 25.019C16.6604 22.481 16.6604 19.9438 16.6655 17.4058C16.6655 17.2279 16.6187 17.1389 16.4341 17.1058C16.1636 17.0567 15.8947 16.9914 15.6309 16.9135C15.4557 16.8618 15.3646 16.8974 15.2872 17.0694C15.0872 17.5118 14.8694 17.9465 14.6533 18.382C14.3964 18.9007 13.9718 18.9346 13.6247 18.4668C13.343 18.0863 13.0631 17.705 12.7424 17.2694V17.2685ZM6.17395 28.4832C6.60532 29.1764 7.08094 29.767 7.69864 30.228C7.95049 30.417 8.22786 30.5797 8.51118 30.7187C9.38413 31.1483 10.2886 31 11.1513 30.7348C13.2452 30.0933 15.3272 29.4094 17.4041 28.7137C18.779 28.2535 20.1659 27.9027 21.6293 27.9171C22.8919 27.9298 24.1545 27.9392 25.4163 27.9163C25.7567 27.9103 26.1047 27.812 26.4322 27.7036C26.7462 27.5993 26.9087 27.3375 26.9487 26.9629C26.8236 26.9629 26.7104 26.9646 26.5981 26.9629C25.3891 26.946 24.1801 26.9299 22.971 26.9104C22.5788 26.9045 22.378 26.7307 22.3755 26.4062C22.3738 26.0808 22.578 25.9003 22.9634 25.896C23.365 25.8918 23.7666 25.8952 24.1716 25.8952C24.1163 25.5223 23.9682 25.3901 23.5998 25.3884C22.5712 25.3851 21.5416 25.3715 20.513 25.3944C20.0825 25.4037 19.6477 25.4647 19.2274 25.5579C18.7016 25.6749 18.1826 25.8325 17.6704 26.0003C15.8496 26.5969 14.0365 27.2155 12.214 27.807C10.9309 28.223 9.70575 27.8409 8.85407 26.7935C8.81068 26.7401 8.7826 26.6748 8.72814 26.5833C8.1198 27.6044 7.2979 28.2103 6.17395 28.4806V28.4832ZM14.5044 7.01572C14.4772 7.01233 14.4508 7.00979 14.4236 7.0064C14.336 7.12249 14.2517 7.24113 14.1598 7.35384C13.8995 7.67246 13.6596 8.01227 13.3686 8.30209C12.7994 8.86985 12.1221 9.1656 11.2874 9.15119C9.61216 9.12154 7.93602 9.13764 6.25989 9.1495C6.09738 9.15035 5.87276 9.20882 5.78682 9.32237C5.49924 9.70286 5.48818 10.1528 5.63878 10.5909C5.77066 10.9748 6.09993 11.1384 6.4811 11.1629C6.85972 11.1875 7.02478 11.3951 7.15581 11.7239C7.34214 12.1917 7.52592 12.679 7.8135 13.0849C8.60477 14.2035 9.69554 14.8085 11.0986 14.7068C12.6037 14.5975 13.6476 13.8331 14.2186 12.4298C14.7469 11.1316 14.7997 9.77828 14.6933 8.40971C14.6567 7.94279 14.5691 7.48095 14.5044 7.01657V7.01572ZM8.62009 2.23886C7.91645 2.34648 7.26301 2.54393 6.6836 2.93628C6.08547 3.34219 5.6541 3.88877 5.6124 4.6167C5.55285 5.64884 5.57071 6.68607 5.57071 7.72076C5.57071 7.94618 5.73067 8.09108 5.95784 8.11651C6.8861 8.22158 7.74033 8.10634 8.34697 7.28689C8.50438 7.07419 8.66348 6.86403 8.82174 6.65218C9.81125 5.32683 11.0322 4.44552 12.7926 4.56839C13.2409 4.59975 13.6927 4.57348 14.2483 4.57348C14.0212 4.11588 13.8816 3.69641 13.6315 3.35744C12.9763 2.46851 12.0583 2.01006 10.959 2.13632C9.85805 2.26259 9.14335 2.95238 8.81238 4.00232C8.70602 4.34044 8.66774 4.70313 8.62094 5.05735C8.57755 5.39208 8.37335 5.60393 8.06875 5.58613C7.77266 5.56919 7.60079 5.36581 7.60165 5.02176C7.60165 4.88448 7.61356 4.7472 7.62887 4.61076C7.73182 3.7303 8.05599 2.94136 8.62179 2.23971L8.62009 2.23886ZM14.3572 5.59291C13.5949 5.59291 12.8223 5.58529 12.0506 5.59885C11.8754 5.60224 11.6941 5.65901 11.5291 5.72511C10.3771 6.18102 9.7117 7.13859 9.02679 8.12667C9.82912 8.12667 10.5932 8.11142 11.3555 8.13261C11.7631 8.14362 12.1076 8.0199 12.4105 7.77246C12.6224 7.59874 12.8232 7.40722 13.0027 7.20045C13.4588 6.67591 13.8995 6.13865 14.3572 5.59291ZM25.9345 13.2247H22.8987V15.933C23.3122 15.7296 23.7053 15.5525 24.0822 15.3458C24.3111 15.2204 24.5051 15.2136 24.7365 15.3398C25.1202 15.5491 25.5184 15.7305 25.9353 15.9356V13.2247H25.9345ZM15.7364 8.14955C16.1499 8.11057 16.5788 8.11566 16.9829 8.0199C17.4279 7.91397 17.8661 7.74703 18.2779 7.5462C18.5578 7.40976 18.7237 7.1191 18.5986 6.79793C18.3842 6.24881 18.0354 5.80138 17.427 5.64545C16.6868 5.45563 16.0606 5.77087 15.4565 6.13695C15.4038 6.16915 15.3774 6.29966 15.391 6.37507C15.4939 6.94454 15.6105 7.51145 15.7364 8.14955ZM6.30073 16.2711C7.03755 16.8711 7.765 17.4643 8.51544 18.0753C8.97999 17.4923 9.43008 16.927 9.88953 16.3508C9.12293 15.8474 8.39122 15.367 7.67737 14.8983C7.21197 15.3627 6.77124 15.8025 6.30073 16.272V16.2711ZM14.581 16.4381C14.2015 16.0686 13.8527 15.728 13.52 15.4034C13.4724 15.5339 13.3975 15.7195 13.3396 15.9101C13.3107 16.0042 13.2673 16.1389 13.3107 16.2025C13.56 16.5711 13.8331 16.9245 14.1207 17.3135C14.3062 16.9609 14.4627 16.6643 14.5819 16.4381H14.581ZM10.9352 15.7635C11.176 16.2762 11.4219 16.7982 11.695 17.3796C11.9375 16.7279 12.1578 16.1356 12.385 15.5271C11.8422 15.6161 11.3547 15.6958 10.9352 15.7644V15.7635Z" fill="#FF6F3C" stroke="#FF6F3C" stroke-width="0.5"/>
<path d="M20.8444 23.3573C20.5159 23.3573 20.1884 23.3633 19.86 23.3556C19.5196 23.348 19.3273 23.1658 19.3205 22.8633C19.3129 22.5472 19.512 22.3481 19.8651 22.3447C20.521 22.3379 21.177 22.3379 21.8339 22.3447C22.1742 22.3481 22.3665 22.5337 22.3742 22.8362C22.3818 23.1514 22.1819 23.348 21.8296 23.3556C21.5021 23.3633 21.1736 23.3573 20.8452 23.3573H20.8444Z" fill="#FF6F3C" stroke="#FF6F3C" stroke-width="0.5"/>
<path d="M20.3426 20.8211C20.5119 20.8211 20.6812 20.8134 20.8496 20.8227C21.1628 20.8397 21.3474 21.0287 21.3508 21.3202C21.3542 21.6125 21.1713 21.8176 20.8633 21.8303C20.5153 21.8439 20.1656 21.843 19.8167 21.8312C19.5036 21.821 19.3199 21.6261 19.3165 21.3346C19.313 21.0304 19.5045 20.8372 19.8346 20.8227C20.0031 20.8151 20.1732 20.8211 20.3417 20.8219L20.3426 20.8211Z" fill="#FF6F3C" stroke="#FF6F3C" stroke-width="0.5"/>
</svg>
