<svg width="33" height="35" viewBox="0 0 33 35" fill="none" xmlns="http://www.w3.org/2000/svg">
<path d="M23.7651 33.6685C23.2831 33.4533 22.9717 33.121 22.9919 32.5415C22.9945 32.4761 22.9101 32.3771 22.8426 32.3444C22.5953 32.2273 22.3387 32.1317 22.0618 32.0181C21.9969 32.0766 21.9209 32.1489 21.8416 32.2161C21.444 32.5562 20.8912 32.5717 20.5139 32.2152C20.059 31.7839 19.6192 31.3345 19.1972 30.8695C19.0546 30.7128 18.9854 30.4864 18.8622 30.2514H18.5305C12.9473 30.2514 7.36492 30.2514 1.78173 30.2514C1.6872 30.2514 1.59183 30.2548 1.4973 30.2496C1.19514 30.2333 1.00608 30.0533 1.00017 29.7796C0.99342 29.4903 1.18586 29.2931 1.50405 29.2862C1.90159 29.2776 2.29996 29.2845 2.73548 29.2845C2.73548 29.1295 2.73548 29.0047 2.73548 28.8798C2.73548 26.6241 2.73548 24.3675 2.73548 22.1118C2.73548 21.9938 2.72957 21.8733 2.75151 21.7588C2.80215 21.4919 2.96589 21.3386 3.23851 21.355C3.50944 21.3714 3.65546 21.5367 3.6774 21.8104C3.68584 21.9172 3.68247 22.0248 3.68247 22.1324C3.68247 24.3778 3.68247 26.6233 3.68247 28.8678C3.68247 28.9944 3.68247 29.1209 3.68247 29.2647H5.88367C5.88873 29.1511 5.89802 29.0383 5.89802 28.9255C5.89802 23.919 5.89802 18.9133 5.90224 13.9068C5.90224 13.7001 5.84316 13.5693 5.69123 13.416C5.5334 13.2567 5.40511 13.0045 5.38232 12.7806C5.3359 12.3234 5.357 11.8577 5.37135 11.3962C5.38654 10.9115 5.73681 10.555 6.21031 10.512C6.29386 10.5042 6.37827 10.5034 6.46267 10.5034C12.8772 10.5034 19.2926 10.5016 25.7072 10.5077C25.9215 10.5077 26.1553 10.5412 26.3469 10.6308C26.655 10.7763 26.8086 11.063 26.8145 11.4134C26.8221 11.8534 26.8187 12.2942 26.8154 12.735C26.8128 13.0458 26.6744 13.2826 26.4448 13.4849C26.3647 13.5555 26.2921 13.6881 26.2921 13.7931C26.2828 15.5658 26.2836 17.3386 26.2904 19.1104C26.2904 19.2129 26.3385 19.3429 26.4094 19.4118C26.6356 19.6339 26.7664 19.8931 26.7546 20.2108C26.7478 20.3942 26.812 20.4923 26.9867 20.5259C27.0475 20.5379 27.1082 20.5638 27.1631 20.5939C27.4762 20.7626 27.7725 20.9056 28.0603 20.525C28.1379 20.4226 28.3219 20.4036 28.4992 20.3287C28.4992 20.2538 28.4992 20.1496 28.4992 20.0455C28.4992 16.6937 28.4975 13.342 28.5034 9.99022C28.5034 9.77584 28.4477 9.64583 28.2612 9.52358C24.393 6.98544 20.5291 4.44129 16.6694 1.89024C16.4609 1.75248 16.32 1.75248 16.1098 1.88507C12.0636 4.43612 8.01398 6.98114 3.95846 9.51583C3.73564 9.6553 3.67656 9.80684 3.67656 10.0548C3.68331 13.1491 3.68162 16.2426 3.68078 19.3369C3.68078 19.8569 3.54996 20.0627 3.21994 20.0678C2.88149 20.073 2.73294 19.8466 2.73294 19.3231C2.73294 16.122 2.73801 12.9201 2.72619 9.71902C2.7245 9.31781 2.8528 9.06985 3.19209 8.85805C7.46705 6.19422 11.7319 3.51402 15.9933 0.829527C16.2828 0.647002 16.5158 0.643558 16.8028 0.832971C20.8929 3.53383 24.9881 6.22865 29.0849 8.91918C29.3559 9.09654 29.4538 9.31781 29.4529 9.64067C29.4453 13.261 29.4504 16.8814 29.4436 20.5018C29.4436 20.7222 29.4926 20.8858 29.6555 21.0373C29.9425 21.3059 30.2142 21.5918 30.486 21.8767C30.9376 22.3503 30.9409 22.8918 30.524 23.4024C30.4581 23.4824 30.4666 23.6348 30.4615 23.7545C30.459 23.8122 30.5147 23.8699 30.5324 23.931C30.6362 24.2935 30.7662 24.55 31.2389 24.5535C31.6575 24.5569 31.9782 25.0132 31.9884 25.4584C32.0035 26.092 32.0044 26.7257 31.99 27.3594C31.9774 27.9018 31.5798 28.309 31.0397 28.3211C30.8059 28.3262 30.6919 28.4055 30.6455 28.6267C30.6303 28.699 30.6042 28.774 30.5645 28.8359C30.3864 29.1183 30.394 29.3387 30.6379 29.6151C30.9561 29.9767 30.9004 30.5131 30.5603 30.879C30.14 31.331 29.7095 31.7736 29.263 32.1989C28.8655 32.5777 28.2882 32.5717 27.8932 32.1817C27.7294 32.0198 27.602 32.0138 27.4315 32.124C27.3876 32.1524 27.3378 32.1756 27.2872 32.1885C26.9361 32.2789 26.7301 32.4374 26.7166 32.8739C26.7039 33.2983 26.3427 33.5153 25.9764 33.6668H23.7642L23.7651 33.6685ZM8.977 29.2707C8.977 29.1304 8.977 29.0142 8.977 28.8979C8.977 27.1794 8.97447 25.4601 8.97869 23.7416C8.97953 23.1639 9.2952 22.8453 9.85985 22.8419C10.6186 22.8376 11.3766 22.8419 12.1353 22.8402C12.2358 22.8402 12.337 22.8307 12.4518 22.8247C12.4518 22.6757 12.4518 22.5586 12.4518 22.4415C12.4518 20.7446 12.451 19.0467 12.4518 17.3498C12.4518 16.7092 12.7531 16.3984 13.3777 16.3975C15.3899 16.3958 17.4012 16.3958 19.4133 16.3975C20.037 16.3975 20.3443 16.7109 20.3459 17.3463C20.3485 18.3778 20.3459 19.4092 20.3476 20.4398C20.3476 20.5285 20.3595 20.618 20.367 20.7239C21.022 20.2349 21.3284 20.2443 21.9656 20.7428C22.0095 20.7773 22.0838 20.8195 22.1235 20.804C22.3885 20.7024 22.6518 20.5913 22.9084 20.4682C22.9557 20.4458 22.9894 20.3537 22.997 20.29C23.0882 19.4652 23.4106 19.169 24.2284 19.1681C24.5922 19.1681 24.956 19.1681 25.3155 19.1681V13.6683C25.167 13.6683 25.0412 13.6683 24.9155 13.6683C22.472 13.6683 20.0278 13.6683 17.5843 13.6683C17.1902 13.6683 16.9631 13.4883 16.9589 13.187C16.9547 12.8831 17.1767 12.7074 17.5733 12.7023C17.6577 12.7014 17.7421 12.7023 17.8265 12.7023C20.3755 12.7023 22.9244 12.7023 25.4734 12.7023H25.8447V11.4969H6.33184V12.7023H6.72009C9.41674 12.7023 12.1134 12.7023 14.8092 12.7023C14.9459 12.7023 15.0835 12.698 15.2202 12.7057C15.5207 12.7238 15.7106 12.9132 15.7097 13.1835C15.7089 13.4375 15.5241 13.6338 15.2481 13.664C15.1443 13.6752 15.0379 13.6691 14.9324 13.6691C12.3725 13.6691 9.81343 13.6691 7.25351 13.6691H6.8678V29.2707H8.97785H8.977ZM31.0312 25.4764C30.8447 25.4764 30.6978 25.4773 30.551 25.4764C30.1349 25.473 30.0277 25.374 29.8901 24.9788C29.7568 24.5957 29.6057 24.2177 29.4335 23.8518C29.2504 23.4609 29.2495 23.3189 29.5449 23.0261C29.6631 22.909 29.8049 22.8178 29.9002 22.742C29.4116 22.2349 28.9929 21.8018 28.4899 21.2801C28.403 21.4067 28.3219 21.5616 28.2063 21.6839C27.9261 21.9809 27.7944 21.9783 27.4239 21.8018C27.0348 21.6167 26.6364 21.4471 26.2305 21.3042C25.9502 21.2052 25.8135 21.033 25.8135 20.7385C25.8135 20.5491 25.8135 20.3597 25.8135 20.1557H23.9474C23.9474 20.364 23.9474 20.5543 23.9474 20.7454C23.9474 21.0261 23.8166 21.1966 23.5532 21.2964C23.1118 21.4652 22.6763 21.652 22.2458 21.85C22.0028 21.962 21.7943 21.9465 21.6128 21.7519C21.4769 21.6064 21.3588 21.4428 21.2752 21.3404C20.7857 21.8414 20.3603 22.2771 19.8927 22.7558C19.994 22.8427 20.1349 22.9555 20.2658 23.0795C20.4692 23.2706 20.4953 23.4859 20.3789 23.7485C20.1839 24.1859 20.0075 24.6327 19.837 25.0821C19.7425 25.3318 19.5846 25.4713 19.3213 25.4756C19.1247 25.479 18.928 25.4756 18.7237 25.4756V27.3671C18.9305 27.3671 19.1179 27.3663 19.3044 27.3671C19.5813 27.3688 19.7442 27.51 19.8421 27.7761C20.0041 28.216 20.1763 28.6543 20.3713 29.0796C20.497 29.3551 20.4633 29.5712 20.2565 29.7778C20.1248 29.9096 19.9999 30.0499 19.9172 30.1394C20.3628 30.5992 20.7823 31.0314 21.2701 31.5342C21.347 31.4266 21.4271 31.2828 21.536 31.1692C21.8323 30.8592 21.9538 30.8609 22.3454 31.0486C22.7151 31.226 23.0924 31.3965 23.4806 31.523C23.8014 31.6281 23.9584 31.8089 23.9465 32.1498C23.9406 32.3272 23.9457 32.5045 23.9457 32.6784H25.811C25.811 32.4968 25.8093 32.3375 25.811 32.1774C25.8169 31.7615 25.9055 31.6642 26.2803 31.5239C26.6837 31.3732 27.0829 31.2053 27.4686 31.0133C27.7472 30.8747 27.9683 30.8997 28.181 31.1227C28.3093 31.257 28.4468 31.3818 28.5431 31.4739C28.9938 31.0142 29.4149 30.5854 29.8791 30.1128C29.7627 30.0086 29.6183 29.8846 29.4799 29.7537C29.2731 29.5574 29.2698 29.337 29.3829 29.0813C29.5719 28.6526 29.7492 28.2169 29.9112 27.7769C30.0142 27.4971 30.1906 27.3611 30.4801 27.3663C30.6632 27.3697 30.8472 27.3663 31.0295 27.3663V25.4756L31.0312 25.4764ZM11.6289 23.8346H9.951V29.2647H15.9005V23.8268H14.2201C14.2201 24.4011 14.2243 24.9564 14.2184 25.5126C14.215 25.8906 14.0462 26.0636 13.6773 26.0688C13.2039 26.0748 12.7304 26.0722 12.256 26.0705C11.7817 26.0688 11.6298 25.9164 11.6281 25.4403C11.6264 24.9142 11.6281 24.389 11.6281 23.8363L11.6289 23.8346ZM17.6949 17.3747C17.6949 17.9318 17.6957 18.4561 17.6949 18.9804C17.6932 19.4755 17.5438 19.6253 17.0501 19.627C16.6078 19.6288 16.1664 19.6288 15.7241 19.627C15.2514 19.6244 15.1046 19.4746 15.1029 18.9925C15.1012 18.4596 15.1029 17.9266 15.1029 17.3902H13.4157V22.8272H18.9339C18.8925 22.4278 19.031 22.1109 19.3002 21.8337C19.3736 21.7579 19.3939 21.603 19.3947 21.4833C19.4015 20.2168 19.399 18.9503 19.3981 17.6838C19.3981 17.5822 19.3897 17.4798 19.3846 17.3756H17.6949V17.3747ZM19.2504 23.8311H16.888V29.2845H19.3745C19.2673 29.0167 19.1652 28.7946 19.09 28.563C19.036 28.3986 18.9601 28.3331 18.7794 28.3262C18.1321 28.3004 17.7616 27.894 17.7582 27.2328C17.7548 26.6852 17.754 26.1377 17.7582 25.5901C17.7632 24.9383 18.1481 24.532 18.7955 24.5139C18.9618 24.5096 19.0419 24.4553 19.085 24.2978C19.1272 24.1454 19.1905 23.999 19.2513 23.8303L19.2504 23.8311ZM16.0676 18.6378H16.7234V17.3808H16.0676V18.6378ZM13.2494 25.0881V23.8234H12.5945V25.0881H13.2494Z" fill="#3F3F3F" stroke="#3F3F3F" stroke-width="0.5"/>
<path d="M16.3717 5.55364C16.6562 5.55364 16.9406 5.54589 17.2242 5.55623C17.5111 5.56657 17.6901 5.74491 17.7019 6.00683C17.7137 6.27133 17.5474 6.49707 17.2714 6.50654C16.6832 6.52722 16.0923 6.52636 15.5041 6.50999C15.234 6.50224 15.0475 6.27306 15.0508 6.0232C15.055 5.75956 15.2551 5.56398 15.5505 5.5545C15.8239 5.54589 16.0974 5.55278 16.3717 5.55278V5.55364Z" fill="#3F3F3F" stroke="#3F3F3F" stroke-width="0.5"/>
<path d="M16.3717 7.48733C16.6562 7.48733 16.9406 7.47957 17.2242 7.48991C17.5111 7.50025 17.6901 7.67774 17.7019 7.94052C17.7137 8.20502 17.5483 8.42989 17.2714 8.43937C16.6832 8.46091 16.0932 8.46004 15.5041 8.44281C15.2323 8.43506 15.0475 8.20588 15.0508 7.95602C15.055 7.69238 15.2568 7.49681 15.5513 7.48819C15.8248 7.47957 16.0983 7.48647 16.3726 7.48647L16.3717 7.48733Z" fill="#3F3F3F" stroke="#3F3F3F" stroke-width="0.5"/>
<path d="M27.7046 26.4314C27.6979 28.0328 26.4352 29.3044 24.862 29.2958C23.2938 29.2872 22.0446 27.9957 22.0547 26.3943C22.0649 24.8033 23.3385 23.5342 24.9143 23.5454C26.4622 23.5557 27.7122 24.848 27.7046 26.4322V26.4314ZM24.8966 28.3289C25.9322 28.3229 26.7576 27.4766 26.7576 26.4202C26.7576 25.3526 25.9161 24.5045 24.8645 24.5114C23.8314 24.5183 23.0034 25.3681 23.0034 26.4219C23.0034 27.4886 23.8441 28.335 24.8974 28.3289H24.8966Z" fill="#3F3F3F" stroke="#3F3F3F" stroke-width="0.5"/>
</svg>
