<svg width="33" height="35" viewBox="0 0 33 35" fill="none" xmlns="http://www.w3.org/2000/svg">
<path d="M23.7651 34C23.2831 33.7846 22.9717 33.452 22.9919 32.8722C22.9945 32.8067 22.9101 32.7076 22.8426 32.6749C22.5953 32.5577 22.3387 32.4621 22.0618 32.3484C21.9969 32.407 21.9209 32.4793 21.8416 32.5465C21.444 32.8868 20.8912 32.9024 20.5139 32.5457C20.059 32.114 19.6192 31.6643 19.1972 31.199C19.0546 31.0422 18.9854 30.8156 18.8622 30.5804H18.5305C12.9473 30.5804 7.36492 30.5804 1.78173 30.5804C1.6872 30.5804 1.59183 30.5839 1.4973 30.5787C1.19514 30.5623 1.00608 30.3823 1.00017 30.1083C0.99342 29.8188 1.18586 29.6215 1.50405 29.6146C1.90159 29.606 2.29996 29.6129 2.73548 29.6129C2.73548 29.4578 2.73548 29.3329 2.73548 29.2079C2.73548 26.9506 2.73548 24.6924 2.73548 22.4351C2.73548 22.3171 2.72957 22.1964 2.75151 22.0818C2.80215 21.8148 2.96589 21.6614 3.23851 21.6778C3.50944 21.6941 3.65546 21.8596 3.6774 22.1335C3.68584 22.2404 3.68247 22.3481 3.68247 22.4558C3.68247 24.7028 3.68247 26.9497 3.68247 29.1959C3.68247 29.3225 3.68247 29.4492 3.68247 29.593H5.88367C5.88873 29.4793 5.89802 29.3665 5.89802 29.2536C5.89802 24.2435 5.89802 19.2343 5.90224 14.2243C5.90224 14.0175 5.84316 13.8866 5.69123 13.7332C5.5334 13.5738 5.40511 13.3214 5.38232 13.0974C5.3359 12.6399 5.357 12.1738 5.37135 11.7119C5.38654 11.2269 5.73681 10.8702 6.21031 10.8271C6.29386 10.8194 6.37827 10.8185 6.46267 10.8185C12.8772 10.8185 19.2926 10.8168 25.7072 10.8228C25.9215 10.8228 26.1553 10.8564 26.3469 10.946C26.655 11.0916 26.8086 11.3785 26.8145 11.7292C26.8221 12.1694 26.8187 12.6106 26.8154 13.0517C26.8128 13.3627 26.6744 13.5997 26.4448 13.8021C26.3647 13.8728 26.2921 14.0055 26.2921 14.1106C26.2828 15.8845 26.2836 17.6585 26.2904 19.4316C26.2904 19.5342 26.3385 19.6643 26.4094 19.7332C26.6356 19.9555 26.7664 20.2148 26.7546 20.5327C26.7478 20.7163 26.812 20.8145 26.9867 20.8481C27.0475 20.8601 27.1082 20.886 27.1631 20.9161C27.4762 21.085 27.7725 21.228 28.0603 20.8472C28.1379 20.7447 28.3219 20.7257 28.4992 20.6508C28.4992 20.5758 28.4992 20.4716 28.4992 20.3673C28.4992 17.0132 28.4975 13.6591 28.5034 10.305C28.5034 10.0905 28.4477 9.96037 28.2612 9.83802C24.393 7.2981 20.5291 4.75215 16.6694 2.19931C16.4609 2.06146 16.32 2.06146 16.1098 2.19414C12.0636 4.74698 8.01398 7.2938 3.95846 9.83027C3.73564 9.96984 3.67656 10.1215 3.67656 10.3696C3.68331 13.4661 3.68162 16.5617 3.68078 19.6582C3.68078 20.1786 3.54996 20.3845 3.21994 20.3897C2.88149 20.3949 2.73294 20.1683 2.73294 19.6445C2.73294 16.4411 2.73801 13.2369 2.72619 10.0336C2.7245 9.63211 2.8528 9.38397 3.19209 9.17203C7.46705 6.50632 11.7319 3.82424 15.9933 1.13785C16.2828 0.955198 16.5158 0.951752 16.8028 1.1413C20.8929 3.84406 24.9881 6.54078 29.0849 9.2332C29.3559 9.41068 29.4538 9.63211 29.4529 9.9552C29.4453 13.5781 29.4504 17.201 29.4436 20.824C29.4436 21.0445 29.4926 21.2082 29.6555 21.3599C29.9425 21.6287 30.2142 21.9147 30.486 22.1999C30.9376 22.6738 30.9409 23.2157 30.524 23.7266C30.4581 23.8067 30.4666 23.9592 30.4615 24.079C30.459 24.1367 30.5147 24.1944 30.5324 24.2556C30.6362 24.6183 30.7662 24.8751 31.2389 24.8785C31.6575 24.882 31.9782 25.3386 31.9884 25.784C32.0035 26.4182 32.0044 27.0523 31.99 27.6864C31.9774 28.2292 31.5798 28.6367 31.0397 28.6488C30.8059 28.6539 30.6919 28.7332 30.6455 28.9546C30.6303 29.027 30.6042 29.102 30.5645 29.164C30.3864 29.4466 30.394 29.6671 30.6379 29.9437C30.9561 30.3056 30.9004 30.8423 30.5603 31.2085C30.14 31.6608 29.7095 32.1037 29.263 32.5293C28.8655 32.9084 28.2882 32.9024 27.8932 32.5121C27.7294 32.3501 27.602 32.3441 27.4315 32.4543C27.3876 32.4828 27.3378 32.506 27.2872 32.519C26.9361 32.6094 26.7301 32.768 26.7166 33.2048C26.7039 33.6295 26.3427 33.8466 25.9764 33.9983H23.7642L23.7651 34ZM8.977 29.5991C8.977 29.4586 8.977 29.3423 8.977 29.226C8.977 27.5063 8.97447 25.7858 8.97869 24.0661C8.97953 23.4879 9.2952 23.1692 9.85985 23.1657C10.6186 23.1614 11.3766 23.1657 12.1353 23.164C12.2358 23.164 12.337 23.1545 12.4518 23.1485C12.4518 22.9994 12.4518 22.8823 12.4518 22.7651C12.4518 21.0669 12.451 19.3679 12.4518 17.6697C12.4518 17.0287 12.7531 16.7177 13.3777 16.7168C15.3899 16.7151 17.4012 16.7151 19.4133 16.7168C20.037 16.7168 20.3443 17.0304 20.3459 17.6663C20.3485 18.6984 20.3459 19.7306 20.3476 20.7619C20.3476 20.8507 20.3595 20.9403 20.367 21.0462C21.022 20.5569 21.3284 20.5663 21.9656 21.0652C22.0095 21.0997 22.0838 21.1419 22.1235 21.1264C22.3885 21.0247 22.6518 20.9136 22.9084 20.7904C22.9557 20.7679 22.9894 20.6758 22.997 20.612C23.0882 19.7866 23.4106 19.4902 24.2284 19.4894C24.5922 19.4894 24.956 19.4894 25.3155 19.4894V13.9856C25.167 13.9856 25.0412 13.9856 24.9155 13.9856C22.472 13.9856 20.0278 13.9856 17.5843 13.9856C17.1902 13.9856 16.9631 13.8056 16.9589 13.504C16.9547 13.1999 17.1767 13.0241 17.5733 13.019C17.6577 13.0181 17.7421 13.019 17.8265 13.019C20.3755 13.019 22.9244 13.019 25.4734 13.019H25.8447V11.8128H6.33184V13.019H6.72009C9.41674 13.019 12.1134 13.019 14.8092 13.019C14.9459 13.019 15.0835 13.0146 15.2202 13.0224C15.5207 13.0405 15.7106 13.23 15.7097 13.5006C15.7089 13.7547 15.5241 13.9512 15.2481 13.9813C15.1443 13.9925 15.0379 13.9865 14.9324 13.9865C12.3725 13.9865 9.81343 13.9865 7.25351 13.9865H6.8678V29.5991H8.97785H8.977ZM31.0312 25.8021C30.8447 25.8021 30.6978 25.803 30.551 25.8021C30.1349 25.7987 30.0277 25.6996 29.8901 25.3041C29.7568 24.9207 29.6057 24.5425 29.4335 24.1763C29.2504 23.7852 29.2495 23.643 29.5449 23.3501C29.6631 23.2329 29.8049 23.1416 29.9002 23.0658C29.4116 22.5583 28.9929 22.1249 28.4899 21.6028C28.403 21.7295 28.3219 21.8845 28.2063 22.0069C27.9261 22.3041 27.7944 22.3016 27.4239 22.1249C27.0348 21.9397 26.6364 21.77 26.2305 21.6269C25.9502 21.5279 25.8135 21.3555 25.8135 21.0609C25.8135 20.8713 25.8135 20.6818 25.8135 20.4776H23.9474C23.9474 20.6861 23.9474 20.8765 23.9474 21.0678C23.9474 21.3487 23.8166 21.5192 23.5532 21.6192C23.1118 21.7881 22.6763 21.975 22.2458 22.1732C22.0028 22.2852 21.7943 22.2697 21.6128 22.075C21.4769 21.9294 21.3588 21.7657 21.2752 21.6631C20.7857 22.1646 20.3603 22.6005 19.8927 23.0796C19.994 23.1666 20.1349 23.2794 20.2658 23.4035C20.4692 23.5948 20.4953 23.8102 20.3789 24.0729C20.1839 24.5106 20.0075 24.9578 19.837 25.4075C19.7425 25.6574 19.5846 25.797 19.3213 25.8013C19.1247 25.8047 18.928 25.8013 18.7237 25.8013V27.6941C18.9305 27.6941 19.1179 27.6933 19.3044 27.6941C19.5813 27.6959 19.7442 27.8372 19.8421 28.1034C20.0041 28.5437 20.1763 28.9822 20.3713 29.4078C20.497 29.6835 20.4633 29.8998 20.2565 30.1065C20.1248 30.2384 19.9999 30.3788 19.9172 30.4684C20.3628 30.9285 20.7823 31.361 21.2701 31.8642C21.347 31.7565 21.4271 31.6126 21.536 31.4989C21.8323 31.1887 21.9538 31.1904 22.3454 31.3782C22.7151 31.5557 23.0924 31.7263 23.4806 31.853C23.8014 31.9581 23.9584 32.139 23.9465 32.4802C23.9406 32.6577 23.9457 32.8352 23.9457 33.0092H25.811C25.811 32.8274 25.8093 32.668 25.811 32.5078C25.8169 32.0916 25.9055 31.9943 26.2803 31.8538C26.6837 31.703 27.0829 31.535 27.4686 31.3429C27.7472 31.2042 27.9683 31.2292 28.181 31.4523C28.3093 31.5867 28.4468 31.7117 28.5431 31.8038C28.9938 31.3438 29.4149 30.9147 29.8791 30.4417C29.7627 30.3375 29.6183 30.2134 29.4799 30.0824C29.2731 29.886 29.2698 29.6654 29.3829 29.4095C29.5719 28.9805 29.7492 28.5445 29.9112 28.1043C30.0142 27.8242 30.1906 27.6881 30.4801 27.6933C30.6632 27.6967 30.8472 27.6933 31.0295 27.6933V25.8013L31.0312 25.8021ZM11.6289 24.1591H9.951V29.593H15.9005V24.1513H14.2201C14.2201 24.726 14.2243 25.2817 14.2184 25.8383C14.215 26.2165 14.0462 26.3897 13.6773 26.3949C13.2039 26.4009 12.7304 26.3983 12.256 26.3966C11.7817 26.3949 11.6298 26.2424 11.6281 25.7659C11.6264 25.2395 11.6281 24.714 11.6281 24.1608L11.6289 24.1591ZM17.6949 17.6947C17.6949 18.2522 17.6957 18.7769 17.6949 19.3016C17.6932 19.797 17.5438 19.9469 17.0501 19.9486C16.6078 19.9503 16.1664 19.9503 15.7241 19.9486C15.2514 19.946 15.1046 19.7961 15.1029 19.3136C15.1012 18.7803 15.1029 18.247 15.1029 17.7102H13.4157V23.1511H18.9339C18.8925 22.7513 19.031 22.4342 19.3002 22.1568C19.3736 22.081 19.3939 21.9259 19.3947 21.8061C19.4015 20.5388 19.399 19.2714 19.3981 18.004C19.3981 17.9024 19.3897 17.7998 19.3846 17.6956H17.6949V17.6947ZM19.2504 24.1557H16.888V29.6129H19.3745C19.2673 29.3449 19.1652 29.1226 19.09 28.8909C19.036 28.7263 18.9601 28.6608 18.7794 28.6539C18.1321 28.6281 17.7616 28.2214 17.7582 27.5597C17.7548 27.0118 17.754 26.4638 17.7582 25.9159C17.7632 25.2636 18.1481 24.857 18.7955 24.8389C18.9618 24.8346 19.0419 24.7803 19.085 24.6226C19.1272 24.4701 19.1905 24.3237 19.2513 24.1548L19.2504 24.1557ZM16.0676 18.9586H16.7234V17.7007H16.0676V18.9586ZM13.2494 25.4136V24.1479H12.5945V25.4136H13.2494Z" fill="#3F3F3F" stroke="#3F3F3F" stroke-width="0.5"/>
<path d="M16.3717 5.86529C16.6562 5.86529 16.9406 5.85753 17.2242 5.86787C17.5111 5.87821 17.6901 6.05656 17.7019 6.31848C17.7137 6.58298 17.5474 6.80871 17.2714 6.81819C16.6832 6.83887 16.0923 6.83801 15.5041 6.82164C15.234 6.81388 15.0475 6.5847 15.0508 6.33485C15.055 6.0712 15.2551 5.87563 15.5505 5.86615C15.8239 5.85753 16.0974 5.86443 16.3717 5.86443V5.86529Z" fill="#3F3F3F" stroke="#3F3F3F" stroke-width="0.5"/>
<path d="M16.3717 7.80035C16.6562 7.80035 16.9406 7.79259 17.2242 7.80293C17.5111 7.81327 17.6901 7.99075 17.7019 8.25353C17.7137 8.51804 17.5483 8.74291 17.2714 8.75239C16.6832 8.77393 16.0932 8.77306 15.5041 8.75583C15.2323 8.74808 15.0475 8.5189 15.0508 8.26904C15.055 8.0054 15.2568 7.80982 15.5513 7.80121C15.8248 7.79259 16.0983 7.79948 16.3726 7.79948L16.3717 7.80035Z" fill="#3F3F3F" stroke="#3F3F3F" stroke-width="0.5"/>
<path d="M27.7046 26.7577C27.6979 28.3602 26.4352 29.6328 24.862 29.6242C23.2938 29.6155 22.0446 28.3232 22.0547 26.7206C22.0649 25.1285 23.3385 23.8585 24.9143 23.8697C26.4622 23.88 27.7122 25.1733 27.7046 26.7586V26.7577ZM24.8966 28.6566C25.9322 28.6506 26.7576 27.8036 26.7576 26.7465C26.7576 25.6781 25.9161 24.8295 24.8645 24.8364C23.8314 24.8433 23.0034 25.6937 23.0034 26.7482C23.0034 27.8157 23.8441 28.6626 24.8974 28.6566H24.8966Z" fill="#3F3F3F" stroke="#3F3F3F" stroke-width="0.5"/>
</svg>
