<svg width="26" height="26" viewBox="0 0 26 26" fill="none" xmlns="http://www.w3.org/2000/svg">
<mask id="path-1-inside-1_1_1067" fill="white">
<path d="M11.4578 0.32019H8.91165C2.54618 0.32019 0 2.86637 0 9.23184V16.8704C0 23.2358 2.54618 25.782 8.91165 25.782H16.5502C22.9157 25.782 25.4618 23.2358 25.4618 16.8704V14.3242"/>
</mask>
<path d="M11.4578 2.58443C12.7083 2.58443 13.7221 1.5707 13.7221 0.32019C13.7221 -0.930315 12.7083 -1.94405 11.4578 -1.94405V2.58443ZM27.7261 14.3242C27.7261 13.0737 26.7123 12.06 25.4618 12.06C24.2113 12.06 23.1976 13.0737 23.1976 14.3242H27.7261ZM11.4578 -1.94405H8.91165V2.58443H11.4578V-1.94405ZM8.91165 -1.94405C5.50559 -1.94405 2.53233 -1.27671 0.467715 0.787905C-1.5969 2.85252 -2.26424 5.82578 -2.26424 9.23184H2.26424C2.26424 6.27243 2.86999 4.78987 3.66983 3.99003C4.46968 3.19018 5.95224 2.58443 8.91165 2.58443V-1.94405ZM-2.26424 9.23184V16.8704H2.26424V9.23184H-2.26424ZM-2.26424 16.8704C-2.26424 20.2764 -1.5969 23.2497 0.467715 25.3143C2.53233 27.3789 5.50559 28.0463 8.91165 28.0463V23.5178C5.95224 23.5178 4.46968 22.912 3.66983 22.1122C2.86999 21.3124 2.26424 19.8298 2.26424 16.8704H-2.26424ZM8.91165 28.0463H16.5502V23.5178H8.91165V28.0463ZM16.5502 28.0463C19.9562 28.0463 22.9295 27.3789 24.9941 25.3143C27.0587 23.2497 27.7261 20.2764 27.7261 16.8704H23.1976C23.1976 19.8298 22.5919 21.3124 21.792 22.1122C20.9922 22.912 19.5096 23.5178 16.5502 23.5178V28.0463ZM27.7261 16.8704V14.3242H23.1976V16.8704H27.7261Z" fill="#1A3E59" mask="url(#path-1-inside-1_1_1067)"/>
<path d="M8.12076 13.491L8.12127 13.4873C8.137 13.3746 8.19924 13.1715 8.31709 12.937C8.43478 12.7029 8.56104 12.5307 8.64078 12.4509L18.6728 2.41892C19.4737 1.61802 20.1752 1.20447 20.8218 1.141C21.409 1.08336 22.2333 1.29139 23.3608 2.41892C24.4883 3.54645 24.6964 4.37066 24.6387 4.95788C24.5752 5.60447 24.1617 6.30604 23.3608 7.10694L13.3369 17.1309C13.2439 17.2192 13.0644 17.3464 12.8332 17.4626C12.5951 17.5823 12.3945 17.6439 12.2888 17.659L8.4625 18.2056C8.46169 18.2057 8.46087 18.2058 8.46007 18.2059C8.06525 18.2597 7.84381 18.1414 7.73685 18.0349C7.63179 17.9302 7.51559 17.7164 7.57271 17.3273L7.57332 17.323L8.12076 13.491Z" stroke="#FF6F3C" stroke-width="2.26424" stroke-miterlimit="10" stroke-linecap="round" stroke-linejoin="round"/>
<g opacity="0.4">
<mask id="path-4-inside-2_1_1067" fill="white">
<path d="M16.4375 3.05737C17.2905 6.10006 19.6712 8.48075 22.7266 9.34645Z"/>
</mask>
<path d="M18.6177 2.44619C18.2801 1.2421 17.0304 0.539633 15.8263 0.87718C14.6222 1.21473 13.9198 2.46447 14.2573 3.66856L18.6177 2.44619ZM22.1093 11.5249C23.3125 11.8658 24.5642 11.1668 24.9051 9.96369C25.246 8.76054 24.547 7.50885 23.3438 7.16796L22.1093 11.5249ZM14.2573 3.66856C15.3243 7.4747 18.3003 10.4457 22.1093 11.5249L23.3438 7.16796C21.042 6.51578 19.2566 4.72542 18.6177 2.44619L14.2573 3.66856Z" fill="#FF6F3C" mask="url(#path-4-inside-2_1_1067)"/>
</g>
</svg>
