<svg width="33" height="35" viewBox="0 0 33 35" fill="none" xmlns="http://www.w3.org/2000/svg">
<path d="M23.7651 33.7026C23.2831 33.4873 22.9717 33.155 22.9919 32.5757C22.9945 32.5102 22.9101 32.4112 22.8426 32.3785C22.5953 32.2614 22.3387 32.1659 22.0618 32.0522C21.9969 32.1108 21.9209 32.1831 21.8416 32.2502C21.444 32.5903 20.8912 32.6058 20.5139 32.2494C20.059 31.8181 19.6192 31.3687 19.1972 30.9038C19.0546 30.7471 18.9854 30.5207 18.8622 30.2857H18.5305C12.9473 30.2857 7.36492 30.2857 1.78173 30.2857C1.6872 30.2857 1.59183 30.2891 1.4973 30.2839C1.19514 30.2676 1.00608 30.0876 1.00017 29.8139C0.99342 29.5246 1.18586 29.3275 1.50405 29.3206C1.90159 29.312 2.29996 29.3189 2.73548 29.3189C2.73548 29.1639 2.73548 29.0391 2.73548 28.9142C2.73548 26.6587 2.73548 24.4023 2.73548 22.1467C2.73548 22.0288 2.72957 21.9082 2.75151 21.7937C2.80215 21.5268 2.96589 21.3736 3.23851 21.39C3.50944 21.4063 3.65546 21.5716 3.6774 21.8454C3.68584 21.9521 3.68247 22.0597 3.68247 22.1674C3.68247 24.4126 3.68247 26.6578 3.68247 28.9022C3.68247 29.0287 3.68247 29.1553 3.68247 29.2991H5.88367C5.88873 29.1854 5.89802 29.0726 5.89802 28.9599C5.89802 23.9537 5.89802 18.9484 5.90224 13.9423C5.90224 13.7357 5.84316 13.6048 5.69123 13.4516C5.5334 13.2923 5.40511 13.0401 5.38232 12.8162C5.3359 12.3591 5.357 11.8934 5.37135 11.4319C5.38654 10.9472 5.73681 10.5908 6.21031 10.5478C6.29386 10.54 6.37827 10.5392 6.46267 10.5392C12.8772 10.5392 19.2926 10.5374 25.7072 10.5435C25.9215 10.5435 26.1553 10.577 26.3469 10.6666C26.655 10.8121 26.8086 11.0987 26.8145 11.4491C26.8221 11.8891 26.8187 12.3298 26.8154 12.7706C26.8128 13.0814 26.6744 13.3182 26.4448 13.5205C26.3647 13.5911 26.2921 13.7236 26.2921 13.8287C26.2828 15.6013 26.2836 17.3739 26.2904 19.1456C26.2904 19.248 26.3385 19.378 26.4094 19.4469C26.6356 19.669 26.7664 19.9282 26.7546 20.2458C26.7478 20.4292 26.812 20.5273 26.9867 20.5609C27.0475 20.573 27.1082 20.5988 27.1631 20.6289C27.4762 20.7977 27.7725 20.9406 28.0603 20.5601C28.1379 20.4576 28.3219 20.4387 28.4992 20.3638C28.4992 20.2889 28.4992 20.1847 28.4992 20.0805C28.4992 16.729 28.4975 13.3776 28.5034 10.0261C28.5034 9.8117 28.4477 9.68171 28.2612 9.55946C24.393 7.02152 20.5291 4.47756 16.6694 1.92671C16.4609 1.78896 16.32 1.78896 16.1098 1.92154C12.0636 4.47239 8.01398 7.01722 3.95846 9.55171C3.73564 9.69118 3.67656 9.84269 3.67656 10.0906C3.68331 13.1847 3.68162 16.2779 3.68078 19.372C3.68078 19.892 3.54996 20.0978 3.21994 20.1029C2.88149 20.1081 2.73294 19.8817 2.73294 19.3582C2.73294 16.1574 2.73801 12.9557 2.72619 9.75488C2.7245 9.3537 2.8528 9.10576 3.19209 8.89398C7.46705 6.23035 11.7319 3.55037 15.9933 0.866077C16.2828 0.683566 16.5158 0.680122 16.8028 0.86952C20.8929 3.57017 24.9881 6.26479 29.0849 8.9551C29.3559 9.13245 29.4538 9.3537 29.4529 9.67654C29.4453 13.2966 29.4504 16.9167 29.4436 20.5368C29.4436 20.7572 29.4926 20.9208 29.6555 21.0723C29.9425 21.3409 30.2142 21.6267 30.486 21.9117C30.9376 22.3852 30.9409 22.9267 30.524 23.4372C30.4581 23.5172 30.4666 23.6696 30.4615 23.7893C30.459 23.847 30.5147 23.9047 30.5324 23.9658C30.6362 24.3282 30.7662 24.5848 31.2389 24.5882C31.6575 24.5917 31.9782 25.0479 31.9884 25.493C32.0035 26.1266 32.0044 26.7603 31.99 27.3939C31.9774 27.9363 31.5798 28.3435 31.0397 28.3555C30.8059 28.3607 30.6919 28.4399 30.6455 28.6611C30.6303 28.7334 30.6042 28.8083 30.5645 28.8703C30.3864 29.1527 30.394 29.3731 30.6379 29.6494C30.9561 30.011 30.9004 30.5474 30.5603 30.9133C30.14 31.3652 29.7095 31.8077 29.263 32.233C28.8655 32.6118 28.2882 32.6058 27.8932 32.2158C27.7294 32.0539 27.602 32.0479 27.4315 32.1581C27.3876 32.1865 27.3378 32.2098 27.2872 32.2227C26.9361 32.3131 26.7301 32.4715 26.7166 32.908C26.7039 33.3324 26.3427 33.5493 25.9764 33.7009H23.7642L23.7651 33.7026ZM8.977 29.3051C8.977 29.1648 8.977 29.0485 8.977 28.9323C8.977 27.214 8.97447 25.4947 8.97869 23.7764C8.97953 23.1987 9.2952 22.8802 9.85985 22.8767C10.6186 22.8724 11.3766 22.8767 12.1353 22.875C12.2358 22.875 12.337 22.8655 12.4518 22.8595C12.4518 22.7106 12.4518 22.5935 12.4518 22.4764C12.4518 20.7796 12.451 19.0819 12.4518 17.385C12.4518 16.7445 12.7531 16.4338 13.3777 16.4329C15.3899 16.4312 17.4012 16.4312 19.4133 16.4329C20.037 16.4329 20.3443 16.7463 20.3459 17.3816C20.3485 18.413 20.3459 19.4443 20.3476 20.4748C20.3476 20.5635 20.3595 20.653 20.367 20.7589C21.022 20.2699 21.3284 20.2794 21.9656 20.7779C22.0095 20.8123 22.0838 20.8545 22.1235 20.839C22.3885 20.7374 22.6518 20.6263 22.9084 20.5032C22.9557 20.4809 22.9894 20.3887 22.997 20.325C23.0882 19.5003 23.4106 19.2041 24.2284 19.2033C24.5922 19.2033 24.956 19.2033 25.3155 19.2033V13.7038C25.167 13.7038 25.0412 13.7038 24.9155 13.7038C22.472 13.7038 20.0278 13.7038 17.5843 13.7038C17.1902 13.7038 16.9631 13.5239 16.9589 13.2226C16.9547 12.9187 17.1767 12.7431 17.5733 12.7379C17.6577 12.737 17.7421 12.7379 17.8265 12.7379C20.3755 12.7379 22.9244 12.7379 25.4734 12.7379H25.8447V11.5326H6.33184V12.7379H6.72009C9.41674 12.7379 12.1134 12.7379 14.8092 12.7379C14.9459 12.7379 15.0835 12.7336 15.2202 12.7413C15.5207 12.7594 15.7106 12.9488 15.7097 13.2191C15.7089 13.4731 15.5241 13.6694 15.2481 13.6995C15.1443 13.7107 15.0379 13.7047 14.9324 13.7047C12.3725 13.7047 9.81343 13.7047 7.25351 13.7047H6.8678V29.3051H8.97785H8.977ZM31.0312 25.5111C30.8447 25.5111 30.6978 25.512 30.551 25.5111C30.1349 25.5077 30.0277 25.4086 29.8901 25.0135C29.7568 24.6304 29.6057 24.2525 29.4335 23.8866C29.2504 23.4957 29.2495 23.3537 29.5449 23.061C29.6631 22.9439 29.8049 22.8526 29.9002 22.7769C29.4116 22.2698 28.9929 21.8368 28.4899 21.3151C28.403 21.4416 28.3219 21.5966 28.2063 21.7188C27.9261 22.0158 27.7944 22.0133 27.4239 21.8368C27.0348 21.6517 26.6364 21.4821 26.2305 21.3392C25.9502 21.2402 25.8135 21.068 25.8135 20.7736C25.8135 20.5842 25.8135 20.3948 25.8135 20.1907H23.9474C23.9474 20.3991 23.9474 20.5893 23.9474 20.7804C23.9474 21.0611 23.8166 21.2316 23.5532 21.3314C23.1118 21.5002 22.6763 21.687 22.2458 21.885C22.0028 21.9969 21.7943 21.9814 21.6128 21.7868C21.4769 21.6413 21.3588 21.4778 21.2752 21.3753C20.7857 21.8764 20.3603 22.312 19.8927 22.7906C19.994 22.8776 20.1349 22.9904 20.2658 23.1143C20.4692 23.3055 20.4953 23.5207 20.3789 23.7833C20.1839 24.2206 20.0075 24.6674 19.837 25.1168C19.7425 25.3665 19.5846 25.5059 19.3213 25.5102C19.1247 25.5137 18.928 25.5102 18.7237 25.5102V27.4016C18.9305 27.4016 19.1179 27.4008 19.3044 27.4016C19.5813 27.4034 19.7442 27.5445 19.8421 27.8106C20.0041 28.2505 20.1763 28.6887 20.3713 29.114C20.497 29.3895 20.4633 29.6055 20.2565 29.8122C20.1248 29.9439 19.9999 30.0842 19.9172 30.1737C20.3628 30.6335 20.7823 31.0656 21.2701 31.5684C21.347 31.4608 21.4271 31.317 21.536 31.2034C21.8323 30.8935 21.9538 30.8952 22.3454 31.0828C22.7151 31.2602 23.0924 31.4307 23.4806 31.5572C23.8014 31.6622 23.9584 31.843 23.9465 32.1839C23.9406 32.3613 23.9457 32.5386 23.9457 32.7125H25.811C25.811 32.5309 25.8093 32.3716 25.811 32.2115C25.8169 31.7957 25.9055 31.6984 26.2803 31.5581C26.6837 31.4074 27.0829 31.2395 27.4686 31.0476C27.7472 30.9089 27.9683 30.9339 28.181 31.1569C28.3093 31.2912 28.4468 31.416 28.5431 31.5081C28.9938 31.0484 29.4149 30.6197 29.8791 30.1471C29.7627 30.0429 29.6183 29.9189 29.4799 29.7881C29.2731 29.5918 29.2698 29.3714 29.3829 29.1157C29.5719 28.687 29.7492 28.2513 29.9112 27.8114C30.0142 27.5316 30.1906 27.3956 30.4801 27.4008C30.6632 27.4042 30.8472 27.4008 31.0295 27.4008V25.5102L31.0312 25.5111ZM11.6289 23.8694H9.951V29.2991H15.9005V23.8616H14.2201C14.2201 24.4358 14.2243 24.9911 14.2184 25.5473C14.215 25.9252 14.0462 26.0982 13.6773 26.1034C13.2039 26.1094 12.7304 26.1068 12.256 26.1051C11.7817 26.1034 11.6298 25.951 11.6281 25.4749C11.6264 24.9489 11.6281 24.4238 11.6281 23.8711L11.6289 23.8694ZM17.6949 17.41C17.6949 17.967 17.6957 18.4913 17.6949 19.0156C17.6932 19.5106 17.5438 19.6604 17.0501 19.6621C16.6078 19.6639 16.1664 19.6639 15.7241 19.6621C15.2514 19.6596 15.1046 19.5098 15.1029 19.0276C15.1012 18.4948 15.1029 17.9619 15.1029 17.4255H13.4157V22.8621H18.9339C18.8925 22.4626 19.031 22.1458 19.3002 21.8686C19.3736 21.7929 19.3939 21.6379 19.3947 21.5182C19.4015 20.2519 19.399 18.9855 19.3981 17.7191C19.3981 17.6175 19.3897 17.515 19.3846 17.4109H17.6949V17.41ZM19.2504 23.8659H16.888V29.3189H19.3745C19.2673 29.0511 19.1652 28.829 19.09 28.5974C19.036 28.433 18.9601 28.3676 18.7794 28.3607C18.1321 28.3349 17.7616 27.9285 17.7582 27.2673C17.7548 26.7198 17.754 26.1723 17.7582 25.6247C17.7632 24.973 18.1481 24.5667 18.7955 24.5486C18.9618 24.5443 19.0419 24.4901 19.085 24.3325C19.1272 24.1801 19.1905 24.0338 19.2513 23.8651L19.2504 23.8659ZM16.0676 18.673H16.7234V17.416H16.0676V18.673ZM13.2494 25.1228V23.8582H12.5945V25.1228H13.2494Z" fill="#3F3F3F" stroke="#3F3F3F" stroke-width="0.5"/>
<path d="M16.3678 5.58984C16.6522 5.58984 16.9367 5.58208 17.2203 5.59242C17.5072 5.60276 17.6862 5.78111 17.698 6.04302C17.7098 6.30753 17.5435 6.53326 17.2675 6.54274C16.6793 6.56341 16.0884 6.56255 15.5002 6.54618C15.2301 6.53843 15.0435 6.30925 15.0469 6.05939C15.0511 5.79575 15.2512 5.60018 15.5466 5.5907C15.82 5.58208 16.0935 5.58897 16.3678 5.58897V5.58984Z" fill="#3F3F3F" stroke="#3F3F3F" stroke-width="0.5"/>
<path d="M16.3678 7.52337C16.6522 7.52337 16.9367 7.51561 17.2203 7.52595C17.5072 7.53629 17.6862 7.71378 17.698 7.97656C17.7098 8.24106 17.5444 8.46593 17.2675 8.47541C16.6793 8.49695 16.0893 8.49609 15.5002 8.47885C15.2284 8.4711 15.0435 8.24192 15.0469 7.99207C15.0511 7.72842 15.2529 7.53285 15.5474 7.52423C15.8209 7.51562 16.0943 7.52251 16.3687 7.52251L16.3678 7.52337Z" fill="#3F3F3F" stroke="#3F3F3F" stroke-width="0.5"/>
<path d="M27.7046 26.4659C27.6979 28.0672 26.4352 29.3387 24.862 29.3301C23.2938 29.3215 22.0446 28.0301 22.0547 26.4289C22.0649 24.8379 23.3385 23.569 24.9143 23.5802C26.4622 23.5905 27.7122 24.8827 27.7046 26.4668V26.4659ZM24.8966 28.3633C25.9322 28.3573 26.7576 27.511 26.7576 26.4547C26.7576 25.3872 25.9161 24.5392 24.8645 24.5461C23.8314 24.553 23.0034 25.4027 23.0034 26.4564C23.0034 27.5231 23.8441 28.3693 24.8974 28.3633H24.8966Z" fill="#3F3F3F" stroke="#3F3F3F" stroke-width="0.5"/>
</svg>
