<svg width="33" height="32" viewBox="0 0 33 32" fill="none" xmlns="http://www.w3.org/2000/svg">
<path d="M1 28.7562C1.17551 28.5332 1.41248 28.49 1.68909 28.4916C3.31313 28.5002 4.93718 28.4963 6.56122 28.4955C7.09583 28.4955 7.19774 28.3958 7.19854 27.8751C7.19935 26.7685 7.19854 25.6612 7.19854 24.5547C7.19854 24.4667 7.1945 24.378 7.2034 24.2908C7.23251 24.0104 7.41206 23.8471 7.67411 23.8573C7.92241 23.8667 8.09387 24.0277 8.10034 24.2994C8.11247 24.8185 8.106 25.3376 8.10681 25.8568C8.10681 26.1882 8.10681 26.5188 8.10681 26.8431C8.62767 26.9044 9.11941 26.9397 9.60307 27.0238C10.4191 27.1659 11.1357 27.5507 11.8466 27.9434C12.8795 28.5136 13.8993 29.1088 14.954 29.6374C16.2117 30.268 17.5235 30.2657 18.8111 29.7167C20.3785 29.0484 21.9298 28.3455 23.4843 27.6489C25.5871 26.7057 27.6859 25.7547 29.7863 24.806C30.3711 24.5421 30.8709 24.1942 31.044 23.5447C31.2284 22.8513 30.7763 22.2089 30.0387 22.1782C29.695 22.1641 29.3229 22.2041 29.0043 22.3219C26.277 23.3358 23.5595 24.3732 20.8412 25.4075C20.7538 25.4405 20.6648 25.5049 20.6099 25.578C19.9434 26.4615 19.1265 26.7458 18.0436 26.4206C17.682 26.3123 17.3221 26.1591 17.0035 25.9628C15.6156 25.1091 14.2423 24.2335 12.8681 23.3586C12.7484 23.2824 12.5964 23.1583 12.5843 23.0437C12.5681 22.8929 12.6336 22.6942 12.7387 22.5811C12.89 22.417 13.1043 22.4617 13.2911 22.5803C13.9414 22.991 14.5933 23.401 15.2444 23.8117C15.9545 24.2594 16.6597 24.7149 17.3763 25.1523C17.6303 25.3078 17.9012 25.4476 18.1827 25.5481C19.1912 25.9086 19.9774 25.4295 20.0607 24.389C20.1521 23.2463 19.8092 22.2112 18.8685 21.5115C17.4604 20.4646 15.982 19.5081 14.2544 18.9952C12.6886 18.5303 11.1446 18.4942 9.61843 19.1484C9.22294 19.318 8.81369 19.4602 8.40445 19.5968C8.18526 19.6698 8.09306 19.7719 8.10034 20.0154C8.12056 20.7497 8.11247 21.4848 8.10358 22.2191C8.10034 22.5136 7.90462 22.7036 7.64661 22.6981C7.39831 22.6926 7.22443 22.5128 7.20259 22.2316C7.19531 22.1437 7.19935 22.0557 7.19935 21.967C7.19935 20.8604 7.19935 19.7531 7.19935 18.6465C7.19935 18.1243 7.10392 18.0332 6.5596 18.0332C4.93556 18.0332 3.31151 18.0293 1.68747 18.0363C1.41006 18.0379 1.17308 17.9908 1.00081 17.7646V17.412C1.17712 17.1913 1.41248 17.141 1.6899 17.1473C2.27465 17.1607 2.8594 17.1513 3.44415 17.1513C4.53278 17.1513 5.62222 17.145 6.71085 17.1536C7.54956 17.1599 8.07446 17.6594 8.10681 18.4589C8.11086 18.5507 8.11975 18.6426 8.12703 18.7494C8.84281 18.495 9.51815 18.2405 10.2048 18.0198C10.4021 17.9562 10.4458 17.8746 10.445 17.6931C10.4394 16.1075 10.4418 14.5212 10.4418 12.9356C10.4418 12.857 10.445 12.7785 10.4418 12.7007C10.4321 12.4997 10.3625 12.4 10.1369 12.5107C9.97592 12.59 9.79152 12.6285 9.63946 12.7188C9.54969 12.7722 9.45263 12.8869 9.44293 12.9827C9.38227 13.5536 9.05471 13.896 8.47966 13.9133C7.93616 13.9298 7.39023 13.9306 6.84672 13.9133C6.27814 13.8945 5.9239 13.5261 5.90125 12.9717C5.89882 12.9136 5.89478 12.8554 5.89154 12.7918C5.68288 12.7078 5.47259 12.6379 5.27848 12.539C5.11187 12.4541 5.00107 12.4675 4.8563 12.5963C4.47131 12.9395 3.94237 12.9481 3.57033 12.612C3.14976 12.2319 2.74294 11.8369 2.34825 11.4316C2.03444 11.1089 1.97701 10.6149 2.2698 10.3047C2.50839 10.0518 2.49787 9.85231 2.33854 9.59629C2.28759 9.51382 2.27546 9.40702 2.22208 9.32691C2.18083 9.26487 2.10157 9.18477 2.03929 9.18555C1.51358 9.19105 1.2022 8.91382 1.00081 8.47718V6.41958C1.21514 5.99157 1.53137 5.71827 2.05547 5.73241C2.10966 5.73398 2.18973 5.65859 2.21722 5.60047C2.32318 5.37979 2.41295 5.15126 2.46957 5.02011C2.32479 4.66906 2.13715 4.39262 2.11693 4.1044C2.10157 3.88608 2.25605 3.61906 2.41133 3.43451C2.6847 3.11016 3.01631 2.83215 3.32284 2.53451C3.96259 1.91487 4.34838 1.89917 5.03908 2.4654C5.27848 2.37194 5.52597 2.28791 5.75971 2.17639C5.82684 2.14419 5.8875 2.0366 5.89397 1.95807C5.95059 1.32587 6.29756 1.00623 6.95348 1.00309C7.45816 1.00074 7.96285 0.996809 8.46672 1.00466C9.02155 1.01252 9.40411 1.35964 9.42513 1.89524C9.43241 2.08765 9.5052 2.16932 9.68233 2.2243C9.891 2.28869 10.09 2.38372 10.2461 2.44733C10.4871 2.31461 10.682 2.16147 10.9044 2.0955C11.2449 1.99419 11.5611 2.09707 11.8183 2.34524C12.1402 2.65623 12.4629 2.96644 12.7832 3.27901C13.3906 3.87273 13.4019 4.26854 12.822 4.90937C12.9183 5.14498 13.0129 5.38922 13.1221 5.62796C13.1447 5.67744 13.2208 5.72299 13.279 5.73477C14.1525 5.90597 14.2908 6.05754 14.332 6.90728C14.3329 6.92613 14.3409 6.94419 14.3579 7.01173C14.4712 7.01173 14.5973 7.01173 14.7227 7.01173C19.1718 7.01173 23.621 7.01173 28.0709 7.01173C29.0601 7.01173 29.7855 7.49707 30.0217 8.32796C30.0799 8.53293 30.1018 8.75283 30.1026 8.96566C30.1091 10.5332 30.1066 12.1007 30.105 13.6683C30.105 13.7743 30.1002 13.8866 30.0678 13.9863C29.9991 14.2 29.8308 14.3075 29.606 14.2848C29.3844 14.2628 29.2364 14.134 29.2073 13.9086C29.1951 13.812 29.1984 13.713 29.1984 13.6149C29.1984 12.0772 29.1984 10.5387 29.1984 9.001C29.1984 8.25964 28.8271 7.89445 28.0717 7.89367C26.3361 7.8921 24.6012 7.89367 22.8656 7.89367C22.7758 7.89367 22.686 7.89367 22.5501 7.89367V8.2188C22.5501 9.45335 22.5501 10.6879 22.5501 11.9217C22.5501 12.6403 22.2387 12.9473 21.5108 12.9481C20.6632 12.9497 19.8156 12.9505 18.968 12.9481C18.3266 12.9458 18.0015 12.6316 17.9999 12.0065C17.9959 10.7523 17.9991 9.4989 17.9983 8.24471C17.9983 8.13948 17.9983 8.03424 17.9983 7.91094H14.3288C14.3288 8.02403 14.332 8.13712 14.3288 8.24943C14.3118 8.76225 13.9487 9.14943 13.4238 9.16749C13.2135 9.17456 13.1059 9.23424 13.0639 9.42665C13.0534 9.47377 13.0356 9.52246 13.0097 9.5633C12.8366 9.83424 12.8107 10.0549 13.0784 10.3235C13.338 10.5842 13.3178 11.0547 13.0606 11.3311C12.6215 11.8023 12.1435 12.2397 11.6736 12.6827C11.5911 12.7604 11.4657 12.7965 11.3622 12.8507V17.7363C11.9858 17.7756 12.6004 17.778 13.2038 17.8604C14.6216 18.0544 15.9181 18.5861 17.1321 19.3086C17.7678 19.6871 18.393 20.0837 19.0085 20.4929C20.3211 21.3646 20.9617 22.5897 20.9884 24.1259C20.99 24.2036 20.9884 24.2806 20.9884 24.3999C23.7318 23.3625 26.4501 22.3353 29.1911 21.2986C29.1911 21.0293 29.1927 20.7363 29.1911 20.4434C29.1822 19.0227 29.1717 17.602 29.1652 16.1822C29.1652 16.0573 29.1482 15.8916 29.2194 15.8154C29.3342 15.6921 29.5251 15.5468 29.6666 15.5617C29.809 15.5767 29.9489 15.7628 30.0532 15.9002C30.1026 15.9646 30.0702 16.0903 30.071 16.1884C30.0816 17.7756 30.0921 19.3628 30.1026 20.9492C30.1026 21.0465 30.1026 21.1439 30.1026 21.2562C30.1802 21.2751 30.2449 21.2924 30.3096 21.3065C31.7719 21.6191 32.4351 23.0696 31.6967 24.3426C31.3562 24.9301 30.8289 25.3094 30.211 25.5874C28.4656 26.3743 26.7219 27.1628 24.9773 27.9505C23.2691 28.7217 21.5634 29.4976 19.8512 30.2602C19.0149 30.6324 18.1528 30.9316 17.2218 30.9921C16.0726 31.0667 15.0292 30.7164 14.0441 30.1965C12.9466 29.6177 11.875 28.9926 10.7904 28.3903C9.97268 27.9371 9.08868 27.7502 8.12218 27.7738C8.11571 27.8947 8.11086 28.0094 8.10439 28.124C8.06475 28.8238 7.58434 29.3115 6.8629 29.368C6.60247 29.3884 6.3388 29.3798 6.07676 29.3798C4.61366 29.3806 3.15056 29.3759 1.68828 29.3837C1.41086 29.3853 1.17389 29.3366 1.00081 29.112V28.7594L1 28.7562ZM3.01711 10.7515C3.44092 11.1717 3.82752 11.5541 4.26912 11.9924C4.33867 11.9052 4.40904 11.7968 4.49962 11.7073C4.81181 11.3986 4.93071 11.3955 5.32297 11.5738C5.67722 11.7348 6.0436 11.8738 6.41321 12.0002C6.67849 12.0913 6.81114 12.2492 6.80709 12.5209C6.80466 12.6835 6.80709 12.846 6.80709 13.0141H8.52576C8.52576 12.8672 8.52495 12.7416 8.52576 12.6159C8.529 12.202 8.60907 12.1172 9.00214 11.9798C9.36124 11.8541 9.71549 11.712 10.0568 11.5471C10.3431 11.4089 10.5728 11.4261 10.7879 11.6586C10.8923 11.7709 11.0104 11.8714 11.0945 11.9507C11.5158 11.5424 11.9057 11.163 12.319 10.7617C12.226 10.6785 12.1168 10.578 12.0044 10.4806C11.7666 10.2748 11.7383 10.0565 11.8871 9.77377C12.065 9.43608 12.213 9.08032 12.3392 8.72063C12.4411 8.42927 12.6045 8.2722 12.9312 8.29262C13.0873 8.30283 13.2442 8.29419 13.3979 8.29419V6.61906C13.2369 6.61906 13.097 6.62063 12.9579 6.61906C12.5632 6.61278 12.4718 6.53346 12.34 6.18634C12.2009 5.82037 12.0488 5.45754 11.8725 5.10728C11.7472 4.85833 11.7633 4.65571 11.9704 4.47273C12.0966 4.36121 12.2357 4.26382 12.3351 4.18608C11.8887 3.74707 11.4964 3.36068 11.054 2.9256C10.9812 3.01592 10.9044 3.13293 10.8057 3.22953C10.5146 3.51697 10.3973 3.52011 10.0325 3.35126C9.6977 3.19655 9.35234 3.05754 9.00295 2.93738C8.61473 2.80388 8.529 2.70964 8.52576 2.29812C8.52495 2.16618 8.52576 2.03424 8.52576 1.90309H6.80709C6.80709 2.05937 6.8079 2.19445 6.80709 2.33032C6.80305 2.69786 6.71004 2.80309 6.35579 2.92796C5.9975 3.0544 5.64244 3.19498 5.29709 3.35204C4.92747 3.52011 4.82314 3.51461 4.52389 3.22796C4.41955 3.12822 4.31522 3.02848 4.23191 2.94917C3.81215 3.35911 3.42232 3.73922 2.99851 4.15231C3.1166 4.25519 3.25571 4.36828 3.3843 4.49157C3.56466 4.66435 3.5768 4.85676 3.47165 5.08136C3.28887 5.47168 3.1174 5.86827 2.9605 6.2688C2.87396 6.48948 2.73242 6.60885 2.49221 6.61356C2.30376 6.61749 2.11532 6.61435 1.92606 6.61435V8.29183C2.08297 8.29183 2.22208 8.29183 2.36119 8.29183C2.76882 8.29419 2.87153 8.37115 2.99366 8.74026C3.06402 8.95388 3.11498 9.18555 3.2363 9.36932C3.59863 9.9167 3.6787 10.4013 3.01631 10.7484L3.01711 10.7515ZM21.6411 7.91094H18.9292V12.0418H21.6411V7.91094Z" fill="#FF6F3C" stroke="#FF6F3C" stroke-width="0.5"/>
<path d="M25.5084 20.5219C25.0846 20.5219 24.6608 20.5259 24.2378 20.5211C23.9078 20.5172 23.7064 20.3484 23.7032 20.0845C23.6999 19.8222 23.9029 19.6431 24.2281 19.6423C25.0854 19.6384 25.9427 19.6384 26.8 19.6423C27.1235 19.6439 27.3298 19.8277 27.3225 20.0892C27.316 20.3382 27.1138 20.5156 26.8097 20.5204C26.3762 20.5266 25.9427 20.5219 25.5084 20.5219Z" fill="#FF6F3C" stroke="#FF6F3C" stroke-width="0.5"/>
<path d="M25.4869 18.7432C25.0736 18.7432 24.6603 18.7487 24.247 18.7416C23.8976 18.7361 23.693 18.5571 23.7035 18.2838C23.7132 18.0207 23.9065 17.8652 24.2503 17.8636C25.0971 17.8597 25.9439 17.8589 26.7898 17.8636C27.1174 17.8652 27.3228 18.0427 27.322 18.3002C27.3204 18.5563 27.1134 18.7353 26.7874 18.7408C26.3539 18.7479 25.9204 18.7424 25.4869 18.7424V18.7432Z" fill="#FF6F3C" stroke="#FF6F3C" stroke-width="0.5"/>
<path d="M7.65081 10.7689C5.77604 10.765 4.25229 9.27756 4.25391 7.454C4.25553 5.6218 5.8084 4.12101 7.68559 4.13908C9.5644 4.15635 11.093 5.64693 11.0914 7.45871C11.0898 9.28463 9.54257 10.7728 7.65081 10.7689ZM5.16218 7.45164C5.15894 8.79222 6.27588 9.88227 7.65728 9.8862C9.05082 9.89012 10.1944 8.78515 10.1831 7.44536C10.1718 6.11028 9.0395 5.01944 7.66618 5.02101C6.28882 5.02259 5.16541 6.11342 5.16298 7.45164H5.16218Z" fill="#FF6F3C" stroke="#FF6F3C" stroke-width="0.5"/>
</svg>
