<svg width="27" height="22" viewBox="0 0 27 22" fill="none" xmlns="http://www.w3.org/2000/svg">
<path d="M2.40184 14.2871C1.82667 13.5399 1.48332 13.0856 1.25722 12.5738C1.04463 12.0926 0.91649 11.5081 0.91649 10.5146C0.91649 9.52116 1.04463 8.93668 1.25722 8.45547C1.48332 7.94368 1.82666 7.48942 2.40184 6.74218C4.54961 3.95187 8.0527 0.91678 13.1429 0.91678C18.2332 0.91678 21.7362 3.95184 23.884 6.74216C24.4592 7.48942 24.8025 7.94368 25.0286 8.45548C25.2412 8.9367 25.3694 9.52117 25.3694 10.5146C25.3694 11.5081 25.2412 12.0926 25.0286 12.5738C24.8025 13.0856 24.4592 13.5399 23.884 14.2871C21.7362 17.0774 18.2332 20.1125 13.1429 20.1125C8.0527 20.1125 4.54961 17.0774 2.40184 14.2871Z" stroke="#FF6F3C" stroke-width="1.83298"/>
<path d="M16.1685 10.5145C16.1685 12.1859 14.8136 13.5408 13.1421 13.5408C11.4706 13.5408 10.1157 12.1859 10.1157 10.5145C10.1157 8.84297 11.4706 7.48807 13.1421 7.48807C14.8136 7.48807 16.1685 8.84297 16.1685 10.5145Z" stroke="#1A3E59" stroke-width="1.83298"/>
</svg>
