<svg width="21" height="22" viewBox="0 0 21 22" fill="none" xmlns="http://www.w3.org/2000/svg">
<mask id="path-1-inside-1_1_3225" fill="white">
<path d="M9.28377 0.814453H7.22071C2.06306 0.814453 0 2.87751 0 8.03516V14.2243C0 19.382 2.06306 21.4451 7.22071 21.4451H13.4099C18.5675 21.4451 20.6306 19.382 20.6306 14.2243V12.1613"/>
</mask>
<path d="M9.28377 2.81445C10.3883 2.81445 11.2838 1.91902 11.2838 0.814453C11.2838 -0.290116 10.3883 -1.18555 9.28377 -1.18555V2.81445ZM22.6306 12.1613C22.6306 11.0567 21.7352 10.1613 20.6306 10.1613C19.526 10.1613 18.6306 11.0567 18.6306 12.1613H22.6306ZM9.28377 -1.18555H7.22071V2.81445H9.28377V-1.18555ZM7.22071 -1.18555C4.44463 -1.18555 1.98108 -0.642579 0.262023 1.07648C-1.45703 2.79553 -2 5.25908 -2 8.03516H2C2 5.6536 2.48856 4.50679 3.09045 3.9049C3.69234 3.30302 4.83915 2.81445 7.22071 2.81445V-1.18555ZM-2 8.03516V14.2243H2V8.03516H-2ZM-2 14.2243C-2 17.0004 -1.45703 19.464 0.262023 21.183C1.98108 22.9021 4.44463 23.4451 7.22071 23.4451V19.4451C4.83915 19.4451 3.69234 18.9565 3.09045 18.3546C2.48856 17.7527 2 16.6059 2 14.2243H-2ZM7.22071 23.4451H13.4099V19.4451H7.22071V23.4451ZM13.4099 23.4451C16.186 23.4451 18.6495 22.9021 20.3686 21.183C22.0876 19.464 22.6306 17.0004 22.6306 14.2243H18.6306C18.6306 16.6059 18.142 17.7527 17.5402 18.3546C16.9383 18.9565 15.7915 19.4451 13.4099 19.4451V23.4451ZM22.6306 14.2243V12.1613H18.6306V14.2243H22.6306Z" fill="white" mask="url(#path-1-inside-1_1_3225)"/>
<path d="M6.66208 11.4978L6.66253 11.4946C6.67363 11.415 6.72024 11.2593 6.81318 11.0744C6.90597 10.8897 7.00355 10.7583 7.06004 10.7018L15.1885 2.57335C15.8327 1.92915 16.3841 1.61036 16.8794 1.56173C17.3223 1.51826 17.9671 1.67039 18.8701 2.57335C19.773 3.4763 19.9252 4.1211 19.8817 4.564C19.8331 5.05935 19.5143 5.61069 18.8701 6.2549L19.5356 6.92041L18.8701 6.2549L10.7489 14.3761C10.6809 14.4404 10.5433 14.5388 10.3614 14.6303C10.1732 14.7248 10.0195 14.7708 9.94567 14.7814L6.84583 15.2242C6.84513 15.2243 6.84442 15.2244 6.84372 15.2245C6.54571 15.265 6.39331 15.1747 6.3275 15.1092C6.26342 15.0454 6.17496 14.8995 6.21797 14.6065L6.21851 14.6027L6.66208 11.4978Z" stroke="white" stroke-width="2" stroke-miterlimit="10" stroke-linecap="round" stroke-linejoin="round"/>
<g opacity="0.4">
<mask id="path-4-inside-2_1_3225" fill="white">
<path d="M13.3203 3.03223C14.0114 5.49758 15.9404 7.42655 18.4161 8.12799Z"/>
</mask>
<path d="M15.2461 2.49237C14.9479 1.4288 13.844 0.808311 12.7805 1.10647C11.7169 1.40462 11.0964 2.50852 11.3946 3.57208L15.2461 2.49237ZM17.8709 10.0522C18.9336 10.3533 20.0392 9.73593 20.3403 8.67319C20.6414 7.61046 20.024 6.50484 18.9613 6.20373L17.8709 10.0522ZM11.3946 3.57208C12.2747 6.7118 14.7295 9.16219 17.8709 10.0522L18.9613 6.20373C17.1513 5.6909 15.7482 4.28337 15.2461 2.49237L11.3946 3.57208Z" fill="white" mask="url(#path-4-inside-2_1_3225)"/>
</g>
</svg>
