<svg width="28" height="28" viewBox="0 0 28 28" fill="none" xmlns="http://www.w3.org/2000/svg">
<path d="M13.0666 0.000218739C12.0791 0.000218739 11.1402 0.183151 10.2778 0.550881C9.41913 0.901812 8.65753 1.41514 8.02474 2.08154L8.021 2.089L8.01727 2.09274C7.38827 2.78747 6.90239 3.59939 6.58742 4.48205C6.24186 5.43937 6.07115 6.45099 6.08342 7.46869C6.08342 8.55135 6.24582 9.56308 6.58742 10.4777C6.92341 11.3775 7.40128 12.1727 8.01727 12.8409L8.021 12.8447L8.02474 12.8484C8.65567 13.5129 9.41166 14.0356 10.2666 14.4014L10.2741 14.4052L10.2815 14.4089C11.1439 14.7598 12.081 14.9334 13.0666 14.9334C14.0522 14.9334 14.9855 14.7598 15.8479 14.4089V14.4052C16.6899 14.0488 17.4469 13.5183 18.0692 12.8484C18.7039 12.1801 19.1892 11.3812 19.5252 10.4777C19.8705 9.56308 20.0329 8.55322 20.0329 7.46683H20.0478C20.0478 6.39724 19.8854 5.39671 19.5438 4.48392C19.2277 3.59431 18.7321 2.77915 18.0879 2.089C17.4658 1.41837 16.7036 0.89319 15.8553 0.550881C14.9727 0.180036 14.0239 -0.00731914 13.0666 0.000218739ZM13.0666 1.86687C13.8244 1.86687 14.5039 2.00314 15.1236 2.2682L15.1423 2.27567L15.1609 2.2794C15.7554 2.51685 16.2892 2.88421 16.7233 3.35459V3.37326C17.1713 3.84552 17.5279 4.42605 17.7855 5.12791V5.13725C18.0281 5.79244 18.1476 6.54283 18.1569 7.38096V7.46683C18.1569 8.36655 18.0225 9.14682 17.7705 9.82254V9.82628C17.5375 10.4718 17.1755 11.0631 16.7065 11.5641L16.6879 11.5716V11.5791C16.2511 12.0513 15.7284 12.4191 15.1049 12.6879C14.4564 12.9448 13.7641 13.0735 13.0666 13.0668C12.3012 13.0668 11.6162 12.9324 10.9946 12.6804H10.989C10.4004 12.426 9.86863 12.0566 9.42473 11.594L9.32953 11.4633L9.31459 11.4521C8.89268 10.9743 8.56181 10.4233 8.33834 9.82628C8.0687 9.06938 7.9372 8.27021 7.95007 7.46683C7.95007 6.58763 8.0826 5.81297 8.33834 5.13351L8.34207 5.12978V5.12231C8.5978 4.42045 8.94686 3.84552 9.37619 3.37513L9.39859 3.35646C9.84659 2.8898 10.3693 2.52953 10.9852 2.27753L10.9964 2.27007L11.0114 2.26633C11.6274 2.005 12.3087 1.86687 13.0666 1.86687ZM13.1226 18.7134C7.74287 18.7134 4.8533 19.2099 2.70851 20.8283C1.63519 21.6385 0.927726 22.7416 0.528263 24.0259C0.128799 25.3102 0.0037333 26.2883 0 27.9963L1.86665 28C1.87039 26.3853 2.00105 25.5734 2.31092 24.5766C2.62078 23.5798 3.07998 22.891 3.83597 22.3198C5.34796 21.1811 7.87167 20.5763 13.1207 20.5763C14.558 20.5763 15.7471 20.6342 16.7999 20.7238V18.831C15.5759 18.7478 14.3493 18.7086 13.1226 18.7134Z" fill="#9E9E9E"/>
<path d="M22.4013 18.6667V22.4001H18.668V24.2667H22.4013V28H24.2679V24.2667H28.0012V22.4001H24.2679V18.6667H22.4013Z" fill="#9E9E9E"/>
</svg>
