<svg width="40" height="40" viewBox="0 0 40 40" fill="none" xmlns="http://www.w3.org/2000/svg">
<circle cx="20" cy="20" r="20" fill="#1A3E59"/>
<path d="M27.3641 13H12.7994C11.2534 13 10 14.2534 10 15.7994V25.0141C10 26.5601 11.2534 27.8135 12.7994 27.8135H27.3641C28.9101 27.8135 30.1635 26.5601 30.1635 25.0141V15.7994C30.1635 14.2534 28.9101 13 27.3641 13ZM17.0165 22.9949L13.0964 26.3392C12.8199 26.5752 12.4043 26.5424 12.1683 26.2656C11.9323 25.9891 11.9652 25.5734 12.242 25.3375L16.162 21.9932C16.4385 21.7572 16.8541 21.79 17.0901 22.0668C17.3261 22.3433 17.2933 22.759 17.0165 22.9949ZM20.0818 21.7235C19.5574 21.7222 19.0492 21.548 18.6518 21.2043L18.6521 21.2047L18.6509 21.2037C18.6512 21.204 18.6515 21.204 18.6518 21.2043L12.6371 15.9839C12.3622 15.7453 12.3329 15.3297 12.5712 15.0552C12.8097 14.7803 13.2254 14.751 13.4999 14.9893L19.5163 20.211C19.6449 20.3254 19.8567 20.408 20.0818 20.4067C20.3065 20.4074 20.5148 20.327 20.6504 20.2087L20.6533 20.2062L26.6636 14.9893C26.9381 14.7511 27.3538 14.7803 27.5923 15.0552C27.8305 15.3297 27.8013 15.7454 27.5264 15.984L21.5101 21.206C21.114 21.546 20.6064 21.7228 20.0818 21.7235ZM27.9955 26.2656C27.7595 26.5424 27.3438 26.5752 27.0674 26.3392L23.1473 22.9949C22.8705 22.7589 22.8377 22.3433 23.0737 22.0668C23.3096 21.79 23.7253 21.7573 24.0018 21.9932L27.9219 25.3375C28.1986 25.5734 28.2314 25.9891 27.9955 26.2656Z" fill="white"/>
</svg>
