<svg width="33" height="31" viewBox="0 0 33 31" fill="none" xmlns="http://www.w3.org/2000/svg">
<path d="M1 28.4742C1.17551 28.2513 1.41248 28.2081 1.68909 28.2097C3.31313 28.2183 4.93718 28.2144 6.56122 28.2136C7.09583 28.2136 7.19774 28.114 7.19854 27.5937C7.19935 26.4879 7.19854 25.3813 7.19854 24.2756C7.19854 24.1877 7.1945 24.099 7.2034 24.0119C7.23251 23.7317 7.41206 23.5685 7.67411 23.5787C7.92241 23.5881 8.09387 23.749 8.10034 24.0205C8.11247 24.5393 8.106 25.058 8.10681 25.5768C8.10681 25.9079 8.10681 26.2383 8.10681 26.5624C8.62767 26.6237 9.11941 26.659 9.60307 26.7429C10.4191 26.885 11.1357 27.2695 11.8466 27.6619C12.8795 28.2317 13.8993 28.8266 14.954 29.3547C16.2117 29.9849 17.5235 29.9826 18.8111 29.434C20.3785 28.7661 21.9298 28.0637 23.4843 27.3676C25.5871 26.4251 27.6859 25.4747 29.7863 24.5267C30.3711 24.263 30.8709 23.9154 31.044 23.2663C31.2284 22.5734 30.7763 21.9314 30.0387 21.9008C29.695 21.8867 29.3229 21.9267 29.0043 22.0444C26.277 23.0576 23.5595 24.0943 20.8412 25.1279C20.7538 25.1608 20.6648 25.2252 20.6099 25.2982C19.9434 26.181 19.1265 26.4651 18.0436 26.1402C17.682 26.0319 17.3221 25.8789 17.0035 25.6827C15.6156 24.8296 14.2423 23.9546 12.8681 23.0803C12.7484 23.0042 12.5964 22.8802 12.5843 22.7656C12.5681 22.615 12.6336 22.4164 12.7387 22.3034C12.89 22.1394 13.1043 22.1841 13.2911 22.3026C13.9414 22.7131 14.5933 23.1227 15.2444 23.5332C15.9545 23.9805 16.6597 24.4357 17.3763 24.8728C17.6303 25.0282 17.9012 25.1679 18.1827 25.2683C19.1912 25.6285 19.9774 25.1498 20.0607 24.11C20.1521 22.9681 19.8092 21.9338 18.8685 21.2345C17.4604 20.1884 15.982 19.2325 14.2544 18.7201C12.6886 18.2555 11.1446 18.2194 9.61843 18.8731C9.22294 19.0426 8.81369 19.1847 8.40445 19.3212C8.18526 19.3942 8.09306 19.4962 8.10034 19.7395C8.12056 20.4733 8.11247 21.2078 8.10358 21.9416C8.10034 22.2359 7.90462 22.4258 7.64661 22.4203C7.39831 22.4148 7.22443 22.2351 7.20259 21.9542C7.19531 21.8663 7.19935 21.7784 7.19935 21.6897C7.19935 20.5839 7.19935 19.4774 7.19935 18.3716C7.19935 17.8497 7.10392 17.7587 6.5596 17.7587C4.93556 17.7587 3.31151 17.7548 1.68747 17.7618C1.41006 17.7634 1.17308 17.7163 1.00081 17.4903V17.1379C1.17712 16.9174 1.41248 16.8672 1.6899 16.8735C2.27465 16.8868 2.8594 16.8774 3.44415 16.8774C4.53278 16.8774 5.62222 16.8711 6.71085 16.8797C7.54956 16.886 8.07446 17.3851 8.10681 18.1841C8.11086 18.2759 8.11975 18.3677 8.12703 18.4744C8.84281 18.2202 9.51815 17.9659 10.2048 17.7454C10.4021 17.6818 10.4458 17.6002 10.445 17.4189C10.4394 15.8344 10.4418 14.2491 10.4418 12.6646C10.4418 12.5862 10.445 12.5077 10.4418 12.43C10.4321 12.2291 10.3625 12.1294 10.1369 12.2401C9.97592 12.3193 9.79152 12.3578 9.63946 12.448C9.54969 12.5014 9.45263 12.616 9.44293 12.7117C9.38227 13.2823 9.05471 13.6244 8.47966 13.6417C7.93616 13.6582 7.39023 13.659 6.84672 13.6417C6.27814 13.6229 5.9239 13.2548 5.90125 12.7007C5.89882 12.6427 5.89478 12.5846 5.89154 12.521C5.68288 12.4371 5.47259 12.3672 5.27848 12.2683C5.11187 12.1836 5.00107 12.1969 4.8563 12.3256C4.47131 12.6686 3.94237 12.6772 3.57033 12.3413C3.14976 11.9615 2.74294 11.5667 2.34825 11.1618C2.03444 10.8392 1.97701 10.3456 2.2698 10.0356C2.50839 9.7829 2.49787 9.58356 2.33854 9.32772C2.28759 9.24532 2.27546 9.13859 2.22208 9.05854C2.18083 8.99654 2.10157 8.9165 2.03929 8.91728C1.51358 8.92277 1.2022 8.64574 1.00081 8.2094V6.15326C1.21514 5.72555 1.53137 5.45244 2.05547 5.46657C2.10966 5.46814 2.18973 5.3928 2.21722 5.33472C2.32318 5.1142 2.41295 4.88583 2.46957 4.75477C2.32479 4.40397 2.13715 4.12772 2.11693 3.8397C2.10157 3.62153 2.25605 3.35471 2.41133 3.17028C2.6847 2.84616 3.01631 2.56835 3.32284 2.27091C3.96259 1.65172 4.34838 1.63602 5.03908 2.20185C5.27848 2.10846 5.52597 2.02449 5.75971 1.91305C5.82684 1.88087 5.8875 1.77336 5.89397 1.69488C5.95059 1.06313 6.29756 0.743717 6.95348 0.740577C7.45816 0.738223 7.96285 0.734299 8.46672 0.742147C9.02155 0.749995 9.40411 1.09687 9.42513 1.6321C9.43241 1.82437 9.5052 1.90599 9.68233 1.96092C9.891 2.02527 10.09 2.12023 10.2461 2.1838C10.4871 2.05117 10.682 1.89814 10.9044 1.83222C11.2449 1.73098 11.5611 1.83379 11.8183 2.08178C12.1402 2.39256 12.4629 2.70255 12.7832 3.01489C13.3906 3.60819 13.4019 4.00372 12.822 4.64411C12.9183 4.87955 13.0129 5.12362 13.1221 5.36219C13.1447 5.41163 13.2208 5.45715 13.279 5.46892C14.1525 5.64001 14.2908 5.79147 14.332 6.64061C14.3329 6.65945 14.3409 6.6775 14.3579 6.74499C14.4712 6.74499 14.5973 6.74499 14.7227 6.74499C19.1718 6.74499 23.621 6.74499 28.0709 6.74499C29.0601 6.74499 29.7855 7.22999 30.0217 8.06029C30.0799 8.26512 30.1018 8.48486 30.1026 8.69754C30.1091 10.264 30.1066 11.8304 30.105 13.3968C30.105 13.5028 30.1002 13.615 30.0678 13.7147C29.9991 13.9282 29.8308 14.0357 29.606 14.0129C29.3844 13.9909 29.2364 13.8622 29.2073 13.637C29.1951 13.5405 29.1984 13.4416 29.1984 13.3435C29.1984 11.8069 29.1984 10.2695 29.1984 8.73285C29.1984 7.99202 28.8271 7.62709 28.0717 7.6263C26.3361 7.62473 24.6012 7.6263 22.8656 7.6263C22.7758 7.6263 22.686 7.6263 22.5501 7.6263V7.95121C22.5501 9.18489 22.5501 10.4186 22.5501 11.6515C22.5501 12.3696 22.2387 12.6764 21.5108 12.6772C20.6632 12.6788 19.8156 12.6796 18.968 12.6772C18.3266 12.6748 18.0015 12.3609 17.9999 11.7362C17.9959 10.4829 17.9991 9.23041 17.9983 7.9771C17.9983 7.87194 17.9983 7.76678 17.9983 7.64357H14.3288C14.3288 7.75658 14.332 7.86959 14.3288 7.98181C14.3118 8.49428 13.9487 8.88118 13.4238 8.89923C13.2135 8.90629 13.1059 8.96594 13.0639 9.15821C13.0534 9.2053 13.0356 9.25395 13.0097 9.29476C12.8366 9.56551 12.8107 9.78604 13.0784 10.0544C13.338 10.315 13.3178 10.7851 13.0606 11.0613C12.6215 11.5322 12.1435 11.9693 11.6736 12.4119C11.5911 12.4896 11.4657 12.5257 11.3622 12.5799V17.462C11.9858 17.5013 12.6004 17.5036 13.2038 17.586C14.6216 17.7799 15.9181 18.3112 17.1321 19.0332C17.7678 19.4115 18.393 19.8078 19.0085 20.2167C20.3211 21.0878 20.9617 22.312 20.9884 23.8471C20.99 23.9248 20.9884 24.0017 20.9884 24.121C23.7318 23.0843 26.4501 22.0578 29.1911 21.0218C29.1911 20.7527 29.1927 20.4599 29.1911 20.1672C29.1822 18.7475 29.1717 17.3279 29.1652 15.909C29.1652 15.7842 29.1482 15.6186 29.2194 15.5425C29.3342 15.4192 29.5251 15.2741 29.6666 15.289C29.809 15.3039 29.9489 15.4899 30.0532 15.6272C30.1026 15.6916 30.0702 15.8171 30.071 15.9152C30.0816 17.5013 30.0921 19.0873 30.1026 20.6726C30.1026 20.7699 30.1026 20.8672 30.1026 20.9795C30.1802 20.9983 30.2449 21.0156 30.3096 21.0297C31.7719 21.342 32.4351 22.7915 31.6967 24.0637C31.3562 24.6507 30.8289 25.0298 30.211 25.3076C28.4656 26.0939 26.7219 26.8819 24.9773 27.669C23.2691 28.4397 21.5634 29.215 19.8512 29.9771C19.0149 30.349 18.1528 30.6481 17.2218 30.7085C16.0726 30.783 15.0292 30.433 14.0441 29.9135C12.9466 29.3351 11.875 28.7104 10.7904 28.1085C9.97268 27.6557 9.08868 27.4689 8.12218 27.4924C8.11571 27.6133 8.11086 27.7279 8.10439 27.8424C8.06475 28.5417 7.58434 29.029 6.8629 29.0855C6.60247 29.1059 6.3388 29.0973 6.07676 29.0973C4.61366 29.0981 3.15056 29.0934 1.68828 29.1012C1.41086 29.1028 1.17389 29.0541 1.00081 28.8297V28.4773L1 28.4742ZM3.01711 10.4821C3.44092 10.902 3.82752 11.2842 4.26912 11.7221C4.33867 11.635 4.40904 11.5267 4.49962 11.4372C4.81181 11.1288 4.93071 11.1257 5.32297 11.3038C5.67722 11.4647 6.0436 11.6036 6.41321 11.73C6.67849 11.821 6.81114 11.9787 6.80709 12.2503C6.80466 12.4127 6.80709 12.5752 6.80709 12.7431H8.52576C8.52576 12.5964 8.52495 12.4708 8.52576 12.3452C8.529 11.9317 8.60907 11.8469 9.00214 11.7096C9.36124 11.584 9.71549 11.4419 10.0568 11.2771C10.3431 11.139 10.5728 11.1563 10.7879 11.3886C10.8923 11.5008 11.0104 11.6013 11.0945 11.6805C11.5158 11.2724 11.9057 10.8934 12.319 10.4923C12.226 10.4092 12.1168 10.3087 12.0044 10.2114C11.7666 10.0058 11.7383 9.78761 11.8871 9.50509C12.065 9.16763 12.213 8.81212 12.3392 8.45269C12.4411 8.16153 12.6045 8.00457 12.9312 8.02498C13.0873 8.03518 13.2442 8.02655 13.3979 8.02655V6.35259C13.2369 6.35259 13.097 6.35416 12.9579 6.35259C12.5632 6.34632 12.4718 6.26705 12.34 5.92018C12.2009 5.55446 12.0488 5.19189 11.8725 4.84188C11.7472 4.5931 11.7633 4.39063 11.9704 4.20777C12.0966 4.09633 12.2357 3.99902 12.3351 3.92132C11.8887 3.48263 11.4964 3.09651 11.054 2.66174C10.9812 2.75199 10.9044 2.86892 10.8057 2.96545C10.5146 3.25268 10.3973 3.25582 10.0325 3.08709C9.6977 2.93249 9.35234 2.79358 9.00295 2.67351C8.61473 2.5401 8.529 2.44592 8.52576 2.03469C8.52495 1.90285 8.52576 1.771 8.52576 1.63994H6.80709C6.80709 1.79612 6.8079 1.9311 6.80709 2.06687C6.80305 2.43415 6.71004 2.53931 6.35579 2.66409C5.9975 2.79044 5.64244 2.93092 5.29709 3.08788C4.92747 3.25582 4.82314 3.25033 4.52389 2.96388C4.41955 2.86421 4.31522 2.76454 4.23191 2.68528C3.81215 3.09494 3.42232 3.47478 2.99851 3.88758C3.1166 3.99038 3.25571 4.10339 3.3843 4.2266C3.56466 4.39926 3.5768 4.59153 3.47165 4.81598C3.28887 5.20602 3.1174 5.60234 2.9605 6.00258C2.87396 6.2231 2.73242 6.34239 2.49221 6.3471C2.30376 6.35102 2.11532 6.34789 1.92606 6.34789V8.02419C2.08297 8.02419 2.22208 8.02419 2.36119 8.02419C2.76882 8.02655 2.87153 8.10346 2.99366 8.47231C3.06402 8.68577 3.11498 8.91728 3.2363 9.10092C3.59863 9.64792 3.6787 10.1321 3.01631 10.479L3.01711 10.4821ZM21.6411 7.64357H18.9292V11.7716H21.6411V7.64357Z" fill="#3F3F3F" stroke="#3F3F3F" stroke-width="0.5"/>
<path d="M25.5084 20.2463C25.0846 20.2463 24.6608 20.2502 24.2378 20.2455C23.9078 20.2416 23.7064 20.0727 23.7032 19.8089C23.6999 19.5466 23.9029 19.3675 24.2281 19.3667C25.0854 19.3628 25.9427 19.3628 26.8 19.3667C27.1235 19.3683 27.3298 19.5521 27.3225 19.8136C27.316 20.0625 27.1138 20.24 26.8097 20.2447C26.3762 20.251 25.9427 20.2463 25.5084 20.2463Z" fill="#3F3F3F" stroke="#3F3F3F" stroke-width="0.5"/>
<path d="M25.4869 18.4688C25.0736 18.4688 24.6603 18.4743 24.247 18.4673C23.8976 18.4618 23.693 18.2827 23.7035 18.0094C23.7132 17.7463 23.9065 17.5908 24.2503 17.5892C25.0971 17.5853 25.9439 17.5845 26.7898 17.5892C27.1174 17.5908 27.3228 17.7683 27.322 18.0259C27.3204 18.2819 27.1134 18.461 26.7874 18.4665C26.3539 18.4735 25.9204 18.468 25.4869 18.468V18.4688Z" fill="#3F3F3F" stroke="#3F3F3F" stroke-width="0.5"/>
<path d="M7.65081 10.4995C5.77604 10.4956 4.25229 9.00923 4.25391 7.18696C4.25553 5.35605 5.8084 3.85632 7.68559 3.87437C9.5644 3.89163 11.093 5.38116 11.0914 7.19166C11.0898 9.0163 9.54257 10.5035 7.65081 10.4995ZM5.16218 7.1846C5.15894 8.52423 6.27588 9.61352 7.65728 9.61744C9.05082 9.62137 10.1944 8.51717 10.1831 7.17832C10.1718 5.84418 9.0395 4.75411 7.66618 4.75568C6.28882 4.75725 5.16541 5.84732 5.16298 7.1846H5.16218Z" fill="#3F3F3F" stroke="#3F3F3F" stroke-width="0.5"/>
</svg>
