<svg width="33" height="31" viewBox="0 0 33 31" fill="none" xmlns="http://www.w3.org/2000/svg">
<path d="M1 28.2821C1.17551 28.0594 1.41248 28.0163 1.68909 28.0179C3.31313 28.0265 4.93718 28.0226 6.56122 28.0218C7.09583 28.0218 7.19774 27.9222 7.19854 27.4023C7.19935 26.2975 7.19854 25.1918 7.19854 24.087C7.19854 23.9991 7.1945 23.9105 7.2034 23.8235C7.23251 23.5436 7.41206 23.3804 7.67411 23.3906C7.92241 23.4001 8.09387 23.5608 8.10034 23.8321C8.11247 24.3504 8.106 24.8688 8.10681 25.3871C8.10681 25.718 8.10681 26.0481 8.10681 26.372C8.62767 26.4331 9.11941 26.4684 9.60307 26.5523C10.4191 26.6942 11.1357 27.0785 11.8466 27.4705C12.8795 28.0398 13.8993 28.6342 14.954 29.1619C16.2117 29.7916 17.5235 29.7892 18.8111 29.2411C20.3785 28.5738 21.9298 27.872 23.4843 27.1765C25.5871 26.2347 27.6859 25.2851 29.7864 24.3379C30.3711 24.0744 30.8709 23.727 31.044 23.0786C31.2284 22.3862 30.7763 21.7447 30.0387 21.7141C29.695 21.7 29.3229 21.74 29.0043 21.8576C26.277 22.87 23.5595 23.9058 20.8412 24.9385C20.7538 24.9715 20.6648 25.0358 20.6099 25.1087C19.9434 25.9909 19.1265 26.2747 18.0436 25.9501C17.682 25.8419 17.3221 25.689 17.0035 25.4929C15.6156 24.6406 14.2423 23.7662 12.8681 22.8927C12.7484 22.8167 12.5964 22.6928 12.5843 22.5783C12.5681 22.4277 12.6336 22.2293 12.7387 22.1164C12.89 21.9525 13.1043 21.9972 13.2911 22.1156C13.9414 22.5257 14.5933 22.9351 15.2444 23.3452C15.9545 23.7921 16.6597 24.2469 17.3763 24.6837C17.6303 24.839 17.9012 24.9785 18.1827 25.0789C19.1912 25.4388 19.9774 24.9605 20.0607 23.9215C20.1521 22.7806 19.8092 21.7471 18.8685 21.0484C17.4604 20.0031 15.982 19.0481 14.2544 18.536C12.6886 18.0718 11.1446 18.0357 9.61843 18.6889C9.22294 18.8583 8.81369 19.0002 8.40445 19.1367C8.18526 19.2096 8.09306 19.3115 8.10034 19.5546C8.12056 20.2878 8.11247 21.0217 8.10358 21.7549C8.10034 22.049 7.90461 22.2387 7.64661 22.2332C7.39831 22.2278 7.22443 22.0482 7.20259 21.7675C7.19531 21.6796 7.19935 21.5918 7.19935 21.5032C7.19935 20.3984 7.19935 19.2927 7.19935 18.1879C7.19935 17.6664 7.10392 17.5754 6.5596 17.5754C4.93556 17.5754 3.31151 17.5715 1.68747 17.5786C1.41006 17.5802 1.17308 17.5331 1.00081 17.3073V16.9552C1.17712 16.7348 1.41248 16.6847 1.6899 16.6909C2.27465 16.7043 2.8594 16.6949 3.44415 16.6949C4.53278 16.6949 5.62222 16.6886 6.71085 16.6972C7.54956 16.7035 8.07446 17.2022 8.10681 18.0005C8.11086 18.0922 8.11975 18.1839 8.12703 18.2906C8.84281 18.0365 9.51814 17.7825 10.2048 17.5621C10.4021 17.4986 10.4458 17.417 10.445 17.2359C10.4394 15.6527 10.4418 14.0688 10.4418 12.4856C10.4418 12.4072 10.445 12.3288 10.4418 12.2511C10.4321 12.0504 10.3625 11.9508 10.1369 12.0614C9.97592 12.1406 9.79152 12.179 9.63946 12.2692C9.54969 12.3225 9.45263 12.437 9.44293 12.5326C9.38227 13.1027 9.05471 13.4446 8.47966 13.4618C7.93616 13.4783 7.39023 13.4791 6.84672 13.4618C6.27814 13.443 5.9239 13.0753 5.90125 12.5217C5.89882 12.4636 5.89478 12.4056 5.89154 12.3421C5.68288 12.2582 5.47259 12.1884 5.27848 12.0896C5.11187 12.0049 5.00107 12.0182 4.8563 12.1468C4.47131 12.4895 3.94237 12.4981 3.57033 12.1625C3.14976 11.783 2.74294 11.3886 2.34825 10.9839C2.03444 10.6617 1.97701 10.1684 2.2698 9.8587C2.50839 9.60621 2.49787 9.40704 2.33854 9.15141C2.28759 9.06907 2.27546 8.96243 2.22208 8.88245C2.18083 8.8205 2.10157 8.74052 2.03929 8.7413C1.51358 8.74679 1.2022 8.46999 1.00081 8.034V5.97955C1.21514 5.5522 1.53137 5.27931 2.05547 5.29343C2.10966 5.295 2.18973 5.21972 2.21722 5.16169C2.32318 4.94135 2.41295 4.71316 2.46957 4.58221C2.32479 4.2317 2.13715 3.95568 2.11693 3.6679C2.10157 3.44991 2.25605 3.1833 2.41133 2.99903C2.6847 2.67518 3.01631 2.39759 3.32284 2.1004C3.96259 1.48171 4.34838 1.46603 5.03908 2.0314C5.27848 1.93808 5.52597 1.85418 5.75971 1.74283C5.82684 1.71068 5.8875 1.60326 5.89397 1.52484C5.95059 0.893607 6.29756 0.574461 6.95348 0.571324C7.45816 0.568972 7.96285 0.565051 8.46672 0.572893C9.02155 0.580734 9.40411 0.927325 9.42513 1.46211C9.43241 1.65422 9.5052 1.73578 9.68233 1.79067C9.891 1.85497 10.09 1.94985 10.2461 2.01336C10.4871 1.88084 10.682 1.72793 10.9044 1.66207C11.2449 1.56091 11.5611 1.66363 11.8183 1.91142C12.1402 2.22194 12.4629 2.53168 12.7832 2.84377C13.3906 3.43658 13.4019 3.83179 12.822 4.47165C12.9183 4.70689 13.0129 4.95076 13.1221 5.18914C13.1447 5.23854 13.2208 5.28402 13.279 5.29578C14.1525 5.46672 14.2908 5.61806 14.332 6.4665C14.3329 6.48532 14.3409 6.50336 14.3579 6.5708C14.4712 6.5708 14.5973 6.5708 14.7227 6.5708C19.1718 6.5708 23.621 6.5708 28.0709 6.5708C29.0601 6.5708 29.7855 7.0554 30.0217 7.88502C30.0799 8.08968 30.1018 8.30924 30.1026 8.52174C30.1091 10.0869 30.1066 11.652 30.105 13.2172C30.105 13.323 30.1002 13.4352 30.0678 13.5348C29.9991 13.748 29.8308 13.8555 29.606 13.8327C29.3844 13.8108 29.2364 13.6822 29.2073 13.4571C29.1951 13.3607 29.1984 13.2619 29.1984 13.1639C29.1984 11.6285 29.1984 10.0924 29.1984 8.55703C29.1984 7.8168 28.8271 7.45217 28.0717 7.45139C26.3361 7.44982 24.6012 7.45139 22.8656 7.45139C22.7758 7.45139 22.686 7.45139 22.5501 7.45139V7.77602C22.5501 9.00869 22.5501 10.2414 22.5501 11.4733C22.5501 12.1907 22.2387 12.4973 21.5108 12.4981C20.6632 12.4997 19.8156 12.5005 18.968 12.4981C18.3266 12.4958 18.0015 12.1821 17.9999 11.5579C17.9959 10.3057 17.9991 9.05417 17.9983 7.8019C17.9983 7.69682 17.9983 7.59175 17.9983 7.46864H14.3288C14.3288 7.58155 14.332 7.69447 14.3288 7.8066C14.3118 8.31865 13.9487 8.70523 13.4238 8.72327C13.2135 8.73032 13.1059 8.78992 13.0639 8.98203C13.0534 9.02908 13.0356 9.0777 13.0097 9.11847C12.8366 9.389 12.8107 9.60935 13.0784 9.87752C13.338 10.1379 13.3178 10.6076 13.0606 10.8836C12.6215 11.3541 12.1435 11.7908 11.6736 12.2331C11.5911 12.3107 11.4657 12.3468 11.3622 12.4009V17.279C11.9858 17.3182 12.6004 17.3206 13.2038 17.4029C14.6216 17.5966 15.9181 18.1275 17.1321 18.8489C17.7678 19.2269 18.393 19.6228 19.0085 20.0314C20.3211 20.9018 20.9617 22.125 20.9884 23.6588C20.99 23.7365 20.9884 23.8133 20.9884 23.9325C23.7318 22.8966 26.4501 21.871 29.1911 20.8359C29.1911 20.5669 29.1927 20.2745 29.1911 19.982C29.1822 18.5635 29.1717 17.145 29.1652 15.7272C29.1652 15.6025 29.1482 15.4371 29.2194 15.361C29.3342 15.2379 29.5251 15.0929 29.6666 15.1078C29.809 15.1226 29.9489 15.3085 30.0532 15.4457C30.1026 15.51 30.0702 15.6355 30.071 15.7335C30.0816 17.3182 30.0921 18.903 30.1026 20.487C30.1026 20.5842 30.1026 20.6814 30.1026 20.7936C30.1802 20.8124 30.2449 20.8296 30.3096 20.8438C31.7719 21.1558 32.4351 22.6041 31.6967 23.8752C31.3562 24.4618 30.8289 24.8405 30.211 25.1181C28.4656 25.9038 26.7219 26.6911 24.9773 27.4776C23.2691 28.2476 21.5634 29.0224 19.8512 29.7838C19.0149 30.1554 18.1528 30.4542 17.2218 30.5146C16.0726 30.5891 15.0292 30.2393 14.0441 29.7202C12.9466 29.1423 11.875 28.5181 10.7904 27.9167C9.97268 27.4643 9.08868 27.2776 8.12218 27.3012C8.11571 27.4219 8.11086 27.5364 8.10438 27.6509C8.06475 28.3496 7.58434 28.8365 6.8629 28.893C6.60247 28.9134 6.3388 28.9047 6.07676 28.9047C4.61366 28.9055 3.15056 28.9008 1.68828 28.9087C1.41086 28.9102 1.17389 28.8616 1.00081 28.6373V28.2853L1 28.2821ZM3.01711 10.3049C3.44092 10.7244 3.82752 11.1063 4.26912 11.5438C4.33867 11.4568 4.40904 11.3486 4.49962 11.2592C4.81181 10.951 4.93071 10.9479 5.32297 11.1259C5.67722 11.2866 6.0436 11.4254 6.41321 11.5517C6.67849 11.6426 6.81114 11.8002 6.80709 12.0716C6.80467 12.2339 6.80709 12.3962 6.80709 12.564H8.52576C8.52576 12.4174 8.52495 12.2919 8.52576 12.1664C8.529 11.7532 8.60907 11.6685 9.00214 11.5313C9.36124 11.4058 9.71549 11.2639 10.0568 11.0992C10.3431 10.9612 10.5728 10.9785 10.7879 11.2106C10.8923 11.3227 11.0104 11.4231 11.0945 11.5023C11.5158 11.0945 11.9057 10.7158 12.319 10.3151C12.226 10.232 12.1168 10.1316 12.0044 10.0344C11.7666 9.82891 11.7383 9.61091 11.8871 9.32862C12.065 8.99144 12.213 8.63623 12.3392 8.27709C12.4411 7.98617 12.6045 7.82934 12.9312 7.84973C13.0873 7.85992 13.2442 7.8513 13.3979 7.8513V6.17872C13.2369 6.17872 13.097 6.18029 12.9579 6.17872C12.5632 6.17245 12.4718 6.09325 12.34 5.74666C12.2009 5.38125 12.0488 5.01898 11.8725 4.66925C11.7472 4.42068 11.7633 4.21837 11.9704 4.03566C12.0966 3.92432 12.2357 3.82708 12.3351 3.74945C11.8887 3.31112 11.4964 2.92532 11.054 2.4909C10.9812 2.58108 10.9044 2.69792 10.8057 2.79437C10.5146 3.08136 10.3973 3.0845 10.0325 2.91591C9.6977 2.76143 9.35234 2.62264 9.00295 2.50267C8.61473 2.36936 8.529 2.27527 8.52576 1.86437C8.52495 1.73264 8.52576 1.6009 8.52576 1.46995H6.80709C6.80709 1.626 6.8079 1.76087 6.80709 1.89652C6.80305 2.2635 6.71004 2.36858 6.35579 2.49326C5.9975 2.6195 5.64244 2.75987 5.29709 2.91669C4.92747 3.0845 4.82314 3.07901 4.52389 2.7928C4.41955 2.69321 4.31522 2.59363 4.23191 2.51443C3.81215 2.92375 3.42232 3.30328 2.99851 3.71573C3.1166 3.81846 3.25571 3.93137 3.3843 4.05448C3.56466 4.22699 3.5768 4.41911 3.47165 4.64337C3.28887 5.03309 3.1174 5.42908 2.9605 5.829C2.87396 6.04934 2.73242 6.16853 2.49221 6.17324C2.30376 6.17716 2.11532 6.17402 1.92606 6.17402V7.84895C2.08297 7.84895 2.22208 7.84895 2.36119 7.84895C2.76882 7.8513 2.87153 7.92814 2.99366 8.29669C3.06402 8.50998 3.11498 8.7413 3.2363 8.92479C3.59863 9.47134 3.6787 9.95515 3.01631 10.3017L3.01711 10.3049ZM21.6411 7.46864H18.9292V11.5932H21.6411V7.46864Z" fill="#3F3F3F" stroke="#3F3F3F" stroke-width="0.5"/>
<path d="M25.5084 20.0617C25.0846 20.0617 24.6608 20.0657 24.2378 20.0609C23.9078 20.057 23.7064 19.8882 23.7032 19.6243C23.6999 19.362 23.9029 19.1829 24.2281 19.1821C25.0854 19.1782 25.9427 19.1782 26.8 19.1821C27.1235 19.1837 27.3298 19.3675 27.3225 19.629C27.316 19.878 27.1138 20.0554 26.8097 20.0602C26.3762 20.0664 25.9427 20.0617 25.5084 20.0617Z" fill="#3F3F3F" stroke="#3F3F3F" stroke-width="0.5"/>
<path d="M25.4869 18.2857C25.0736 18.2857 24.6603 18.2912 24.247 18.2842C23.8976 18.2787 23.693 18.0996 23.7035 17.8263C23.7132 17.5632 23.9065 17.4077 24.2503 17.4061C25.0971 17.4022 25.9439 17.4014 26.7898 17.4061C27.1174 17.4077 27.3228 17.5852 27.322 17.8428C27.3204 18.0988 27.1134 18.2779 26.7874 18.2834C26.3539 18.2904 25.9204 18.2849 25.4869 18.2849V18.2857Z" fill="#3F3F3F" stroke="#3F3F3F" stroke-width="0.5"/>
<path d="M7.64691 10.3223C5.77214 10.3184 4.24838 8.8332 4.25 7.01242C4.25162 5.18301 5.80449 3.68452 7.68168 3.70255C9.5605 3.7198 11.0891 5.20811 11.0875 7.01712C11.0859 8.84025 9.53866 10.3262 7.64691 10.3223ZM5.15827 7.01007C5.15503 8.3486 6.27197 9.43698 7.65338 9.44091C9.04692 9.44483 10.1905 8.34154 10.1792 7.00379C10.1679 5.67075 9.03559 4.58158 7.66227 4.58315C6.28491 4.58471 5.1615 5.67389 5.15908 7.01007H5.15827Z" fill="#3F3F3F" stroke="#3F3F3F" stroke-width="0.5"/>
</svg>
