<svg width="33" height="33" viewBox="0 0 33 33" fill="none" xmlns="http://www.w3.org/2000/svg">
<path d="M32.0005 16.4902C32.0005 20.6934 32.0005 24.8966 32.0005 29.0929C32.0005 30.457 31.1586 31.5511 29.868 31.8558C29.5989 31.9181 29.3159 31.9389 29.033 31.9389C22.5666 31.9389 16.1002 31.9389 9.62694 31.9389C7.83954 31.9389 6.67324 30.7686 6.67324 28.9751C6.67324 25.1113 6.67324 21.2404 6.67324 17.3765C6.67324 17.1134 6.60423 17.0165 6.34198 16.9541C3.05703 16.1855 0.855564 13.2357 1.00739 9.84956C1.14541 6.79584 3.40899 4.11604 6.4179 3.45821C6.62493 3.41667 6.72155 3.35434 6.76986 3.12583C7.039 1.96944 7.97756 1.15926 9.15076 1.0277C9.32329 1.00692 9.49581 1 9.66834 1C16.114 1 22.5597 1 29.0054 1C30.3856 1 31.4277 1.66476 31.8211 2.84193C31.9453 3.202 31.9936 3.60363 31.9936 3.98448C32.0074 8.15305 32.0005 12.3216 32.0005 16.4902ZM7.80503 3.27817C11.5455 3.15353 14.996 6.37344 14.8166 10.5351C14.6579 14.212 11.5869 17.2311 7.71531 17.1757C7.71531 17.2796 7.71531 17.3904 7.71531 17.4943C7.71531 21.3305 7.71531 25.1597 7.71531 28.9959C7.71531 30.2077 8.41233 30.914 9.61313 30.914C16.1002 30.914 22.5942 30.914 29.0813 30.914C30.2614 30.914 30.9722 30.1939 30.9722 29.0167C30.9722 20.6588 30.9722 12.3009 30.9722 3.93601C30.9722 3.78367 30.9722 3.63133 30.9446 3.48591C30.779 2.59957 30.082 2.03868 29.1089 2.03868C22.6218 2.03868 16.1278 2.03868 9.64074 2.03868C9.46131 2.03868 9.27498 2.05253 9.09555 2.08715C8.46064 2.23257 8.03277 2.61342 7.80503 3.27125V3.27817ZM11.4281 14.9045C11.2763 14.7383 11.1452 14.5859 11.0072 14.4336C9.90298 13.208 8.8057 11.9823 7.69461 10.7567C7.48758 10.5282 7.39096 10.2858 7.39096 9.97421C7.39786 8.22922 7.39096 6.47731 7.39096 4.73233V4.37918C5.46554 4.4692 3.07774 5.8818 2.2841 8.52698C1.52498 11.0406 2.51874 13.7481 4.72021 15.1815C6.88718 16.5941 9.64074 16.3379 11.4212 14.9114L11.4281 14.9045ZM13.7262 9.6903C13.6641 7.19054 11.3453 4.51074 8.46064 4.3861V9.6903H13.7262ZM9.10245 10.7636C10.1721 11.9546 11.1866 13.0833 12.2149 14.2259C13.112 13.2218 13.6365 12.1 13.7538 10.7636H9.10245Z" fill="#3F3F3F" stroke="#3F3F3F" stroke-width="0.5"/>
<path d="M23.3861 28.7396C22.551 29.2866 20.2668 29.2936 19.3972 28.7604C18.4725 29.2866 16.271 29.2866 15.3876 28.7465C15.0012 29.1066 14.5181 29.1482 14.0143 29.1343C13.4967 29.1205 12.9791 29.1343 12.4685 29.1343C11.6265 29.1205 10.9571 28.5457 10.9295 27.7009C10.8881 26.406 10.8881 25.1111 10.9295 23.8163C10.9571 22.9715 11.6196 22.3898 12.4615 22.376C13.2552 22.369 14.0488 22.376 14.8908 22.376C14.8908 22.0297 14.8908 21.6281 14.8908 21.2196C14.8908 20.0078 15.4843 19.4053 16.692 19.4053C17.2302 19.4053 17.7685 19.4053 18.3068 19.4053C19.2454 19.4053 19.901 20.0701 19.9217 21.0187C19.9217 21.4827 19.9217 21.9466 19.9217 22.3967H22.8685C22.8685 22.2929 22.8685 22.1821 22.8685 22.0643C22.8685 21.1365 22.8685 20.2086 22.8685 19.2807C22.8754 18.2212 23.5103 17.5911 24.5593 17.5911C25.139 17.5911 25.7187 17.5911 26.3053 17.5911C27.2093 17.598 27.8787 18.2559 27.8787 19.1699C27.8787 21.9674 27.8787 24.7649 27.8787 27.5624C27.8787 28.4765 27.2231 29.1274 26.3122 29.1412C25.7532 29.1482 25.1942 29.1343 24.6352 29.1412C24.1797 29.1551 23.7587 29.0651 23.3999 28.7535L23.3861 28.7396ZM26.8436 23.3662C26.8436 21.9951 26.8436 20.624 26.8436 19.253C26.8436 18.8029 26.6641 18.6159 26.2225 18.6159C25.6497 18.6159 25.0838 18.6159 24.511 18.6159C24.09 18.6159 23.9106 18.796 23.8968 19.2322C23.8968 19.5784 23.8968 19.9247 23.8968 20.2709C23.8968 22.6529 23.8968 25.0419 23.8968 27.4239C23.8968 27.9225 24.0624 28.0887 24.5524 28.0887C25.0907 28.0887 25.629 28.0887 26.1672 28.0887C26.6848 28.0887 26.8436 27.9294 26.8436 27.417C26.8436 26.0667 26.8436 24.7164 26.8436 23.3731V23.3662ZM18.8865 24.2733C18.8865 23.2069 18.8865 22.1336 18.8865 21.0672C18.8865 20.624 18.6933 20.4371 18.2585 20.4371C17.6857 20.4371 17.1198 20.4371 16.547 20.4371C16.1261 20.4371 15.9328 20.631 15.9328 21.0534C15.9328 23.2 15.9328 25.3466 15.9328 27.5001C15.9328 27.9087 16.1261 28.0887 16.5332 28.0956C17.0922 28.0956 17.6512 28.0956 18.2102 28.0956C18.7209 28.0956 18.8865 27.9294 18.8865 27.417C18.8865 26.3714 18.8865 25.3258 18.8865 24.2733ZM19.9217 25.7274C19.9217 26.3229 19.9217 26.9115 19.9217 27.507C19.9217 27.8948 20.108 28.0818 20.4945 28.0887C21.088 28.0887 21.6746 28.0887 22.2681 28.0887C22.6753 28.0887 22.8616 27.9087 22.8616 27.4932C22.8685 26.3299 22.8685 25.1596 22.8616 23.9963C22.8616 23.5808 22.6684 23.4008 22.2681 23.4008C21.6884 23.4008 21.1087 23.4008 20.529 23.4008C20.1011 23.4008 19.9217 23.5808 19.9217 24.0101C19.9217 24.5849 19.9217 25.1527 19.9217 25.7274ZM14.8977 25.7621C14.8977 25.1804 14.8977 24.5987 14.8977 24.0171C14.8977 23.5877 14.7182 23.4077 14.2904 23.4077C13.7176 23.4077 13.1517 23.4077 12.5789 23.4077C12.1441 23.4077 11.9578 23.5739 11.9578 24.0032C11.9509 25.1665 11.9509 26.3368 11.9578 27.5001C11.9578 27.9156 12.1441 28.0887 12.5513 28.0956C13.131 28.0956 13.7107 28.0956 14.2904 28.0956C14.7182 28.0956 14.8908 27.9156 14.8977 27.4793C14.8977 26.9046 14.8977 26.3368 14.8977 25.7621Z" fill="#3F3F3F" stroke="#3F3F3F" stroke-width="0.5"/>
<path d="M21.4323 17.9512C21.2529 17.8888 21.1287 17.8611 21.0114 17.8057C20.0452 17.411 19.079 17.0163 18.1198 16.6078C17.8989 16.5109 17.7402 16.5247 17.547 16.6909C16.3324 17.7296 15.1109 18.7475 13.8825 19.7654C13.7652 19.8623 13.6133 19.9524 13.4615 19.9801C13.2269 20.0216 13.0405 19.9039 12.9508 19.6823C12.8473 19.433 12.9301 19.2184 13.1371 19.0522C13.9377 18.3805 14.7382 17.7088 15.5387 17.0371C16.1115 16.5593 16.6843 16.0885 17.2433 15.6037C17.4987 15.3822 17.7471 15.3337 18.0646 15.4722C19.0238 15.8807 19.9969 16.2616 20.9562 16.6701C21.1839 16.7671 21.3219 16.7601 21.5083 16.5732C22.5434 15.5345 23.5993 14.5166 24.6552 13.4987C24.7449 13.4087 24.8484 13.2702 24.9519 13.2632C25.1452 13.2632 25.3867 13.2771 25.5316 13.3879C25.7318 13.5333 25.718 13.7895 25.5868 14.0042C25.5454 14.0734 25.4764 14.1357 25.4143 14.1981C24.2273 15.3614 23.0403 16.5178 21.8464 17.6742C21.7222 17.7919 21.5566 17.8681 21.4323 17.9512Z" fill="#3F3F3F" stroke="#3F3F3F" stroke-width="0.5"/>
<path d="M23.4143 6.09647C25.043 6.09647 26.6647 6.09647 28.2865 6.1034C28.4728 6.1034 28.7006 6.17969 28.8248 6.31145C29.087 6.58192 28.9076 7.02577 28.528 7.11593C28.4176 7.14367 28.2934 7.13673 28.1761 7.13673C25.0085 7.13673 21.8477 7.13673 18.6801 7.13673C18.6042 7.13673 18.5283 7.13673 18.4524 7.13673C18.1211 7.10899 17.9141 6.90094 17.9141 6.60273C17.9141 6.30452 18.128 6.1034 18.4662 6.09647C19.6739 6.09647 20.8747 6.09647 22.0824 6.09647C22.524 6.09647 22.9657 6.09647 23.4074 6.09647H23.4143Z" fill="#3F3F3F" stroke="#3F3F3F" stroke-width="0.5"/>
<path d="M25.0714 10.7374C24.05 10.7374 23.0287 10.7374 22.0073 10.7374C21.89 10.7374 21.7658 10.7374 21.6553 10.7166C21.3862 10.6681 21.2344 10.4808 21.2344 10.2173C21.2344 9.95374 21.3793 9.76649 21.6484 9.71795C21.752 9.69714 21.8624 9.69714 21.9728 9.69714C24.05 9.69714 26.1273 9.69714 28.2045 9.69714C28.2805 9.69714 28.3564 9.69714 28.4323 9.69714C28.7428 9.72488 28.9499 9.93294 28.9499 10.2103C28.9499 10.4877 28.7497 10.7097 28.4323 10.7235C27.9492 10.7374 27.4661 10.7305 26.983 10.7305C26.3481 10.7305 25.7132 10.7305 25.0783 10.7305L25.0714 10.7374Z" fill="#3F3F3F" stroke="#3F3F3F" stroke-width="0.5"/>
</svg>
