<svg width="27" height="26" viewBox="0 0 27 26" fill="none" xmlns="http://www.w3.org/2000/svg">
<path d="M20.7209 16.3891C20.7209 18.35 19.1313 19.9396 17.1704 19.9396H5.46386C3.50297 19.9396 1.91337 18.35 1.91337 16.3891V4.68261C1.91337 2.72173 3.50298 1.13212 5.46386 1.13212H17.1704C19.1313 1.13212 20.7209 2.72172 20.7209 4.68261V16.3891Z" stroke="#FF6F3C" stroke-width="2.26424" stroke-linecap="round" stroke-linejoin="round"/>
<mask id="path-2-inside-1_1_1071" fill="white">
<path d="M9.98047 25.5882H21.687C24.2731 25.5882 26.3696 23.4916 26.3696 20.9056V9.19897"/>
</mask>
<path d="M9.98047 23.3239C8.72996 23.3239 7.71623 24.3377 7.71623 25.5882C7.71623 26.8387 8.72996 27.8524 9.98047 27.8524V23.3239ZM28.6338 9.19897C28.6338 7.94847 27.6201 6.93473 26.3696 6.93473C25.1191 6.93473 24.1054 7.94847 24.1054 9.19897H28.6338ZM9.98047 27.8524H21.687V23.3239H9.98047V27.8524ZM21.687 27.8524C25.5237 27.8524 28.6338 24.742 28.6338 20.9056H24.1054C24.1054 22.2411 23.0226 23.3239 21.687 23.3239V27.8524ZM28.6338 20.9056V9.19897H24.1054V20.9056H28.6338Z" fill="#1A3E59" mask="url(#path-2-inside-1_1_1071)"/>
</svg>
