<svg width="33" height="32" viewBox="0 0 33 32" fill="none" xmlns="http://www.w3.org/2000/svg">
<path d="M18.2413 29.0896C17.4832 29.3572 16.7727 29.6298 16.0487 29.8602C14.4049 30.3818 12.7611 30.9076 11.1037 31.3835C9.11442 31.9533 7.47487 31.342 6.14588 29.8068C6.12546 29.784 6.09908 29.7662 6.01229 29.6908C6.01229 29.9033 6.01229 30.06 6.01229 30.2175C6.01144 30.524 6.0208 30.8305 6.00464 31.1362C5.99017 31.4063 5.82766 31.5587 5.55625 31.5799C5.27548 31.6019 5.07893 31.4834 5.01597 31.2014C4.98875 31.0803 4.9981 30.9499 4.9981 30.8238C4.9964 29.9584 4.9981 29.0939 4.9981 28.2132C4.71563 28.1734 4.40252 28.1303 4.08942 28.0862C3.80524 28.0464 3.62316 27.9016 3.49128 27.6341C2.6915 26.0151 1.85769 24.4122 1.08173 22.783C0.958363 22.5248 0.986441 22.1268 1.08769 21.844C1.28849 21.2826 1.54459 20.7305 1.85599 20.2216C2.47284 19.2131 3.31176 18.3833 4.15663 17.5637C4.55142 17.1809 4.9411 16.7931 5.32567 16.4146C4.9964 15.7457 5.00321 15.7076 5.52137 15.1919C6.05313 14.6627 6.58575 14.1326 7.08094 13.6407C6.77549 13.0344 6.49046 12.4611 6.19607 11.8921C6.168 11.8379 6.09057 11.799 6.02761 11.7753C4.56418 11.2249 4.08601 9.79558 4.92068 8.4628C4.9377 8.4357 4.95301 8.4086 4.9913 8.3451C4.52334 7.90225 4.52589 7.31291 4.53866 6.71426C4.55142 6.13339 4.54121 5.55167 4.54121 4.9708C4.54121 3.11726 5.3529 1.90387 7.092 1.25526C8.68475 0.66169 10.3439 0.516049 12.0064 0.853902C13.6681 1.1926 14.6865 2.26289 15.1128 3.89373C15.1366 3.98603 15.1553 4.07917 15.1783 4.17062C15.1834 4.18925 15.197 4.20534 15.2191 4.24513C15.8105 4.24513 16.4145 4.24513 17.0186 4.24513C18.146 4.24513 18.9322 4.79806 19.4316 5.76759C19.8791 6.63551 19.6486 7.48819 18.8522 8.05551C18.2472 8.4865 17.5496 8.65585 16.828 8.74392C16.4826 8.78625 16.1338 8.8015 15.7671 8.83113C15.6616 10.705 15.5033 12.5678 14.1335 14.1047C14.5759 14.5416 14.9792 15.0488 15.4888 15.4044C15.8207 15.6356 16.3073 15.6475 16.7676 15.7686C16.7676 15.6077 16.7676 15.4942 16.7676 15.3816C16.7676 14.3985 16.7651 13.4163 16.7693 12.4332C16.771 12.0251 16.9412 11.8557 17.353 11.8549C22.0547 11.8532 26.7564 11.8532 31.4581 11.8549C31.8784 11.8549 31.9992 11.9861 31.9984 12.4095C31.9984 16.8685 31.9984 21.3275 31.9984 25.7864C31.9984 26.4655 31.8963 26.5655 31.202 26.5655C30.1214 26.5655 29.0409 26.5655 27.9433 26.5655C27.9229 26.7204 27.9135 26.855 27.8871 26.9863C27.7153 27.8297 27.0874 28.3716 26.0859 28.5257C25.8043 28.5689 25.5167 28.5909 25.2308 28.5917C23.9682 28.596 22.7047 28.5655 21.4421 28.596C20.7172 28.6137 19.9948 28.723 19.258 28.7924C19.258 29.6171 19.264 30.3555 19.2555 31.0947C19.2504 31.5342 18.8394 31.7984 18.5008 31.5604C18.3638 31.4639 18.2617 31.2353 18.2506 31.0609C18.2183 30.524 18.2387 29.9838 18.2387 29.4453C18.2387 29.342 18.2387 29.2386 18.2387 29.0888L18.2413 29.0896ZM17.7988 12.871V24.5316C17.9333 24.496 18.0524 24.4587 18.1741 24.4325C18.7841 24.2987 19.3899 24.0819 20.005 24.0523C21.2541 23.9922 22.509 24.021 23.7615 24.0371C24.483 24.0464 25.0386 24.5451 25.1858 25.2564C25.2045 25.3487 25.2266 25.441 25.2479 25.5367H31.0173V12.893H26.9597C26.9597 12.9988 26.9597 13.0827 26.9597 13.1665C26.9597 14.2334 26.9648 15.3011 26.9572 16.3681C26.9538 16.8524 26.6168 17.0421 26.1906 16.8253C25.6903 16.5713 25.1909 16.313 24.6804 16.0818C24.5595 16.0268 24.3715 16.0251 24.2515 16.0802C23.7308 16.3156 23.2246 16.5823 22.7124 16.8355C22.2266 17.0759 21.8735 16.8609 21.8667 16.3139C21.8607 15.8067 21.865 15.2995 21.865 14.7922C21.865 14.1614 21.865 13.5306 21.865 12.8896C21.7952 12.8803 21.7552 12.871 21.7152 12.871C20.4211 12.871 19.1278 12.871 17.8005 12.871H17.7988ZM12.7424 16.9311C12.5101 17.5188 12.3033 18.037 12.1017 18.5577C12.0209 18.7652 11.8813 18.9278 11.6576 18.888C11.4908 18.8583 11.3291 18.7406 11.1913 18.6297C11.1181 18.5704 11.0977 18.4451 11.0569 18.3478C10.8595 17.8736 10.6629 17.3985 10.4494 16.882C9.98567 17.4697 9.55345 18.0167 9.12208 18.5637C8.72049 19.0726 8.53756 19.0895 8.03472 18.6712C7.4017 18.1445 6.76698 17.6195 6.11439 17.0776C5.78853 17.4053 5.47457 17.7042 5.18018 18.0209C4.40252 18.8566 3.59168 19.667 2.87954 20.5544C2.50602 21.0192 2.30267 21.6221 2.04487 22.1742C1.99638 22.2784 2.01935 22.4511 2.07295 22.5612C2.79105 24.043 3.51936 25.5206 4.25278 26.9956C4.29617 27.0837 4.40423 27.1768 4.49782 27.1971C5.92976 27.513 7.28599 26.8093 7.88242 25.4664C7.97771 25.2522 7.98112 25.0879 7.85009 24.883C7.42297 24.2157 7.01287 23.5366 6.60703 22.8558C6.37815 22.4714 6.53385 22.098 6.9397 22.0286C7.22983 21.9786 7.38809 22.1539 7.51826 22.3783C8.15043 23.4647 8.7809 24.5527 9.42242 25.634C9.91335 26.4605 10.8169 26.8195 11.7188 26.529C13.3005 26.0193 14.8754 25.4867 16.4545 24.9693C16.6085 24.9185 16.6655 24.8415 16.6655 24.6755C16.6604 22.1395 16.6604 19.6043 16.6655 17.0683C16.6655 16.8905 16.6187 16.8016 16.4341 16.7686C16.1636 16.7195 15.8947 16.6543 15.6309 16.5764C15.4557 16.5247 15.3646 16.5603 15.2872 16.7322C15.0872 17.1742 14.8694 17.6085 14.6533 18.0438C14.3964 18.562 13.9718 18.5958 13.6247 18.1284C13.343 17.7483 13.0631 17.3672 12.7424 16.932V16.9311ZM6.17395 28.137C6.60532 28.8297 7.08094 29.4199 7.69864 29.8805C7.95049 30.0693 8.22786 30.2319 8.51118 30.3708C9.38413 30.8001 10.2886 30.6519 11.1513 30.3868C13.2452 29.7459 15.3272 29.0625 17.4041 28.3673C18.779 27.9076 20.1659 27.557 21.6293 27.5714C22.8919 27.5841 24.1545 27.5934 25.4163 27.5706C25.7567 27.5646 26.1047 27.4664 26.4322 27.358C26.7462 27.2539 26.9087 26.9922 26.9487 26.618C26.8236 26.618 26.7104 26.6197 26.5981 26.618C25.3891 26.601 24.1801 26.5849 22.971 26.5655C22.5788 26.5595 22.378 26.3859 22.3755 26.0616C22.3738 25.7365 22.578 25.5561 22.9634 25.5519C23.365 25.5477 23.7666 25.5511 24.1716 25.5511C24.1163 25.1785 23.9682 25.0464 23.5998 25.0447C22.5712 25.0413 21.5416 25.0278 20.513 25.0506C20.0825 25.0599 19.6477 25.1209 19.2274 25.214C18.7016 25.3309 18.1826 25.4884 17.6704 25.656C15.8496 26.2522 14.0365 26.8703 12.214 27.4613C10.9309 27.8771 9.70575 27.4952 8.85407 26.4486C8.81068 26.3953 8.7826 26.3301 8.72814 26.2386C8.1198 27.2589 7.2979 27.8644 6.17395 28.1345V28.137ZM14.5044 6.68631C14.4772 6.68293 14.4508 6.68039 14.4236 6.677C14.336 6.793 14.2517 6.91155 14.1598 7.02417C13.8995 7.34255 13.6596 7.68209 13.3686 7.97168C12.7994 8.539 12.1221 8.83452 11.2874 8.82012C9.61216 8.79049 7.93602 8.80658 6.25989 8.81843C6.09738 8.81928 5.87276 8.8777 5.78682 8.99117C5.49924 9.37136 5.48818 9.82098 5.63878 10.2588C5.77066 10.6423 6.09993 10.8058 6.4811 10.8303C6.85972 10.8549 7.02478 11.0623 7.15581 11.3909C7.34214 11.8583 7.52592 12.3451 7.8135 12.7507C8.60477 13.8684 9.69554 14.473 11.0986 14.3714C12.6037 14.2622 13.6476 13.4984 14.2186 12.0962C14.7469 10.799 14.7997 9.44672 14.6933 8.07922C14.6567 7.61266 14.5691 7.15118 14.5044 6.68716V6.68631ZM8.62009 1.91319C7.91645 2.02072 7.26301 2.21802 6.6836 2.61006C6.08547 3.01565 5.6541 3.56181 5.6124 4.28917C5.55285 5.32051 5.57071 6.35693 5.57071 7.39081C5.57071 7.61605 5.73067 7.76084 5.95784 7.78624C6.8861 7.89124 7.74033 7.77608 8.34697 6.95727C8.50438 6.74474 8.66348 6.53475 8.82174 6.32306C9.81125 4.99874 11.0322 4.11812 12.7926 4.2409C13.2409 4.27223 13.6927 4.24598 14.2483 4.24598C14.0212 3.78874 13.8816 3.3696 13.6315 3.0309C12.9763 2.14266 12.0583 1.68456 10.959 1.81073C9.85805 1.93689 9.14335 2.62615 8.81238 3.67527C8.70602 4.01313 8.66774 4.37553 8.62094 4.72948C8.57755 5.06394 8.37335 5.27563 8.06875 5.25785C7.77266 5.24091 7.60079 5.03769 7.60165 4.69391C7.60165 4.55674 7.61356 4.41957 7.62887 4.28324C7.73182 3.40347 8.05599 2.61514 8.62179 1.91403L8.62009 1.91319ZM14.3572 5.26462C13.5949 5.26462 12.8223 5.257 12.0506 5.27055C11.8754 5.27394 11.6941 5.33067 11.5291 5.39671C10.3771 5.85227 9.7117 6.80909 9.02679 7.7964C9.82912 7.7964 10.5932 7.78116 11.3555 7.80233C11.7631 7.81334 12.1076 7.68971 12.4105 7.44246C12.6224 7.26888 12.8232 7.07751 13.0027 6.87091C13.4588 6.34677 13.8995 5.80993 14.3572 5.26462ZM25.9345 12.8904H22.8987V15.5967C23.3122 15.3934 23.7053 15.2165 24.0822 15.0099C24.3111 14.8845 24.5051 14.8778 24.7365 15.0039C25.1202 15.2131 25.5184 15.3943 25.9353 15.5992V12.8904H25.9345ZM15.7364 7.81927C16.1499 7.78032 16.5788 7.7854 16.9829 7.68971C17.4279 7.58387 17.8661 7.41706 18.2779 7.21638C18.5578 7.08005 18.7237 6.78962 18.5986 6.4687C18.3842 5.92001 18.0354 5.47292 17.427 5.31712C16.6868 5.12745 16.0606 5.44244 15.4565 5.80823C15.4038 5.84041 15.3774 5.97081 15.391 6.04617C15.4939 6.61519 15.6105 7.18166 15.7364 7.81927ZM6.30073 15.9345C7.03755 16.534 7.765 17.1267 8.51544 17.7372C8.97999 17.1547 9.43008 16.5899 9.88953 16.0141C9.12293 15.5111 8.39122 15.031 7.67737 14.5628C7.21197 15.0268 6.77124 15.4663 6.30073 15.9354V15.9345ZM14.581 16.1013C14.2015 15.7321 13.8527 15.3917 13.52 15.0674C13.4724 15.1978 13.3975 15.3833 13.3396 15.5738C13.3107 15.6678 13.2673 15.8024 13.3107 15.8659C13.56 16.2343 13.8331 16.5874 14.1207 16.976C14.3062 16.6238 14.4627 16.3274 14.5819 16.1013H14.581ZM10.9352 15.4273C11.176 15.9396 11.4219 16.4612 11.695 17.0421C11.9375 16.3909 12.1578 15.799 12.385 15.1911C11.8422 15.28 11.3547 15.3596 10.9352 15.4282V15.4273Z" fill="#FF6F3C" stroke="#FF6F3C" stroke-width="0.5"/>
<path d="M20.8444 23.016C20.5159 23.016 20.1884 23.0219 19.86 23.0143C19.5196 23.0066 19.3273 22.8245 19.3205 22.5219C19.3129 22.2058 19.512 22.0067 19.8651 22.0033C20.521 21.9965 21.177 21.9965 21.8339 22.0033C22.1742 22.0067 22.3665 22.1923 22.3742 22.4948C22.3818 22.81 22.1819 23.0066 21.8296 23.0143C21.5021 23.0219 21.1736 23.016 20.8452 23.016H20.8444Z" fill="#FF6F3C" stroke="#FF6F3C" stroke-width="0.5"/>
<path d="M20.3386 20.4809C20.508 20.4809 20.6773 20.4733 20.8457 20.4826C21.1588 20.4995 21.3435 20.6885 21.3469 20.98C21.3503 21.2724 21.1674 21.4775 20.8594 21.4902C20.5114 21.5037 20.1617 21.5029 19.8128 21.491C19.4997 21.4809 19.3159 21.2859 19.3125 20.9944C19.3091 20.6902 19.5006 20.497 19.8307 20.4826C19.9992 20.475 20.1693 20.4809 20.3378 20.4818L20.3386 20.4809Z" fill="#FF6F3C" stroke="#FF6F3C" stroke-width="0.5"/>
</svg>
