<svg width="33" height="32" viewBox="0 0 33 32" fill="none" xmlns="http://www.w3.org/2000/svg">
<path d="M18.2413 28.7584C17.4832 29.0258 16.7727 29.2983 16.0487 29.5284C14.4049 30.0496 12.7611 30.5751 11.1037 31.0506C9.11442 31.62 7.47487 31.0091 6.14587 29.4751C6.12545 29.4523 6.09908 29.4345 6.01229 29.3592C6.01229 29.5716 6.01229 29.7281 6.01229 29.8855C6.01144 30.1918 6.0208 30.4981 6.00464 30.8035C5.99017 31.0734 5.82766 31.2257 5.55625 31.2469C5.27548 31.2689 5.07893 31.1504 5.01597 30.8687C4.98875 30.7477 4.99811 30.6174 4.99811 30.4913C4.9964 29.6266 4.99811 28.7627 4.99811 27.8827C4.71563 27.8429 4.40252 27.7998 4.08942 27.7558C3.80524 27.716 3.62316 27.5713 3.49128 27.304C2.6915 25.6862 1.85769 24.0845 1.08173 22.4565C0.958363 22.1985 0.986441 21.8008 1.08769 21.5182C1.28849 20.9572 1.54459 20.4056 1.85599 19.897C2.47284 18.8893 3.31176 18.0601 4.15663 17.2411C4.55142 16.8586 4.9411 16.4711 5.32567 16.0929C4.9964 15.4245 5.00321 15.3864 5.52137 14.8711C6.05313 14.3423 6.58575 13.8126 7.08094 13.321C6.77549 12.7152 6.49046 12.1424 6.19607 11.5738C6.168 11.5196 6.09057 11.4807 6.02761 11.457C4.56418 10.907 4.08601 9.47878 4.92068 8.14699C4.9377 8.11992 4.95301 8.09284 4.9913 8.02938C4.52334 7.58686 4.52589 6.99796 4.53866 6.39976C4.55142 5.81932 4.54121 5.23804 4.54121 4.6576C4.54121 2.80545 5.3529 1.59296 7.092 0.944831C8.68475 0.351702 10.3439 0.20617 12.0064 0.543771C13.6681 0.882219 14.6865 1.95171 15.1128 3.58134C15.1366 3.67356 15.1553 3.76664 15.1783 3.85802C15.1834 3.87663 15.197 3.89271 15.2191 3.93248C15.8105 3.93248 16.4145 3.93248 17.0186 3.93248C18.146 3.93248 18.9322 4.48499 19.4316 5.4538C19.8791 6.32107 19.6486 7.17311 18.8522 7.74001C18.2472 8.17068 17.5496 8.33991 16.828 8.4279C16.4826 8.47021 16.1338 8.48544 15.7671 8.51505C15.6616 10.3875 15.5033 12.249 14.1335 13.7847C14.5759 14.2213 14.9792 14.7281 15.4888 15.0835C15.8207 15.3145 16.3073 15.3263 16.7676 15.4473C16.7676 15.2865 16.7676 15.1732 16.7676 15.0606C16.7676 14.0783 16.7651 13.0968 16.7693 12.1144C16.771 11.7066 16.9412 11.5374 17.353 11.5365C22.0547 11.5348 26.7564 11.5348 31.4581 11.5365C31.8784 11.5365 31.9992 11.6677 31.9984 12.0907C31.9984 16.5464 31.9984 21.0021 31.9984 25.4577C31.9984 26.1363 31.8963 26.2362 31.202 26.2362C30.1214 26.2362 29.0409 26.2362 27.9433 26.2362C27.9229 26.391 27.9135 26.5255 27.8871 26.6567C27.7153 27.4994 27.0874 28.0409 26.0859 28.1949C25.8043 28.2381 25.5167 28.2601 25.2308 28.2609C23.9682 28.2651 22.7047 28.2347 21.4421 28.2651C20.7172 28.2829 19.9948 28.3921 19.258 28.4614C19.258 29.2856 19.264 30.0234 19.2555 30.762C19.2504 31.2012 18.8394 31.4652 18.5008 31.2274C18.3638 31.1309 18.2617 30.9025 18.2506 30.7282C18.2183 30.1918 18.2387 29.6519 18.2387 29.1138C18.2387 29.0106 18.2387 28.9074 18.2387 28.7576L18.2413 28.7584ZM17.7988 12.5519V24.2038C17.9333 24.1682 18.0524 24.131 18.1741 24.1048C18.7841 23.9711 19.3899 23.7545 20.005 23.7249C21.2541 23.6648 22.509 23.6936 23.7615 23.7096C24.483 23.719 25.0386 24.2173 25.1858 24.9281C25.2045 25.0203 25.2266 25.1125 25.2479 25.2081H31.0173V12.5739H26.9597C26.9597 12.6796 26.9597 12.7634 26.9597 12.8472C26.9597 13.9133 26.9648 14.9802 26.9572 16.0464C26.9538 16.5303 26.6168 16.7199 26.1906 16.5033C25.6903 16.2494 25.1909 15.9914 24.6804 15.7604C24.5595 15.7054 24.3715 15.7037 24.2515 15.7587C23.7308 15.9939 23.2246 16.2604 22.7124 16.5134C22.2266 16.7537 21.8735 16.5388 21.8667 15.9922C21.8607 15.4854 21.865 14.9785 21.865 14.4717C21.865 13.8414 21.865 13.211 21.865 12.5705C21.7952 12.5612 21.7552 12.5519 21.7152 12.5519C20.4211 12.5519 19.1278 12.5519 17.8005 12.5519H17.7988ZM12.7424 16.609C12.5101 17.1962 12.3033 17.7141 12.1017 18.2344C12.0209 18.4417 11.8813 18.6042 11.6576 18.5644C11.4908 18.5348 11.3291 18.4172 11.1913 18.3063C11.1181 18.2471 11.0977 18.1219 11.0569 18.0246C10.8595 17.5508 10.6629 17.0761 10.4494 16.5599C9.98567 17.1472 9.55345 17.6937 9.12208 18.2403C8.72049 18.7489 8.53756 18.7658 8.03472 18.3478C7.4017 17.8215 6.76698 17.2969 6.11439 16.7554C5.78853 17.0828 5.47457 17.3815 5.18018 17.698C4.40252 18.5331 3.59168 19.3428 2.87954 20.2296C2.50602 20.6941 2.30267 21.2965 2.04487 21.8482C1.99638 21.9523 2.01935 22.1249 2.07295 22.2349C2.79105 23.7156 3.51936 25.192 4.25278 26.666C4.29617 26.754 4.40423 26.8471 4.49782 26.8674C5.92976 27.183 7.28599 26.4798 7.88242 25.1379C7.97771 24.9238 7.98112 24.7597 7.85009 24.5549C7.42297 23.8882 7.01287 23.2096 6.60703 22.5293C6.37815 22.1452 6.53385 21.772 6.9397 21.7027C7.22983 21.6527 7.38809 21.8279 7.51826 22.0521C8.15043 23.1377 8.7809 24.2249 9.42242 25.3054C9.91335 26.1312 10.8169 26.49 11.7188 26.1998C13.3005 25.6904 14.8754 25.1582 16.4545 24.6412C16.6085 24.5905 16.6655 24.5135 16.6655 24.3476C16.6604 21.8135 16.6604 19.2802 16.6655 16.7461C16.6655 16.5684 16.6187 16.4796 16.4341 16.4466C16.1636 16.3975 15.8947 16.3323 15.6309 16.2545C15.4557 16.2029 15.3646 16.2384 15.2872 16.4102C15.0872 16.8519 14.8694 17.2859 14.6533 17.7208C14.3964 18.2386 13.9718 18.2725 13.6247 17.8054C13.343 17.4255 13.0631 17.0448 12.7424 16.6099V16.609ZM6.17395 27.8066C6.60532 28.4987 7.08094 29.0884 7.69864 29.5487C7.95049 29.7374 8.22786 29.8998 8.51118 30.0386C9.38414 30.4676 10.2886 30.3195 11.1513 30.0547C13.2452 29.4142 15.3272 28.7314 17.4041 28.0367C18.779 27.5773 20.1659 27.227 21.6293 27.2413C22.8919 27.254 24.1545 27.2633 25.4163 27.2405C25.7567 27.2346 26.1047 27.1364 26.4322 27.0281C26.7462 26.924 26.9087 26.6626 26.9487 26.2886C26.8236 26.2886 26.7104 26.2903 26.5981 26.2886C25.3891 26.2717 24.1801 26.2556 22.971 26.2362C22.5788 26.2302 22.378 26.0568 22.3755 25.7327C22.3738 25.4078 22.578 25.2276 22.9634 25.2234C23.365 25.2191 23.7666 25.2225 24.1716 25.2225C24.1163 24.8502 23.9682 24.7182 23.5998 24.7165C22.5712 24.7131 21.5416 24.6996 20.513 24.7224C20.0825 24.7318 19.6477 24.7927 19.2274 24.8857C18.7016 25.0025 18.1826 25.1599 17.6704 25.3274C15.8496 25.9231 14.0365 26.5408 12.214 27.1313C10.9309 27.5468 9.70575 27.1652 8.85407 26.1194C8.81068 26.0661 8.7826 26.0009 8.72814 25.9096C8.1198 26.9291 7.2979 27.5341 6.17395 27.804V27.8066ZM14.5044 6.37183C14.4772 6.36845 14.4508 6.36591 14.4236 6.36253C14.336 6.47845 14.2517 6.5969 14.1598 6.70944C13.8995 7.02758 13.6596 7.36687 13.3686 7.65624C12.7994 8.22314 12.1221 8.51844 11.2874 8.50405C9.61216 8.47444 7.93602 8.49051 6.25989 8.50236C6.09738 8.50321 5.87276 8.56159 5.78682 8.67497C5.49924 9.05488 5.48818 9.50416 5.63878 9.94161C5.77066 10.3249 6.09993 10.4882 6.4811 10.5127C6.85972 10.5373 7.02478 10.7446 7.15581 11.0729C7.34214 11.5399 7.52592 12.0264 7.8135 12.4317C8.60477 13.5486 9.69554 14.1527 11.0986 14.0512C12.6037 13.9421 13.6476 13.1789 14.2186 11.7777C14.7469 10.4814 14.7997 9.13018 14.6933 7.7637C14.6567 7.29749 14.5691 6.83635 14.5044 6.37268V6.37183ZM8.62009 1.60227C7.91645 1.70972 7.26301 1.90687 6.6836 2.29862C6.08547 2.70391 5.6541 3.24966 5.6124 3.97647C5.55285 5.00705 5.57071 6.04269 5.57071 7.0758C5.57071 7.30087 5.73067 7.44556 5.95784 7.47094C6.8861 7.57586 7.74033 7.46079 8.34697 6.64259C8.50438 6.43022 8.66348 6.22038 8.82174 6.00885C9.81125 4.68552 11.0322 3.80556 12.7926 3.92824C13.2409 3.95955 13.6927 3.93332 14.2483 3.93332C14.0212 3.47642 13.8816 3.05759 13.6315 2.71914C12.9763 1.83156 12.0583 1.37381 10.959 1.49988C9.85805 1.62596 9.14335 2.3147 8.81238 3.36304C8.70602 3.70064 8.66774 4.06278 8.62094 4.41645C8.57755 4.75067 8.37335 4.9622 8.06875 4.94443C7.77266 4.92751 7.60079 4.72444 7.60165 4.38092C7.60165 4.24385 7.61356 4.10678 7.62887 3.97055C7.73182 3.09143 8.05599 2.3037 8.62179 1.60311L8.62009 1.60227ZM14.3572 4.9512C13.5949 4.9512 12.8223 4.94359 12.0506 4.95712C11.8754 4.96051 11.6941 5.0172 11.5291 5.0832C10.3771 5.53841 9.7117 6.49452 9.02679 7.4811C9.82912 7.4811 10.5932 7.46587 11.3555 7.48702C11.7631 7.49802 12.1076 7.37448 12.4105 7.12742C12.6224 6.95396 12.8232 6.76274 13.0027 6.55629C13.4588 6.03254 13.8995 5.4961 14.3572 4.9512ZM25.9345 12.5713H22.8987V15.2755C23.3122 15.0725 23.7053 14.8956 24.0822 14.6892C24.3111 14.564 24.5051 14.5572 24.7365 14.6833C25.1202 14.8922 25.5184 15.0733 25.9353 15.2781V12.5713H25.9345ZM15.7364 7.50394C16.1499 7.46502 16.5788 7.4701 16.9829 7.37448C17.4279 7.26872 17.8661 7.10203 18.2779 6.9015C18.5578 6.76528 18.7237 6.47506 18.5986 6.15438C18.3842 5.6061 18.0354 5.15935 17.427 5.00366C16.6868 4.81413 16.0606 5.12889 15.4565 5.49441C15.4038 5.52656 15.3774 5.65686 15.391 5.73217C15.4939 6.30076 15.6105 6.86681 15.7364 7.50394ZM6.30073 15.6131C7.03755 16.2122 7.765 16.8045 8.51544 17.4145C8.97999 16.8324 9.43008 16.268 9.88953 15.6927C9.12293 15.1901 8.39122 14.7103 7.67737 14.2424C7.21197 14.7061 6.77124 15.1452 6.30073 15.614V15.6131ZM14.581 15.7798C14.2015 15.4109 13.8527 15.0708 13.52 14.7467C13.4724 14.877 13.3975 15.0623 13.3396 15.2527C13.3107 15.3466 13.2673 15.4811 13.3107 15.5446C13.56 15.9127 13.8331 16.2655 14.1207 16.6539C14.3062 16.3019 14.4627 16.0057 14.5819 15.7798H14.581ZM10.9352 15.1063C11.176 15.6182 11.4219 16.1394 11.695 16.7199C11.9375 16.0692 12.1578 15.4778 12.385 14.8702C11.8422 14.9591 11.3547 15.0386 10.9352 15.1072V15.1063Z" fill="#FF6F3C" stroke="#FF6F3C" stroke-width="0.5"/>
<path d="M20.8444 22.6901C20.5159 22.6901 20.1884 22.696 19.86 22.6884C19.5196 22.6808 19.3273 22.4986 19.3205 22.1961C19.3129 21.88 19.512 21.6808 19.8651 21.6774C20.521 21.6707 21.177 21.6707 21.8339 21.6774C22.1742 21.6808 22.3665 21.8664 22.3742 22.1689C22.3818 22.4842 22.1819 22.6808 21.8296 22.6884C21.5021 22.696 21.1736 22.6901 20.8452 22.6901H20.8444Z" fill="#FF6F3C" stroke="#FF6F3C" stroke-width="0.5"/>
<path d="M20.3386 20.1561C20.508 20.1561 20.6773 20.1485 20.8457 20.1578C21.1588 20.1748 21.3435 20.3638 21.3469 20.6553C21.3503 20.9476 21.1674 21.1527 20.8594 21.1654C20.5114 21.179 20.1617 21.1781 19.8128 21.1663C19.4997 21.1561 19.3159 20.9612 19.3125 20.6697C19.3091 20.3654 19.5006 20.1722 19.8307 20.1578C19.9992 20.1502 20.1693 20.1561 20.3378 20.157L20.3386 20.1561Z" fill="#FF6F3C" stroke="#FF6F3C" stroke-width="0.5"/>
</svg>
