<svg width="46" height="46" viewBox="0 0 46 46" fill="none" xmlns="http://www.w3.org/2000/svg">
<path d="M22.6244 45.2576C16.5449 45.2576 10.4654 45.2576 4.39664 45.2576C2.5825 45.2576 1.64303 44.3074 1.64303 42.4824C1.64303 33.8437 1.64303 25.2157 1.64303 16.577C1.64303 16.2206 1.59984 15.9938 1.22189 15.7995C0.433608 15.3783 0.0448643 14.6548 0.012469 13.7694C-0.00912792 13.2186 0.00167052 12.6571 0.012469 12.1064C0.0340659 10.9942 0.76836 10.0655 1.8482 9.80634C2.10737 9.74155 2.35573 9.64436 2.5933 9.51478C8.05731 6.53441 13.5105 3.56484 18.9637 0.584471C19.6764 0.195727 20.4107 0.00135532 21.2206 0.00135532C22.1277 0.0121538 23.0348 0.0229522 23.9526 0.00135532C24.8489 -0.0202416 25.6696 0.217324 26.4579 0.638463C31.8895 3.60804 37.3319 6.57761 42.7635 9.54718C42.9687 9.66596 43.1846 9.74155 43.4222 9.79554C44.3941 10.0331 45.1392 10.8106 45.2364 11.7933C45.3011 12.5491 45.3011 13.3158 45.2364 14.0609C45.1608 14.8384 44.7396 15.4647 44.0377 15.8211C43.703 15.9938 43.649 16.1882 43.649 16.5122C43.649 25.2265 43.649 33.9517 43.649 42.666C43.649 43.9942 42.8823 44.9661 41.6513 45.2036C41.4029 45.2468 41.1437 45.2468 40.8954 45.2468C34.8051 45.2468 28.7039 45.2468 22.6136 45.2468L22.6244 45.2576ZM22.6676 16.1666C16.3721 16.1666 10.0766 16.1666 3.78113 16.1558C3.32759 16.1558 3.2412 16.2746 3.2412 16.7065C3.252 24.4814 3.2412 32.2563 3.2412 40.0312C3.2412 40.9275 3.2412 41.8129 3.2412 42.7092C3.2412 43.3355 3.54356 43.6271 4.18067 43.6379C4.81778 43.6379 5.46568 43.6163 6.10279 43.6379C6.42674 43.6487 6.49154 43.5515 6.49154 43.2491C6.49154 36.4461 6.49154 29.6431 6.49154 22.8509C6.49154 22.5809 6.42674 22.4513 6.16758 22.3217C5.3577 21.9006 4.91496 21.2095 4.87177 20.3024C4.80698 18.8986 5.90842 17.7864 7.36621 17.7864C12.3983 17.7864 17.4304 17.7864 22.4624 17.7864C27.5917 17.7864 32.7318 17.7864 37.861 17.7864C39.1028 17.7864 40.0315 18.4883 40.3231 19.6221C40.6038 20.7236 40.1395 21.7926 39.0488 22.3541C38.7573 22.5053 38.7897 22.6997 38.7897 22.9264C38.7897 25.842 38.7897 28.7468 38.7897 31.6624C38.7897 35.4958 38.7897 39.3401 38.7789 43.1735C38.7789 43.5839 38.8977 43.6703 39.2756 43.6487C39.8263 43.6163 40.3879 43.6487 40.9386 43.6487C41.7593 43.6487 42.0184 43.3895 42.0184 42.558C42.0184 33.9193 42.0184 25.2913 42.0184 16.6526C42.0184 16.2422 41.8996 16.1666 41.5217 16.1666C35.2262 16.1774 28.9307 16.1666 22.6352 16.1666H22.6676ZM25.8639 43.6271C25.8639 43.6271 25.9071 43.6379 25.9719 43.6379C29.5894 43.6379 33.2069 43.6379 36.8244 43.6487C37.2455 43.6487 37.1807 43.4327 37.1807 43.1843C37.1807 39.7504 37.1807 36.3165 37.1807 32.8826C37.1807 32.4291 37.0835 32.3103 36.6192 32.3103C27.4837 32.3211 18.3482 32.3211 9.20194 32.3211C8.07891 32.3211 8.1005 32.3211 8.06811 33.4225C8.06811 33.8221 8.1329 33.9517 8.57563 33.9517C10.8109 33.9301 13.057 33.9409 15.2923 33.9409C16.1453 33.9409 16.8796 34.254 17.3008 34.9775C17.6031 35.5066 17.8623 35.6254 18.4994 35.593C20.1732 35.485 21.8685 35.539 23.5423 35.5606C24.7409 35.5822 25.81 36.5649 25.8423 37.7527C25.8963 39.6964 25.8531 41.6509 25.8531 43.6163L25.8639 43.6271ZM22.646 14.5577C28.0992 14.5577 33.5524 14.5577 39.0056 14.5577C40.2475 14.5577 41.5001 14.5577 42.7419 14.5577C43.3358 14.5577 43.6382 14.2445 43.649 13.6506C43.649 13.2834 43.649 12.9055 43.649 12.5383C43.649 11.5341 43.433 11.3181 42.4504 11.3181C29.2439 11.3181 16.0374 11.3181 2.82006 11.3181C2.70128 11.3181 2.5825 11.3181 2.46372 11.3181C1.95619 11.3505 1.65383 11.6421 1.63224 12.1496C1.62144 12.5491 1.63224 12.9595 1.63224 13.359C1.63224 14.3309 1.8482 14.5469 2.80927 14.5469C9.41791 14.5469 16.0374 14.5469 22.646 14.5469V14.5577ZM22.646 25.8636C27.3433 25.8636 32.0407 25.8636 36.738 25.8636C37.1159 25.8636 37.2239 25.7772 37.2023 25.3993C37.1699 24.6218 37.1699 23.8551 37.2023 23.0776C37.2239 22.6997 37.1159 22.6133 36.738 22.6133C33.8548 22.6349 30.9824 22.6133 28.0992 22.6133C21.5878 22.6133 15.0763 22.6133 8.55404 22.6133C8.17609 22.6133 8.06811 22.6997 8.0897 23.0776C8.1221 23.8335 8.1329 24.5894 8.0897 25.3453C8.06811 25.7664 8.18689 25.8636 8.60803 25.8636C13.2838 25.842 17.9703 25.8636 22.646 25.8636ZM22.592 30.7121C27.3001 30.7121 32.0191 30.7121 36.7272 30.7121C37.1051 30.7121 37.2131 30.6365 37.1915 30.2478C37.1591 29.4703 37.1591 28.7036 37.1915 27.9261C37.2023 27.5482 37.1051 27.4618 36.7272 27.4618C34.3407 27.4834 31.9435 27.4618 29.557 27.4618C22.5596 27.4618 15.5514 27.4618 8.55404 27.4618C8.17609 27.4618 8.06811 27.5374 8.0897 27.9261C8.1221 28.682 8.1221 29.4379 8.0897 30.1938C8.06811 30.6149 8.18689 30.7121 8.60803 30.7121C13.273 30.6905 17.9379 30.7121 22.592 30.7121ZM12.1283 43.6379C13.3054 43.6379 14.4824 43.6163 15.6594 43.6379C16.059 43.6379 16.1885 43.5731 16.1885 43.1303C16.1561 41.0138 16.1777 38.8865 16.1777 36.7701C16.1777 35.755 15.951 35.5498 14.9251 35.539C14.5904 35.539 14.5472 35.647 14.5472 35.9386C14.5688 36.6405 14.5688 37.3532 14.5472 38.0551C14.504 39.3617 13.4241 40.3983 12.1175 40.3875C10.8217 40.3875 9.75266 39.3401 9.70947 38.0227C9.69867 37.5907 9.70947 37.148 9.70947 36.7053C9.70947 35.5174 9.70947 35.5282 8.51084 35.5282C8.19769 35.5282 8.0897 35.5822 8.0897 35.9278C8.1113 38.3466 8.1113 40.7763 8.0897 43.1951C8.0897 43.5731 8.21929 43.6271 8.54324 43.6163C9.74187 43.5947 10.9297 43.6163 12.1283 43.6163V43.6379ZM21.0262 40.4091C20.0652 40.4091 19.1149 40.4091 18.1539 40.4091C17.8839 40.4091 17.7759 40.4631 17.7867 40.7655C17.8083 41.4242 17.7867 42.0721 17.7867 42.7308C17.7867 43.3463 18.0999 43.6487 18.7262 43.6487C20.2488 43.6487 21.7821 43.6487 23.3047 43.6487C23.931 43.6487 24.2334 43.3463 24.2442 42.7308C24.2442 42.0721 24.2334 41.4242 24.2442 40.7655C24.2442 40.4739 24.147 40.4091 23.877 40.4091C22.916 40.4199 21.9657 40.4091 21.0046 40.4091H21.0262Z" fill="#1A3E59"/>
</svg>
