<svg width="24" height="26" viewBox="0 0 24 26" fill="none" xmlns="http://www.w3.org/2000/svg">
<path d="M11.7928 1.87095C10.5723 1.87095 9.53156 2.65054 9.14586 3.7418C8.97368 4.22892 8.43923 4.48425 7.95211 4.31207C7.46499 4.13989 7.20968 3.60544 7.38186 3.11833C8.0235 1.30291 9.75483 0 11.7928 0C13.8309 0 15.5621 1.30291 16.2038 3.11833C16.376 3.60544 16.1207 4.13989 15.6336 4.31207C15.1464 4.48425 14.6119 4.22892 14.4398 3.7418C14.0541 2.65054 13.0133 1.87095 11.7928 1.87095Z" fill="#1A3E59"/>
<path d="M0.25 5.92491C0.25 5.40827 0.66883 4.98944 1.18547 4.98944H22.3896C22.9063 4.98944 23.3251 5.40827 23.3251 5.92491C23.3251 6.44156 22.9063 6.86039 22.3896 6.86039H1.18547C0.66883 6.86039 0.25 6.44156 0.25 5.92491Z" fill="#1A3E59"/>
<path d="M4.20093 8.9807C4.16657 8.4652 3.72081 8.07517 3.20531 8.10953C2.68981 8.14389 2.29976 8.58965 2.33414 9.10516L2.9122 17.776C3.01883 19.376 3.10497 20.6684 3.30699 21.6825C3.51704 22.7369 3.87429 23.6176 4.61219 24.3078C5.35008 24.9982 6.25256 25.2961 7.31856 25.4355C8.34389 25.5696 9.63917 25.5696 11.2427 25.5696H12.3388C13.9423 25.5696 15.2375 25.5696 16.2629 25.4355C17.3289 25.2961 18.2314 24.9982 18.9693 24.3078C19.7072 23.6176 20.0645 22.7369 20.2745 21.6825C20.4764 20.6684 20.5626 19.376 20.6693 17.776L21.2474 9.10516C21.2817 8.58965 20.8917 8.14389 20.3762 8.10953C19.8606 8.07517 19.4149 8.4652 19.3806 8.9807L18.8068 17.5859C18.6948 19.2671 18.6148 20.4369 18.4396 21.317C18.2695 22.1707 18.0321 22.6226 17.6911 22.9417C17.3501 23.2606 16.8833 23.4675 16.0202 23.5804C15.1304 23.6968 13.9579 23.6987 12.2731 23.6987H11.3084C9.62358 23.6987 8.45106 23.6968 7.56124 23.5804C6.69811 23.4675 6.23142 23.2606 5.89038 22.9417C5.54936 22.6226 5.31196 22.1707 5.14189 21.317C4.96656 20.4369 4.8867 19.2671 4.77463 17.5859L4.20093 8.9807Z" fill="#1A3E59"/>
<path d="M8.57281 11.2302C9.08689 11.1788 9.54525 11.5539 9.59676 12.068L10.2204 18.3045C10.2718 18.8185 9.89674 19.277 9.3826 19.3284C8.86854 19.3798 8.41011 19.0048 8.35871 18.4906L7.73506 12.2541C7.68365 11.7401 8.05872 11.2816 8.57281 11.2302Z" fill="#FF6F3C"/>
<path d="M15.8377 12.2542C15.8891 11.7402 15.5141 11.2817 14.9999 11.2303C14.4859 11.1789 14.0274 11.554 13.976 12.0681L13.3524 18.3046C13.301 18.8186 13.676 19.2771 14.1902 19.3285C14.7042 19.3799 15.1626 19.0048 15.2141 18.4907L15.8377 12.2542Z" fill="#FF6F3C"/>
</svg>
