<svg width="33" height="26" viewBox="0 0 33 26" fill="none" xmlns="http://www.w3.org/2000/svg">
<path d="M2.96693 17.6483C2.25644 16.7252 1.83231 16.1641 1.55302 15.5319C1.29041 14.9374 1.13212 14.2154 1.13212 12.9882C1.13212 11.761 1.29041 11.039 1.55302 10.4446C1.83231 9.81236 2.25644 9.25123 2.96694 8.32817C5.62004 4.88136 9.94733 1.13218 16.2352 1.13218C22.523 1.13218 26.8502 4.88134 29.5034 8.32815C30.2139 9.25123 30.638 9.81236 30.9173 10.4446C31.1799 11.039 31.3382 11.761 31.3382 12.9882C31.3382 14.2154 31.1799 14.9374 30.9173 15.5319C30.638 16.1641 30.2139 16.7252 29.5034 17.6483C26.8502 21.095 22.523 24.8442 16.2352 24.8442C9.94733 24.8442 5.62004 21.095 2.96693 17.6483Z" stroke="#FF6F3C" stroke-width="2.26424"/>
<path d="M19.9723 12.988C19.9723 15.0528 18.2986 16.7265 16.2338 16.7265C14.1691 16.7265 12.4954 15.0528 12.4954 12.988C12.4954 10.9233 14.1691 9.24961 16.2338 9.24961C18.2986 9.24961 19.9723 10.9233 19.9723 12.988Z" stroke="#1A3E59" stroke-width="2.26424"/>
</svg>
