<svg width="26" height="26" viewBox="0 0 26 26" fill="none" xmlns="http://www.w3.org/2000/svg">
<path d="M20.1896 16.3891C20.1896 18.35 18.6 19.9396 16.6391 19.9396H4.93261C2.97172 19.9396 1.38212 18.35 1.38212 16.3891V4.68261C1.38212 2.72173 2.97173 1.13212 4.93261 1.13212H16.6391C18.6 1.13212 20.1896 2.72172 20.1896 4.68261V16.3891Z" stroke="#4CAF50" stroke-width="2.26424" stroke-linecap="round" stroke-linejoin="round"/>
<mask id="path-2-inside-1_1_1949" fill="white">
<path d="M9.44922 25.5882H21.1557C23.7419 25.5882 25.8383 23.4916 25.8383 20.9056V9.19897"/>
</mask>
<path d="M9.44922 23.3239C8.19871 23.3239 7.18498 24.3377 7.18498 25.5882C7.18498 26.8387 8.19871 27.8524 9.44922 27.8524V23.3239ZM28.1026 9.19897C28.1026 7.94847 27.0889 6.93473 25.8383 6.93473C24.5878 6.93473 23.5741 7.94847 23.5741 9.19897H28.1026ZM9.44922 27.8524H21.1557V23.3239H9.44922V27.8524ZM21.1557 27.8524C24.9924 27.8524 28.1026 24.742 28.1026 20.9056H23.5741C23.5741 22.2411 22.4913 23.3239 21.1557 23.3239V27.8524ZM28.1026 20.9056V9.19897H23.5741V20.9056H28.1026Z" fill="#1A3E59" mask="url(#path-2-inside-1_1_1949)"/>
</svg>
