<svg width="22" height="21" viewBox="0 0 22 21" fill="none" xmlns="http://www.w3.org/2000/svg">
<mask id="path-1-inside-1_1_1697" fill="white">
<path d="M9.56066 0.259422H7.49944C2.34638 0.259422 0.285156 2.32065 0.285156 7.4737V13.6574C0.285156 18.8104 2.34638 20.8717 7.49944 20.8717H13.6831C18.8362 20.8717 20.8974 18.8104 20.8974 13.6574V11.5961"/>
</mask>
<path d="M9.56066 2.0924C10.573 2.0924 11.3936 1.27175 11.3936 0.259422C11.3936 -0.752905 10.573 -1.57356 9.56066 -1.57356V2.0924ZM22.7304 11.5961C22.7304 10.5838 21.9097 9.76317 20.8974 9.76317C19.8851 9.76317 19.0644 10.5838 19.0644 11.5961H22.7304ZM9.56066 -1.57356H7.49944V2.0924H9.56066V-1.57356ZM7.49944 -1.57356C4.74212 -1.57356 2.33516 -1.03332 0.663787 0.638053C-1.00759 2.30943 -1.54782 4.71639 -1.54782 7.4737H2.11814C2.11814 5.07796 2.60851 3.87778 3.25601 3.23028C3.90351 2.58278 5.10369 2.0924 7.49944 2.0924V-1.57356ZM-1.54782 7.4737V13.6574H2.11814V7.4737H-1.54782ZM-1.54782 13.6574C-1.54782 16.4147 -1.00759 18.8216 0.663787 20.493C2.33516 22.1644 4.74212 22.7046 7.49944 22.7046V19.0387C5.10369 19.0387 3.90351 18.5483 3.25601 17.9008C2.60851 17.2533 2.11814 16.0531 2.11814 13.6574H-1.54782ZM7.49944 22.7046H13.6831V19.0387H7.49944V22.7046ZM13.6831 22.7046C16.4404 22.7046 18.8474 22.1644 20.5188 20.493C22.1901 18.8216 22.7304 16.4147 22.7304 13.6574H19.0644C19.0644 16.0531 18.574 17.2533 17.9265 17.9008C17.279 18.5483 16.0788 19.0387 13.6831 19.0387V22.7046ZM22.7304 13.6574V11.5961H19.0644V13.6574H22.7304Z" fill="#1A3E59" mask="url(#path-1-inside-1_1_1697)"/>
<path d="M6.86042 10.9214L6.86084 10.9185C6.87357 10.8272 6.92396 10.6628 7.01936 10.4729C7.11463 10.2834 7.21685 10.144 7.2814 10.0795L6.63334 9.4314L7.2814 10.0795L15.4026 1.9582C16.051 1.30984 16.6189 0.97506 17.1424 0.923679C17.6177 0.877017 18.285 1.04543 19.1977 1.9582C20.1105 2.87097 20.2789 3.5382 20.2323 4.01357C20.1809 4.53701 19.8461 5.10495 19.1977 5.75331L11.083 13.8681C11.0078 13.9395 10.8625 14.0425 10.6753 14.1366C10.4825 14.2335 10.3202 14.2833 10.2346 14.2955L7.13707 14.7381C7.13639 14.7382 7.13571 14.7382 7.13504 14.7383C6.81546 14.7818 6.63622 14.6861 6.54964 14.5998C6.46459 14.5151 6.37052 14.342 6.41676 14.0271L6.41726 14.0236L6.86042 10.9214Z" stroke="#FF6F3C" stroke-width="1.83298" stroke-miterlimit="10" stroke-linecap="round" stroke-linejoin="round"/>
<g opacity="0.4">
<mask id="path-4-inside-2_1_1697" fill="white">
<path d="M13.5938 2.47518C14.2843 4.93834 16.2115 6.86559 18.685 7.5664Z"/>
</mask>
<path d="M15.3587 1.98041C15.0854 1.00566 14.0737 0.436985 13.099 0.710241C12.1242 0.983497 11.5556 1.99521 11.8288 2.96996L15.3587 1.98041ZM18.1853 9.32996C19.1593 9.60592 20.1726 9.04006 20.4485 8.06608C20.7245 7.09209 20.1586 6.07881 19.1846 5.80284L18.1853 9.32996ZM11.8288 2.96996C12.6926 6.05116 15.1018 8.45629 18.1853 9.32996L19.1846 5.80284C17.3213 5.27488 15.8759 3.82552 15.3587 1.98041L11.8288 2.96996Z" fill="#FF6F3C" mask="url(#path-4-inside-2_1_1697)"/>
</g>
</svg>
