<svg width="24" height="26" viewBox="0 0 24 26" fill="none" xmlns="http://www.w3.org/2000/svg">
<path d="M12.3787 1.87095C11.1582 1.87095 10.1175 2.65054 9.73179 3.7418C9.55962 4.22892 9.02516 4.48425 8.53804 4.31207C8.05093 4.13989 7.79562 3.60544 7.96779 3.11833C8.60944 1.30291 10.3408 0 12.3787 0C14.4168 0 16.1481 1.30291 16.7898 3.11833C16.9619 3.60544 16.7066 4.13989 16.2195 4.31207C15.7323 4.48425 15.1979 4.22892 15.0257 3.7418C14.6401 2.65054 13.5992 1.87095 12.3787 1.87095Z" fill="#1A3E59"/>
<path d="M0.835938 5.92491C0.835938 5.40827 1.25477 4.98944 1.77141 4.98944H22.9756C23.4922 4.98944 23.9111 5.40827 23.9111 5.92491C23.9111 6.44156 23.4922 6.86039 22.9756 6.86039H1.77141C1.25477 6.86039 0.835938 6.44156 0.835938 5.92491Z" fill="#1A3E59"/>
<path d="M4.78687 8.9807C4.75251 8.4652 4.30675 8.07517 3.79125 8.10953C3.27574 8.14389 2.8857 8.58965 2.92008 9.10516L3.49814 17.776C3.60477 19.376 3.69091 20.6684 3.89293 21.6825C4.10298 22.7369 4.46023 23.6176 5.19813 24.3078C5.93602 24.9982 6.8385 25.2961 7.9045 25.4355C8.92983 25.5696 10.2251 25.5696 11.8286 25.5696H12.9248C14.5283 25.5696 15.8235 25.5696 16.8489 25.4355C17.9148 25.2961 18.8174 24.9982 19.5553 24.3078C20.2932 23.6176 20.6504 22.7369 20.8604 21.6825C21.0624 20.6684 21.1486 19.376 21.2552 17.776L21.8333 9.10516C21.8676 8.58965 21.4776 8.14389 20.9621 8.10953C20.4466 8.07517 20.0008 8.4652 19.9665 8.9807L19.3927 17.5859C19.2807 19.2671 19.2008 20.4369 19.0255 21.317C18.8554 22.1707 18.618 22.6226 18.277 22.9417C17.936 23.2606 17.4693 23.4675 16.6062 23.5804C15.7163 23.6968 14.5439 23.6987 12.859 23.6987H11.8944C10.2095 23.6987 9.037 23.6968 8.14717 23.5804C7.28405 23.4675 6.81736 23.2606 6.47632 22.9417C6.1353 22.6226 5.8979 22.1707 5.72783 21.317C5.5525 20.4369 5.47263 19.2671 5.36056 17.5859L4.78687 8.9807Z" fill="#1A3E59"/>
<path d="M9.15887 11.2302C9.67295 11.1788 10.1313 11.5539 10.1828 12.068L10.8065 18.3045C10.8579 18.8185 10.4828 19.277 9.96866 19.3284C9.4546 19.3798 8.99617 19.0048 8.94477 18.4906L8.32112 12.2541C8.26971 11.7401 8.64478 11.2816 9.15887 11.2302Z" fill="#4CAF50"/>
<path d="M16.4237 12.2542C16.4751 11.7402 16.1 11.2817 15.5859 11.2303C15.0718 11.1789 14.6133 11.554 14.562 12.0681L13.9383 18.3046C13.8869 18.8186 14.262 19.2771 14.7761 19.3285C15.2901 19.3799 15.7485 19.0048 15.8 18.4907L16.4237 12.2542Z" fill="#4CAF50"/>
</svg>
