<svg width="27" height="26" viewBox="0 0 27 26" fill="none" xmlns="http://www.w3.org/2000/svg">
<mask id="path-1-inside-1_1_721" fill="white">
<path d="M11.9266 0.32019H9.3804C3.01493 0.32019 0.46875 2.86637 0.46875 9.23184V16.8704C0.46875 23.2358 3.01493 25.782 9.3804 25.782H17.0189C23.3844 25.782 25.9306 23.2358 25.9306 16.8704V14.3242"/>
</mask>
<path d="M11.9266 2.58443C13.1771 2.58443 14.1908 1.5707 14.1908 0.32019C14.1908 -0.930315 13.1771 -1.94405 11.9266 -1.94405V2.58443ZM28.1948 14.3242C28.1948 13.0737 27.1811 12.06 25.9306 12.06C24.6801 12.06 23.6664 13.0737 23.6664 14.3242H28.1948ZM11.9266 -1.94405H9.3804V2.58443H11.9266V-1.94405ZM9.3804 -1.94405C5.97434 -1.94405 3.00108 -1.27671 0.936465 0.787905C-1.12815 2.85252 -1.79549 5.82578 -1.79549 9.23184H2.73299C2.73299 6.27243 3.33874 4.78987 4.13858 3.99003C4.93843 3.19018 6.42099 2.58443 9.3804 2.58443V-1.94405ZM-1.79549 9.23184V16.8704H2.73299V9.23184H-1.79549ZM-1.79549 16.8704C-1.79549 20.2764 -1.12815 23.2497 0.936465 25.3143C3.00108 27.3789 5.97434 28.0463 9.3804 28.0463V23.5178C6.42099 23.5178 4.93843 22.912 4.13858 22.1122C3.33874 21.3124 2.73299 19.8298 2.73299 16.8704H-1.79549ZM9.3804 28.0463H17.0189V23.5178H9.3804V28.0463ZM17.0189 28.0463C20.425 28.0463 23.3983 27.3789 25.4629 25.3143C27.5275 23.2497 28.1948 20.2764 28.1948 16.8704H23.6664C23.6664 19.8298 23.0606 21.3124 22.2608 22.1122C21.4609 22.912 19.9784 23.5178 17.0189 23.5178V28.0463ZM28.1948 16.8704V14.3242H23.6664V16.8704H28.1948Z" fill="#1A3E59" mask="url(#path-1-inside-1_1_721)"/>
<path d="M8.58951 13.491L8.59002 13.4873C8.60575 13.3746 8.66799 13.1715 8.78584 12.937C8.90353 12.7029 9.02979 12.5307 9.10953 12.4509L19.1415 2.41892C19.9424 1.61802 20.644 1.20447 21.2906 1.141C21.8778 1.08336 22.702 1.29139 23.8295 2.41892C24.9571 3.54645 25.1651 4.37066 25.1075 4.95788C25.044 5.60447 24.6304 6.30604 23.8295 7.10694L13.8056 17.1309C13.7126 17.2192 13.5332 17.3464 13.302 17.4626C13.0638 17.5823 12.8632 17.6439 12.7575 17.659L8.93125 18.2056C8.93044 18.2057 8.92962 18.2058 8.92882 18.2059C8.534 18.2597 8.31256 18.1414 8.2056 18.0349C8.10054 17.9302 7.98434 17.7164 8.04146 17.3273L8.04207 17.323L8.58951 13.491Z" stroke="#FF6F3C" stroke-width="2.26424" stroke-miterlimit="10" stroke-linecap="round" stroke-linejoin="round"/>
<g opacity="0.4">
<mask id="path-4-inside-2_1_721" fill="white">
<path d="M16.9062 3.05737C17.7592 6.10006 20.1399 8.48075 23.1953 9.34645Z"/>
</mask>
<path d="M19.0864 2.44619C18.7489 1.2421 17.4992 0.539633 16.2951 0.87718C15.091 1.21473 14.3885 2.46447 14.7261 3.66856L19.0864 2.44619ZM22.5781 11.5249C23.7812 11.8658 25.0329 11.1668 25.3738 9.96369C25.7147 8.76054 25.0157 7.50885 23.8126 7.16796L22.5781 11.5249ZM14.7261 3.66856C15.7931 7.4747 18.7691 10.4457 22.5781 11.5249L23.8126 7.16796C21.5108 6.51578 19.7254 4.72542 19.0864 2.44619L14.7261 3.66856Z" fill="#FF6F3C" mask="url(#path-4-inside-2_1_721)"/>
</g>
</svg>
