<svg width="33" height="33" viewBox="0 0 33 33" fill="none" xmlns="http://www.w3.org/2000/svg">
<path d="M32.0005 16.5018C32.0005 20.7081 32.0005 24.9144 32.0005 29.1138C32.0005 30.479 31.1586 31.5739 29.868 31.8788C29.5989 31.9412 29.3159 31.9619 29.033 31.9619C22.5666 31.9619 16.1002 31.9619 9.62694 31.9619C7.83954 31.9619 6.67324 30.7908 6.67324 28.996C6.67324 25.1292 6.67324 21.2555 6.67324 17.3888C6.67324 17.1254 6.60423 17.0284 6.34198 16.9661C3.05703 16.1969 0.855564 13.2448 1.00739 9.85617C1.14541 6.80017 3.40899 4.11837 6.4179 3.46005C6.62493 3.41847 6.72155 3.3561 6.76986 3.12742C7.039 1.97016 7.97756 1.15938 9.15076 1.02772C9.32329 1.00693 9.49581 1 9.66834 1C16.114 1 22.5597 1 29.0054 1C30.3856 1 31.4277 1.66525 31.8211 2.8433C31.9453 3.20365 31.9936 3.60557 31.9936 3.9867C32.0074 8.15839 32.0005 12.3301 32.0005 16.5018ZM7.80503 3.27987C11.5455 3.15514 14.996 6.37745 14.8166 10.5422C14.6579 14.2219 11.5869 17.2432 7.71531 17.1878C7.71531 17.2917 7.71531 17.4026 7.71531 17.5066C7.71531 21.3456 7.71531 25.1778 7.71531 29.0168C7.71531 30.2295 8.41233 30.9363 9.61313 30.9363C16.1002 30.9363 22.5942 30.9363 29.0813 30.9363C30.2614 30.9363 30.9722 30.2157 30.9722 29.0376C30.9722 20.6734 30.9722 12.3093 30.9722 3.9382C30.9722 3.78574 30.9722 3.63329 30.9446 3.48777C30.779 2.60076 30.082 2.03946 29.1089 2.03946C22.6218 2.03946 16.1278 2.03946 9.64074 2.03946C9.46131 2.03946 9.27498 2.05332 9.09555 2.08796C8.46064 2.23349 8.03277 2.61462 7.80503 3.27294V3.27987ZM11.4281 14.9149C11.2763 14.7485 11.1452 14.5961 11.0072 14.4436C9.90298 13.2171 8.8057 11.9905 7.69461 10.764C7.48758 10.5353 7.39096 10.2927 7.39096 9.9809C7.39786 8.23462 7.39096 6.4814 7.39096 4.73511V4.3817C5.46554 4.47178 3.07774 5.88545 2.2841 8.53259C1.52498 11.0481 2.51874 13.7576 4.72021 15.192C6.88718 16.6057 9.64074 16.3493 11.4212 14.9218L11.4281 14.9149ZM13.7262 9.69679C13.6641 7.19516 11.3453 4.51336 8.46064 4.38863V9.69679H13.7262ZM9.10245 10.7709C10.1721 11.9628 11.1866 13.0923 12.2149 14.2357C13.112 13.2309 13.6365 12.1083 13.7538 10.7709H9.10245Z" fill="#3F3F3F" stroke="#3F3F3F" stroke-width="0.5"/>
<path d="M23.3861 28.7603C22.551 29.3078 20.2668 29.3147 19.3972 28.7811C18.4725 29.3078 16.271 29.3078 15.3876 28.7672C15.0012 29.1276 14.5181 29.1692 14.0143 29.1553C13.4967 29.1415 12.9791 29.1553 12.4685 29.1553C11.6265 29.1415 10.9571 28.5663 10.9295 27.7209C10.8881 26.425 10.8881 25.1292 10.9295 23.8333C10.9571 22.9879 11.6196 22.4058 12.4616 22.3919C13.2552 22.385 14.0488 22.3919 14.8908 22.3919C14.8908 22.0454 14.8908 21.6435 14.8908 21.2347C14.8908 20.022 15.4843 19.4191 16.692 19.4191C17.2302 19.4191 17.7685 19.4191 18.3068 19.4191C19.2454 19.4191 19.901 20.0843 19.9217 21.0337C19.9217 21.498 19.9217 21.9623 19.9217 22.4127H22.8685C22.8685 22.3088 22.8685 22.1979 22.8685 22.0801C22.8685 21.1515 22.8685 20.2229 22.8685 19.2943C22.8754 18.2341 23.5103 17.6035 24.5593 17.6035C25.139 17.6035 25.7187 17.6035 26.3053 17.6035C27.2093 17.6104 27.8787 18.2687 27.8787 19.1835C27.8787 21.9831 27.8787 24.7827 27.8787 27.5823C27.8787 28.497 27.2231 29.1484 26.3122 29.1622C25.7532 29.1692 25.1942 29.1553 24.6352 29.1622C24.1797 29.1761 23.7587 29.086 23.3999 28.7742L23.3861 28.7603ZM26.8436 23.3829C26.8436 22.0108 26.8436 20.6387 26.8436 19.2666C26.8436 18.8162 26.6641 18.6291 26.2225 18.6291C25.6497 18.6291 25.0838 18.6291 24.511 18.6291C24.09 18.6291 23.9106 18.8093 23.8968 19.2458C23.8968 19.5923 23.8968 19.9388 23.8968 20.2853C23.8968 22.6691 23.8968 25.0599 23.8968 27.4437C23.8968 27.9426 24.0624 28.1089 24.5524 28.1089C25.0907 28.1089 25.629 28.1089 26.1672 28.1089C26.6848 28.1089 26.8436 27.9495 26.8436 27.4367C26.8436 26.0855 26.8436 24.7342 26.8436 23.3898V23.3829ZM18.8865 24.2907C18.8865 23.2235 18.8865 22.1494 18.8865 21.0822C18.8865 20.6387 18.6933 20.4516 18.2585 20.4516C17.6857 20.4516 17.1198 20.4516 16.547 20.4516C16.1261 20.4516 15.9328 20.6456 15.9328 21.0683C15.9328 23.2165 15.9328 25.3648 15.9328 27.5199C15.9328 27.9288 16.1261 28.1089 16.5332 28.1159C17.0922 28.1159 17.6512 28.1159 18.2102 28.1159C18.7209 28.1159 18.8865 27.9495 18.8865 27.4367C18.8865 26.3904 18.8865 25.344 18.8865 24.2907ZM19.9217 25.7459C19.9217 26.3418 19.9217 26.9309 19.9217 27.5268C19.9217 27.9149 20.108 28.102 20.4945 28.1089C21.088 28.1089 21.6746 28.1089 22.2681 28.1089C22.6753 28.1089 22.8616 27.9288 22.8616 27.513C22.8685 26.3488 22.8685 25.1777 22.8616 24.0135C22.8616 23.5977 22.6684 23.4175 22.2681 23.4175C21.6884 23.4175 21.1087 23.4175 20.529 23.4175C20.1011 23.4175 19.9217 23.5977 19.9217 24.0273C19.9217 24.6025 19.9217 25.1707 19.9217 25.7459ZM14.8977 25.7805C14.8977 25.1984 14.8977 24.6164 14.8977 24.0343C14.8977 23.6046 14.7182 23.4244 14.2904 23.4244C13.7176 23.4244 13.1517 23.4244 12.5789 23.4244C12.1441 23.4244 11.9578 23.5908 11.9578 24.0204C11.9509 25.1846 11.9509 26.3557 11.9578 27.5199C11.9578 27.9357 12.1441 28.1089 12.5513 28.1159C13.131 28.1159 13.7107 28.1159 14.2904 28.1159C14.7182 28.1159 14.8908 27.9357 14.8977 27.4991C14.8977 26.9239 14.8977 26.3557 14.8977 25.7805Z" fill="#3F3F3F" stroke="#3F3F3F" stroke-width="0.5"/>
<path d="M21.4323 17.9638C21.2529 17.9014 21.1287 17.8737 21.0114 17.8183C20.0452 17.4233 19.079 17.0283 18.1198 16.6195C17.8989 16.5224 17.7402 16.5363 17.547 16.7026C16.3324 17.7421 15.1109 18.7607 13.8825 19.7794C13.7652 19.8764 13.6133 19.9665 13.4615 19.9942C13.2269 20.0358 13.0405 19.918 12.9508 19.6962C12.8473 19.4468 12.9301 19.2319 13.1371 19.0656C13.9377 18.3935 14.7382 17.7213 15.5387 17.0491C16.1115 16.5709 16.6843 16.0997 17.2433 15.6146C17.4987 15.3929 17.7471 15.3444 18.0646 15.483C19.0238 15.8918 19.9969 16.273 20.9562 16.6818C21.1839 16.7788 21.3219 16.7719 21.5083 16.5848C22.5434 15.5453 23.5993 14.5267 24.6552 13.508C24.7449 13.4179 24.8484 13.2793 24.9519 13.2724C25.1452 13.2724 25.3867 13.2863 25.5316 13.3971C25.7318 13.5427 25.718 13.7991 25.5868 14.0139C25.5454 14.0832 25.4764 14.1455 25.4143 14.2079C24.2273 15.3721 23.0403 16.5294 21.8464 17.6866C21.7222 17.8044 21.5566 17.8807 21.4323 17.9638Z" fill="#3F3F3F" stroke="#3F3F3F" stroke-width="0.5"/>
<path d="M23.4143 6.10025C25.043 6.10025 26.6647 6.10025 28.2865 6.10719C28.4728 6.10719 28.7006 6.18347 28.8248 6.31524C29.087 6.58571 28.9076 7.02956 28.528 7.11971C28.4176 7.14745 28.2934 7.14052 28.1761 7.14052C25.0085 7.14052 21.8477 7.14052 18.6801 7.14052C18.6042 7.14052 18.5283 7.14052 18.4524 7.14052C18.1211 7.11278 17.9141 6.90472 17.9141 6.60651C17.9141 6.3083 18.128 6.10719 18.4662 6.10025C19.6739 6.10025 20.8747 6.10025 22.0824 6.10025C22.524 6.10025 22.9657 6.10025 23.4074 6.10025H23.4143Z" fill="#3F3F3F" stroke="#3F3F3F" stroke-width="0.5"/>
<path d="M25.0714 10.7439C24.05 10.7439 23.0287 10.7439 22.0073 10.7439C21.89 10.7439 21.7658 10.7439 21.6553 10.7231C21.3862 10.6746 21.2344 10.4873 21.2344 10.2238C21.2344 9.96024 21.3793 9.77299 21.6484 9.72445C21.752 9.70364 21.8624 9.70364 21.9728 9.70364C24.05 9.70364 26.1273 9.70364 28.2045 9.70364C28.2805 9.70364 28.3564 9.70364 28.4323 9.70364C28.7428 9.73138 28.9499 9.93944 28.9499 10.2168C28.9499 10.4942 28.7497 10.7162 28.4323 10.73C27.9492 10.7439 27.4661 10.737 26.983 10.737C26.3481 10.737 25.7132 10.737 25.0783 10.737L25.0714 10.7439Z" fill="#3F3F3F" stroke="#3F3F3F" stroke-width="0.5"/>
</svg>
