<svg width="40" height="40" viewBox="0 0 40 40" fill="none" xmlns="http://www.w3.org/2000/svg">
<circle cx="20" cy="20" r="20" fill="#FF6F3C"/>
<path fill-rule="evenodd" clip-rule="evenodd" d="M27.7187 25.8681C27.2246 27.3695 25.2889 28.1183 23.9059 27.9935C22.0172 27.8227 19.9619 26.8209 18.4018 25.7176C16.1086 24.0956 13.9606 21.5866 12.7089 18.9242C11.8242 17.0429 11.6258 14.7299 12.9415 13.015C13.4281 12.3812 13.9542 12.0426 14.7449 12.0032C15.8419 11.9498 15.9955 12.5774 16.3722 13.5548C16.6529 14.2858 17.0274 15.0314 17.2366 15.7891C17.6282 17.203 16.2591 17.2621 16.0862 18.4177C15.9785 19.1466 16.862 20.124 17.2611 20.6436C18.0433 21.6616 18.9834 22.5397 20.0441 23.2077C20.6513 23.5908 21.6319 24.2811 22.3277 23.9002C23.3991 23.3133 23.2977 21.5067 24.7959 22.1182C25.5717 22.434 26.3229 22.8899 27.0635 23.289C28.2085 23.9047 28.1551 24.5428 27.7187 25.8681C28.0452 24.8779 27.3921 26.8584 27.7187 25.8681Z" fill="white"/>
</svg>
