<svg width="33" height="32" viewBox="0 0 33 32" fill="none" xmlns="http://www.w3.org/2000/svg">
<path d="M18.2413 29.0604C17.4832 29.328 16.7727 29.6007 16.0487 29.831C14.4049 30.3527 12.7611 30.8785 11.1037 31.3545C9.11442 31.9244 7.47487 31.313 6.14588 29.7777C6.12546 29.7548 6.09908 29.737 6.01229 29.6617C6.01229 29.8742 6.01229 30.0309 6.01229 30.1884C6.01144 30.4949 6.0208 30.8015 6.00464 31.1072C5.99017 31.3773 5.82766 31.5297 5.55625 31.5509C5.27548 31.5729 5.07893 31.4544 5.01597 31.1724C4.98875 31.0513 4.9981 30.9209 4.9981 30.7947C4.9964 29.9293 4.9981 29.0647 4.9981 28.184C4.71563 28.1442 4.40252 28.101 4.08942 28.057C3.80524 28.0172 3.62316 27.8724 3.49128 27.6048C2.6915 25.9857 1.85769 24.3826 1.08173 22.7534C0.958363 22.4951 0.986441 22.0971 1.08769 21.8142C1.28849 21.2528 1.54459 20.7007 1.85599 20.1917C2.47284 19.1832 3.31176 18.3533 4.15663 17.5336C4.55142 17.1508 4.9411 16.763 5.32567 16.3845C4.9964 15.7155 5.00321 15.6774 5.52137 15.1617C6.05313 14.6324 6.58575 14.1023 7.08094 13.6103C6.77549 13.004 6.49046 12.4307 6.19607 11.8616C6.168 11.8074 6.09057 11.7685 6.02761 11.7448C4.56418 11.1943 4.08601 9.76491 4.92068 8.43202C4.9377 8.40493 4.95301 8.37783 4.9913 8.31432C4.52334 7.87143 4.52589 7.28205 4.53866 6.68335C4.55142 6.10244 4.54121 5.52067 4.54121 4.93976C4.54121 3.08608 5.3529 1.87259 7.092 1.22393C8.68475 0.630317 10.3439 0.484665 12.0064 0.822544C13.6681 1.16127 14.6865 2.23164 15.1128 3.86261C15.1366 3.95491 15.1553 4.04806 15.1783 4.13952C15.1834 4.15815 15.197 4.17424 15.2191 4.21404C15.8105 4.21404 16.4145 4.21404 17.0186 4.21404C18.146 4.21404 18.9322 4.76701 19.4316 5.73661C19.8791 6.6046 19.6486 7.45734 18.8522 8.02471C18.2472 8.45573 17.5496 8.6251 16.828 8.71317C16.4826 8.75551 16.1338 8.77075 15.7671 8.80039C15.6616 10.6744 15.5033 12.5374 14.1335 14.0744C14.5759 14.5113 14.9792 15.0185 15.4888 15.3742C15.8207 15.6054 16.3073 15.6172 16.7676 15.7383C16.7676 15.5774 16.7676 15.464 16.7676 15.3513C16.7676 14.3682 16.7651 13.3859 16.7693 12.4027C16.771 11.9946 16.9412 11.8252 17.353 11.8244C22.0547 11.8227 26.7564 11.8227 31.4581 11.8244C31.8784 11.8244 31.9992 11.9556 31.9984 12.379C31.9984 16.8384 31.9984 21.2977 31.9984 25.757C31.9984 26.4362 31.8963 26.5361 31.202 26.5361C30.1214 26.5361 29.0409 26.5361 27.9433 26.5361C27.9229 26.691 27.9135 26.8257 27.8871 26.9569C27.7153 27.8004 27.0874 28.3423 26.0859 28.4965C25.8043 28.5396 25.5167 28.5617 25.2308 28.5625C23.9682 28.5667 22.7047 28.5363 21.4421 28.5667C20.7172 28.5845 19.9948 28.6938 19.258 28.7632C19.258 29.588 19.264 30.3264 19.2555 31.0657C19.2504 31.5052 18.8394 31.7694 18.5008 31.5314C18.3638 31.4349 18.2617 31.2063 18.2506 31.0318C18.2183 30.4949 18.2387 29.9547 18.2387 29.4161C18.2387 29.3128 18.2387 29.2095 18.2387 29.0596L18.2413 29.0604ZM17.7988 12.8405V24.502C17.9333 24.4665 18.0524 24.4292 18.1741 24.403C18.7841 24.2692 19.3899 24.0524 20.005 24.0227C21.2541 23.9626 22.509 23.9914 23.7615 24.0075C24.483 24.0168 25.0386 24.5156 25.1858 25.2269C25.2045 25.3192 25.2266 25.4115 25.2479 25.5072H31.0173V12.8626H26.9597C26.9597 12.9684 26.9597 13.0522 26.9597 13.1361C26.9597 14.2031 26.9648 15.2709 26.9572 16.3379C26.9538 16.8223 26.6168 17.012 26.1906 16.7952C25.6903 16.5411 25.1909 16.2828 24.6804 16.0517C24.5595 15.9966 24.3715 15.9949 24.2515 16.05C23.7308 16.2854 23.2246 16.5521 22.7124 16.8053C22.2266 17.0458 21.8735 16.8307 21.8667 16.2837C21.8607 15.7764 21.865 15.2692 21.865 14.762C21.865 14.1311 21.865 13.5002 21.865 12.8592C21.7952 12.8499 21.7552 12.8405 21.7152 12.8405C20.4211 12.8405 19.1278 12.8405 17.8005 12.8405H17.7988ZM12.7424 16.901C12.5101 17.4887 12.3033 18.007 12.1017 18.5278C12.0209 18.7352 11.8813 18.8978 11.6576 18.858C11.4908 18.8284 11.3291 18.7107 11.1913 18.5997C11.1181 18.5405 11.0977 18.4151 11.0569 18.3177C10.8595 17.8435 10.6629 17.3685 10.4494 16.8519C9.98567 17.4396 9.55345 17.9866 9.12208 18.5337C8.72049 19.0426 8.53756 19.0596 8.03472 18.6412C7.4017 18.1145 6.76698 17.5895 6.11439 17.0475C5.78853 17.3752 5.47457 17.6742 5.18018 17.9909C4.40252 18.8267 3.59168 19.6371 2.87954 20.5245C2.50602 20.9894 2.30267 21.5924 2.04487 22.1445C1.99638 22.2487 2.01935 22.4214 2.07295 22.5315C2.79105 24.0134 3.51936 25.4911 4.25278 26.9663C4.29617 27.0543 4.40423 27.1475 4.49782 27.1678C5.92976 27.4837 7.28599 26.78 7.88242 25.4369C7.97771 25.2227 7.98112 25.0584 7.85009 24.8535C7.42297 24.1862 7.01287 23.507 6.60703 22.8262C6.37815 22.4417 6.53385 22.0683 6.9397 21.9988C7.22983 21.9489 7.38809 22.1242 7.51826 22.3486C8.15043 23.435 8.7809 24.5232 9.42242 25.6046C9.91335 26.4311 10.8169 26.7901 11.7188 26.4997C13.3005 25.9899 14.8754 25.4572 16.4545 24.9398C16.6085 24.889 16.6655 24.812 16.6655 24.646C16.6604 22.1098 16.6604 19.5744 16.6655 17.0382C16.6655 16.8604 16.6187 16.7715 16.4341 16.7384C16.1636 16.6893 15.8947 16.6241 15.6309 16.5462C15.4557 16.4945 15.3646 16.5301 15.2872 16.702C15.0872 17.1441 14.8694 17.5785 14.6533 18.0137C14.3964 18.532 13.9718 18.5659 13.6247 18.0984C13.343 17.7182 13.0631 17.3371 12.7424 16.9019V16.901ZM6.17395 28.1078C6.60532 28.8005 7.08094 29.3907 7.69864 29.8514C7.95049 30.0402 8.22786 30.2028 8.51118 30.3417C9.38413 30.771 10.2886 30.6228 11.1513 30.3578C13.2452 29.7167 15.3272 29.0333 17.4041 28.3381C18.779 27.8783 20.1659 27.5277 21.6293 27.5421C22.8919 27.5548 24.1545 27.5641 25.4163 27.5413C25.7567 27.5353 26.1047 27.4371 26.4322 27.3287C26.7462 27.2245 26.9087 26.9629 26.9487 26.5886C26.8236 26.5886 26.7104 26.5903 26.5981 26.5886C25.3891 26.5716 24.1801 26.5556 22.971 26.5361C22.5788 26.5302 22.378 26.3566 22.3755 26.0322C22.3738 25.707 22.578 25.5267 22.9634 25.5224C23.365 25.5182 23.7666 25.5216 24.1716 25.5216C24.1163 25.149 23.9682 25.0169 23.5998 25.0152C22.5712 25.0118 21.5416 24.9983 20.513 25.0211C20.0825 25.0304 19.6477 25.0914 19.2274 25.1846C18.7016 25.3014 18.1826 25.4589 17.6704 25.6266C15.8496 26.2228 14.0365 26.8409 12.214 27.432C10.9309 27.8478 9.70575 27.4659 8.85407 26.4192C8.81068 26.3659 8.7826 26.3007 8.72814 26.2092C8.1198 27.2296 7.2979 27.8351 6.17395 28.1052V28.1078ZM14.5044 6.65541C14.4772 6.65202 14.4508 6.64948 14.4236 6.64609C14.336 6.7621 14.2517 6.88066 14.1598 6.99328C13.8995 7.31169 13.6596 7.65126 13.3686 7.94087C12.7994 8.50824 12.1221 8.80378 11.2874 8.78938C9.61216 8.75974 7.93602 8.77583 6.25989 8.78769C6.09738 8.78853 5.87276 8.84696 5.78682 8.96044C5.49924 9.34066 5.48818 9.79031 5.63878 10.2281C5.77066 10.6117 6.09993 10.7752 6.4811 10.7997C6.85972 10.8243 7.02478 11.0317 7.15581 11.3603C7.34214 11.8278 7.52592 12.3147 7.8135 12.7203C8.60477 13.8381 9.69554 14.4427 11.0986 14.3411C12.6037 14.2319 13.6476 13.468 14.2186 12.0657C14.7469 10.7684 14.7997 9.41602 14.6933 8.04842C14.6567 7.58182 14.5691 7.12031 14.5044 6.65625V6.65541ZM8.62009 1.88191C7.91645 1.98945 7.26301 2.18676 6.6836 2.57884C6.08547 2.98446 5.6541 3.53066 5.6124 4.25807C5.55285 5.28949 5.57071 6.32599 5.57071 7.35996C5.57071 7.58521 5.73067 7.73001 5.95784 7.75542C6.8861 7.86042 7.74033 7.74526 8.34697 6.92639C8.50438 6.71384 8.66348 6.50383 8.82174 6.29212C9.81125 4.9677 11.0322 4.08702 12.7926 4.2098C13.2409 4.24114 13.6927 4.21488 14.2483 4.21488C14.0212 3.7576 13.8816 3.33843 13.6315 2.99971C12.9763 2.1114 12.0583 1.65327 10.959 1.77944C9.85805 1.90562 9.14335 2.59493 8.81238 3.64413C8.70602 3.98201 8.66774 4.34445 8.62094 4.69842C8.57755 5.03291 8.37335 5.24461 8.06875 5.22683C7.77266 5.20989 7.60079 5.00666 7.60165 4.66285C7.60165 4.52567 7.61356 4.38848 7.62887 4.25214C7.73182 3.3723 8.05599 2.58392 8.62179 1.88276L8.62009 1.88191ZM14.3572 5.2336C13.5949 5.2336 12.8223 5.22598 12.0506 5.23953C11.8754 5.24292 11.6941 5.29965 11.5291 5.36571C10.3771 5.82129 9.7117 6.77819 9.02679 7.76558C9.82912 7.76558 10.5932 7.75034 11.3555 7.77151C11.7631 7.78252 12.1076 7.65888 12.4105 7.41161C12.6224 7.23801 12.8232 7.04663 13.0027 6.84001C13.4588 6.31583 13.8995 5.77895 14.3572 5.2336ZM25.9345 12.86H22.8987V15.5664C23.3122 15.3632 23.7053 15.1862 24.0822 14.9796C24.3111 14.8543 24.5051 14.8475 24.7365 14.9737C25.1202 15.1828 25.5184 15.364 25.9353 15.569V12.86H25.9345ZM15.7364 7.78844C16.1499 7.74949 16.5788 7.75457 16.9829 7.65888C17.4279 7.55303 17.8661 7.38621 18.2779 7.18551C18.5578 7.04917 18.7237 6.75872 18.5986 6.43777C18.3842 5.88904 18.0354 5.44192 17.427 5.28611C16.6868 5.09642 16.0606 5.41143 15.4565 5.77726C15.4038 5.80944 15.3774 5.93985 15.391 6.01521C15.4939 6.58427 15.6105 7.15079 15.7364 7.78844ZM6.30073 15.9043C7.03755 16.5039 7.765 17.0966 8.51544 17.7072C8.97999 17.1246 9.43008 16.5598 9.88953 15.9839C9.12293 15.4809 8.39122 15.0008 7.67737 14.5325C7.21197 14.9965 6.77124 15.436 6.30073 15.9052V15.9043ZM14.581 16.0711C14.2015 15.7019 13.8527 15.3615 13.52 15.0372C13.4724 15.1676 13.3975 15.353 13.3396 15.5436C13.3107 15.6376 13.2673 15.7722 13.3107 15.8357C13.56 16.2041 13.8331 16.5572 14.1207 16.9459C14.3062 16.5936 14.4627 16.2972 14.5819 16.0711H14.581ZM10.9352 15.3971C11.176 15.9094 11.4219 16.431 11.695 17.012C11.9375 16.3608 12.1578 15.7688 12.385 15.1608C11.8422 15.2497 11.3547 15.3293 10.9352 15.3979V15.3971Z" fill="#3F3F3F" stroke="#3F3F3F" stroke-width="0.5"/>
<path d="M20.8444 22.9862C20.5159 22.9862 20.1884 22.9922 19.86 22.9846C19.5196 22.9769 19.3273 22.7947 19.3205 22.4922C19.3129 22.1761 19.512 21.977 19.8651 21.9736C20.521 21.9668 21.177 21.9668 21.8339 21.9736C22.1742 21.977 22.3665 22.1626 22.3742 22.4651C22.3818 22.7803 22.1819 22.9769 21.8296 22.9846C21.5021 22.9922 21.1736 22.9862 20.8452 22.9862H20.8444Z" fill="#3F3F3F" stroke="#3F3F3F" stroke-width="0.5"/>
<path d="M20.3426 20.451C20.5119 20.451 20.6812 20.4434 20.8496 20.4527C21.1628 20.4697 21.3474 20.6586 21.3508 20.9502C21.3542 21.2425 21.1713 21.4476 20.8633 21.4603C20.5153 21.4739 20.1656 21.473 19.8167 21.4611C19.5036 21.451 19.3199 21.2561 19.3165 20.9646C19.313 20.6603 19.5045 20.4671 19.8346 20.4527C20.0031 20.4451 20.1732 20.451 20.3417 20.4519L20.3426 20.451Z" fill="#3F3F3F" stroke="#3F3F3F" stroke-width="0.5"/>
</svg>
