<svg width="47" height="47" viewBox="0 0 47 47" fill="none" xmlns="http://www.w3.org/2000/svg">
<g clip-path="url(#clip0_1_4564)">
<path d="M18.0994 33.8411V38.1256H21.7441C21.9135 38.6846 22.0754 39.217 22.2485 39.7861H0V7.93011H18.0643V13.8828C18.6377 13.4239 19.1144 13.0436 19.6301 12.6291C20.1445 13.0347 20.6589 13.4391 21.2072 13.8713C21.7216 13.4644 22.2372 13.0575 22.783 12.6266C23.2748 13.0208 23.7603 13.4099 24.3212 13.8587V7.93392H42.3992V23.2985C38.0331 20.7037 33.5076 20.2867 28.9533 22.5835C24.3964 24.8817 21.9537 28.7517 21.3903 33.7536C21.0553 33.9894 20.753 34.1846 20.4707 34.4052C19.6276 35.0681 19.6301 35.0719 18.8083 34.4102C18.5925 34.2366 18.3754 34.0629 18.0994 33.8424V33.8411ZM21.1758 22.2755C22.5697 22.2755 23.9648 22.2819 25.3587 22.2743C26.705 22.2666 27.735 21.2513 27.7539 19.9305C27.7727 18.5982 26.7376 17.5334 25.3675 17.5271C22.5948 17.5132 19.8208 17.5144 17.048 17.5271C15.6842 17.5334 14.6316 18.602 14.6454 19.9229C14.6579 21.25 15.7106 22.2692 17.0869 22.2755C18.4495 22.2819 19.8132 22.2768 21.1758 22.2755Z" fill="#4CAF50"/>
<path d="M34.9524 47C28.3153 46.9822 22.9794 41.5721 22.9844 34.864C22.9881 28.1445 28.3705 22.7229 35.0201 22.7432C41.6459 22.7622 47.012 28.2002 47.0007 34.8855C46.9894 41.6051 41.6057 47.0177 34.9524 47ZM32.6313 36.844C32.4694 36.6982 32.3289 36.5765 32.1934 36.4498C31.3327 35.641 30.4846 34.8196 29.6114 34.0261C28.9163 33.3948 27.9063 33.4481 27.279 34.1098C26.6379 34.7879 26.6442 35.8274 27.3367 36.4941C28.708 37.8162 30.0932 39.1244 31.4871 40.4224C32.1959 41.0828 33.1244 41.079 33.8144 40.4072C36.7591 37.5412 39.6999 34.6701 42.6144 31.7736C42.8905 31.4998 43.0674 31.046 43.1289 30.6492C43.238 29.947 42.8089 29.3005 42.1741 29.0064C41.5154 28.7009 40.8379 28.8137 40.2708 29.3639C38.8806 30.7126 37.5005 32.0715 36.1179 33.4265C34.9612 34.5585 33.8056 35.6917 32.63 36.8427L32.6313 36.844Z" fill="#4CAF50"/>
<path d="M1.05469 6.24799C1.57285 5.46462 2.04962 4.74208 2.52763 4.02209C3.34691 2.78618 4.17372 1.55408 4.98296 0.311829C5.12975 0.0874643 5.28533 0 5.55257 0C15.9786 0.00633799 26.4047 0.00380279 36.8307 0.0164788C37.0126 0.0164788 37.2686 0.12676 37.3664 0.269998C38.665 2.19168 39.9409 4.12857 41.2219 6.06292C41.247 6.10095 41.2596 6.14785 41.2985 6.23785C41.1667 6.25306 41.0551 6.27841 40.9421 6.27841C35.502 6.28095 30.0619 6.27588 24.6218 6.28855C24.2479 6.28855 24.1563 6.1694 24.1275 5.81067C24.0158 4.4404 23.8653 3.07393 23.726 1.6745H18.6773C18.5268 3.17914 18.375 4.69772 18.2194 6.24672H1.05469V6.24799Z" fill="#4CAF50"/>
</g>
<defs>
<clipPath id="clip0_1_4564">
<rect width="47" height="47" fill="white"/>
</clipPath>
</defs>
</svg>
