<svg width="31" height="31" viewBox="0 0 31 31" fill="none" xmlns="http://www.w3.org/2000/svg">
<g clip-path="url(#clip0_1_4472)">
<path d="M5.04964 2.80793C5.04964 2.38727 5.04964 2.0144 5.04964 1.64246C5.05245 0.600668 5.64084 0.00575699 6.6724 0.00294639C7.04623 0.00294639 7.42006 0.00200952 7.79483 0.00294639C8.78797 0.00669386 9.39322 0.605352 9.39884 1.59094C9.40072 1.98536 9.39884 2.37978 9.39884 2.79106H21.6023C21.6023 2.40226 21.6013 2.00972 21.6023 1.61717C21.6051 0.604415 22.2028 0.00575699 23.2147 0.00294639C23.6354 0.00200952 24.0561 -0.00361168 24.4768 0.00482012C25.3116 0.0216837 25.9309 0.640016 25.9477 1.4757C25.9562 1.90572 25.9496 2.33575 25.9496 2.80793C26.404 2.80793 26.8322 2.80793 27.2604 2.80793C29.4715 2.81261 30.9987 4.34158 30.9987 6.56102C31.0006 13.4564 31.0006 20.3508 30.9987 27.2461C30.9987 29.4637 29.4696 30.9983 27.2594 30.9992C19.4174 31.0011 11.5753 31.0011 3.73326 30.9992C1.54274 30.9992 0.0024342 29.4609 0.0024342 27.2733C-0.000376572 20.3658 -0.000376572 13.4592 0.000560352 6.55259C0.000560352 4.33877 1.53243 2.81167 3.74826 2.80793C4.16706 2.80793 4.58587 2.80793 5.04964 2.80793ZM1.54367 9.4119C1.54367 9.56368 1.54367 9.67891 1.54367 9.79415C1.54367 15.6018 1.54367 21.4094 1.54367 27.218C1.54367 28.6289 2.37285 29.4562 3.78948 29.4562C11.5959 29.4562 19.4024 29.4562 27.2088 29.4562C28.6255 29.4562 29.4556 28.6308 29.4556 27.2199C29.4556 21.4122 29.4556 15.6046 29.4556 9.79602V9.4119H1.54367ZM1.54836 7.83141H29.449C29.449 7.27022 29.4893 6.73059 29.4396 6.19845C29.3628 5.37307 28.915 4.78003 28.1326 4.48773C27.4253 4.2226 26.6879 4.38655 25.9487 4.35751C25.9487 4.83812 25.958 5.27001 25.9468 5.70191C25.9262 6.51698 25.3069 7.13344 24.4908 7.15312C24.0467 7.16342 23.6026 7.1578 23.1585 7.15499C22.2178 7.14843 21.6079 6.53478 21.6023 5.59042C21.5995 5.1857 21.6023 4.78097 21.6023 4.37531H9.39791C9.39791 4.82032 9.40353 5.24003 9.39697 5.65881C9.38292 6.51698 8.76642 7.13813 7.91194 7.15312C7.48002 7.16061 7.04716 7.15686 6.61431 7.15405C5.66989 7.1475 5.05714 6.5376 5.05058 5.59698C5.04777 5.19132 5.05058 4.78565 5.05058 4.365C4.44439 4.365 3.87006 4.31628 3.30696 4.37624C2.34849 4.47742 1.6027 5.28688 1.55398 6.23124C1.52681 6.75495 1.5493 7.28053 1.5493 7.83141H1.54836ZM7.83137 5.59604V1.57407H6.61149V5.59698H7.83137V5.59604ZM23.1604 5.5923H24.3849V1.57126H23.1604V5.59323V5.5923Z" fill="#3F3F3F"/>
<path d="M10.6712 24.8803C10.7743 23.8741 10.8708 22.8276 10.9954 21.7849C11.0347 21.4608 10.9841 21.2172 10.7499 20.968C10.0706 20.2447 9.4204 19.4933 8.75893 18.7523C8.04781 17.9559 8.36074 16.9881 9.39885 16.768C10.4145 16.5525 11.432 16.3436 12.442 16.1066C12.6078 16.0672 12.7961 15.9295 12.8851 15.7833C13.4248 14.8961 13.9354 13.9911 14.4611 13.0964C15.0017 12.1764 16.0079 12.1727 16.5457 13.0889C17.0601 13.9639 17.5773 14.838 18.0738 15.7234C18.2059 15.9585 18.3671 16.0766 18.6276 16.13C19.6104 16.3305 20.5895 16.5478 21.5695 16.7624C22.6826 17.0069 22.9758 17.9456 22.2104 18.801C21.5245 19.5673 20.8349 20.329 20.1632 21.1066C20.0639 21.2219 19.9955 21.4177 20.0086 21.5685C20.0967 22.5916 20.2016 23.6137 20.3196 24.6349C20.3768 25.122 20.2972 25.5474 19.8877 25.8537C19.4783 26.161 19.0501 26.1217 18.6004 25.9165C17.656 25.4855 16.7059 25.0686 15.7493 24.6648C15.6116 24.6068 15.4064 24.6077 15.2687 24.6648C14.269 25.0864 13.2833 25.5389 12.2846 25.9624C11.4704 26.3081 10.66 25.775 10.6712 24.8803ZM20.7028 18.1705C20.5801 18.1349 20.5155 18.1115 20.4489 18.0965C19.5823 17.9082 18.7156 17.718 17.848 17.5362C17.4705 17.4566 17.1866 17.2617 16.9936 16.9263C16.6966 16.4101 16.3958 15.8967 16.095 15.3824C15.9095 15.0638 15.7222 14.7472 15.5123 14.3902C15.4223 14.5307 15.3577 14.6226 15.3005 14.72C14.8761 15.4461 14.4498 16.1703 14.0329 16.9001C13.8343 17.2467 13.5504 17.4585 13.1587 17.5372C12.7006 17.628 12.2452 17.7283 11.7889 17.8295C11.3083 17.9353 10.8286 18.0459 10.303 18.1649C10.9541 18.8947 11.5519 19.5823 12.1703 20.2494C12.487 20.5904 12.6444 20.9614 12.5703 21.4261C12.5422 21.5985 12.5347 21.7746 12.5179 21.9489C12.4429 22.7124 12.367 23.475 12.2874 24.2826C13.1503 23.9022 13.9795 23.5584 14.788 23.1715C15.2827 22.9354 15.7353 22.9382 16.2281 23.1715C17.0385 23.5547 17.8668 23.9004 18.7222 24.2779C18.6247 23.2848 18.5385 22.333 18.4345 21.383C18.3886 20.9567 18.5114 20.612 18.7999 20.2972C19.4314 19.6095 20.0461 18.9059 20.7019 18.1705H20.7028Z" fill="#3F3F3F"/>
</g>
<defs>
<clipPath id="clip0_1_4472">
<rect width="31" height="31" fill="white"/>
</clipPath>
</defs>
</svg>
