<svg width="47" height="47" viewBox="0 0 47 47" fill="none" xmlns="http://www.w3.org/2000/svg">
<g clip-path="url(#clip0_1_4572)">
<path d="M26.3435 46.9999C25.7964 46.7416 25.1796 46.574 24.7169 46.2092C23.3877 45.164 23.1282 43.41 23.9984 41.8678C25.9519 38.4089 27.9114 34.9525 29.8685 31.4948C30.6592 30.0983 31.4536 28.7054 32.2381 27.3052C32.8991 26.1253 33.8905 25.4644 35.2466 25.4656C36.6028 25.4668 37.588 26.1326 38.2527 27.3113C40.9796 32.141 43.7189 36.9647 46.4397 41.7981C46.6759 42.2179 46.8142 42.694 46.9978 43.1432V44.153C46.7775 44.6475 46.6111 45.175 46.3247 45.6266C45.8277 46.41 45.0248 46.7759 44.1521 46.9987H26.3435V46.9999ZM36.6223 34.6587C36.6223 33.955 36.6309 33.2524 36.6199 32.5486C36.6077 31.7261 36.0287 31.1252 35.2588 31.1166C34.4669 31.108 33.8746 31.7151 33.8697 32.5621C33.8623 33.9831 33.8635 35.4053 33.8697 36.8276C33.8733 37.6795 34.4559 38.2853 35.2491 38.2816C36.0373 38.278 36.6113 37.6697 36.6199 36.8141C36.6272 36.0957 36.6211 35.3772 36.6211 34.6587H36.6223ZM35.2258 43.6254C35.9859 43.6316 36.6113 43.0257 36.6187 42.2766C36.626 41.5251 36.0116 40.9009 35.2576 40.8924C34.5 40.8838 33.8819 41.4884 33.8721 42.246C33.8623 43.0049 34.4657 43.6193 35.2258 43.6254Z" fill="#F1DD00"/>
<path d="M47 24.9688C46.8776 25.8598 46.7687 26.7533 46.6316 27.6419C46.3599 29.4007 45.5545 31.9404 44.8336 33.3284C44.5704 32.8718 44.3244 32.4508 44.0833 32.0261C43.7736 31.4814 43.2951 30.96 43.2094 30.3811C43.1286 29.8279 43.4726 29.2171 43.6047 28.6247C45.3685 20.7082 43.4065 13.8674 37.5388 8.25193C34.3541 5.20427 30.49 3.42953 26.0985 2.93383C19.0962 2.14437 13.1233 4.31445 8.28008 9.42693C5.23487 12.641 3.43443 16.4977 2.93505 20.904C2.14682 27.8524 4.28875 33.791 9.33023 38.6281C12.3914 41.5656 16.0718 43.3294 20.2736 43.9829C20.4217 44.0062 20.5686 44.0417 20.6164 44.0515C20.9395 45.0404 21.2406 45.9609 21.5539 46.9204C20.9835 46.8519 20.3544 46.798 19.7314 46.7001C9.91774 45.1506 2.02565 37.3515 0.354948 27.5501C0.209297 26.6945 0.116276 25.8292 0 24.9688C0 23.9896 0 23.0104 0 22.0313C0.149323 20.9909 0.261927 19.9432 0.455313 18.9102C2.20435 9.55177 10.0193 1.9057 19.4046 0.361068C20.2761 0.217865 21.1549 0.119948 22.0313 0C23.0104 0 23.9896 0 24.9688 0C25.0863 0.0257031 25.2038 0.057526 25.3225 0.0758854C26.5281 0.263151 27.752 0.374531 28.9393 0.64625C37.9904 2.71596 45.1127 10.2935 46.6438 19.4499C46.787 20.3067 46.8825 21.1708 47 22.0325V24.97V24.9688Z" fill="#F1DD00"/>
<path d="M41.1735 26.8622C40.903 26.3959 40.7035 26.0385 40.4918 25.6884C38.1038 21.7155 32.3561 21.6714 30.0294 25.6762C27.0674 30.7752 24.2095 35.9342 21.3209 41.076C21.1765 41.3331 21.0198 41.327 20.8032 41.2927C18.1851 40.8814 15.7482 39.9843 13.5561 38.4886C9.21842 35.5291 6.48532 31.4692 5.7436 26.2649C4.77668 19.4818 7.00061 13.8099 12.2979 9.44529C15.7654 6.58858 19.835 5.36339 24.3135 5.52129C32.6536 5.81626 39.9031 12.2274 41.2298 20.4426C41.5689 22.5441 41.5787 24.6358 41.1711 26.8598L41.1735 26.8622ZM22.1251 17.2113C22.1251 17.8686 22.1128 18.5271 22.1312 19.1843C22.1398 19.4756 22.0737 19.6335 21.7738 19.7645C20.8913 20.1513 20.2145 20.7938 19.8167 21.6763C19.66 22.0227 19.4605 22.0937 19.119 22.0888C17.8339 22.0716 16.5487 22.0741 15.2648 22.0851C14.408 22.0925 13.8107 22.6849 13.8266 23.4792C13.8425 24.2662 14.4288 24.8182 15.3174 24.8304C16.6026 24.8476 17.8877 24.8451 19.1717 24.8304C19.4715 24.8268 19.6221 24.91 19.753 25.1976C20.5107 26.8634 22.2878 27.8549 24.0014 27.6003C25.9303 27.3151 27.2951 25.9589 27.5998 24.0263C27.8691 22.3164 26.8887 20.5221 25.2302 19.7608C24.934 19.625 24.8728 19.4695 24.8753 19.1794C24.8875 17.849 24.8888 16.5173 24.8777 15.1869C24.8704 14.3705 24.2719 13.7683 23.502 13.7695C22.7321 13.7708 22.1422 14.3754 22.13 15.1918C22.1202 15.865 22.1275 16.5381 22.1275 17.2113H22.1251Z" fill="#F1DD00"/>
<path d="M24.8753 23.4914C24.8802 24.2356 24.2633 24.8647 23.5204 24.8757C22.7603 24.8867 22.1177 24.2466 22.1251 23.4853C22.1324 22.7424 22.7591 22.123 23.5032 22.1243C24.2474 22.1255 24.8716 22.7473 24.8753 23.4914Z" fill="#F1DD00"/>
</g>
<defs>
<clipPath id="clip0_1_4572">
<rect width="47" height="47" fill="white"/>
</clipPath>
</defs>
</svg>
