<svg width="31" height="31" viewBox="0 0 31 31" fill="none" xmlns="http://www.w3.org/2000/svg">
<g clip-path="url(#clip0_1_419)">
<path d="M30.5225 15.6445C30.5085 15.6697 30.4886 15.6938 30.4809 15.7207C30.1669 16.8984 29.3858 17.5037 28.1665 17.5043C25.3253 17.5061 22.4841 17.5043 19.6429 17.5043C19.4477 17.5043 19.252 17.5061 19.0569 17.5043C17.7075 17.4891 16.7782 16.5621 16.7688 15.2139C16.7624 14.267 16.7677 13.3195 16.7677 12.3727C16.7677 9.13125 16.7677 5.88984 16.7677 2.64785C16.7677 1.0957 17.1761 0.514453 18.628 0H28.7061C29.2124 0.158789 29.7145 0.351562 30.0157 0.809766C30.2296 1.13496 30.3567 1.51816 30.5225 1.875V15.6445ZM28.6475 8.75156C28.6475 6.62344 28.6475 4.4959 28.6475 2.36777C28.6475 1.95117 28.5708 1.875 28.1513 1.875C25.1448 1.875 22.1384 1.875 19.1325 1.875C18.7276 1.875 18.6432 1.96113 18.6432 2.37891C18.6432 6.62461 18.6432 10.8709 18.6432 15.1166C18.6432 15.5432 18.73 15.6293 19.1583 15.6293C22.1548 15.6299 25.1513 15.6299 28.1477 15.6293C28.5602 15.6293 28.647 15.5426 28.647 15.1354C28.647 13.0072 28.647 10.8797 28.647 8.75156H28.6475Z" fill="#FF6F3C"/>
<path d="M0 14.8756C0.0439453 14.7367 0.0832031 14.5961 0.133008 14.4595C0.443555 13.6047 1.22637 13.0263 2.18086 13.0217C5.30508 13.0076 8.42988 13.0035 11.5541 13.0217C12.8549 13.0293 13.7514 13.9984 13.7537 15.3349C13.7584 17.8246 13.7549 20.3142 13.7549 22.8039C13.7549 24.4832 13.7549 26.1625 13.7549 27.8418C13.7549 29.425 13.3588 29.9951 11.8945 30.5189H1.875C1.18359 30.3543 0.611133 30.0174 0.269531 29.3705C0.158203 29.159 0.0884766 28.9258 0 28.7025C0 24.0929 0 19.484 0 14.8744L0 14.8756ZM1.875 21.7638C1.875 23.882 1.875 26.0002 1.875 28.1183C1.875 28.5777 1.94121 28.6451 2.39648 28.6451C5.38301 28.6451 8.37012 28.6451 11.3566 28.6451C11.8037 28.6451 11.8799 28.5689 11.8799 28.1154C11.8799 23.889 11.8799 19.6627 11.8799 15.4363C11.8799 14.9681 11.8031 14.8902 11.3391 14.8902C8.36191 14.8902 5.38477 14.8902 2.4082 14.8902C1.94414 14.8902 1.87559 14.9617 1.87559 15.4392C1.87559 17.5474 1.87559 19.6556 1.87559 21.7644L1.875 21.7638Z" fill="#FF6F3C"/>
<path d="M11.8939 0C12.2578 0.176953 12.6598 0.30293 12.9773 0.541992C13.524 0.95332 13.7508 1.55918 13.7525 2.2377C13.7572 4.08281 13.766 5.92793 13.7502 7.77305C13.7391 9.05859 12.8104 9.99434 11.5236 10.0002C8.42871 10.0143 5.33438 10.0107 2.23945 10.0014C1.13789 9.99785 0.325781 9.33926 0.0533203 8.2793C0.0416016 8.23301 0.0181641 8.18965 0 8.14453C0 6.03516 0 3.92578 0 1.81641C0.0357422 1.71797 0.0744141 1.62012 0.107227 1.52109C0.305859 0.926367 0.683203 0.486328 1.25098 0.219141C1.4332 0.133594 1.62715 0.0720703 1.81582 0C5.175 0 8.53477 0 11.8939 0ZM6.87129 8.12988C8.37422 8.12988 9.87715 8.13047 11.3795 8.12988C11.7885 8.12988 11.8781 8.03965 11.8787 7.63008C11.8799 5.87344 11.8799 4.1168 11.8787 2.36074C11.8787 1.96582 11.7885 1.87617 11.4 1.87559C8.38477 1.875 5.36953 1.87559 2.3543 1.87559C1.95996 1.87559 1.875 1.96055 1.875 2.35547C1.87441 4.11211 1.875 5.86875 1.875 7.6248C1.875 8.04961 1.95703 8.12988 2.39238 8.12988C3.88535 8.13047 5.37832 8.12988 6.87129 8.12988Z" fill="#FF6F3C"/>
<path d="M18.6274 30.513C18.4182 30.4368 18.1985 30.3812 18.0016 30.2816C17.2071 29.879 16.784 29.2152 16.7746 28.3333C16.7553 26.4489 16.7489 24.5646 16.7758 22.6802C16.794 21.4157 17.7467 20.5163 19.0282 20.5105C21.2735 20.5005 23.5194 20.5075 25.7647 20.5075C26.5651 20.5075 27.366 20.5058 28.1664 20.5075C29.3864 20.5105 30.1662 21.1134 30.4803 22.2911C30.4873 22.3181 30.5078 22.3421 30.5219 22.3673V28.6368C30.369 28.9778 30.2547 29.3441 30.0537 29.6534C29.7303 30.1503 29.2065 30.373 28.6469 30.5118H18.6274V30.513ZM23.6418 28.638C25.1448 28.638 26.6477 28.638 28.15 28.638C28.569 28.638 28.6469 28.5607 28.6469 28.1452C28.6469 26.3886 28.6469 24.632 28.6469 22.8759C28.6469 22.4693 28.5608 22.3837 28.1459 22.3837C25.15 22.3831 22.1541 22.3831 19.1582 22.3837C18.7293 22.3837 18.6426 22.4693 18.6426 22.8952C18.642 24.6419 18.6414 26.3886 18.6426 28.1353C18.6426 28.5589 18.7258 28.6374 19.1623 28.638C20.6553 28.638 22.1483 28.638 23.6412 28.638H23.6418Z" fill="#FF6F3C"/>
</g>
<defs>
<clipPath id="clip0_1_419">
<rect width="31" height="31" fill="white"/>
</clipPath>
</defs>
</svg>
