<svg width="31" height="29" viewBox="0 0 31 29" fill="none" xmlns="http://www.w3.org/2000/svg">
<g clip-path="url(#clip0_1_476)">
<path d="M0 3.74946C0.239974 3.2484 0.656098 3.09653 1.21859 3.10465C2.74012 3.12821 4.26251 3.11278 5.74831 3.11278C5.95935 2.68155 6.12018 2.25358 6.36271 1.8727C7.34217 0.336215 9.30196 -0.351632 11.123 0.17542C12.8811 0.683793 14.0963 2.29256 14.0563 4.05643C14.0104 6.07774 12.482 7.69788 10.3214 7.9407C8.32589 8.16483 6.44099 6.954 5.88106 5.06993C5.82234 4.87178 5.72193 4.84742 5.54152 4.84823C4.09998 4.85391 2.65758 4.83442 1.21604 4.8596C0.650992 4.86934 0.238272 4.71586 0 4.21236V3.75027L0 3.74946ZM12.2344 3.9801C12.2336 2.75383 11.1656 1.73221 9.88742 1.73546C8.5965 1.73871 7.55747 2.74084 7.55747 3.98334C7.55747 5.22504 8.60076 6.22798 9.89168 6.22636C11.1741 6.22555 12.2361 5.20636 12.2353 3.97928L12.2344 3.9801Z" fill="#3F3F3F"/>
<path d="M0 24.7812C0.237421 24.2777 0.650992 24.1193 1.21604 24.1339C2.31464 24.1623 3.41494 24.138 4.5144 24.1461C4.71608 24.1477 4.80373 24.1047 4.86585 23.9C5.41387 22.0826 7.24431 20.8839 9.20835 21.0366C11.1477 21.1876 12.7348 22.6242 13.0062 24.4758C13.3083 26.5385 11.8591 28.4803 9.69 28.9172C7.60087 29.3378 5.46834 28.1091 4.8667 26.1227C4.80543 25.9197 4.72033 25.8734 4.51695 25.875C3.4175 25.884 2.31719 25.8604 1.21859 25.8872C0.656098 25.901 0.239974 25.7443 0 25.2432L0 24.7812ZM6.5346 25.0175C6.5363 26.2543 7.59576 27.267 8.87647 27.2572C10.1648 27.2475 11.2175 26.2316 11.2124 25.0037C11.2073 23.7717 10.1436 22.7582 8.86201 22.7655C7.56853 22.7728 6.5329 23.775 6.5346 25.0175Z" fill="#3F3F3F"/>
<path d="M0 14.2653C0.239123 13.7634 0.654396 13.618 1.21774 13.6197C5.91935 13.6335 10.621 13.627 15.3217 13.6294C15.4911 13.6294 15.6681 13.6343 15.8289 13.6781C16.2501 13.7926 16.5063 14.1743 16.4629 14.5828C16.4195 14.9889 16.0833 15.3145 15.6545 15.3576C15.5345 15.3697 15.4128 15.3649 15.2919 15.3649C10.6005 15.3649 5.90914 15.3592 1.21774 15.373C0.654396 15.3746 0.239123 15.2292 0 14.7274L0 14.2653Z" fill="#3F3F3F"/>
<path d="M28.2644 15.3657C27.6696 15.3657 27.0739 15.3738 26.48 15.3608C26.274 15.3559 26.1923 15.4095 26.1319 15.6101C25.6349 17.2603 24.0538 18.4265 22.2719 18.4785C20.467 18.5312 18.8323 17.4788 18.2162 15.8667C17.4035 13.7431 18.5812 11.4278 20.8397 10.7075C23.0463 10.0042 25.4741 11.2256 26.1311 13.3801C26.1915 13.5774 26.2681 13.6343 26.4774 13.6327C27.6671 13.6229 28.8576 13.6221 30.0472 13.6302C30.7365 13.6351 31.1799 14.2369 30.9288 14.8175C30.7757 15.1716 30.4829 15.3576 30.0804 15.3616C29.4754 15.3681 28.8703 15.3632 28.2653 15.3632L28.2644 15.3657ZM24.464 14.4984C24.464 13.2591 23.4182 12.2521 22.1306 12.2521C20.8474 12.2521 19.7871 13.2672 19.7862 14.4967C19.7862 15.7254 20.844 16.7406 22.1281 16.743C23.4139 16.7454 24.464 15.7368 24.464 14.4984Z" fill="#3F3F3F"/>
<path d="M22.7956 24.1428C25.1962 24.1428 27.5959 24.1412 29.9965 24.1445C30.7199 24.1453 31.1751 24.7162 30.936 25.3147C30.8016 25.6509 30.5335 25.8344 30.1608 25.875C30.0612 25.8856 29.9591 25.8807 29.8587 25.8807C25.1281 25.8807 20.3984 25.8807 15.6679 25.8791C15.4986 25.8791 15.3216 25.8726 15.1616 25.8279C14.7437 25.7102 14.4893 25.3236 14.537 24.9176C14.5846 24.5107 14.9233 24.1899 15.353 24.151C15.4628 24.1412 15.5743 24.1445 15.6858 24.1445C18.0557 24.1445 20.4257 24.1445 22.7965 24.1445L22.7956 24.1428Z" fill="#3F3F3F"/>
<path d="M23.272 4.85067C21.0323 4.85067 18.7917 4.85229 16.5519 4.84986C15.9664 4.84986 15.5733 4.51446 15.5571 4.01664C15.5418 3.544 15.895 3.16069 16.3902 3.11846C16.4906 3.10953 16.5919 3.11359 16.6932 3.11359C21.0825 3.11359 25.4718 3.11359 29.8619 3.11522C30.0313 3.11522 30.2083 3.12171 30.3683 3.16719C30.7852 3.28413 31.0422 3.67556 30.9929 4.07836C30.9427 4.48604 30.6048 4.80519 30.1751 4.84417C30.0653 4.85392 29.953 4.85067 29.8424 4.85067C27.6528 4.85067 25.4633 4.85067 23.2737 4.85067H23.272Z" fill="#3F3F3F"/>
</g>
<defs>
<clipPath id="clip0_1_476">
<rect width="31" height="29" fill="white"/>
</clipPath>
</defs>
</svg>
