<svg width="31" height="31" viewBox="0 0 31 31" fill="none" xmlns="http://www.w3.org/2000/svg">
<g clip-path="url(#clip0_1_426)">
<path d="M5.04964 2.80787C5.04964 2.38721 5.04964 2.01434 5.04964 1.6424C5.05245 0.600607 5.64084 0.00569596 6.6724 0.00288535C7.04623 0.00288535 7.42006 0.00194849 7.79483 0.00288535C8.78797 0.00663282 9.39322 0.605291 9.39884 1.59088C9.40072 1.9853 9.39884 2.37972 9.39884 2.791H21.6023C21.6023 2.4022 21.6013 2.00966 21.6023 1.61711C21.6051 0.604354 22.2028 0.00569596 23.2147 0.00288535C23.6354 0.00194849 24.0561 -0.00367272 24.4768 0.00475909C25.3116 0.0216227 25.9309 0.639955 25.9477 1.47564C25.9562 1.90566 25.9496 2.33568 25.9496 2.80787C26.404 2.80787 26.8322 2.80787 27.2604 2.80787C29.4715 2.81255 30.9987 4.34152 30.9987 6.56096C31.0006 13.4563 31.0006 20.3507 30.9987 27.246C30.9987 29.4636 29.4696 30.9982 27.2594 30.9991C19.4174 31.001 11.5753 31.001 3.73326 30.9991C1.54274 30.9991 0.0024342 29.4608 0.0024342 27.2732C-0.000376572 20.3657 -0.000376572 13.4591 0.000560352 6.55252C0.000560352 4.33871 1.53243 2.81161 3.74826 2.80787C4.16706 2.80787 4.58587 2.80787 5.04964 2.80787ZM1.54367 9.41184C1.54367 9.56361 1.54367 9.67885 1.54367 9.79408C1.54367 15.6017 1.54367 21.4094 1.54367 27.2179C1.54367 28.6289 2.37285 29.4561 3.78948 29.4561C11.5959 29.4561 19.4024 29.4561 27.2088 29.4561C28.6255 29.4561 29.4556 28.6307 29.4556 27.2198C29.4556 21.4122 29.4556 15.6045 29.4556 9.79596V9.41184H1.54367ZM1.54836 7.83135H29.449C29.449 7.27016 29.4893 6.73053 29.4396 6.19839C29.3628 5.37301 28.915 4.77997 28.1326 4.48767C27.4253 4.22254 26.6879 4.38649 25.9487 4.35744C25.9487 4.83806 25.958 5.26995 25.9468 5.70185C25.9262 6.51692 25.3069 7.13338 24.4908 7.15306C24.0467 7.16336 23.6026 7.15774 23.1585 7.15493C22.2178 7.14837 21.6079 6.53472 21.6023 5.59036C21.5995 5.18563 21.6023 4.78091 21.6023 4.37524H9.39791C9.39791 4.82026 9.40353 5.23997 9.39697 5.65875C9.38292 6.51692 8.76642 7.13807 7.91194 7.15306C7.48002 7.16055 7.04716 7.1568 6.61431 7.15399C5.66989 7.14743 5.05714 6.53753 5.05058 5.59692C5.04777 5.19126 5.05058 4.78559 5.05058 4.36494C4.44439 4.36494 3.87006 4.31622 3.30696 4.37618C2.34849 4.47736 1.6027 5.28682 1.55398 6.23118C1.52681 6.75489 1.5493 7.28047 1.5493 7.83135H1.54836ZM7.83137 5.59598V1.57401H6.61149V5.59692H7.83137V5.59598ZM23.1604 5.59224H24.3849V1.5712H23.1604V5.59317V5.59224Z" fill="#3F3F3F"/>
<path d="M10.6653 24.8804C10.7684 23.8742 10.8649 22.8277 10.9895 21.785C11.0289 21.4608 10.9783 21.2172 10.744 20.968C10.0648 20.2448 9.41454 19.4934 8.75308 18.7523C8.04195 17.956 8.35488 16.9882 9.39299 16.768C10.4086 16.5526 11.4261 16.3436 12.4361 16.1066C12.602 16.0673 12.7903 15.9296 12.8793 15.7834C13.419 14.8962 13.9296 13.9912 14.4552 13.0965C14.9958 12.1765 16.0021 12.1727 16.5398 13.089C17.0542 13.964 17.5714 14.8381 18.068 15.7234C18.2001 15.9586 18.3612 16.0766 18.6217 16.13C19.6045 16.3305 20.5836 16.5479 21.5636 16.7624C22.6767 17.0069 22.97 17.9457 22.2045 18.801C21.5187 19.5674 20.8291 20.3291 20.1573 21.1067C20.058 21.2219 19.9896 21.4177 20.0027 21.5686C20.0908 22.5916 20.1957 23.6137 20.3138 24.6349C20.3709 25.1221 20.2913 25.5474 19.8819 25.8538C19.4724 26.1611 19.0442 26.1217 18.5945 25.9166C17.6501 25.4856 16.7001 25.0687 15.7435 24.6649C15.6057 24.6068 15.4006 24.6078 15.2628 24.6649C14.2631 25.0865 13.2775 25.539 12.2787 25.9625C11.4645 26.3082 10.6541 25.7751 10.6653 24.8804ZM20.697 18.1705C20.5742 18.1349 20.5096 18.1115 20.4431 18.0965C19.5764 17.9082 18.7098 17.718 17.8422 17.5363C17.4646 17.4566 17.1807 17.2618 16.9877 16.9264C16.6907 16.4102 16.3899 15.8968 16.0892 15.3824C15.9037 15.0639 15.7163 14.7472 15.5064 14.3903C15.4165 14.5308 15.3518 14.6226 15.2947 14.7201C14.8703 15.4461 14.444 16.1703 14.027 16.9001C13.8284 17.2468 13.5445 17.4585 13.1529 17.5372C12.6947 17.6281 12.2394 17.7283 11.7831 17.8295C11.3024 17.9354 10.8227 18.0459 10.2971 18.1649C10.9483 18.8947 11.546 19.5824 12.1644 20.2494C12.4811 20.5905 12.6385 20.9615 12.5645 21.4262C12.5364 21.5985 12.5289 21.7747 12.512 21.9489C12.4371 22.7125 12.3612 23.4751 12.2815 24.2827C13.1444 23.9023 13.9736 23.5585 14.7822 23.1715C15.2769 22.9354 15.7294 22.9383 16.2222 23.1715C17.0327 23.5547 17.8609 23.9004 18.7163 24.278C18.6189 23.2849 18.5327 22.333 18.4287 21.3831C18.3828 20.9568 18.5055 20.612 18.7941 20.2972C19.4256 19.6096 20.0402 18.906 20.696 18.1705H20.697Z" fill="#3F3F3F"/>
</g>
<defs>
<clipPath id="clip0_1_426">
<rect width="31" height="31" fill="white"/>
</clipPath>
</defs>
</svg>
