<svg width="50" height="47" viewBox="0 0 50 47" fill="none" xmlns="http://www.w3.org/2000/svg">
<g clip-path="url(#clip0_1_4581)">
<path d="M0 28.0541C0.311198 27.5988 0.739583 27.4682 1.28906 27.4695C7.27865 27.485 13.2682 27.4785 19.2578 27.4798C20.2721 27.4798 20.5273 27.7333 20.5273 28.7409C20.5273 34.4164 20.5273 40.0919 20.5273 45.7674C20.5273 46.7465 20.2786 46.991 19.2839 46.991C13.2617 46.991 7.23958 46.9858 1.21745 47.0013C0.674479 47.0026 0.269531 46.8642 0 46.3921V28.0554L0 28.0541ZM5.35417 45.2267C5.92318 45.2267 6.49089 45.2319 7.0599 45.2267C8.16016 45.2151 8.88932 44.5102 8.91927 43.4147C8.9349 42.8339 8.9375 42.2519 8.91667 41.6724C8.88021 40.6338 8.15625 39.9199 7.11198 39.9044C5.94271 39.8875 4.77344 39.8875 3.60417 39.9044C2.56641 39.9199 1.82812 40.639 1.78516 41.6699C1.76042 42.2661 1.76042 42.865 1.78516 43.4612C1.82812 44.5115 2.58073 45.2151 3.64974 45.228C4.21875 45.2345 4.78646 45.228 5.35547 45.228L5.35417 45.2267ZM16.5273 41.6686C16.9505 41.6686 17.3737 41.6789 17.7969 41.666C18.3776 41.6492 18.7539 41.2896 18.7461 40.78C18.7396 40.2911 18.3724 39.9173 17.8255 39.9056C16.9479 39.8862 16.0677 39.8862 15.1901 39.9056C14.6576 39.9186 14.2786 40.3195 14.2852 40.7981C14.2904 41.2818 14.6667 41.644 15.2109 41.6634C15.6497 41.6789 16.0898 41.666 16.5286 41.6673L16.5273 41.6686ZM16.5443 45.2267C16.9674 45.2267 17.3906 45.2384 17.8138 45.2242C18.3763 45.206 18.7617 44.8193 18.7461 44.3136C18.7305 43.826 18.3581 43.4755 17.8073 43.4677C16.9453 43.4561 16.082 43.4561 15.2201 43.4677C14.6745 43.4755 14.2969 43.8337 14.2852 44.3201C14.2721 44.8193 14.6654 45.2073 15.2279 45.2242C15.6667 45.2371 16.1068 45.2267 16.5456 45.2267H16.5443Z" fill="#1A3E59"/>
<path d="M50.0037 39.3081C49.1443 40.1851 48.2888 41.0659 47.4229 41.9363C46.5349 42.8301 45.6365 43.7148 44.6404 44.7042C44.6404 44.4093 44.6404 44.2438 44.6404 44.0769C44.6404 38.9563 44.6404 33.8357 44.6378 28.7151C44.6378 28.4254 44.682 28.102 44.5714 27.8537C44.3513 27.3583 44.5779 27.11 44.9255 26.8138C46.6274 25.3626 48.3122 23.8907 50.0024 22.4265V39.3081H50.0037Z" fill="#1A3E59"/>
<path d="M32.5479 46.991C29.5374 46.991 26.527 46.991 23.5179 46.991C22.596 46.991 22.3291 46.7272 22.3291 45.8088C22.3278 40.1023 22.3278 34.3958 22.3291 28.6905C22.3291 27.7554 22.609 27.4812 23.5544 27.4812C29.5752 27.4812 35.5947 27.4812 41.6156 27.4812C42.5882 27.4812 42.8643 27.7567 42.8643 28.7242C42.8643 34.3984 42.8643 40.0726 42.8643 45.7455C42.8643 46.7194 42.5947 46.991 41.6273 46.991C38.6012 46.991 35.5739 46.991 32.5479 46.991ZM27.6546 45.2255C28.2562 45.2255 28.8564 45.2359 29.458 45.2229C30.4854 45.2009 31.2288 44.4598 31.2497 43.438C31.2614 42.8573 31.2614 42.2752 31.2497 41.6945C31.2301 40.6921 30.5114 39.9303 29.5088 39.907C28.2913 39.8786 27.0713 39.8786 25.8538 39.907C24.8486 39.9303 24.1351 40.6869 24.1169 41.6919C24.1064 42.2727 24.1064 42.8547 24.1169 43.4354C24.1351 44.4624 24.8695 45.2009 25.8994 45.2242C26.484 45.2372 27.0687 45.2268 27.6533 45.2268L27.6546 45.2255ZM38.8213 43.4652C38.3825 43.4652 37.9424 43.4535 37.5036 43.4678C36.984 43.4859 36.6325 43.8312 36.6182 44.3111C36.6038 44.7896 36.945 45.1997 37.445 45.2139C38.3708 45.2397 39.2992 45.2397 40.2262 45.2165C40.7262 45.2035 41.0765 44.7948 41.0661 44.3201C41.0557 43.8416 40.7028 43.4872 40.1872 43.4691C39.7327 43.4522 39.277 43.4652 38.8213 43.4652ZM38.7979 41.6648C38.7979 41.6648 38.7979 41.6673 38.7979 41.6686C39.2367 41.6686 39.6755 41.6686 40.1156 41.6686C40.1481 41.6686 40.1807 41.6673 40.2132 41.6648C40.708 41.6221 41.0426 41.2948 41.0648 40.8331C41.0869 40.3623 40.7484 39.9342 40.2471 39.9174C39.3057 39.8863 38.3604 39.8837 37.4189 39.9199C36.9163 39.9393 36.5934 40.3675 36.6208 40.8473C36.6468 41.3091 36.9801 41.6402 37.4814 41.6622C37.9202 41.6816 38.359 41.6661 38.7992 41.6661L38.7979 41.6648Z" fill="#1A3E59"/>
<path d="M21.8776 6.20712C24.888 6.20712 27.8984 6.20712 30.9089 6.20712C31.8724 6.20712 32.1341 6.46192 32.1341 7.40094C32.1341 13.1075 32.1341 18.814 32.1341 24.5205C32.1341 25.4311 31.8516 25.7169 30.9466 25.7169C24.8932 25.7169 18.8398 25.7169 12.7865 25.7169C11.9049 25.7169 11.6107 25.4259 11.6094 24.558C11.6094 18.8192 11.6094 13.0803 11.6094 7.34144C11.6094 6.49037 11.8932 6.20841 12.7474 6.20712C15.7904 6.20582 18.8333 6.20712 21.8763 6.20712H21.8776ZM16.944 23.945C16.944 23.9359 16.944 23.9269 16.944 23.9191C17.6094 23.9191 18.2786 23.9657 18.9388 23.9075C19.875 23.8247 20.4948 23.1211 20.5195 22.1885C20.5352 21.5923 20.5339 20.9947 20.5195 20.3984C20.4961 19.3572 19.776 18.6407 18.7292 18.6303C17.5599 18.6174 16.3906 18.62 15.2214 18.6303C14.1328 18.6394 13.4036 19.3728 13.3854 20.4631C13.3763 20.9792 13.3802 21.4952 13.3854 22.0113C13.3945 23.1883 14.0977 23.9088 15.2878 23.9437C15.8398 23.9605 16.3919 23.9463 16.944 23.9463V23.945ZM28.1198 23.945C28.5417 23.945 28.9635 23.9605 29.3841 23.9411C29.9648 23.9139 30.3477 23.5569 30.3568 23.0642C30.3659 22.5546 29.9661 22.1704 29.3659 22.1588C28.5404 22.1432 27.7135 22.1432 26.8867 22.1588C26.2878 22.1691 25.8841 22.552 25.8906 23.059C25.8971 23.5518 26.2786 23.9126 26.8581 23.9398C27.2786 23.9592 27.7005 23.9437 28.1224 23.9437L28.1198 23.945ZM28.1029 18.629C27.6641 18.629 27.224 18.6174 26.7852 18.6316C26.2747 18.6497 25.9076 19.0067 25.8906 19.4749C25.8737 19.938 26.2331 20.3635 26.7279 20.3777C27.6549 20.4036 28.5833 20.4023 29.5104 20.3777C30.0078 20.3648 30.3685 19.9483 30.3568 19.484C30.3451 19.0171 29.9779 18.6497 29.4714 18.6316C29.0169 18.6148 28.5599 18.6278 28.1042 18.6278L28.1029 18.629Z" fill="#1A3E59"/>
<path d="M39.275 1.22998C39.275 1.43175 39.275 1.59214 39.275 1.75252C39.275 6.95462 39.2698 12.1567 39.2828 17.3588C39.2828 17.8633 39.1435 18.2435 38.775 18.6018C37.2998 20.0375 35.8479 21.4965 34.3961 22.9554C34.2763 23.0757 34.2242 23.2645 34.1422 23.4223C34.0693 23.3706 33.9951 23.3189 33.9222 23.2671V22.7058C33.9222 17.633 33.9261 12.5603 33.9156 7.48751C33.9156 7.0568 33.8089 6.62739 33.775 6.19539C33.7659 6.07639 33.7958 5.90566 33.8753 5.83582C35.6188 4.3083 37.3714 2.78984 39.124 1.27266C39.1435 1.25585 39.18 1.25585 39.2763 1.23127L39.275 1.22998Z" fill="#1A3E59"/>
<path d="M48.5547 21.3051C47.7734 21.9854 47.0677 22.5998 46.3633 23.2129C45.3971 24.0536 44.4271 24.8904 43.4661 25.7363C43.2695 25.9096 43.1094 25.9821 42.8242 25.8799C42.4974 25.7622 42.1263 25.726 41.7734 25.7247C39.4323 25.7118 37.0898 25.7182 34.7487 25.7182H34.1875C34.3203 25.5617 34.3906 25.4634 34.4753 25.3793C35.7617 24.0989 37.0456 22.8158 38.3451 21.5483C38.4896 21.4073 38.7253 21.2844 38.9206 21.2831C42.043 21.2663 45.1654 21.2715 48.2878 21.2728C48.3346 21.2728 48.3828 21.2844 48.556 21.3051H48.5547Z" fill="#1A3E59"/>
<path d="M25.0859 4.29938C26.8919 2.90379 28.6979 1.50561 30.5091 0.11649C30.6029 0.0453527 30.7461 0.00525698 30.8659 0.00396357C33.1094 -0.00121008 35.3516 0.00137675 37.5951 0.00396357C37.6367 0.00396357 37.6784 0.0311252 37.7826 0.0673407C37.082 0.676538 36.4167 1.25728 35.75 1.83673C34.7474 2.70849 33.7409 3.57637 32.7448 4.45589C32.543 4.63438 32.3763 4.67447 32.1003 4.5917C31.7188 4.47658 31.3047 4.42614 30.9036 4.42226C29.1484 4.40544 27.3932 4.4145 25.638 4.4145C25.4635 4.4145 25.2891 4.4145 25.1146 4.4145L25.0872 4.29938H25.0859Z" fill="#1A3E59"/>
<path d="M27.6042 0.102225C26.5443 0.922248 25.4857 1.74227 24.4258 2.561C23.7201 3.10682 23.0182 3.65781 22.3021 4.1907C22.1562 4.29935 21.9596 4.40282 21.7852 4.40411C19.5729 4.41705 17.3594 4.41058 15.1471 4.4067C15.1172 4.4067 15.0872 4.3873 14.9844 4.35238C15.1471 4.22821 15.2773 4.12215 15.4128 4.02644C17.2305 2.74725 19.0482 1.46807 20.8724 0.197937C21.0234 0.093171 21.2266 0.00909928 21.4063 0.00780586C23.4557 -0.00512826 25.5052 4.53927e-05 27.5547 4.53927e-05C27.5703 0.0336741 27.5872 0.0673028 27.6029 0.100932L27.6042 0.102225Z" fill="#1A3E59"/>
<path d="M9.83724 25.7026H3.42969L3.375 25.6211C5.47656 24.1544 7.57682 22.6877 9.67838 21.2209C9.73177 21.2468 9.78385 21.2714 9.83724 21.2973V25.7013V25.7026Z" fill="#1A3E59"/>
<path d="M3.60938 43.4223V41.7034H7.10547V43.4223H3.60938Z" fill="#1A3E59"/>
<path d="M29.4466 43.4315H25.9141V41.7048H29.4466V43.4315Z" fill="#1A3E59"/>
<path d="M15.1953 22.1199V20.423H18.7187V22.1199H15.1953Z" fill="#1A3E59"/>
</g>
<defs>
<clipPath id="clip0_1_4581">
<rect width="50" height="47" fill="white"/>
</clipPath>
</defs>
</svg>
