<svg width="55" height="47" viewBox="0 0 55 47" fill="none" xmlns="http://www.w3.org/2000/svg">
<g clip-path="url(#clip0_1_4555)">
<path d="M54.7282 23.1113C53.7591 22.3193 52.8286 21.4816 51.8834 20.6604C51.1878 19.9724 50.4536 19.3263 49.6846 18.7205C48.5852 17.6693 47.4473 16.6619 46.2653 15.702C45.2155 14.6745 44.0996 13.7164 42.9691 12.7784C41.8954 11.7528 40.7813 10.7709 39.6306 9.82926C38.4853 8.73245 37.2905 7.6904 36.0681 6.67755C34.6017 5.35993 33.1352 4.04413 31.5697 2.63892C31.5697 5.42745 31.5697 8.03897 31.5697 10.6505C31.5605 11.99 31.5477 13.3314 31.5422 14.6709C31.5366 15.6928 31.5422 15.6892 30.5456 15.6947C29.2204 15.7001 27.8953 15.7129 26.572 15.722C24.5073 15.722 22.4443 15.722 20.3795 15.722C18.4065 15.722 16.4354 15.722 14.4624 15.722C12.4545 15.7147 10.4466 15.7129 8.44058 15.691C8.08819 15.6874 7.96155 15.7914 7.96522 16.1527C7.98725 18.1492 7.98908 20.1457 7.99826 22.1404C7.99826 24.1023 7.99826 26.0623 7.99826 28.0241C7.98908 28.9731 7.99092 29.9239 7.96155 30.8729C7.95054 31.2378 8.08636 31.34 8.43507 31.3309C9.43534 31.3054 10.4356 31.3072 11.4359 31.2981C13.6823 31.2981 15.9307 31.2981 18.1771 31.2981C20.2859 31.2981 22.3966 31.2981 24.5054 31.2981C26.5243 31.2981 28.5414 31.2981 30.5602 31.2981C31.5403 31.3583 31.5367 31.3583 31.5403 32.3529C31.5458 33.6468 31.5587 34.9425 31.5679 36.2364C31.5679 37.742 31.5679 39.2476 31.5679 40.7514C31.5679 41.8901 31.566 43.0289 31.5642 44.1677C31.5697 44.1987 31.5752 44.2316 31.5807 44.2626C31.6192 44.237 31.6559 44.2115 31.6945 44.1859C31.8578 44.0637 32.0285 43.9542 32.1809 43.8191C37.1326 39.4447 42.0807 35.0666 47.0307 30.6885C49.5818 28.4329 52.1311 26.1699 54.6933 23.9271C55.0365 23.6259 55.1356 23.4471 54.7245 23.1113H54.7282Z" fill="#FF6F3C"/>
<path d="M2.73425 3.39813C2.76362 2.46922 2.7416 1.5385 2.73792 0.609591C2.73792 0.191676 2.69938 0.0602786 2.5911 0.0657535C2.15612 0.0894779 1.72297 0.085828 1.288 0.0931278C0.89156 -0.0857182 0.493289 0.0548037 0.0968528 0.0219544C0.0160973 0.0146546 0.00141452 0.2227 0.00141452 0.480019C0.00508522 1.95641 0.00875593 3.43098 0.0124266 4.90737C-0.00225619 7.64298 -0.00592689 10.3786 0.0124266 13.1142C-0.00225619 15.2567 -0.00409154 17.401 0.0124266 19.5435C-0.00225619 21.5054 -0.00409154 23.4672 0.0124266 25.429C-0.00225619 27.4365 -0.00409154 29.4421 0.0124266 31.4496C-0.00225619 33.5008 -0.00409154 35.5521 0.0124266 37.6033C-0.00225619 39.6108 -0.00409154 41.6164 0.0124266 43.6239C0.00875593 44.5966 0.00875593 45.5693 0.00141452 46.542C-0.000420834 46.8468 0.019768 47.0128 0.1097 46.9946C0.333613 46.9508 0.559362 47.0658 0.783275 46.9344C1.39995 47.0603 2.01847 46.9563 2.63514 46.9928C2.70856 46.9964 2.74343 46.8942 2.74343 46.5967C2.73792 44.2371 2.73425 41.8774 2.72875 39.5177C2.75261 37.6015 2.75077 35.6871 2.72875 33.7709C2.75261 31.8091 2.74894 29.8491 2.72875 27.8873C2.75261 25.836 2.74894 23.7866 2.72875 21.7353C2.75261 19.6822 2.75077 17.631 2.72875 15.5779C2.75261 13.6599 2.75077 11.7437 2.72875 9.82564C2.75261 7.68313 2.74894 5.54063 2.72875 3.3963L2.73425 3.39813Z" fill="#FF6F3C"/>
</g>
<defs>
<clipPath id="clip0_1_4555">
<rect width="55" height="47" fill="white"/>
</clipPath>
</defs>
</svg>
