<svg width="1404" height="890" viewBox="0 0 1404 890" fill="none" xmlns="http://www.w3.org/2000/svg">
<line x1="4.37114e-08" y1="169.5" x2="1404" y2="169.5" stroke="#D1D1D1"/>
<line x1="4.37114e-08" y1="349.5" x2="1404" y2="349.5" stroke="#D1D1D1"/>
<line x1="4.37114e-08" y1="529.5" x2="1404" y2="529.501" stroke="#D1D1D1"/>
<line x1="4.37114e-08" y1="709.501" x2="1404" y2="709.501" stroke="#D1D1D1"/>
<line x1="4.37114e-08" y1="889.501" x2="1404" y2="889.501" stroke="#D1D1D1"/>
<line x1="0.5" y1="890" x2="0.499974" y2="3.24193e-08" stroke="#D1D1D1"/>
<line x1="200.5" y1="890" x2="200.5" y2="3.23499e-08" stroke="#D1D1D1"/>
<line x1="401.5" y1="890" x2="401.5" y2="3.23499e-08" stroke="#D1D1D1"/>
<line x1="601.5" y1="890" x2="601.5" y2="3.23499e-08" stroke="#D1D1D1"/>
<line x1="802.5" y1="890" x2="802.5" y2="3.23499e-08" stroke="#D1D1D1"/>
<line x1="1002.5" y1="890" x2="1002.5" y2="3.23499e-08" stroke="#D1D1D1"/>
<line x1="1203.5" y1="890" x2="1203.5" y2="3.23499e-08" stroke="#D1D1D1"/>
<line x1="1403.5" y1="890" x2="1403.5" y2="3.23499e-08" stroke="#D1D1D1"/>
</svg>
