<svg width="216" height="60" viewBox="0 0 216 60" fill="none" xmlns="http://www.w3.org/2000/svg">
<g clip-path="url(#clip0_1_311)">
<path d="M30.0463 15.5103L34.9452 25.6613C34.9452 25.6613 38.2111 32.8652 31.6793 37.4495C31.6793 37.4495 26.1272 41.0515 21.2937 37.4495L24.1677 43.9985L0 55.4593C0 55.4593 15.0428 51.7591 22.9038 50.7276C23.6778 50.6261 24.4551 50.5672 25.2389 50.5508C28.4297 50.4853 41.0132 49.3687 45.5626 35.976C45.5626 35.976 48.8285 26.8074 41.9701 15.0192L45.5626 9.12507L48.1754 12.727L50.4615 4.54077H41.7415L44.9094 8.47017L30.0496 15.5103H30.0463Z" fill="#1A3E59"/>
<path d="M35.7599 11.4172L28.2484 15.0192L31.1877 21.2407C31.1877 21.2407 24.9759 18.2413 20.2763 22.1183C18.369 23.6901 17.2586 26.0313 17.1084 28.5036C16.9973 30.3406 17.2782 32.7048 18.774 34.9936L22.6931 43.1799L6.03694 51.3661L10.6092 43.5073L8.11732 38.5072C6.40599 35.0755 5.56992 31.2541 5.84425 27.4295C6.14798 23.1727 7.80706 18.0612 12.8953 13.7094C12.8986 13.7094 23.0229 4.54077 35.7599 11.4172Z" fill="#FF6F3C"/>
<path d="M70.7932 27.272L72.8867 29.3904C72.0939 30.4283 71.2473 31.2617 70.2467 32.0952L67.7568 29.7878C66.6831 30.2431 65.417 30.5826 64.1008 30.5826C58.7439 30.5826 55.2188 27.1601 55.2188 22.1132C55.2188 17.0662 58.7439 13.6437 64.1008 13.6437C69.4578 13.6437 72.9829 17.0662 72.9829 21.9434C72.9829 24.1351 72.1517 25.8752 70.797 27.2759L70.7932 27.272ZM64.1008 26.4772C66.4214 26.4772 68.2879 24.8334 68.2879 22.1093C68.2879 19.3852 66.4214 17.7415 64.1008 17.7415C61.7803 17.7415 59.9138 19.3852 59.9138 22.1093C59.9138 24.8334 61.7803 26.4772 64.1008 26.4772Z" fill="#FF6F3C"/>
<path d="M73.6797 23.2283V14.1724H78.4517V23.1164C78.4517 25.2733 79.4523 26.5968 81.6959 26.5968C83.9395 26.5968 84.9593 25.2733 84.9593 23.1164V14.1724H89.7121V23.209C89.7121 28.256 86.9605 30.5827 81.6997 30.5827C76.439 30.5827 73.6874 28.256 73.6874 23.2283H73.6797Z" fill="#FF6F3C"/>
<path d="M90.6719 14.1724H95.4054V30.054H90.6719V14.1724Z" fill="#FF6F3C"/>
<path d="M96.3633 14.1724H110.318V17.9923H101.097V20.5081H109.979V23.7029H101.097V26.2187H110.318V30.0579H96.3633V14.1762V14.1724Z" fill="#FF6F3C"/>
<path d="M127.474 18.1428H121.705V30.054H116.972V18.1428H111.203V14.1724H127.474V18.1428Z" fill="#FF6F3C"/>
<path d="M132.492 22.1132C132.492 17.0662 136.037 13.6437 141.317 13.6437C145.049 13.6437 148.879 15.2875 149.483 20.4309H144.957C144.449 18.5981 143.11 17.7453 141.317 17.7453C138.996 17.7453 137.187 19.4855 137.187 22.1132C137.187 24.7408 138.996 26.481 141.317 26.481C143.11 26.481 144.445 25.6283 144.957 23.7569H149.483C148.879 28.9351 145.088 30.5826 141.317 30.5826C136.037 30.5826 132.492 27.1601 132.492 22.1132Z" fill="#FF6F3C"/>
<path d="M161.548 30.054L159.246 25.7441H154.909V30.054H150.176V14.1724H158.981C163.337 14.1724 165.731 16.1016 165.731 20.1068C165.731 22.2791 164.73 23.8302 163.299 24.7563L166.204 30.0502H161.548V30.054ZM154.909 22.1711H158.681C160.189 22.1711 161.001 21.4534 161.001 20.1492C161.001 18.845 160.189 18.1273 158.681 18.1273H154.909V22.1749V22.1711Z" fill="#FF6F3C"/>
<path d="M178.835 27.7659H171.708L170.915 30.054H166.031L171.95 14.1724H178.589L184.527 30.054H179.624L178.831 27.7659H178.835ZM177.611 24.2315L175.687 18.6367H174.856L172.931 24.2315H177.607H177.611Z" fill="#FF6F3C"/>
<path d="M184.926 14.1724H198.842V18.1428H189.659V20.8283H198.407V24.2894H189.659V30.054H184.926V14.1724Z" fill="#FF6F3C"/>
<path d="M216.001 18.1428H210.233V30.054H205.499V18.1428H199.73V14.1724H216.001V18.1428Z" fill="#FF6F3C"/>
<path d="M59.5135 40.0437C59.4712 39.681 59.298 39.4032 58.994 39.2026C58.6899 39.0019 58.3205 38.9016 57.8779 38.9016C57.5547 38.9016 57.2737 38.9556 57.0351 39.0598C56.7965 39.164 56.608 39.3068 56.4733 39.492C56.3386 39.6733 56.2732 39.8817 56.2732 40.117C56.2732 40.31 56.3193 40.4797 56.4117 40.6187C56.5041 40.7576 56.6272 40.8733 56.7734 40.9659C56.9197 41.0585 57.0736 41.1318 57.2352 41.1897C57.3969 41.2476 57.5431 41.2939 57.6778 41.3286L58.4167 41.5293C58.6053 41.5794 58.8169 41.6489 59.0517 41.7376C59.2864 41.8264 59.5096 41.946 59.7252 42.0965C59.9407 42.2469 60.1177 42.4399 60.2562 42.6752C60.3948 42.9106 60.464 43.2 60.464 43.5396C60.464 43.9331 60.3601 44.292 60.1562 44.6084C59.9522 44.9248 59.652 45.1794 59.2595 45.3685C58.867 45.5576 58.3936 45.6502 57.8318 45.6502C57.3122 45.6502 56.8581 45.5653 56.481 45.3955C56.1 45.2257 55.8037 44.9904 55.5843 44.6894C55.3688 44.3884 55.2456 44.0373 55.2148 43.6399H56.1231C56.1462 43.9138 56.2385 44.1415 56.4001 44.3228C56.5618 44.5042 56.7696 44.6354 57.0197 44.7203C57.2699 44.809 57.5393 44.8515 57.8279 44.8515C58.1627 44.8515 58.4667 44.7974 58.7323 44.6855C58.9978 44.5736 59.2133 44.4193 59.3673 44.2225C59.5212 44.0257 59.602 43.7904 59.602 43.5241C59.602 43.281 59.5366 43.0842 59.398 42.9338C59.2633 42.7833 59.0863 42.6598 58.867 42.5633C58.6476 42.4669 58.409 42.3859 58.1512 42.3125L57.2545 42.054C56.6849 41.892 56.2347 41.6566 55.9037 41.3518C55.5727 41.0469 55.4073 40.6495 55.4073 40.1595C55.4073 39.7505 55.5189 39.3955 55.7382 39.0907C55.9576 38.7859 56.2578 38.5466 56.6349 38.3769C57.012 38.2071 57.4315 38.1222 57.8933 38.1222C58.3551 38.1222 58.7785 38.2071 59.1441 38.373C59.5097 38.5389 59.7983 38.7704 60.0138 39.0598C60.2293 39.3492 60.3409 39.6772 60.3524 40.0476H59.4981L59.5135 40.0437Z" fill="#9E9E9E"/>
<path d="M72.0558 41.8688C72.0558 42.6367 71.9173 43.3042 71.6402 43.8637C71.3631 44.4232 70.9821 44.8553 70.5011 45.1601C70.02 45.465 69.4659 45.6154 68.8463 45.6154C68.2267 45.6154 67.6725 45.465 67.1915 45.1601C66.7066 44.8553 66.3294 44.4232 66.0523 43.8637C65.7753 43.3042 65.6367 42.6367 65.6367 41.8688C65.6367 41.101 65.7753 40.4334 66.0523 39.874C66.3294 39.3145 66.7104 38.8823 67.1915 38.5775C67.6764 38.2727 68.2267 38.1222 68.8463 38.1222C69.4659 38.1222 70.02 38.2727 70.5011 38.5775C70.986 38.8823 71.3631 39.3145 71.6402 39.874C71.9173 40.4334 72.0558 41.101 72.0558 41.8688ZM71.2015 41.8688C71.2015 41.236 71.0976 40.7035 70.8859 40.2675C70.6781 39.8315 70.3933 39.5035 70.0354 39.2797C69.6775 39.056 69.2811 38.9441 68.8386 38.9441C68.396 38.9441 67.9996 39.056 67.6417 39.2797C67.2838 39.5035 67.0029 39.8315 66.7912 40.2675C66.5834 40.7035 66.4757 41.236 66.4757 41.8688C66.4757 42.5016 66.5796 43.0341 66.7912 43.4701C66.999 43.9061 67.2838 44.2341 67.6417 44.4579C67.9996 44.6817 68.396 44.7936 68.8386 44.7936C69.2811 44.7936 69.6775 44.6817 70.0354 44.4579C70.3933 44.2341 70.6743 43.9061 70.8859 43.4701C71.0937 43.0341 71.2015 42.5016 71.2015 41.8688Z" fill="#9E9E9E"/>
<path d="M77.5352 45.5151V38.2186H78.4164V44.7318H81.7992V45.5151H77.5352Z" fill="#9E9E9E"/>
<path d="M91.9438 38.2186H92.8251V43.0495C92.8251 43.5472 92.7096 43.9948 92.4749 44.3845C92.2401 44.7743 91.913 45.0829 91.4897 45.3067C91.0664 45.5305 90.5699 45.6424 89.9965 45.6424C89.4231 45.6424 88.9267 45.5305 88.5034 45.3067C88.08 45.0829 87.7491 44.7743 87.5182 44.3845C87.2873 43.9948 87.168 43.5472 87.168 43.0495V38.2186H88.0492V42.9762C88.0492 43.3312 88.1262 43.6476 88.284 43.9254C88.4418 44.2032 88.665 44.4193 88.9536 44.5775C89.2423 44.7357 89.5925 44.8128 89.9965 44.8128C90.4006 44.8128 90.7508 44.7318 91.0395 44.5775C91.3281 44.4231 91.5551 44.2032 91.7091 43.9254C91.863 43.6476 91.9438 43.3312 91.9438 42.9762V38.2186Z" fill="#9E9E9E"/>
<path d="M98.1914 39.0019V38.2186H103.648V39.0019H101.359V45.5151H100.477V39.0019H98.1875H98.1914Z" fill="#9E9E9E"/>
<path d="M109.897 38.2186V45.5151H109.016V38.2186H109.897Z" fill="#9E9E9E"/>
<path d="M121.798 41.8688C121.798 42.6367 121.659 43.3042 121.382 43.8637C121.105 44.4232 120.724 44.8553 120.243 45.1601C119.758 45.465 119.208 45.6154 118.588 45.6154C117.969 45.6154 117.415 45.465 116.934 45.1601C116.453 44.8553 116.072 44.4232 115.795 43.8637C115.517 43.3042 115.379 42.6367 115.379 41.8688C115.379 41.101 115.517 40.4334 115.795 39.874C116.072 39.3145 116.453 38.8823 116.934 38.5775C117.419 38.2727 117.969 38.1222 118.588 38.1222C119.208 38.1222 119.762 38.2727 120.243 38.5775C120.728 38.8823 121.105 39.3145 121.382 39.874C121.659 40.4334 121.798 41.101 121.798 41.8688ZM120.944 41.8688C120.944 41.236 120.84 40.7035 120.628 40.2675C120.42 39.8315 120.136 39.5035 119.778 39.2797C119.42 39.056 119.023 38.9441 118.581 38.9441C118.138 38.9441 117.742 39.056 117.384 39.2797C117.026 39.5035 116.745 39.8315 116.533 40.2675C116.326 40.7035 116.218 41.236 116.218 41.8688C116.218 42.5016 116.322 43.0341 116.533 43.4701C116.741 43.9061 117.026 44.2341 117.384 44.4579C117.742 44.6817 118.138 44.7936 118.581 44.7936C119.023 44.7936 119.42 44.6817 119.778 44.4579C120.136 44.2341 120.416 43.9061 120.628 43.4701C120.836 43.0341 120.944 42.5016 120.944 41.8688Z" fill="#9E9E9E"/>
<path d="M133.054 38.2186V45.5151H132.199L128.236 39.7852H128.163V45.5151H127.281V38.2186H128.136L132.115 43.9601H132.184V38.2186H133.05H133.054Z" fill="#9E9E9E"/>
<path d="M142.795 40.0437C142.752 39.681 142.579 39.4032 142.275 39.2026C141.971 39.0019 141.602 38.9016 141.159 38.9016C140.836 38.9016 140.555 38.9556 140.316 39.0598C140.078 39.164 139.889 39.3068 139.755 39.492C139.62 39.6733 139.554 39.8817 139.554 40.117C139.554 40.31 139.601 40.4797 139.697 40.6187C139.789 40.7576 139.909 40.8733 140.059 40.9659C140.205 41.0585 140.359 41.1318 140.52 41.1897C140.682 41.2476 140.828 41.2939 140.963 41.3286L141.702 41.5293C141.89 41.5794 142.102 41.6489 142.337 41.7376C142.572 41.8264 142.795 41.946 143.01 42.0965C143.226 42.2469 143.403 42.4399 143.541 42.6752C143.68 42.9106 143.749 43.2 143.749 43.5396C143.749 43.9331 143.645 44.292 143.441 44.6084C143.237 44.9248 142.937 45.1794 142.545 45.3685C142.152 45.5576 141.679 45.6502 141.117 45.6502C140.597 45.6502 140.143 45.5653 139.766 45.3955C139.385 45.2257 139.089 44.9904 138.869 44.6894C138.654 44.3884 138.531 44.0373 138.5 43.6399H139.408C139.431 43.9138 139.524 44.1415 139.685 44.3228C139.847 44.5042 140.055 44.6354 140.305 44.7203C140.555 44.809 140.824 44.8515 141.113 44.8515C141.448 44.8515 141.752 44.7974 142.017 44.6855C142.283 44.5736 142.498 44.4193 142.652 44.2225C142.806 44.0257 142.887 43.7904 142.887 43.5241C142.887 43.281 142.818 43.0842 142.683 42.9338C142.549 42.7833 142.371 42.6598 142.148 42.5633C141.929 42.4669 141.69 42.3859 141.432 42.3125L140.536 42.054C139.966 41.892 139.516 41.6566 139.185 41.3518C138.854 41.0469 138.689 40.6495 138.689 40.1595C138.689 39.7505 138.8 39.3955 139.02 39.0907C139.239 38.7859 139.539 38.5466 139.916 38.3769C140.293 38.2071 140.713 38.1222 141.175 38.1222C141.636 38.1222 142.06 38.2071 142.425 38.373C142.791 38.5389 143.08 38.7704 143.295 39.0598C143.511 39.3492 143.622 39.6772 143.634 40.0476H142.779L142.795 40.0437Z" fill="#9E9E9E"/>
<path d="M156.897 38.2186V45.5151H156.016V38.2186H156.897Z" fill="#9E9E9E"/>
<path d="M168.433 38.2186V45.5151H167.578L163.615 39.7852H163.541V45.5151H162.66V38.2186H163.514L167.494 43.9601H167.563V38.2186H168.429H168.433Z" fill="#9E9E9E"/>
<path d="M180.052 40.499H179.171C179.117 40.2444 179.029 40.0206 178.898 39.8276C178.767 39.6347 178.613 39.4727 178.428 39.3415C178.244 39.2103 178.043 39.11 177.82 39.0444C177.597 38.9788 177.366 38.944 177.124 38.944C176.685 38.944 176.285 39.0559 175.927 39.2797C175.569 39.5035 175.288 39.8315 175.076 40.2675C174.868 40.7035 174.761 41.236 174.761 41.8688C174.761 42.5016 174.865 43.0341 175.076 43.4701C175.284 43.9061 175.569 44.2341 175.927 44.4579C176.285 44.6817 176.681 44.7936 177.124 44.7936C177.366 44.7936 177.597 44.7588 177.82 44.6932C178.043 44.6276 178.247 44.5273 178.428 44.3961C178.613 44.2649 178.767 44.1029 178.898 43.91C179.025 43.717 179.117 43.4932 179.171 43.2424H180.052C179.987 43.6167 179.864 43.9485 179.691 44.2418C179.513 44.535 179.298 44.7858 179.036 44.9903C178.775 45.1948 178.482 45.353 178.159 45.4572C177.836 45.5653 177.489 45.6193 177.124 45.6193C176.504 45.6193 175.95 45.4688 175.469 45.164C174.988 44.8592 174.607 44.427 174.33 43.8675C174.053 43.308 173.914 42.6405 173.914 41.8727C173.914 41.1048 174.053 40.4373 174.33 39.8778C174.607 39.3183 174.988 38.8862 175.469 38.5813C175.954 38.2765 176.504 38.126 177.124 38.126C177.489 38.126 177.836 38.1801 178.159 38.2881C178.482 38.3961 178.775 38.5505 179.036 38.755C179.298 38.9595 179.513 39.2103 179.691 39.5035C179.868 39.7968 179.987 40.1325 180.052 40.5067V40.499Z" fill="#9E9E9E"/>
<path d="M185.975 45.573C185.798 45.573 185.648 45.5113 185.525 45.384C185.398 45.2566 185.336 45.1061 185.336 44.9325C185.336 44.7589 185.398 44.6045 185.525 44.4811C185.652 44.3537 185.802 44.292 185.975 44.292C186.148 44.292 186.302 44.3537 186.425 44.4811C186.548 44.6084 186.614 44.7589 186.614 44.9325C186.614 45.0483 186.583 45.1563 186.525 45.2528C186.467 45.3492 186.39 45.4264 186.294 45.4881C186.198 45.546 186.09 45.5769 185.971 45.5769L185.975 45.573Z" fill="#9E9E9E"/>
</g>
<defs>
<clipPath id="clip0_1_311">
<rect width="216" height="60" fill="white"/>
</clipPath>
</defs>
</svg>
