<svg width="430" height="340" viewBox="0 0 430 340" fill="none" xmlns="http://www.w3.org/2000/svg">
<mask id="mask0_1_542" style="mask-type:alpha" maskUnits="userSpaceOnUse" x="0" y="0" width="430" height="340">
<rect width="430" height="340" rx="20" fill="url(#paint0_linear_1_542)"/>
</mask>
<g mask="url(#mask0_1_542)">
<path d="M48.056 231.248V233.96H43.592V248H40.232V233.96H35.768V231.248H48.056ZM49.1636 241.304C49.1636 239.96 49.4276 238.768 49.9556 237.728C50.4996 236.688 51.2276 235.888 52.1396 235.328C53.0676 234.768 54.0996 234.488 55.2356 234.488C56.2276 234.488 57.0916 234.688 57.8276 235.088C58.5796 235.488 59.1796 235.992 59.6276 236.6V234.704H63.0116V248H59.6276V246.056C59.1956 246.68 58.5956 247.2 57.8276 247.616C57.0756 248.016 56.2036 248.216 55.2116 248.216C54.0916 248.216 53.0676 247.928 52.1396 247.352C51.2276 246.776 50.4996 245.968 49.9556 244.928C49.4276 243.872 49.1636 242.664 49.1636 241.304ZM59.6276 241.352C59.6276 240.536 59.4676 239.84 59.1476 239.264C58.8276 238.672 58.3956 238.224 57.8516 237.92C57.3076 237.6 56.7236 237.44 56.0996 237.44C55.4756 237.44 54.8996 237.592 54.3716 237.896C53.8436 238.2 53.4116 238.648 53.0756 239.24C52.7556 239.816 52.5956 240.504 52.5956 241.304C52.5956 242.104 52.7556 242.808 53.0756 243.416C53.4116 244.008 53.8436 244.464 54.3716 244.784C54.9156 245.104 55.4916 245.264 56.0996 245.264C56.7236 245.264 57.3076 245.112 57.8516 244.808C58.3956 244.488 58.8276 244.04 59.1476 243.464C59.4676 242.872 59.6276 242.168 59.6276 241.352ZM70.9012 248.216C69.8132 248.216 68.8372 248.024 67.9732 247.64C67.1092 247.24 66.4212 246.704 65.9092 246.032C65.4132 245.36 65.1412 244.616 65.0932 243.8H68.4772C68.5412 244.312 68.7892 244.736 69.2212 245.072C69.6692 245.408 70.2212 245.576 70.8772 245.576C71.5172 245.576 72.0132 245.448 72.3652 245.192C72.7332 244.936 72.9172 244.608 72.9172 244.208C72.9172 243.776 72.6932 243.456 72.2452 243.248C71.8132 243.024 71.1172 242.784 70.1572 242.528C69.1652 242.288 68.3492 242.04 67.7092 241.784C67.0852 241.528 66.5412 241.136 66.0772 240.608C65.6292 240.08 65.4052 239.368 65.4052 238.472C65.4052 237.736 65.6132 237.064 66.0292 236.456C66.4612 235.848 67.0692 235.368 67.8532 235.016C68.6532 234.664 69.5892 234.488 70.6612 234.488C72.2452 234.488 73.5092 234.888 74.4532 235.688C75.3972 236.472 75.9172 237.536 76.0132 238.88H72.7972C72.7492 238.352 72.5252 237.936 72.1252 237.632C71.7412 237.312 71.2212 237.152 70.5652 237.152C69.9572 237.152 69.4852 237.264 69.1492 237.488C68.8292 237.712 68.6692 238.024 68.6692 238.424C68.6692 238.872 68.8932 239.216 69.3412 239.456C69.7892 239.68 70.4852 239.912 71.4292 240.152C72.3892 240.392 73.1812 240.64 73.8052 240.896C74.4292 241.152 74.9652 241.552 75.4132 242.096C75.8772 242.624 76.1172 243.328 76.1332 244.208C76.1332 244.976 75.9172 245.664 75.4852 246.272C75.0692 246.88 74.4612 247.36 73.6612 247.712C72.8772 248.048 71.9572 248.216 70.9012 248.216ZM86.2833 248L81.7713 242.336V248H78.4113V230.24H81.7713V240.344L86.2353 234.704H90.6033L84.7473 241.376L90.6513 248H86.2833ZM104.554 234.512C106.138 234.512 107.418 235.016 108.394 236.024C109.37 237.016 109.858 238.408 109.858 240.2V248H106.498V240.656C106.498 239.6 106.234 238.792 105.706 238.232C105.178 237.656 104.458 237.368 103.546 237.368C102.618 237.368 101.882 237.656 101.338 238.232C100.81 238.792 100.546 239.6 100.546 240.656V248H97.1857V234.704H100.546V236.36C100.994 235.784 101.562 235.336 102.25 235.016C102.954 234.68 103.722 234.512 104.554 234.512ZM111.709 241.304C111.709 239.96 111.973 238.768 112.501 237.728C113.045 236.688 113.773 235.888 114.685 235.328C115.613 234.768 116.645 234.488 117.781 234.488C118.773 234.488 119.637 234.688 120.373 235.088C121.125 235.488 121.725 235.992 122.173 236.6V234.704H125.557V248H122.173V246.056C121.741 246.68 121.141 247.2 120.373 247.616C119.621 248.016 118.749 248.216 117.757 248.216C116.637 248.216 115.613 247.928 114.685 247.352C113.773 246.776 113.045 245.968 112.501 244.928C111.973 243.872 111.709 242.664 111.709 241.304ZM122.173 241.352C122.173 240.536 122.013 239.84 121.693 239.264C121.373 238.672 120.941 238.224 120.397 237.92C119.853 237.6 119.269 237.44 118.645 237.44C118.021 237.44 117.445 237.592 116.917 237.896C116.389 238.2 115.957 238.648 115.621 239.24C115.301 239.816 115.141 240.504 115.141 241.304C115.141 242.104 115.301 242.808 115.621 243.416C115.957 244.008 116.389 244.464 116.917 244.784C117.461 245.104 118.037 245.264 118.645 245.264C119.269 245.264 119.853 245.112 120.397 244.808C120.941 244.488 121.373 244.04 121.693 243.464C122.013 242.872 122.173 242.168 122.173 241.352ZM144.871 234.512C146.503 234.512 147.815 235.016 148.807 236.024C149.815 237.016 150.319 238.408 150.319 240.2V248H146.959V240.656C146.959 239.616 146.695 238.824 146.167 238.28C145.639 237.72 144.919 237.44 144.006 237.44C143.095 237.44 142.367 237.72 141.823 238.28C141.294 238.824 141.03 239.616 141.03 240.656V248H137.67V240.656C137.67 239.616 137.406 238.824 136.878 238.28C136.351 237.72 135.631 237.44 134.718 237.44C133.79 237.44 133.054 237.72 132.51 238.28C131.982 238.824 131.718 239.616 131.718 240.656V248H128.358V234.704H131.718V236.312C132.15 235.752 132.702 235.312 133.375 234.992C134.062 234.672 134.814 234.512 135.63 234.512C136.67 234.512 137.598 234.736 138.415 235.184C139.231 235.616 139.863 236.24 140.311 237.056C140.743 236.288 141.367 235.672 142.183 235.208C143.015 234.744 143.911 234.512 144.871 234.512ZM165.387 241.064C165.387 241.544 165.355 241.976 165.291 242.36H155.571C155.651 243.32 155.987 244.072 156.579 244.616C157.171 245.16 157.899 245.432 158.763 245.432C160.011 245.432 160.899 244.896 161.427 243.824H165.051C164.667 245.104 163.931 246.16 162.843 246.992C161.755 247.808 160.419 248.216 158.835 248.216C157.555 248.216 156.403 247.936 155.379 247.376C154.371 246.8 153.579 245.992 153.003 244.952C152.443 243.912 152.163 242.712 152.163 241.352C152.163 239.976 152.443 238.768 153.003 237.728C153.563 236.688 154.347 235.888 155.355 235.328C156.363 234.768 157.523 234.488 158.835 234.488C160.099 234.488 161.227 234.76 162.219 235.304C163.227 235.848 164.003 236.624 164.547 237.632C165.107 238.624 165.387 239.768 165.387 241.064ZM161.907 240.104C161.891 239.24 161.579 238.552 160.971 238.04C160.363 237.512 159.619 237.248 158.739 237.248C157.907 237.248 157.203 237.504 156.627 238.016C156.067 238.512 155.723 239.208 155.595 240.104H161.907Z" fill="#3F3F3F"/>
<path d="M41.846 283.83H37.59L36.806 286H35.462L38.99 276.298H40.46L43.974 286H42.63L41.846 283.83ZM41.482 282.794L39.718 277.866L37.954 282.794H41.482ZM47.9476 286.126C47.3596 286.126 46.8323 286.028 46.3656 285.832C45.8989 285.627 45.5303 285.347 45.2596 284.992C44.9889 284.628 44.8396 284.213 44.8116 283.746H46.1276C46.1649 284.129 46.3423 284.441 46.6596 284.684C46.9863 284.927 47.4109 285.048 47.9336 285.048C48.4189 285.048 48.8016 284.941 49.0816 284.726C49.3616 284.511 49.5016 284.241 49.5016 283.914C49.5016 283.578 49.3523 283.331 49.0536 283.172C48.7549 283.004 48.2929 282.841 47.6676 282.682C47.0983 282.533 46.6316 282.383 46.2676 282.234C45.9129 282.075 45.6049 281.847 45.3436 281.548C45.0916 281.24 44.9656 280.839 44.9656 280.344C44.9656 279.952 45.0823 279.593 45.3156 279.266C45.5489 278.939 45.8803 278.683 46.3096 278.496C46.7389 278.3 47.2289 278.202 47.7796 278.202C48.6289 278.202 49.3149 278.417 49.8376 278.846C50.3603 279.275 50.6403 279.863 50.6776 280.61H49.4036C49.3756 280.209 49.2123 279.887 48.9136 279.644C48.6243 279.401 48.2323 279.28 47.7376 279.28C47.2803 279.28 46.9163 279.378 46.6456 279.574C46.3749 279.77 46.2396 280.027 46.2396 280.344C46.2396 280.596 46.3189 280.806 46.4776 280.974C46.6456 281.133 46.8509 281.263 47.0936 281.366C47.3456 281.459 47.6909 281.567 48.1296 281.688C48.6803 281.837 49.1283 281.987 49.4736 282.136C49.8189 282.276 50.1129 282.491 50.3556 282.78C50.6076 283.069 50.7383 283.447 50.7476 283.914C50.7476 284.334 50.6309 284.712 50.3976 285.048C50.1643 285.384 49.8329 285.65 49.4036 285.846C48.9836 286.033 48.4983 286.126 47.9476 286.126ZM54.982 286.126C54.394 286.126 53.8667 286.028 53.4 285.832C52.9334 285.627 52.5647 285.347 52.294 284.992C52.0234 284.628 51.874 284.213 51.846 283.746H53.162C53.1994 284.129 53.3767 284.441 53.694 284.684C54.0207 284.927 54.4454 285.048 54.968 285.048C55.4534 285.048 55.836 284.941 56.116 284.726C56.396 284.511 56.536 284.241 56.536 283.914C56.536 283.578 56.3867 283.331 56.088 283.172C55.7894 283.004 55.3274 282.841 54.702 282.682C54.1327 282.533 53.666 282.383 53.302 282.234C52.9474 282.075 52.6394 281.847 52.378 281.548C52.126 281.24 52 280.839 52 280.344C52 279.952 52.1167 279.593 52.35 279.266C52.5834 278.939 52.9147 278.683 53.344 278.496C53.7734 278.3 54.2634 278.202 54.814 278.202C55.6634 278.202 56.3494 278.417 56.872 278.846C57.3947 279.275 57.6747 279.863 57.712 280.61H56.438C56.41 280.209 56.2467 279.887 55.948 279.644C55.6587 279.401 55.2667 279.28 54.772 279.28C54.3147 279.28 53.9507 279.378 53.68 279.574C53.4094 279.77 53.274 280.027 53.274 280.344C53.274 280.596 53.3534 280.806 53.512 280.974C53.68 281.133 53.8854 281.263 54.128 281.366C54.38 281.459 54.7254 281.567 55.164 281.688C55.7147 281.837 56.1627 281.987 56.508 282.136C56.8534 282.276 57.1474 282.491 57.39 282.78C57.642 283.069 57.7727 283.447 57.782 283.914C57.782 284.334 57.6654 284.712 57.432 285.048C57.1987 285.384 56.8674 285.65 56.438 285.846C56.018 286.033 55.5327 286.126 54.982 286.126ZM59.9585 277.082C59.7158 277.082 59.5105 276.998 59.3425 276.83C59.1745 276.662 59.0905 276.457 59.0905 276.214C59.0905 275.971 59.1745 275.766 59.3425 275.598C59.5105 275.43 59.7158 275.346 59.9585 275.346C60.1918 275.346 60.3878 275.43 60.5465 275.598C60.7145 275.766 60.7985 275.971 60.7985 276.214C60.7985 276.457 60.7145 276.662 60.5465 276.83C60.3878 276.998 60.1918 277.082 59.9585 277.082ZM60.5745 278.328V286H59.3005V278.328H60.5745ZM65.6298 278.202C66.2925 278.202 66.8711 278.347 67.3658 278.636C67.8698 278.925 68.2431 279.289 68.4858 279.728V278.328H69.7738V286.168C69.7738 286.868 69.6245 287.489 69.3258 288.03C69.0271 288.581 68.5978 289.01 68.0378 289.318C67.4871 289.626 66.8431 289.78 66.1058 289.78C65.0978 289.78 64.2578 289.542 63.5858 289.066C62.9138 288.59 62.5171 287.941 62.3958 287.12H63.6558C63.7958 287.587 64.0851 287.96 64.5238 288.24C64.9625 288.529 65.4898 288.674 66.1058 288.674C66.8058 288.674 67.3751 288.455 67.8138 288.016C68.2618 287.577 68.4858 286.961 68.4858 286.168V284.558C68.2338 285.006 67.8605 285.379 67.3658 285.678C66.8711 285.977 66.2925 286.126 65.6298 286.126C64.9485 286.126 64.3278 285.958 63.7678 285.622C63.2171 285.286 62.7831 284.815 62.4658 284.208C62.1485 283.601 61.9898 282.911 61.9898 282.136C61.9898 281.352 62.1485 280.666 62.4658 280.078C62.7831 279.481 63.2171 279.019 63.7678 278.692C64.3278 278.365 64.9485 278.202 65.6298 278.202ZM68.4858 282.15C68.4858 281.571 68.3691 281.067 68.1358 280.638C67.9025 280.209 67.5851 279.882 67.1838 279.658C66.7918 279.425 66.3578 279.308 65.8818 279.308C65.4058 279.308 64.9718 279.42 64.5798 279.644C64.1878 279.868 63.8751 280.195 63.6418 280.624C63.4085 281.053 63.2918 281.557 63.2918 282.136C63.2918 282.724 63.4085 283.237 63.6418 283.676C63.8751 284.105 64.1878 284.437 64.5798 284.67C64.9718 284.894 65.4058 285.006 65.8818 285.006C66.3578 285.006 66.7918 284.894 67.1838 284.67C67.5851 284.437 67.9025 284.105 68.1358 283.676C68.3691 283.237 68.4858 282.729 68.4858 282.15ZM75.3847 278.188C76.3181 278.188 77.0741 278.473 77.6527 279.042C78.2314 279.602 78.5207 280.414 78.5207 281.478V286H77.2607V281.66C77.2607 280.895 77.0694 280.311 76.6867 279.91C76.3041 279.499 75.7814 279.294 75.1187 279.294C74.4467 279.294 73.9101 279.504 73.5087 279.924C73.1167 280.344 72.9207 280.955 72.9207 281.758V286H71.6467V278.328H72.9207V279.42C73.1727 279.028 73.5134 278.725 73.9427 278.51C74.3814 278.295 74.8621 278.188 75.3847 278.188ZM87.3218 281.87C87.3218 282.113 87.3078 282.369 87.2798 282.64H81.1478C81.1945 283.396 81.4512 283.989 81.9178 284.418C82.3938 284.838 82.9678 285.048 83.6398 285.048C84.1905 285.048 84.6478 284.922 85.0118 284.67C85.3852 284.409 85.6465 284.063 85.7958 283.634H87.1678C86.9625 284.371 86.5518 284.973 85.9358 285.44C85.3198 285.897 84.5545 286.126 83.6398 286.126C82.9118 286.126 82.2585 285.963 81.6798 285.636C81.1105 285.309 80.6625 284.847 80.3358 284.25C80.0092 283.643 79.8458 282.943 79.8458 282.15C79.8458 281.357 80.0045 280.661 80.3218 280.064C80.6392 279.467 81.0825 279.009 81.6518 278.692C82.2305 278.365 82.8932 278.202 83.6398 278.202C84.3678 278.202 85.0118 278.361 85.5718 278.678C86.1318 278.995 86.5612 279.434 86.8598 279.994C87.1678 280.545 87.3218 281.17 87.3218 281.87ZM86.0058 281.604C86.0058 281.119 85.8985 280.703 85.6838 280.358C85.4692 280.003 85.1752 279.737 84.8018 279.56C84.4378 279.373 84.0318 279.28 83.5838 279.28C82.9398 279.28 82.3892 279.485 81.9318 279.896C81.4838 280.307 81.2272 280.876 81.1618 281.604H86.0058ZM95.7235 281.87C95.7235 282.113 95.7095 282.369 95.6815 282.64H89.5495C89.5961 283.396 89.8528 283.989 90.3195 284.418C90.7955 284.838 91.3695 285.048 92.0415 285.048C92.5921 285.048 93.0495 284.922 93.4135 284.67C93.7868 284.409 94.0481 284.063 94.1975 283.634H95.5695C95.3641 284.371 94.9535 284.973 94.3375 285.44C93.7215 285.897 92.9561 286.126 92.0415 286.126C91.3135 286.126 90.6601 285.963 90.0815 285.636C89.5121 285.309 89.0641 284.847 88.7375 284.25C88.4108 283.643 88.2475 282.943 88.2475 282.15C88.2475 281.357 88.4061 280.661 88.7235 280.064C89.0408 279.467 89.4841 279.009 90.0535 278.692C90.6321 278.365 91.2948 278.202 92.0415 278.202C92.7695 278.202 93.4135 278.361 93.9735 278.678C94.5335 278.995 94.9628 279.434 95.2615 279.994C95.5695 280.545 95.7235 281.17 95.7235 281.87ZM94.4075 281.604C94.4075 281.119 94.3001 280.703 94.0855 280.358C93.8708 280.003 93.5768 279.737 93.2035 279.56C92.8395 279.373 92.4335 279.28 91.9855 279.28C91.3415 279.28 90.7908 279.485 90.3335 279.896C89.8855 280.307 89.6288 280.876 89.5635 281.604H94.4075Z" fill="#9E9E9E"/>
<path d="M42.722 311L39.95 306.104H38.762V311H36.242V298.436H40.958C41.93 298.436 42.758 298.61 43.442 298.958C44.126 299.294 44.636 299.756 44.972 300.344C45.32 300.92 45.494 301.568 45.494 302.288C45.494 303.116 45.254 303.866 44.774 304.538C44.294 305.198 43.58 305.654 42.632 305.906L45.638 311H42.722ZM38.762 304.214H40.868C41.552 304.214 42.062 304.052 42.398 303.728C42.734 303.392 42.902 302.93 42.902 302.342C42.902 301.766 42.734 301.322 42.398 301.01C42.062 300.686 41.552 300.524 40.868 300.524H38.762V304.214ZM51.8413 311.162C50.8813 311.162 50.0173 310.952 49.2493 310.532C48.4813 310.1 47.8753 309.494 47.4313 308.714C46.9993 307.934 46.7833 307.034 46.7833 306.014C46.7833 304.994 47.0053 304.094 47.4493 303.314C47.9053 302.534 48.5233 301.934 49.3033 301.514C50.0833 301.082 50.9533 300.866 51.9133 300.866C52.8733 300.866 53.7433 301.082 54.5233 301.514C55.3033 301.934 55.9153 302.534 56.3593 303.314C56.8153 304.094 57.0433 304.994 57.0433 306.014C57.0433 307.034 56.8093 307.934 56.3413 308.714C55.8853 309.494 55.2613 310.1 54.4693 310.532C53.6893 310.952 52.8133 311.162 51.8413 311.162ZM51.8413 308.966C52.2973 308.966 52.7233 308.858 53.1193 308.642C53.5273 308.414 53.8513 308.078 54.0913 307.634C54.3313 307.19 54.4513 306.65 54.4513 306.014C54.4513 305.066 54.1993 304.34 53.6953 303.836C53.2033 303.32 52.5973 303.062 51.8773 303.062C51.1573 303.062 50.5513 303.32 50.0593 303.836C49.5793 304.34 49.3393 305.066 49.3393 306.014C49.3393 306.962 49.5733 307.694 50.0413 308.21C50.5213 308.714 51.1213 308.966 51.8413 308.966ZM61.0518 302.486C61.3758 302.006 61.8198 301.616 62.3838 301.316C62.9598 301.016 63.6138 300.866 64.3458 300.866C65.1978 300.866 65.9658 301.076 66.6498 301.496C67.3458 301.916 67.8918 302.516 68.2878 303.296C68.6958 304.064 68.8998 304.958 68.8998 305.978C68.8998 306.998 68.6958 307.904 68.2878 308.696C67.8918 309.476 67.3458 310.082 66.6498 310.514C65.9658 310.946 65.1978 311.162 64.3458 311.162C63.6018 311.162 62.9478 311.018 62.3838 310.73C61.8318 310.43 61.3878 310.046 61.0518 309.578V311H58.5318V297.68H61.0518V302.486ZM66.3258 305.978C66.3258 305.378 66.1998 304.862 65.9478 304.43C65.7078 303.986 65.3838 303.65 64.9758 303.422C64.5798 303.194 64.1478 303.08 63.6798 303.08C63.2238 303.08 62.7918 303.2 62.3838 303.44C61.9878 303.668 61.6638 304.004 61.4118 304.448C61.1718 304.892 61.0518 305.414 61.0518 306.014C61.0518 306.614 61.1718 307.136 61.4118 307.58C61.6638 308.024 61.9878 308.366 62.3838 308.606C62.7918 308.834 63.2238 308.948 63.6798 308.948C64.1478 308.948 64.5798 308.828 64.9758 308.588C65.3838 308.348 65.7078 308.006 65.9478 307.562C66.1998 307.118 66.3258 306.59 66.3258 305.978ZM79.641 305.798C79.641 306.158 79.617 306.482 79.569 306.77H72.279C72.339 307.49 72.591 308.054 73.035 308.462C73.479 308.87 74.025 309.074 74.673 309.074C75.609 309.074 76.275 308.672 76.671 307.868H79.389C79.101 308.828 78.549 309.62 77.733 310.244C76.917 310.856 75.915 311.162 74.727 311.162C73.767 311.162 72.903 310.952 72.135 310.532C71.379 310.1 70.785 309.494 70.353 308.714C69.933 307.934 69.723 307.034 69.723 306.014C69.723 304.982 69.933 304.076 70.353 303.296C70.773 302.516 71.361 301.916 72.117 301.496C72.873 301.076 73.743 300.866 74.727 300.866C75.675 300.866 76.521 301.07 77.265 301.478C78.021 301.886 78.603 302.468 79.011 303.224C79.431 303.968 79.641 304.826 79.641 305.798ZM77.031 305.078C77.019 304.43 76.785 303.914 76.329 303.53C75.873 303.134 75.315 302.936 74.655 302.936C74.031 302.936 73.503 303.128 73.071 303.512C72.651 303.884 72.393 304.406 72.297 305.078H77.031ZM83.6404 302.576C83.9644 302.048 84.3844 301.634 84.9004 301.334C85.4284 301.034 86.0284 300.884 86.7004 300.884V303.53H86.0344C85.2424 303.53 84.6424 303.716 84.2344 304.088C83.8384 304.46 83.6404 305.108 83.6404 306.032V311H81.1204V301.028H83.6404V302.576ZM90.9717 303.098V307.922C90.9717 308.258 91.0497 308.504 91.2057 308.66C91.3737 308.804 91.6497 308.876 92.0337 308.876H93.2037V311H91.6197C89.4957 311 88.4337 309.968 88.4337 307.904V303.098H87.2457V301.028H88.4337V298.562H90.9717V301.028H93.2037V303.098H90.9717ZM102.923 311.126C102.047 311.126 101.255 310.976 100.547 310.676C99.8513 310.376 99.2993 309.944 98.8913 309.38C98.4833 308.816 98.2733 308.15 98.2613 307.382H100.961C100.997 307.898 101.177 308.306 101.501 308.606C101.837 308.906 102.293 309.056 102.869 309.056C103.457 309.056 103.919 308.918 104.255 308.642C104.591 308.354 104.759 307.982 104.759 307.526C104.759 307.154 104.645 306.848 104.417 306.608C104.189 306.368 103.901 306.182 103.553 306.05C103.217 305.906 102.749 305.75 102.149 305.582C101.333 305.342 100.667 305.108 100.151 304.88C99.6473 304.64 99.2093 304.286 98.8373 303.818C98.4773 303.338 98.2973 302.702 98.2973 301.91C98.2973 301.166 98.4833 300.518 98.8553 299.966C99.2273 299.414 99.7493 298.994 100.421 298.706C101.093 298.406 101.861 298.256 102.725 298.256C104.021 298.256 105.071 298.574 105.875 299.21C106.691 299.834 107.141 300.71 107.225 301.838H104.453C104.429 301.406 104.243 301.052 103.895 300.776C103.559 300.488 103.109 300.344 102.545 300.344C102.053 300.344 101.657 300.47 101.357 300.722C101.069 300.974 100.925 301.34 100.925 301.82C100.925 302.156 101.033 302.438 101.249 302.666C101.477 302.882 101.753 303.062 102.077 303.206C102.413 303.338 102.881 303.494 103.481 303.674C104.297 303.914 104.963 304.154 105.479 304.394C105.995 304.634 106.439 304.994 106.811 305.474C107.183 305.954 107.369 306.584 107.369 307.364C107.369 308.036 107.195 308.66 106.847 309.236C106.499 309.812 105.989 310.274 105.317 310.622C104.645 310.958 103.847 311.126 102.923 311.126ZM112.128 303.098V307.922C112.128 308.258 112.206 308.504 112.362 308.66C112.53 308.804 112.806 308.876 113.19 308.876H114.36V311H112.776C110.652 311 109.59 309.968 109.59 307.904V303.098H108.402V301.028H109.59V298.562H112.128V301.028H114.36V303.098H112.128ZM125.083 305.798C125.083 306.158 125.059 306.482 125.011 306.77H117.721C117.781 307.49 118.033 308.054 118.477 308.462C118.921 308.87 119.467 309.074 120.115 309.074C121.051 309.074 121.717 308.672 122.113 307.868H124.831C124.543 308.828 123.991 309.62 123.175 310.244C122.359 310.856 121.357 311.162 120.169 311.162C119.209 311.162 118.345 310.952 117.577 310.532C116.821 310.1 116.227 309.494 115.795 308.714C115.375 307.934 115.165 307.034 115.165 306.014C115.165 304.982 115.375 304.076 115.795 303.296C116.215 302.516 116.803 301.916 117.559 301.496C118.315 301.076 119.185 300.866 120.169 300.866C121.117 300.866 121.963 301.07 122.707 301.478C123.463 301.886 124.045 302.468 124.453 303.224C124.873 303.968 125.083 304.826 125.083 305.798ZM122.473 305.078C122.461 304.43 122.227 303.914 121.771 303.53C121.315 303.134 120.757 302.936 120.097 302.936C119.473 302.936 118.945 303.128 118.513 303.512C118.093 303.884 117.835 304.406 117.739 305.078H122.473ZM130.72 308.678L133.24 301.028H135.922L132.232 311H129.172L125.5 301.028H128.2L130.72 308.678ZM146.247 305.798C146.247 306.158 146.223 306.482 146.175 306.77H138.885C138.945 307.49 139.197 308.054 139.641 308.462C140.085 308.87 140.631 309.074 141.279 309.074C142.215 309.074 142.881 308.672 143.277 307.868H145.995C145.707 308.828 145.155 309.62 144.339 310.244C143.523 310.856 142.521 311.162 141.333 311.162C140.373 311.162 139.509 310.952 138.741 310.532C137.985 310.1 137.391 309.494 136.959 308.714C136.539 307.934 136.329 307.034 136.329 306.014C136.329 304.982 136.539 304.076 136.959 303.296C137.379 302.516 137.967 301.916 138.723 301.496C139.479 301.076 140.349 300.866 141.333 300.866C142.281 300.866 143.127 301.07 143.871 301.478C144.627 301.886 145.209 302.468 145.617 303.224C146.037 303.968 146.247 304.826 146.247 305.798ZM143.637 305.078C143.625 304.43 143.391 303.914 142.935 303.53C142.479 303.134 141.921 302.936 141.261 302.936C140.637 302.936 140.109 303.128 139.677 303.512C139.257 303.884 138.999 304.406 138.903 305.078H143.637Z" fill="#3F3F3F"/>
<path d="M336.668 276.242C337.732 276.242 338.651 276.443 339.426 276.844C340.21 277.236 340.807 277.801 341.218 278.538C341.638 279.275 341.848 280.143 341.848 281.142C341.848 282.141 341.638 283.009 341.218 283.746C340.807 284.474 340.21 285.034 339.426 285.426C338.651 285.809 337.732 286 336.668 286H333.63V276.242H336.668ZM336.668 284.95C337.928 284.95 338.889 284.619 339.552 283.956C340.214 283.284 340.546 282.346 340.546 281.142C340.546 279.929 340.21 278.981 339.538 278.3C338.875 277.619 337.918 277.278 336.668 277.278H334.904V284.95H336.668ZM350.052 278.328V286H348.778V284.866C348.536 285.258 348.195 285.566 347.756 285.79C347.327 286.005 346.851 286.112 346.328 286.112C345.731 286.112 345.194 285.991 344.718 285.748C344.242 285.496 343.864 285.123 343.584 284.628C343.314 284.133 343.178 283.531 343.178 282.822V278.328H344.438V282.654C344.438 283.41 344.63 283.993 345.012 284.404C345.395 284.805 345.918 285.006 346.58 285.006C347.262 285.006 347.798 284.796 348.19 284.376C348.582 283.956 348.778 283.345 348.778 282.542V278.328H350.052ZM358.923 281.87C358.923 282.113 358.909 282.369 358.881 282.64H352.749C352.796 283.396 353.053 283.989 353.519 284.418C353.995 284.838 354.569 285.048 355.241 285.048C355.792 285.048 356.249 284.922 356.613 284.67C356.987 284.409 357.248 284.063 357.397 283.634H358.769C358.564 284.371 358.153 284.973 357.537 285.44C356.921 285.897 356.156 286.126 355.241 286.126C354.513 286.126 353.86 285.963 353.281 285.636C352.712 285.309 352.264 284.847 351.937 284.25C351.611 283.643 351.447 282.943 351.447 282.15C351.447 281.357 351.606 280.661 351.923 280.064C352.241 279.467 352.684 279.009 353.253 278.692C353.832 278.365 354.495 278.202 355.241 278.202C355.969 278.202 356.613 278.361 357.173 278.678C357.733 278.995 358.163 279.434 358.461 279.994C358.769 280.545 358.923 281.17 358.923 281.87ZM357.607 281.604C357.607 281.119 357.5 280.703 357.285 280.358C357.071 280.003 356.777 279.737 356.403 279.56C356.039 279.373 355.633 279.28 355.185 279.28C354.541 279.28 353.991 279.485 353.533 279.896C353.085 280.307 352.829 280.876 352.763 281.604H357.607ZM366.815 276.242C367.879 276.242 368.799 276.443 369.573 276.844C370.357 277.236 370.955 277.801 371.365 278.538C371.785 279.275 371.995 280.143 371.995 281.142C371.995 282.141 371.785 283.009 371.365 283.746C370.955 284.474 370.357 285.034 369.573 285.426C368.799 285.809 367.879 286 366.815 286H363.777V276.242H366.815ZM366.815 284.95C368.075 284.95 369.037 284.619 369.699 283.956C370.362 283.284 370.693 282.346 370.693 281.142C370.693 279.929 370.357 278.981 369.685 278.3C369.023 277.619 368.066 277.278 366.815 277.278H365.051V284.95H366.815ZM372.92 282.136C372.92 281.352 373.078 280.666 373.396 280.078C373.713 279.481 374.147 279.019 374.698 278.692C375.258 278.365 375.878 278.202 376.56 278.202C377.232 278.202 377.815 278.347 378.31 278.636C378.804 278.925 379.173 279.289 379.416 279.728V278.328H380.704V286H379.416V284.572C379.164 285.02 378.786 285.393 378.282 285.692C377.787 285.981 377.208 286.126 376.546 286.126C375.864 286.126 375.248 285.958 374.698 285.622C374.147 285.286 373.713 284.815 373.396 284.208C373.078 283.601 372.92 282.911 372.92 282.136ZM379.416 282.15C379.416 281.571 379.299 281.067 379.066 280.638C378.832 280.209 378.515 279.882 378.114 279.658C377.722 279.425 377.288 279.308 376.812 279.308C376.336 279.308 375.902 279.42 375.51 279.644C375.118 279.868 374.805 280.195 374.572 280.624C374.338 281.053 374.222 281.557 374.222 282.136C374.222 282.724 374.338 283.237 374.572 283.676C374.805 284.105 375.118 284.437 375.51 284.67C375.902 284.894 376.336 285.006 376.812 285.006C377.288 285.006 377.722 284.894 378.114 284.67C378.515 284.437 378.832 284.105 379.066 283.676C379.299 283.237 379.416 282.729 379.416 282.15ZM384.131 279.378V283.9C384.131 284.273 384.21 284.539 384.369 284.698C384.527 284.847 384.803 284.922 385.195 284.922H386.133V286H384.985C384.275 286 383.743 285.837 383.389 285.51C383.034 285.183 382.857 284.647 382.857 283.9V279.378H381.863V278.328H382.857V276.396H384.131V278.328H386.133V279.378H384.131ZM394.396 281.87C394.396 282.113 394.382 282.369 394.354 282.64H388.222C388.269 283.396 388.526 283.989 388.992 284.418C389.468 284.838 390.042 285.048 390.714 285.048C391.265 285.048 391.722 284.922 392.086 284.67C392.46 284.409 392.721 284.063 392.87 283.634H394.242C394.037 284.371 393.626 284.973 393.01 285.44C392.394 285.897 391.629 286.126 390.714 286.126C389.986 286.126 389.333 285.963 388.754 285.636C388.185 285.309 387.737 284.847 387.41 284.25C387.084 283.643 386.92 282.943 386.92 282.15C386.92 281.357 387.079 280.661 387.396 280.064C387.714 279.467 388.157 279.009 388.726 278.692C389.305 278.365 389.968 278.202 390.714 278.202C391.442 278.202 392.086 278.361 392.646 278.678C393.206 278.995 393.636 279.434 393.934 279.994C394.242 280.545 394.396 281.17 394.396 281.87ZM393.08 281.604C393.08 281.119 392.973 280.703 392.758 280.358C392.544 280.003 392.25 279.737 391.876 279.56C391.512 279.373 391.106 279.28 390.658 279.28C390.014 279.28 389.464 279.485 389.006 279.896C388.558 280.307 388.302 280.876 388.236 281.604H393.08Z" fill="#9E9E9E"/>
<path d="M304.722 301.228C305.749 301.228 306.65 301.429 307.424 301.83C308.208 302.231 308.81 302.805 309.23 303.552C309.66 304.289 309.874 305.148 309.874 306.128C309.874 307.108 309.66 307.967 309.23 308.704C308.81 309.432 308.208 309.997 307.424 310.398C306.65 310.799 305.749 311 304.722 311H301.306V301.228H304.722ZM304.652 309.334C305.679 309.334 306.472 309.054 307.032 308.494C307.592 307.934 307.872 307.145 307.872 306.128C307.872 305.111 307.592 304.317 307.032 303.748C306.472 303.169 305.679 302.88 304.652 302.88H303.266V309.334H304.652ZM314.477 301.228C315.504 301.228 316.405 301.429 317.179 301.83C317.963 302.231 318.565 302.805 318.985 303.552C319.415 304.289 319.629 305.148 319.629 306.128C319.629 307.108 319.415 307.967 318.985 308.704C318.565 309.432 317.963 309.997 317.179 310.398C316.405 310.799 315.504 311 314.477 311H311.061V301.228H314.477ZM314.407 309.334C315.434 309.334 316.227 309.054 316.787 308.494C317.347 307.934 317.627 307.145 317.627 306.128C317.627 305.111 317.347 304.317 316.787 303.748C316.227 303.169 315.434 302.88 314.407 302.88H313.021V309.334H314.407ZM326.781 305.176V306.828H320.845V305.176H326.781ZM339.353 301.228V311H337.393V304.644L334.775 311H333.291L330.659 304.644V311H328.699V301.228H330.925L334.033 308.494L337.141 301.228H339.353ZM351.665 301.228V311H349.705V304.644L347.087 311H345.603L342.971 304.644V311H341.011V301.228H343.237L346.345 308.494L349.453 301.228H351.665ZM359.286 305.176V306.828H353.35V305.176H359.286ZM368.974 301.228L365.67 307.598V311H363.71V307.598L360.392 301.228H362.604L364.704 305.694L366.79 301.228H368.974ZM377.595 301.228L374.291 307.598V311H372.331V307.598L369.013 301.228H371.225L373.325 305.694L375.411 301.228H377.595ZM386.215 301.228L382.911 307.598V311H380.951V307.598L377.633 301.228H379.845L381.945 305.694L384.031 301.228H386.215ZM394.836 301.228L391.532 307.598V311H389.572V307.598L386.254 301.228H388.466L390.566 305.694L392.652 301.228H394.836Z" fill="#3F3F3F"/>
</g>
<defs>
<linearGradient id="paint0_linear_1_542" x1="215" y1="0" x2="215" y2="340" gradientUnits="userSpaceOnUse">
<stop offset="0.429604" stop-color="white"/>
<stop offset="1" stop-color="white" stop-opacity="0"/>
</linearGradient>
</defs>
</svg>
