<svg width="430" height="340" viewBox="0 0 430 340" fill="none" xmlns="http://www.w3.org/2000/svg">
<mask id="mask0_1_570" style="mask-type:alpha" maskUnits="userSpaceOnUse" x="0" y="0" width="430" height="340">
<rect width="430" height="340" rx="20" fill="url(#paint0_linear_1_570)"/>
</mask>
<g mask="url(#mask0_1_570)">
<path d="M40.016 278.248V295H36.656V278.248H40.016ZM46.7677 284.464V290.896C46.7677 291.344 46.8717 291.672 47.0797 291.88C47.3037 292.072 47.6717 292.168 48.1837 292.168H49.7437V295H47.6317C44.7997 295 43.3837 293.624 43.3837 290.872V284.464H41.7997V281.704H43.3837V278.416H46.7677V281.704H49.7437V284.464H46.7677ZM64.0404 288.064C64.0404 288.544 64.0084 288.976 63.9444 289.36H54.2244C54.3044 290.32 54.6404 291.072 55.2324 291.616C55.8244 292.16 56.5524 292.432 57.4164 292.432C58.6644 292.432 59.5524 291.896 60.0804 290.824H63.7044C63.3204 292.104 62.5844 293.16 61.4964 293.992C60.4084 294.808 59.0724 295.216 57.4884 295.216C56.2084 295.216 55.0564 294.936 54.0324 294.376C53.0244 293.8 52.2324 292.992 51.6564 291.952C51.0964 290.912 50.8164 289.712 50.8164 288.352C50.8164 286.976 51.0964 285.768 51.6564 284.728C52.2164 283.688 53.0004 282.888 54.0084 282.328C55.0164 281.768 56.1764 281.488 57.4884 281.488C58.7524 281.488 59.8804 281.76 60.8724 282.304C61.8804 282.848 62.6564 283.624 63.2004 284.632C63.7604 285.624 64.0404 286.768 64.0404 288.064ZM60.5604 287.104C60.5444 286.24 60.2324 285.552 59.6244 285.04C59.0164 284.512 58.2724 284.248 57.3924 284.248C56.5604 284.248 55.8564 284.504 55.2804 285.016C54.7204 285.512 54.3764 286.208 54.2484 287.104H60.5604ZM82.5249 281.512C84.1569 281.512 85.4689 282.016 86.4609 283.024C87.4689 284.016 87.9729 285.408 87.9729 287.2V295H84.6129V287.656C84.6129 286.616 84.3489 285.824 83.8209 285.28C83.2929 284.72 82.5729 284.44 81.6609 284.44C80.7489 284.44 80.0209 284.72 79.4769 285.28C78.9489 285.824 78.6849 286.616 78.6849 287.656V295H75.3249V287.656C75.3249 286.616 75.0609 285.824 74.5329 285.28C74.0049 284.72 73.2849 284.44 72.3729 284.44C71.4449 284.44 70.7089 284.72 70.1649 285.28C69.6369 285.824 69.3729 286.616 69.3729 287.656V295H66.0129V281.704H69.3729V283.312C69.8049 282.752 70.3569 282.312 71.0289 281.992C71.7169 281.672 72.4689 281.512 73.2849 281.512C74.3249 281.512 75.2529 281.736 76.0689 282.184C76.8849 282.616 77.5169 283.24 77.9649 284.056C78.3969 283.288 79.0209 282.672 79.8369 282.208C80.6689 281.744 81.5649 281.512 82.5249 281.512ZM103.288 281.512C104.872 281.512 106.152 282.016 107.128 283.024C108.104 284.016 108.592 285.408 108.592 287.2V295H105.232V287.656C105.232 286.6 104.968 285.792 104.44 285.232C103.912 284.656 103.192 284.368 102.28 284.368C101.352 284.368 100.616 284.656 100.072 285.232C99.5441 285.792 99.2801 286.6 99.2801 287.656V295H95.9201V281.704H99.2801V283.36C99.7281 282.784 100.296 282.336 100.984 282.016C101.688 281.68 102.456 281.512 103.288 281.512ZM110.443 288.304C110.443 286.96 110.707 285.768 111.235 284.728C111.779 283.688 112.507 282.888 113.419 282.328C114.347 281.768 115.379 281.488 116.515 281.488C117.507 281.488 118.371 281.688 119.107 282.088C119.859 282.488 120.459 282.992 120.907 283.6V281.704H124.291V295H120.907V293.056C120.475 293.68 119.875 294.2 119.107 294.616C118.355 295.016 117.483 295.216 116.491 295.216C115.371 295.216 114.347 294.928 113.419 294.352C112.507 293.776 111.779 292.968 111.235 291.928C110.707 290.872 110.443 289.664 110.443 288.304ZM120.907 288.352C120.907 287.536 120.747 286.84 120.427 286.264C120.107 285.672 119.675 285.224 119.131 284.92C118.587 284.6 118.003 284.44 117.379 284.44C116.755 284.44 116.179 284.592 115.651 284.896C115.123 285.2 114.691 285.648 114.355 286.24C114.035 286.816 113.875 287.504 113.875 288.304C113.875 289.104 114.035 289.808 114.355 290.416C114.691 291.008 115.123 291.464 115.651 291.784C116.195 292.104 116.771 292.264 117.379 292.264C118.003 292.264 118.587 292.112 119.131 291.808C119.675 291.488 120.107 291.04 120.427 290.464C120.747 289.872 120.907 289.168 120.907 288.352ZM143.605 281.512C145.237 281.512 146.549 282.016 147.541 283.024C148.549 284.016 149.053 285.408 149.053 287.2V295H145.693V287.656C145.693 286.616 145.429 285.824 144.901 285.28C144.373 284.72 143.653 284.44 142.741 284.44C141.829 284.44 141.101 284.72 140.557 285.28C140.029 285.824 139.765 286.616 139.765 287.656V295H136.405V287.656C136.405 286.616 136.141 285.824 135.613 285.28C135.085 284.72 134.365 284.44 133.453 284.44C132.525 284.44 131.789 284.72 131.245 285.28C130.717 285.824 130.453 286.616 130.453 287.656V295H127.093V281.704H130.453V283.312C130.885 282.752 131.437 282.312 132.109 281.992C132.797 281.672 133.549 281.512 134.365 281.512C135.405 281.512 136.333 281.736 137.149 282.184C137.965 282.616 138.597 283.24 139.045 284.056C139.477 283.288 140.101 282.672 140.917 282.208C141.749 281.744 142.645 281.512 143.605 281.512ZM164.121 288.064C164.121 288.544 164.089 288.976 164.025 289.36H154.305C154.385 290.32 154.721 291.072 155.313 291.616C155.905 292.16 156.633 292.432 157.497 292.432C158.745 292.432 159.633 291.896 160.161 290.824H163.785C163.401 292.104 162.665 293.16 161.577 293.992C160.489 294.808 159.153 295.216 157.569 295.216C156.289 295.216 155.137 294.936 154.113 294.376C153.105 293.8 152.313 292.992 151.737 291.952C151.177 290.912 150.897 289.712 150.897 288.352C150.897 286.976 151.177 285.768 151.737 284.728C152.297 283.688 153.081 282.888 154.089 282.328C155.097 281.768 156.257 281.488 157.569 281.488C158.833 281.488 159.961 281.76 160.953 282.304C161.961 282.848 162.737 283.624 163.281 284.632C163.841 285.624 164.121 286.768 164.121 288.064ZM160.641 287.104C160.625 286.24 160.313 285.552 159.705 285.04C159.097 284.512 158.353 284.248 157.473 284.248C156.641 284.248 155.937 284.504 155.361 285.016C154.801 285.512 154.457 286.208 154.329 287.104H160.641Z" fill="#3F3F3F"/>
<path d="M38.024 326.668H42.416V328H36.386V315.454H38.024V326.668ZM48.0975 328.162C47.1735 328.162 46.3335 327.952 45.5775 327.532C44.8335 327.112 44.2455 326.518 43.8135 325.75C43.3935 324.97 43.1835 324.07 43.1835 323.05C43.1835 322.042 43.3995 321.154 43.8315 320.386C44.2755 319.606 44.8755 319.012 45.6315 318.604C46.3875 318.184 47.2335 317.974 48.1695 317.974C49.1055 317.974 49.9515 318.184 50.7075 318.604C51.4635 319.012 52.0575 319.6 52.4895 320.368C52.9335 321.136 53.1555 322.03 53.1555 323.05C53.1555 324.07 52.9275 324.97 52.4715 325.75C52.0275 326.518 51.4215 327.112 50.6535 327.532C49.8855 327.952 49.0335 328.162 48.0975 328.162ZM48.0975 326.722C48.6855 326.722 49.2375 326.584 49.7535 326.308C50.2695 326.032 50.6835 325.618 50.9955 325.066C51.3195 324.514 51.4815 323.842 51.4815 323.05C51.4815 322.258 51.3255 321.586 51.0135 321.034C50.7015 320.482 50.2935 320.074 49.7895 319.81C49.2855 319.534 48.7395 319.396 48.1515 319.396C47.5515 319.396 46.9995 319.534 46.4955 319.81C46.0035 320.074 45.6075 320.482 45.3075 321.034C45.0075 321.586 44.8575 322.258 44.8575 323.05C44.8575 323.854 45.0015 324.532 45.2895 325.084C45.5895 325.636 45.9855 326.05 46.4775 326.326C46.9695 326.59 47.5095 326.722 48.0975 326.722ZM68.0892 318.136L65.0112 328H63.3192L60.9432 320.17L58.5672 328H56.8752L53.7792 318.136H55.4532L57.7212 326.416L60.1692 318.136H61.8432L64.2372 326.434L66.4692 318.136H68.0892ZM77.7717 328.126C76.9437 328.126 76.1997 327.982 75.5397 327.694C74.8917 327.394 74.3817 326.986 74.0097 326.47C73.6377 325.942 73.4457 325.336 73.4337 324.652H75.1797C75.2397 325.24 75.4797 325.738 75.8997 326.146C76.3317 326.542 76.9557 326.74 77.7717 326.74C78.5517 326.74 79.1637 326.548 79.6077 326.164C80.0637 325.768 80.2917 325.264 80.2917 324.652C80.2917 324.172 80.1597 323.782 79.8957 323.482C79.6317 323.182 79.3017 322.954 78.9057 322.798C78.5097 322.642 77.9757 322.474 77.3037 322.294C76.4757 322.078 75.8097 321.862 75.3057 321.646C74.8137 321.43 74.3877 321.094 74.0277 320.638C73.6797 320.17 73.5057 319.546 73.5057 318.766C73.5057 318.082 73.6797 317.476 74.0277 316.948C74.3757 316.42 74.8617 316.012 75.4857 315.724C76.1217 315.436 76.8477 315.292 77.6637 315.292C78.8397 315.292 79.7997 315.586 80.5437 316.174C81.2997 316.762 81.7257 317.542 81.8217 318.514H80.0217C79.9617 318.034 79.7097 317.614 79.2657 317.254C78.8217 316.882 78.2337 316.696 77.5017 316.696C76.8177 316.696 76.2597 316.876 75.8277 317.236C75.3957 317.584 75.1797 318.076 75.1797 318.712C75.1797 319.168 75.3057 319.54 75.5577 319.828C75.8217 320.116 76.1397 320.338 76.5117 320.494C76.8957 320.638 77.4297 320.806 78.1137 320.998C78.9417 321.226 79.6077 321.454 80.1117 321.682C80.6157 321.898 81.0477 322.24 81.4077 322.708C81.7677 323.164 81.9477 323.788 81.9477 324.58C81.9477 325.192 81.7857 325.768 81.4617 326.308C81.1377 326.848 80.6577 327.286 80.0217 327.622C79.3857 327.958 78.6357 328.126 77.7717 328.126ZM85.9961 319.486V325.3C85.9961 325.78 86.0981 326.122 86.3021 326.326C86.5061 326.518 86.8601 326.614 87.3641 326.614H88.5701V328H87.0941C86.1821 328 85.4981 327.79 85.0421 327.37C84.5861 326.95 84.3581 326.26 84.3581 325.3V319.486H83.0801V318.136H84.3581V315.652H85.9961V318.136H88.5701V319.486H85.9961ZM94.4968 328.162C93.5728 328.162 92.7328 327.952 91.9768 327.532C91.2328 327.112 90.6448 326.518 90.2128 325.75C89.7928 324.97 89.5828 324.07 89.5828 323.05C89.5828 322.042 89.7988 321.154 90.2308 320.386C90.6748 319.606 91.2748 319.012 92.0308 318.604C92.7868 318.184 93.6328 317.974 94.5688 317.974C95.5048 317.974 96.3508 318.184 97.1068 318.604C97.8628 319.012 98.4568 319.6 98.8888 320.368C99.3328 321.136 99.5548 322.03 99.5548 323.05C99.5548 324.07 99.3268 324.97 98.8708 325.75C98.4268 326.518 97.8208 327.112 97.0528 327.532C96.2848 327.952 95.4328 328.162 94.4968 328.162ZM94.4968 326.722C95.0848 326.722 95.6368 326.584 96.1528 326.308C96.6688 326.032 97.0828 325.618 97.3948 325.066C97.7188 324.514 97.8808 323.842 97.8808 323.05C97.8808 322.258 97.7248 321.586 97.4128 321.034C97.1008 320.482 96.6928 320.074 96.1888 319.81C95.6848 319.534 95.1388 319.396 94.5508 319.396C93.9508 319.396 93.3988 319.534 92.8948 319.81C92.4028 320.074 92.0068 320.482 91.7068 321.034C91.4068 321.586 91.2568 322.258 91.2568 323.05C91.2568 323.854 91.4008 324.532 91.6888 325.084C91.9888 325.636 92.3848 326.05 92.8768 326.326C93.3688 326.59 93.9088 326.722 94.4968 326.722ZM100.736 323.05C100.736 322.03 100.94 321.142 101.348 320.386C101.756 319.618 102.32 319.024 103.04 318.604C103.772 318.184 104.606 317.974 105.542 317.974C106.754 317.974 107.75 318.268 108.53 318.856C109.322 319.444 109.844 320.26 110.096 321.304H108.332C108.164 320.704 107.834 320.23 107.342 319.882C106.862 319.534 106.262 319.36 105.542 319.36C104.606 319.36 103.85 319.684 103.274 320.332C102.698 320.968 102.41 321.874 102.41 323.05C102.41 324.238 102.698 325.156 103.274 325.804C103.85 326.452 104.606 326.776 105.542 326.776C106.262 326.776 106.862 326.608 107.342 326.272C107.822 325.936 108.152 325.456 108.332 324.832H110.096C109.832 325.84 109.304 326.65 108.512 327.262C107.72 327.862 106.73 328.162 105.542 328.162C104.606 328.162 103.772 327.952 103.04 327.532C102.32 327.112 101.756 326.518 101.348 325.75C100.94 324.982 100.736 324.082 100.736 323.05ZM117.43 328L113.56 323.644V328H111.922V314.68H113.56V322.51L117.358 318.136H119.644L115 323.05L119.662 328H117.43Z" fill="#F44336"/>
<rect x="285" y="269" width="110" height="35" rx="17.5" fill="#F44336"/>
<path d="M315.864 292L313.4 287.648H312.344V292H310.104V280.832H314.296C315.16 280.832 315.896 280.987 316.504 281.296C317.112 281.595 317.565 282.005 317.864 282.528C318.173 283.04 318.328 283.616 318.328 284.256C318.328 284.992 318.115 285.659 317.688 286.256C317.261 286.843 316.627 287.248 315.784 287.472L318.456 292H315.864ZM312.344 285.968H314.216C314.824 285.968 315.277 285.824 315.576 285.536C315.875 285.237 316.024 284.827 316.024 284.304C316.024 283.792 315.875 283.397 315.576 283.12C315.277 282.832 314.824 282.688 314.216 282.688H312.344V285.968ZM328.114 287.376C328.114 287.696 328.093 287.984 328.05 288.24H321.57C321.623 288.88 321.847 289.381 322.242 289.744C322.637 290.107 323.122 290.288 323.698 290.288C324.53 290.288 325.122 289.931 325.474 289.216H327.89C327.634 290.069 327.143 290.773 326.418 291.328C325.693 291.872 324.802 292.144 323.746 292.144C322.893 292.144 322.125 291.957 321.442 291.584C320.77 291.2 320.242 290.661 319.858 289.968C319.485 289.275 319.298 288.475 319.298 287.568C319.298 286.651 319.485 285.845 319.858 285.152C320.231 284.459 320.754 283.925 321.426 283.552C322.098 283.179 322.871 282.992 323.746 282.992C324.589 282.992 325.341 283.173 326.002 283.536C326.674 283.899 327.191 284.416 327.554 285.088C327.927 285.749 328.114 286.512 328.114 287.376ZM325.794 286.736C325.783 286.16 325.575 285.701 325.17 285.36C324.765 285.008 324.269 284.832 323.682 284.832C323.127 284.832 322.658 285.003 322.274 285.344C321.901 285.675 321.671 286.139 321.586 286.736H325.794ZM332.661 292.144C331.936 292.144 331.285 292.016 330.709 291.76C330.133 291.493 329.674 291.136 329.333 290.688C329.002 290.24 328.821 289.744 328.789 289.2H331.045C331.088 289.541 331.253 289.824 331.541 290.048C331.84 290.272 332.208 290.384 332.645 290.384C333.072 290.384 333.402 290.299 333.637 290.128C333.882 289.957 334.005 289.739 334.005 289.472C334.005 289.184 333.856 288.971 333.557 288.832C333.269 288.683 332.805 288.523 332.165 288.352C331.504 288.192 330.96 288.027 330.533 287.856C330.117 287.685 329.754 287.424 329.445 287.072C329.146 286.72 328.997 286.245 328.997 285.648C328.997 285.157 329.136 284.709 329.413 284.304C329.701 283.899 330.106 283.579 330.629 283.344C331.162 283.109 331.786 282.992 332.501 282.992C333.557 282.992 334.4 283.259 335.029 283.792C335.658 284.315 336.005 285.024 336.069 285.92H333.925C333.893 285.568 333.744 285.291 333.477 285.088C333.221 284.875 332.874 284.768 332.437 284.768C332.032 284.768 331.717 284.843 331.493 284.992C331.28 285.141 331.173 285.349 331.173 285.616C331.173 285.915 331.322 286.144 331.621 286.304C331.92 286.453 332.384 286.608 333.013 286.768C333.653 286.928 334.181 287.093 334.597 287.264C335.013 287.435 335.37 287.701 335.669 288.064C335.978 288.416 336.138 288.885 336.149 289.472C336.149 289.984 336.005 290.443 335.717 290.848C335.44 291.253 335.034 291.573 334.501 291.808C333.978 292.032 333.365 292.144 332.661 292.144ZM340.116 284.976V289.264C340.116 289.563 340.185 289.781 340.324 289.92C340.473 290.048 340.718 290.112 341.06 290.112H342.1V292H340.692C338.804 292 337.86 291.083 337.86 289.248V284.976H336.804V283.136H337.86V280.944H340.116V283.136H342.1V284.976H340.116ZM347.167 292.144C346.314 292.144 345.546 291.957 344.863 291.584C344.18 291.2 343.642 290.661 343.247 289.968C342.863 289.275 342.671 288.475 342.671 287.568C342.671 286.661 342.868 285.861 343.263 285.168C343.668 284.475 344.218 283.941 344.911 283.568C345.604 283.184 346.378 282.992 347.231 282.992C348.084 282.992 348.858 283.184 349.551 283.568C350.244 283.941 350.788 284.475 351.183 285.168C351.588 285.861 351.791 286.661 351.791 287.568C351.791 288.475 351.583 289.275 351.167 289.968C350.762 290.661 350.207 291.2 349.503 291.584C348.81 291.957 348.031 292.144 347.167 292.144ZM347.167 290.192C347.572 290.192 347.951 290.096 348.303 289.904C348.666 289.701 348.954 289.403 349.167 289.008C349.38 288.613 349.487 288.133 349.487 287.568C349.487 286.725 349.263 286.08 348.815 285.632C348.378 285.173 347.839 284.944 347.199 284.944C346.559 284.944 346.02 285.173 345.583 285.632C345.156 286.08 344.943 286.725 344.943 287.568C344.943 288.411 345.151 289.061 345.567 289.52C345.994 289.968 346.527 290.192 347.167 290.192ZM352.378 287.568C352.378 286.651 352.565 285.851 352.938 285.168C353.311 284.475 353.829 283.941 354.49 283.568C355.151 283.184 355.909 282.992 356.762 282.992C357.861 282.992 358.767 283.269 359.482 283.824C360.207 284.368 360.693 285.136 360.938 286.128H358.522C358.394 285.744 358.175 285.445 357.866 285.232C357.567 285.008 357.194 284.896 356.746 284.896C356.106 284.896 355.599 285.131 355.226 285.6C354.853 286.059 354.666 286.715 354.666 287.568C354.666 288.411 354.853 289.067 355.226 289.536C355.599 289.995 356.106 290.224 356.746 290.224C357.653 290.224 358.245 289.819 358.522 289.008H360.938C360.693 289.968 360.207 290.731 359.482 291.296C358.757 291.861 357.85 292.144 356.762 292.144C355.909 292.144 355.151 291.957 354.49 291.584C353.829 291.2 353.311 290.667 352.938 289.984C352.565 289.291 352.378 288.485 352.378 287.568ZM367.347 292L364.339 288.224V292H362.099V280.16H364.339V286.896L367.315 283.136H370.227L366.323 287.584L370.259 292H367.347Z" fill="white"/>
</g>
<defs>
<linearGradient id="paint0_linear_1_570" x1="215" y1="0" x2="215" y2="331.5" gradientUnits="userSpaceOnUse">
<stop offset="0.541956" stop-color="white"/>
<stop offset="1" stop-color="white" stop-opacity="0"/>
</linearGradient>
</defs>
</svg>
