<svg width="26" height="21" viewBox="0 0 26 21" fill="none" xmlns="http://www.w3.org/2000/svg">
<path fill-rule="evenodd" clip-rule="evenodd" d="M2.06222 8.24887C0.921124 8.24887 0 9.16999 0 10.3111C0 11.4522 0.921124 12.3733 2.06222 12.3733C3.20331 12.3733 4.12444 11.4522 4.12444 10.3111C4.12444 9.16999 3.20331 8.24887 2.06222 8.24887ZM2.06222 0C0.921124 0 0 0.921124 0 2.06222C0 3.20331 0.921124 4.12444 2.06222 4.12444C3.20331 4.12444 4.12444 3.20331 4.12444 2.06222C4.12444 0.921124 3.20331 0 2.06222 0ZM2.06222 16.7315C1.04486 16.7315 0.233718 17.5563 0.233718 18.56C0.233718 19.5636 1.05861 20.3885 2.06222 20.3885C3.06583 20.3885 3.89072 19.5636 3.89072 18.56C3.89072 17.5563 3.07958 16.7315 2.06222 16.7315ZM6.18665 19.9348H25.434V17.1851H6.18665V19.9348ZM6.18665 11.6859H25.434V8.93628H6.18665V11.6859ZM6.18665 0.687406V3.43703H25.434V0.687406H6.18665Z" fill="#9E9E9E"/>
</svg>
