<svg width="55" height="55" viewBox="0 0 55 55" fill="none" xmlns="http://www.w3.org/2000/svg">
<path fill-rule="evenodd" clip-rule="evenodd" d="M33.3875 27.9844C33.3875 26.4931 34.5978 25.2828 36.0891 25.2828C37.5803 25.2828 38.7906 26.4931 38.7906 27.9844C38.7906 29.4756 37.5803 30.6859 36.0891 30.6859C34.5978 30.6859 33.3875 29.4756 33.3875 27.9844ZM35.4137 33.3875L44.1937 44.1937H11.775L23.9807 27.9844L31.6423 38.7906L35.4137 33.3875ZM49.5969 46.8953C49.5969 48.3866 48.9269 49.5969 47.4357 49.5969H9.61374C8.12248 49.5969 6.37187 48.3866 6.37187 46.8953V9.07344C6.37187 7.58217 8.12248 6.37187 9.61374 6.37187H20.42C21.9113 6.37187 22.5812 7.58217 22.5812 9.07344V11.775C22.5812 14.7575 25.5395 17.1781 28.5247 17.1781H47.4357C48.9269 17.1781 49.5969 18.3884 49.5969 19.8797V46.8953ZM50.1372 11.775H31.2262C29.735 11.775 27.9844 10.5647 27.9844 9.07344V6.37187C27.9844 3.38665 26.1068 0.96875 23.1216 0.96875H6.91218C3.92695 0.96875 0.96875 3.38665 0.96875 6.37187V49.5969C0.96875 52.5794 3.92695 55 6.91218 55H50.1372C53.1224 55 55 52.5794 55 49.5969V17.1781C55 14.1929 53.1224 11.775 50.1372 11.775Z" fill="#D1D1D1"/>
</svg>
