<svg width="55" height="55" viewBox="0 0 55 55" fill="none" xmlns="http://www.w3.org/2000/svg">
<path fill-rule="evenodd" clip-rule="evenodd" d="M32.4187 27.3341C32.4187 25.844 33.629 24.6346 35.1203 24.6346C36.6116 24.6346 37.8219 25.844 37.8219 27.3341C37.8219 28.8243 36.6116 30.0337 35.1203 30.0337C33.629 30.0337 32.4187 28.8243 32.4187 27.3341ZM34.4449 32.7332L43.225 43.5314H10.8062L23.0119 27.3341L30.6735 38.1323L34.4449 32.7332ZM48.6281 46.231C48.6281 47.7211 47.9582 48.9305 46.4669 48.9305H8.64499C7.15373 48.9305 5.40312 47.7211 5.40312 46.231V8.43729C5.40312 6.94714 7.15373 5.73774 8.64499 5.73774H19.4512C20.9425 5.73774 21.6125 6.94714 21.6125 8.43729V11.1368C21.6125 14.1171 24.5707 16.5359 27.5559 16.5359H46.4669C47.9582 16.5359 48.6281 17.7453 48.6281 19.2355V46.231ZM49.1685 11.1368H30.2575C28.7662 11.1368 27.0156 9.92744 27.0156 8.43729V5.73774C27.0156 2.75474 25.138 0.338646 22.1528 0.338646H5.94343C2.9582 0.338646 0 2.75474 0 5.73774V48.9305C0 51.9108 2.9582 54.3296 5.94343 54.3296H49.1685C52.1537 54.3296 54.0312 51.9108 54.0312 48.9305V16.5359C54.0312 13.5529 52.1537 11.1368 49.1685 11.1368Z" fill="#D1D1D1"/>
</svg>
