<svg width="55" height="55" viewBox="0 0 55 55" fill="none" xmlns="http://www.w3.org/2000/svg">
<path fill-rule="evenodd" clip-rule="evenodd" d="M33.3875 27.3341C33.3875 25.844 34.5978 24.6346 36.0891 24.6346C37.5803 24.6346 38.7906 25.844 38.7906 27.3341C38.7906 28.8243 37.5803 30.0337 36.0891 30.0337C34.5978 30.0337 33.3875 28.8243 33.3875 27.3341ZM35.4137 32.7332L44.1937 43.5314H11.775L23.9807 27.3341L31.6423 38.1323L35.4137 32.7332ZM49.5969 46.231C49.5969 47.7211 48.9269 48.9305 47.4357 48.9305H9.61374C8.12248 48.9305 6.37187 47.7211 6.37187 46.231V8.43729C6.37187 6.94714 8.12248 5.73774 9.61374 5.73774H20.42C21.9113 5.73774 22.5812 6.94714 22.5812 8.43729V11.1368C22.5812 14.1171 25.5395 16.5359 28.5247 16.5359H47.4357C48.9269 16.5359 49.5969 17.7453 49.5969 19.2355V46.231ZM50.1372 11.1368H31.2262C29.735 11.1368 27.9844 9.92744 27.9844 8.43729V5.73774C27.9844 2.75474 26.1068 0.338646 23.1216 0.338646H6.91218C3.92695 0.338646 0.96875 2.75474 0.96875 5.73774V48.9305C0.96875 51.9108 3.92695 54.3296 6.91218 54.3296H50.1372C53.1224 54.3296 55 51.9108 55 48.9305V16.5359C55 13.5529 53.1224 11.1368 50.1372 11.1368Z" fill="#D1D1D1"/>
</svg>
