<svg width="55" height="55" viewBox="0 0 55 55" fill="none" xmlns="http://www.w3.org/2000/svg">
<path fill-rule="evenodd" clip-rule="evenodd" d="M32.4187 27.9844C32.4187 26.4931 33.629 25.2828 35.1203 25.2828C36.6116 25.2828 37.8219 26.4931 37.8219 27.9844C37.8219 29.4756 36.6116 30.6859 35.1203 30.6859C33.629 30.6859 32.4187 29.4756 32.4187 27.9844ZM34.4449 33.3875L43.225 44.1937H10.8062L23.0119 27.9844L30.6736 38.7906L34.4449 33.3875ZM48.6281 46.8953C48.6281 48.3866 47.9582 49.5969 46.4669 49.5969H8.64499C7.15373 49.5969 5.40312 48.3866 5.40312 46.8953V9.07344C5.40312 7.58217 7.15373 6.37187 8.64499 6.37187H19.4512C20.9425 6.37187 21.6125 7.58217 21.6125 9.07344V11.775C21.6125 14.7575 24.5707 17.1781 27.5559 17.1781H46.4669C47.9582 17.1781 48.6281 18.3884 48.6281 19.8797V46.8953ZM49.1685 11.775H30.2575C28.7662 11.775 27.0156 10.5647 27.0156 9.07344V6.37187C27.0156 3.38665 25.138 0.96875 22.1528 0.96875H5.94343C2.9582 0.96875 0 3.38665 0 6.37187V49.5969C0 52.5794 2.9582 55 5.94343 55H49.1685C52.1537 55 54.0312 52.5794 54.0312 49.5969V17.1781C54.0312 14.1929 52.1537 11.775 49.1685 11.775Z" fill="#D1D1D1"/>
</svg>
