<svg width="24" height="31" viewBox="0 0 24 31" fill="none" xmlns="http://www.w3.org/2000/svg">
<path fill-rule="evenodd" clip-rule="evenodd" d="M11.625 14.5312C10.0198 14.5312 8.71875 13.2302 8.71875 11.625C8.71875 10.0198 10.0198 8.71875 11.625 8.71875C13.2302 8.71875 14.5312 10.0198 14.5312 11.625C14.5312 13.2302 13.2302 14.5312 11.625 14.5312ZM11.625 6.78125C8.95028 6.78125 6.78125 8.94931 6.78125 11.625C6.78125 14.3007 8.95028 16.4687 11.625 16.4687C14.2997 16.4687 16.4688 14.3007 16.4688 11.625C16.4688 8.94931 14.2997 6.78125 11.625 6.78125ZM11.625 28.0937C10.014 28.1025 1.9375 15.6753 1.9375 11.625C1.9375 6.27556 6.27459 1.9375 11.625 1.9375C16.9754 1.9375 21.3125 6.27556 21.3125 11.625C21.3125 15.6211 13.2108 28.1025 11.625 28.0937ZM11.625 0C5.20509 0 0 5.20509 0 11.625C0 16.4862 9.69234 31.0107 11.625 31C13.5276 31.0107 23.25 16.4203 23.25 11.625C23.25 5.20509 18.0449 0 11.625 0Z" fill="#9E9E9E"/>
</svg>
