<svg width="1480" height="141" viewBox="0 0 1480 141" fill="none" xmlns="http://www.w3.org/2000/svg">
<line x1="140" y1="59.5" x2="1340" y2="59.5001" stroke="#D9D9D9"/>
<g filter="url(#filter0_d_1_1291)">
<circle cx="140" cy="60" r="40" fill="white"/>
<circle cx="140" cy="60" r="39.5" stroke="#FF6F3C"/>
</g>
<path fill-rule="evenodd" clip-rule="evenodd" d="M140 44C148.837 44 156 51.1635 156 60C156 68.8366 148.837 76 140 76C131.163 76 124 68.8366 124 60C124 51.1635 131.163 44 140 44ZM143.73 55.7858C143.254 55.2931 142.6 55.1201 141.91 55.1282C140.989 55.1392 140.006 55.4726 139.303 55.8001C137.621 56.5839 136.33 57.9717 135.255 59.4553C135.061 59.7224 134.96 60.0378 135.301 60.2836C135.591 60.4933 135.8 60.3057 135.976 60.1187L135.987 60.1063C136 60.092 136.014 60.0777 136.027 60.0636C136.223 59.8507 136.413 59.6303 136.603 59.4096L136.651 59.3545L136.698 59.2993C137.269 58.6379 137.849 57.9859 138.617 57.5436C139.074 57.2806 139.403 57.6868 139.332 58.143C139.29 58.4165 139.146 58.6742 139.046 58.9387C138.688 59.8781 138.326 60.8155 137.965 61.7535C137.569 62.7818 137.175 63.8106 136.791 64.8435L136.758 64.9331L136.724 65.0227C136.386 65.9334 136.052 66.8372 135.832 67.7876C135.656 68.5475 135.418 69.4694 135.759 70.2159C135.956 70.6459 136.372 70.9415 136.835 71.0087C137.467 71.1004 138.15 71.1109 138.769 70.9702C139.089 70.8974 139.404 70.8024 139.712 70.6868C140.656 70.3318 141.515 69.7844 142.29 69.1409C143.077 68.4845 143.772 67.708 144.405 66.9027C144.608 66.6439 144.855 66.3576 144.924 66.0261C144.989 65.7151 144.712 65.2711 144.352 65.4515C144.162 65.5468 144.02 65.7827 143.881 65.9394C143.708 66.136 143.531 66.3298 143.352 66.5214C142.993 66.9045 142.626 67.2791 142.258 67.6519C142.032 67.8801 141.752 68.0729 141.463 68.2146C141.104 68.3914 140.817 68.1953 140.856 67.7969C140.892 67.431 140.981 67.0611 141.107 66.7148C141.612 65.3202 142.126 63.9292 142.637 62.5367C142.957 61.6664 143.274 60.7957 143.587 59.9231C143.88 59.1076 144.129 58.2987 144.234 57.4347C144.307 56.8396 144.153 56.224 143.73 55.7858ZM144.792 49.0942C143.27 48.5019 141.455 49.5127 141.149 51.1234C140.928 52.2865 141.371 53.3106 142.282 53.7427C144.045 54.5787 146.154 53.2435 146.154 51.2913C146.154 50.208 145.677 49.4385 144.792 49.0942Z" fill="#FF6F3C"/>
<circle cx="340" cy="60" r="39.5" fill="white" stroke="#D9D9D9"/>
<path d="M352.526 46.4231H349.673V45.282C349.673 43.9984 348.675 43 347.391 43C346.107 43 345.109 43.9984 345.109 45.282V46.4231H334.84V45.282C334.84 43.9984 333.841 43 332.558 43C331.274 43 330.276 43.9984 330.276 45.282V46.4231H327.423C325.569 46.4231 324 47.992 324 49.8461V50.9872C324 51.629 324.499 52.1282 325.141 52.1282H354.808C355.449 52.1282 355.949 51.629 355.949 50.9872V49.8461C355.949 47.992 354.38 46.4231 352.526 46.4231Z" fill="#9E9E9E"/>
<path d="M354.808 55.5513H325.141C324.499 55.5513 324 56.0505 324 56.6923V73.8076C324 75.6618 325.569 77.2307 327.423 77.2307H352.526C354.38 77.2307 355.949 75.6618 355.949 73.8076V56.6923C355.949 56.0505 355.449 55.5513 354.808 55.5513ZM339.974 74.8773C335.268 74.8773 331.488 71.0264 331.488 66.391C331.488 61.6843 335.339 57.9046 339.974 57.9046C344.61 57.9046 348.461 61.7556 348.461 66.391C348.461 71.0977 344.681 74.8773 339.974 74.8773Z" fill="#9E9E9E"/>
<path d="M340.829 66.0342V62.3972C340.829 62.1119 340.543 61.8267 340.258 61.8267H339.688C339.402 61.8267 339.117 62.1119 339.117 62.3972V66.3908C339.117 66.6047 339.189 66.8186 339.402 66.9613L342.112 69.6712C342.326 69.8851 342.683 69.8851 342.897 69.6712L343.325 69.2433C343.539 69.0294 343.539 68.6728 343.325 68.4589L340.829 66.0342Z" fill="#9E9E9E"/>
<circle cx="540" cy="60" r="39.5" fill="white" stroke="#D9D9D9"/>
<path fill-rule="evenodd" clip-rule="evenodd" d="M540 77C543.09 77 554 63.5247 554 56.2222C554 48.9198 547.732 43 540 43C532.268 43 526 48.9198 526 56.2222C526 63.5247 536.91 77 540 77ZM540 61.8889C543.314 61.8889 546 59.3518 546 56.2222C546 53.0926 543.314 50.5556 540 50.5556C536.686 50.5556 534 53.0926 534 56.2222C534 59.3518 536.686 61.8889 540 61.8889Z" fill="#9E9E9E"/>
<circle cx="740" cy="60" r="39.5" fill="white" stroke="#D9D9D9"/>
<path d="M744.043 59.0812H742.662L736.972 66.2761L731.283 59.0812H729.902C727.199 59.0812 725 61.2802 725 63.9831V77.9999H739.502V64.0021H739.869H748.945V63.9831C748.945 61.2803 746.746 59.0812 744.043 59.0812ZM733.489 66.2074H727.579V64.0021H733.489V66.2074Z" fill="#9E9E9E"/>
<path d="M736.977 59.9368C736.131 59.9368 735.31 59.8274 734.527 59.6226L736.977 62.7207L739.427 59.6226C738.644 59.8274 737.823 59.9368 736.977 59.9368Z" fill="#9E9E9E"/>
<path d="M741.567 41H732.386C730.793 41 729.496 42.2965 729.496 43.89V45.1449H744.457V43.89C744.457 42.2965 743.16 41 741.567 41Z" fill="#9E9E9E"/>
<path d="M729.496 47.3499V50.2512C729.496 54.3758 732.852 57.7315 736.976 57.7315C741.101 57.7315 744.457 54.3758 744.457 50.2512V47.3499H729.496Z" fill="#9E9E9E"/>
<path d="M752.756 66.2078V69.6074H750.551V66.2078H746.644V69.6074H744.439V66.2078H742.082H741.715V78.0002H755.48V66.2078H752.756Z" fill="#9E9E9E"/>
<path d="M746.67 45.145H744.465V47.3503H746.67H750.187V45.145H746.67Z" fill="#9E9E9E"/>
<circle cx="940" cy="60" r="39.5" fill="white" stroke="#D9D9D9"/>
<path fill-rule="evenodd" clip-rule="evenodd" d="M939.857 45.0523C940.066 44.9826 940.292 44.9826 940.501 45.0523L955.554 50.069C955.756 50.1272 955.94 50.2479 956.076 50.422L960.153 55.6557C960.357 55.9166 960.421 56.2599 960.325 56.5765C960.259 56.7932 960.125 56.9789 959.946 57.108L944.26 62.3323L940.982 58.1254C940.789 57.8775 940.492 57.7325 940.178 57.7328C939.864 57.7331 939.567 57.8785 939.374 58.1267L936.114 62.3256L920.384 57.0782C920.224 56.951 920.104 56.7771 920.044 56.5765C919.948 56.2599 920.012 55.9166 920.215 55.6557L924.219 50.5161C924.342 50.3161 924.533 50.1594 924.766 50.0817L939.857 45.0523ZM952.048 51.048L940.183 55.0023L928.314 51.0466L940.179 47.0923L952.048 51.048Z" fill="#9E9E9E"/>
<path d="M944.222 64.4927L956.289 60.4736L956.289 67.1675C956.289 68.4827 955.447 69.6503 954.2 70.0662L941.199 74.3997V61.7163L943.097 64.1523C943.362 64.4927 943.813 64.629 944.222 64.4927Z" fill="#9E9E9E"/>
<path d="M939.165 61.7244V74.3997L926.164 70.0662C924.916 69.6503 924.075 68.4826 924.075 67.1674L924.074 60.4553L936.159 64.4863C936.569 64.6231 937.02 64.4862 937.285 64.1448L939.165 61.7244Z" fill="#9E9E9E"/>
<circle cx="1140" cy="60" r="39.5" fill="white" stroke="#D9D9D9"/>
<path fill-rule="evenodd" clip-rule="evenodd" d="M1152.73 63.2633C1150.59 62.4692 1148.38 61.9122 1146.12 61.5522H1146.02C1148.66 59.8391 1150.4 56.9337 1150.4 53.6471V53.1812C1149.85 53.52 1149.15 53.9647 1148.16 54.2633C1147.85 58.0539 1144.53 61.0588 1140.5 61.0588C1136.61 61.0588 1133.37 58.2656 1132.89 54.6424C1132.82 54.3247 1132.8 53.988 1132.8 53.6471V52.5035C1132.83 52.5014 1132.84 52.4951 1132.87 52.4908C1133.08 52.457 1133.26 52.4125 1133.44 52.3659C1133.6 52.3278 1133.76 52.2875 1133.9 52.241C1134.05 52.1901 1134.2 52.1393 1134.34 52.08C1134.5 52.0144 1134.64 51.9466 1134.79 51.8746C1134.89 51.8217 1134.99 51.7751 1135.08 51.7221C1135.22 51.6447 1135.35 51.565 1135.48 51.4828C1135.55 51.4405 1135.63 51.3981 1135.69 51.36C1135.78 51.3007 1135.88 51.2478 1135.97 51.1927C1136.64 50.7882 1137.28 50.4727 1138.47 50.4706H1138.48C1139.51 50.4706 1140.13 50.6972 1140.71 51.0148C1140.9 51.1207 1141.09 51.2393 1141.29 51.3621C1141.97 51.7899 1142.73 52.2537 1143.89 52.4675C1143.91 52.4697 1143.92 52.476 1143.93 52.4781C1144.33 52.548 1144.77 52.5882 1145.27 52.5882C1145.28 52.5882 1145.29 52.5861 1145.3 52.5861C1147.31 52.5819 1148.36 51.9339 1149.28 51.36L1150.37 50.7141V50.712L1150.38 50.7035L1150.3 50.3033L1150.26 50.0132C1150.15 49.3673 1149.96 48.749 1149.73 48.1475C1149.25 46.896 1148.51 45.7482 1147.5 44.7762C1146.97 44.2659 1146.37 43.8212 1145.76 43.4612C1144.2 42.5104 1142.37 42 1140.5 42C1136.21 42 1132.54 44.6471 1131.17 48.353C1130.8 49.3482 1130.6 50.4071 1130.6 51.5294V53.6471C1130.6 54.0071 1130.62 54.3671 1130.67 54.7059C1131 57.5626 1132.65 60.0149 1135.01 61.5417H1134.91C1132.73 61.8869 1130.58 62.4226 1128.51 63.1765C1125.77 64.176 1124 66.6156 1124 69.396V73.2967L1124.52 73.6059C1127.88 75.6113 1133.37 78 1140.5 78C1144.43 78 1150.4 77.2398 1156.48 73.6059L1157 73.2967V69.396C1157 66.6791 1155.28 64.2162 1152.73 63.2633Z" fill="#9E9E9E"/>
<circle cx="1340" cy="60" r="39.5" fill="white" stroke="#D9D9D9"/>
<path d="M1323 49C1323 46.2386 1325.24 44 1328 44H1345.55C1347.04 44 1348.24 45.2004 1348.24 46.6811V47.2767C1348.24 48.7561 1346.8 49.8235 1345.32 49.8235V49.8235C1339.43 49.8235 1334.65 54.6036 1334.65 60.5C1334.65 66.3964 1339.43 71.1765 1345.32 71.1765V71.1765C1346.8 71.1765 1348.24 72.244 1348.24 73.7233V74.3191C1348.24 75.7997 1347.04 77 1345.55 77H1328C1325.24 77 1323 74.7614 1323 72V49Z" fill="#9E9E9E"/>
<path fill-rule="evenodd" clip-rule="evenodd" d="M1345.32 69.2355C1347.38 69.2355 1349.28 68.5207 1350.77 67.3254L1356.28 72.8332C1356.66 73.2124 1357.27 73.2126 1357.65 72.8339C1358.03 72.455 1358.03 71.8404 1357.65 71.4612L1352.15 65.9529C1353.34 64.4584 1354.06 62.5626 1354.06 60.5001C1354.06 55.6758 1350.15 51.7648 1345.32 51.7648C1340.5 51.7648 1336.59 55.6758 1336.59 60.5001C1336.59 65.3245 1340.5 69.2355 1345.32 69.2355ZM1345.32 67.2943C1349.07 67.2943 1352.12 64.2524 1352.12 60.5001C1352.12 56.7478 1349.07 53.706 1345.32 53.706C1341.57 53.706 1338.53 56.7478 1338.53 60.5001C1338.53 64.2524 1341.57 67.2943 1345.32 67.2943Z" fill="#9E9E9E"/>
<line x1="4.37114e-08" y1="139.5" x2="1480" y2="139.5" stroke="#D9D9D9"/>
<path d="M140.423 123L153.847 140.25H127L140.423 123Z" fill="#1A3E59"/>
<defs>
<filter id="filter0_d_1_1291" x="70" y="0" width="140" height="140" filterUnits="userSpaceOnUse" color-interpolation-filters="sRGB">
<feFlood flood-opacity="0" result="BackgroundImageFix"/>
<feColorMatrix in="SourceAlpha" type="matrix" values="0 0 0 0 0 0 0 0 0 0 0 0 0 0 0 0 0 0 127 0" result="hardAlpha"/>
<feOffset dy="10"/>
<feGaussianBlur stdDeviation="15"/>
<feComposite in2="hardAlpha" operator="out"/>
<feColorMatrix type="matrix" values="0 0 0 0 1 0 0 0 0 0.435294 0 0 0 0 0.235294 0 0 0 0.2 0"/>
<feBlend mode="normal" in2="BackgroundImageFix" result="effect1_dropShadow_1_1291"/>
<feBlend mode="normal" in="SourceGraphic" in2="effect1_dropShadow_1_1291" result="shape"/>
</filter>
</defs>
</svg>
