<svg width="26" height="24" viewBox="0 0 26 24" fill="none" xmlns="http://www.w3.org/2000/svg">
<path d="M21.4 1H4.6C2.90295 1 2.05442 1 1.52721 1.5038C1 2.0076 1 2.81844 1 4.44014V5.28325C1 6.55172 1 7.18595 1.31152 7.71173C1.62304 8.2375 2.19216 8.56381 3.33042 9.21644L6.82605 11.2207C7.58975 11.6585 7.9716 11.8775 8.24501 12.1193C8.81439 12.6227 9.1649 13.2143 9.32373 13.9399C9.4 14.2882 9.4 14.696 9.4 15.5113V18.774C9.4 19.8858 9.4 20.4415 9.7023 20.8749C10.0046 21.3082 10.5415 21.5219 11.6154 21.9496C13.8698 22.8472 14.9969 23.296 15.7985 22.7853C16.6 22.2747 16.6 21.1078 16.6 18.774V15.5113C16.6 14.696 16.6 14.2882 16.6763 13.9399C16.8351 13.2143 17.1856 12.6227 17.755 12.1193C18.0284 11.8775 18.4102 11.6585 19.174 11.2207L22.6696 9.21644C23.8078 8.56381 24.377 8.2375 24.6885 7.71173C25 7.18595 25 6.55172 25 5.28325V4.44014C25 2.81844 25 2.0076 24.4728 1.5038C23.9456 1 23.097 1 21.4 1Z" stroke="#9E9E9E" stroke-width="2"/>
</svg>
