<svg width="33" height="25" viewBox="0 0 33 25" fill="none" xmlns="http://www.w3.org/2000/svg">
<path d="M31.9993 19.1729C31.8484 19.4819 31.599 19.5625 31.276 19.5601C29.7429 19.5484 28.209 19.5547 26.6758 19.5547H26.3134C26.3134 19.6955 26.3134 19.8066 26.3134 19.9176C26.3134 21.1559 26.3142 22.395 26.3134 23.6333C26.3134 24.1848 26.1443 24.3561 25.6045 24.3561C19.541 24.3561 13.4774 24.3561 7.41391 24.3561C6.85282 24.3561 6.69056 24.1903 6.68981 23.6169C6.68905 22.3887 6.68981 21.1606 6.68981 19.9325C6.68981 19.8199 6.68981 19.708 6.68981 19.5547C6.55636 19.5547 6.44945 19.5547 6.34178 19.5547C4.79804 19.5547 3.25429 19.5547 1.71131 19.5547C1.16993 19.5547 1.00464 19.3849 1.00388 18.8311C1.00237 17.9049 0.995541 16.978 1.00464 16.0518C1.038 12.7296 2.45588 10.2624 5.29922 8.68226C5.3523 8.65253 5.40462 8.62203 5.42585 8.61029C5.13241 8.13782 4.79197 7.69272 4.55692 7.19521C3.1997 4.32359 5.03005 0.853557 8.10238 0.427234C9.16162 0.280172 10.1466 0.492942 11.0746 1.02174C11.3802 1.19618 11.4825 1.47231 11.3552 1.74766C11.224 2.03083 10.9237 2.138 10.6106 1.96513C9.83947 1.54037 9.03803 1.35576 8.16228 1.49109C6.50025 1.74766 5.19989 3.2746 5.13696 5.07298C5.0763 6.81191 6.31828 8.45775 7.95073 8.80272C8.52243 8.92319 9.0911 8.92006 9.65977 8.7816C10.0396 8.6893 10.3141 8.82932 10.3854 9.13596C10.4627 9.46763 10.2747 9.71404 9.88572 9.81104C8.77492 10.0872 7.70962 9.96983 6.68147 9.44729C6.55863 9.38471 6.36225 9.38002 6.23639 9.43634C3.64629 10.5995 2.24206 12.6467 2.05402 15.5496C1.99185 16.5117 2.04417 17.4809 2.04417 18.4689H6.73151C7.24103 14.7274 9.14342 12.0326 12.4296 10.3359C11.0996 8.82384 10.5552 7.06223 10.9419 5.04952C11.2081 3.66416 11.8958 2.51113 12.9831 1.64675C15.3146 -0.207949 18.4612 -0.0100408 20.5122 2.09029C22.5321 4.15932 22.9022 7.76547 20.5782 10.3328C23.8477 12.0185 25.7432 14.7282 26.2702 18.4736H30.9234C30.9333 18.4627 30.9583 18.447 30.9575 18.4322C30.9295 16.8982 31.1342 15.347 30.6777 13.8435C30.0401 11.7408 28.7299 10.2624 26.7539 9.42461C26.6349 9.37376 26.4514 9.38237 26.3354 9.44104C25.2981 9.96983 24.2237 10.0895 23.1023 9.80869C22.7316 9.7156 22.5496 9.47624 22.6148 9.15161C22.677 8.84027 22.9545 8.69399 23.3283 8.77535C25.3603 9.21497 27.1437 8.16754 27.7199 6.19707C28.1256 4.81015 27.6775 3.23706 26.5598 2.31166C25.3747 1.32994 24.066 1.17897 22.6754 1.82041C22.5473 1.87986 22.4245 1.95496 22.2933 2.00502C22.0302 2.10671 21.7716 2.00346 21.6518 1.76174C21.5313 1.51846 21.5859 1.21808 21.8406 1.0851C22.2425 0.874678 22.655 0.65956 23.0879 0.543788C25.1374 -0.00534728 27.1581 0.872331 28.259 2.75441C29.2963 4.52854 29.0589 6.80331 27.6699 8.39674C27.6236 8.44993 27.5812 8.50704 27.5539 8.54067C28.0854 8.90754 28.6389 9.23061 29.1264 9.63738C30.7612 11.0032 31.6938 12.7812 31.944 14.9379C31.9531 15.0184 31.9804 15.0967 31.9986 15.1757V19.1729H31.9993ZM25.2701 23.2782C25.2746 23.1905 25.2807 23.1201 25.2807 23.0497C25.2807 21.8639 25.3194 20.6764 25.2731 19.4921C25.12 15.6161 23.3222 12.8587 19.9094 11.2206C19.7244 11.1322 19.5827 11.1338 19.4121 11.2472C18.7312 11.6986 17.9805 11.956 17.1783 12.0514C15.8931 12.2047 14.6944 11.9442 13.5836 11.2535C13.4858 11.1925 13.3281 11.1424 13.234 11.1807C12.0747 11.6517 11.0496 12.3416 10.189 13.2725C8.50803 15.0912 7.70734 17.2705 7.72023 19.7776C7.72554 20.8282 7.72099 21.8795 7.72099 22.9301V23.2782H25.2701ZM16.4626 11.0337C18.973 11.0892 21.0991 8.93962 21.1529 6.29094C21.2053 3.68841 19.1292 1.49109 16.5695 1.43946C14.0218 1.38783 11.9064 3.51319 11.8488 6.18064C11.7927 8.79255 13.8687 10.9758 16.4618 11.0337H16.4626Z" fill="#3F3F3F" stroke="#3F3F3F" stroke-width="0.5"/>
</svg>
