<svg width="33" height="25" viewBox="0 0 33 25" fill="none" xmlns="http://www.w3.org/2000/svg">
<path d="M31.9993 19.2998C31.8484 19.6088 31.599 19.6894 31.276 19.6871C29.7429 19.6753 28.209 19.6816 26.6758 19.6816H26.3134C26.3134 19.8224 26.3134 19.9335 26.3134 20.0446C26.3134 21.283 26.3142 22.5221 26.3134 23.7605C26.3134 24.312 26.1443 24.4834 25.6045 24.4834C19.541 24.4834 13.4774 24.4834 7.41391 24.4834C6.85282 24.4834 6.69056 24.3175 6.68981 23.7441C6.68905 22.5159 6.68981 21.2876 6.68981 20.0594C6.68981 19.9468 6.68981 19.8349 6.68981 19.6816C6.55636 19.6816 6.44945 19.6816 6.34178 19.6816C4.79804 19.6816 3.25429 19.6816 1.71131 19.6816C1.16993 19.6816 1.00464 19.5118 1.00388 18.9579C1.00237 18.0317 0.995541 17.1047 1.00464 16.1784C1.038 12.856 2.45588 10.3886 5.29922 8.80833C5.3523 8.7786 5.40462 8.74809 5.42585 8.73635C5.13241 8.26384 4.79197 7.81871 4.55692 7.32116C3.1997 4.44932 5.03005 0.979021 8.10238 0.552665C9.16162 0.405592 10.1466 0.618379 11.0746 1.14722C11.3802 1.32167 11.4825 1.59782 11.3552 1.8732C11.224 2.15639 10.9237 2.26357 10.6106 2.09068C9.83947 1.66588 9.03803 1.48126 8.16228 1.6166C6.50025 1.8732 5.19989 3.40025 5.13696 5.19877C5.0763 6.93783 6.31828 8.5838 7.95073 8.9288C8.52243 9.04928 9.0911 9.04615 9.65977 8.90768C10.0396 8.81537 10.3141 8.9554 10.3854 9.26206C10.4627 9.59376 10.2747 9.84018 9.88572 9.93719C8.77492 10.2133 7.70962 10.096 6.68147 9.57342C6.55863 9.51083 6.36225 9.50614 6.23639 9.56247C3.64629 10.7258 2.24206 12.773 2.05402 15.6762C1.99185 16.6384 2.04417 17.6077 2.04417 18.5957H6.73151C7.24103 14.854 9.14342 12.1589 12.4296 10.4621C11.0996 8.94992 10.5552 7.18817 10.9419 5.1753C11.2081 3.78984 11.8958 2.63672 12.9831 1.77228C15.3146 -0.0825662 18.4612 0.115357 20.5122 2.21584C22.5321 4.28504 22.9022 7.89146 20.5782 10.459C23.8477 12.1449 25.7432 14.8548 26.2702 18.6004H30.9234C30.9333 18.5895 30.9583 18.5738 30.9575 18.559C30.9295 17.0249 31.1342 15.4736 30.6777 13.97C30.0401 11.8671 28.7299 10.3886 26.7539 9.55073C26.6349 9.49988 26.4514 9.50849 26.3354 9.56716C25.2981 10.096 24.2237 10.2157 23.1023 9.93484C22.7316 9.84175 22.5496 9.60236 22.6148 9.27771C22.677 8.96635 22.9545 8.82006 23.3283 8.90142C25.3603 9.34107 27.1437 8.29357 27.7199 6.32294C28.1256 4.93592 27.6775 3.3627 26.5598 2.43724C25.3747 1.45544 24.066 1.30446 22.6754 1.94595C22.5473 2.0054 22.4245 2.08051 22.2933 2.13057C22.0302 2.23227 21.7716 2.12901 21.6518 1.88728C21.5313 1.64398 21.5859 1.34357 21.8406 1.21058C22.2425 1.00014 22.655 0.78501 23.0879 0.669228C25.1374 0.120051 27.1581 0.997796 28.259 2.88002C29.2963 4.65429 29.0589 6.92923 27.6699 8.52278C27.6236 8.57598 27.5812 8.63309 27.5539 8.66673C28.0854 9.03363 28.6389 9.35672 29.1264 9.76352C30.7612 11.1294 31.6938 12.9076 31.944 15.0644C31.9531 15.145 31.9804 15.2232 31.9986 15.3022V19.2998H31.9993ZM25.2701 23.4053C25.2746 23.3177 25.2807 23.2473 25.2807 23.1769C25.2807 21.9909 25.3194 20.8034 25.2731 19.619C25.12 15.7427 23.3222 12.985 19.9094 11.3469C19.7244 11.2585 19.5827 11.2601 19.4121 11.3735C18.7312 11.8249 17.9805 12.0823 17.1783 12.1777C15.8931 12.331 14.6944 12.0705 13.5836 11.3798C13.4858 11.3187 13.3281 11.2687 13.234 11.307C12.0747 11.778 11.0496 12.4679 10.189 13.3989C8.50803 15.2177 7.70734 17.3972 7.72023 19.9045C7.72554 20.9552 7.72099 22.0066 7.72099 23.0572V23.4053H25.2701ZM16.4626 11.1599C18.973 11.2155 21.0991 9.0657 21.1529 6.41682C21.2053 3.81409 19.1292 1.6166 16.5695 1.56497C14.0218 1.51334 11.9064 3.63886 11.8488 6.30651C11.7927 8.91863 13.8687 11.102 16.4618 11.1599H16.4626Z" fill="#3F3F3F" stroke="#3F3F3F" stroke-width="0.5"/>
</svg>
