<svg width="33" height="25" viewBox="0 0 33 25" fill="none" xmlns="http://www.w3.org/2000/svg">
<path d="M31.9993 19.5764C31.8484 19.8852 31.599 19.9657 31.276 19.9633C29.7429 19.9516 28.209 19.9579 26.6758 19.9579H26.3134C26.3134 20.0986 26.3134 20.2095 26.3134 20.3205C26.3134 21.5579 26.3142 22.7961 26.3134 24.0334C26.3134 24.5845 26.1443 24.7557 25.6045 24.7557C19.541 24.7557 13.4774 24.7557 7.41391 24.7557C6.85282 24.7557 6.69056 24.59 6.68981 24.017C6.68905 22.7898 6.68981 21.5626 6.68981 20.3354C6.68981 20.2228 6.68981 20.1111 6.68981 19.9579C6.55636 19.9579 6.44945 19.9579 6.34178 19.9579C4.79804 19.9579 3.25429 19.9579 1.71131 19.9579C1.16993 19.9579 1.00464 19.7882 1.00388 19.2348C1.00237 18.3093 0.995541 17.3831 1.00464 16.4576C1.038 13.1379 2.45588 10.6725 5.29922 9.09354C5.3523 9.06384 5.40462 9.03336 5.42585 9.02163C5.13241 8.54951 4.79197 8.10474 4.55692 7.60761C3.1997 4.73813 5.03005 1.27068 8.10238 0.844676C9.16162 0.697724 10.1466 0.910335 11.0746 1.43874C11.3802 1.61305 11.4825 1.88898 11.3552 2.16412C11.224 2.44708 10.9237 2.55417 10.6106 2.38142C9.83947 1.95698 9.03803 1.77251 8.16228 1.90773C6.50025 2.16412 5.19989 3.68992 5.13696 5.48696C5.0763 7.22459 6.31828 8.86921 7.95073 9.21392C8.52243 9.3343 9.0911 9.33117 9.65977 9.19282C10.0396 9.10058 10.3141 9.2405 10.3854 9.54691C10.4627 9.87833 10.2747 10.1246 9.88572 10.2215C8.77492 10.4974 7.70962 10.3802 6.68147 9.85801C6.55863 9.79548 6.36225 9.79079 6.23639 9.84707C3.64629 11.0094 2.24206 13.055 2.05402 15.9557C1.99185 16.9172 2.04417 17.8857 2.04417 18.8729H6.73151C7.24103 15.1342 9.14342 12.4414 12.4296 10.746C11.0996 9.23503 10.5552 7.47472 10.9419 5.46351C11.2081 4.07919 11.8958 2.92702 12.9831 2.06329C15.3146 0.209967 18.4612 0.407727 20.5122 2.50649C22.5321 4.57398 22.9022 8.17744 20.5782 10.7428C23.8477 12.4273 25.7432 15.135 26.2702 18.8776H30.9234C30.9333 18.8667 30.9583 18.851 30.9575 18.8362C30.9295 17.3033 31.1342 15.7533 30.6777 14.2509C30.0401 12.1498 28.7299 10.6725 26.7539 9.83534C26.6349 9.78453 26.4514 9.79313 26.3354 9.85176C25.2981 10.3802 24.2237 10.4998 23.1023 10.2191C22.7316 10.1261 22.5496 9.88693 22.6148 9.56254C22.677 9.25144 22.9545 9.10527 23.3283 9.18656C25.3603 9.62586 27.1437 8.57921 27.7199 6.61021C28.1256 5.22432 27.6775 3.6524 26.5598 2.7277C25.3747 1.74671 24.066 1.59585 22.6754 2.23681C22.5473 2.29622 22.4245 2.37126 22.2933 2.42129C22.0302 2.5229 21.7716 2.41972 21.6518 2.17819C21.5313 1.93509 21.5859 1.63494 21.8406 1.50205C22.2425 1.29179 22.655 1.07683 23.0879 0.961143C25.1374 0.412417 27.1581 1.28944 28.259 3.17012C29.2963 4.94292 29.0589 7.21599 27.6699 8.80824C27.6236 8.86139 27.5812 8.91845 27.5539 8.95206C28.0854 9.31866 28.6389 9.64149 29.1264 10.048C30.7612 11.4127 31.6938 13.1894 31.944 15.3445C31.9531 15.425 31.9804 15.5032 31.9986 15.5821V19.5764H31.9993ZM25.2701 23.6786C25.2746 23.591 25.2807 23.5207 25.2807 23.4503C25.2807 22.2653 25.3194 21.0788 25.2731 19.8953C25.12 16.0222 23.3222 13.2668 19.9094 11.63C19.7244 11.5417 19.5827 11.5433 19.4121 11.6566C18.7312 12.1076 17.9805 12.3648 17.1783 12.4602C15.8931 12.6134 14.6944 12.3531 13.5836 11.6629C13.4858 11.6019 13.3281 11.5519 13.234 11.5902C12.0747 12.0607 11.0496 12.7502 10.189 13.6803C8.50803 15.4977 7.70734 17.6754 7.72023 20.1806C7.72554 21.2304 7.72099 22.2809 7.72099 23.3307V23.6786H25.2701ZM16.4626 11.4432C18.973 11.4987 21.0991 9.35071 21.1529 6.70401C21.2053 4.10342 19.1292 1.90773 16.5695 1.85615C14.0218 1.80456 11.9064 3.92833 11.8488 6.59379C11.7927 9.20376 13.8687 11.3854 16.4618 11.4432H16.4626Z" fill="#3F3F3F" stroke="#3F3F3F" stroke-width="0.5"/>
</svg>
