<svg width="26" height="25" viewBox="0 0 26 25" fill="none" xmlns="http://www.w3.org/2000/svg">
<path d="M21.4 1.88678H4.6C2.90295 1.88678 2.05442 1.88678 1.52721 2.39019C1 2.89359 1 3.7038 1 5.32423V6.16668C1 7.43416 1 8.0679 1.31152 8.59327C1.62304 9.11863 2.19216 9.44468 3.33042 10.0968L6.82605 12.0995C7.58975 12.537 7.9716 12.7558 8.24501 12.9974C8.81439 13.5004 9.1649 14.0915 9.32373 14.8166C9.4 15.1646 9.4 15.572 9.4 16.3868V19.6469C9.4 20.7578 9.4 21.3131 9.7023 21.7462C10.0046 22.1791 10.5415 22.3927 11.6154 22.82C13.8698 23.7169 14.9969 24.1654 15.7985 23.6551C16.6 23.1449 16.6 21.9789 16.6 19.6469V16.3868C16.6 15.572 16.6 15.1646 16.6763 14.8166C16.8351 14.0915 17.1856 13.5004 17.755 12.9974C18.0284 12.7558 18.4102 12.537 19.174 12.0995L22.6696 10.0968C23.8078 9.44468 24.377 9.11863 24.6885 8.59327C25 8.0679 25 7.43416 25 6.16668V5.32423C25 3.7038 25 2.89359 24.4728 2.39019C23.9456 1.88678 23.097 1.88678 21.4 1.88678Z" stroke="#9E9E9E" stroke-width="2"/>
</svg>
