<svg width="26" height="22" viewBox="0 0 26 22" fill="none" xmlns="http://www.w3.org/2000/svg">
<path d="M7.66667 9.75H7.68M13 9.75H13.0133M18.3333 9.75H18.3467M25 21L20.5676 18.9222C20.2316 18.7647 20.0636 18.686 19.8875 18.6305C19.7312 18.5813 19.5703 18.5456 19.4069 18.5241C19.2229 18.5 19.0351 18.5 18.6595 18.5H5.26667C3.77319 18.5 3.02645 18.5 2.45603 18.2275C1.95425 17.9879 1.54631 17.6054 1.29065 17.135C1 16.6003 1 15.9001 1 14.5V5C1 3.59986 1 2.8998 1.29065 2.36503C1.54631 1.89461 1.95425 1.51216 2.45603 1.27249C3.02645 1 3.7732 1 5.26667 1H20.7333C22.2268 1 22.9736 1 23.544 1.27249C24.0457 1.51216 24.4537 1.89461 24.7093 2.36503C25 2.8998 25 3.59987 25 5V21Z" stroke="white" stroke-width="2" stroke-linecap="round" stroke-linejoin="round"/>
</svg>
