<svg width="25" height="25" viewBox="0 0 25 25" fill="none" xmlns="http://www.w3.org/2000/svg">
<path d="M15.6944 9.94444L15.6497 9.76683C15.4799 9.08774 15.088 8.48487 14.5363 8.05402C13.9846 7.62318 13.3048 7.38906 12.6048 7.38889H11.9378C11.3912 7.38905 10.8618 7.57951 10.4404 7.92757C10.019 8.27562 9.73197 8.75954 9.62857 9.29622C9.52517 9.83289 9.61186 10.3888 9.87376 10.8685C10.1357 11.3482 10.5564 11.7218 11.0638 11.925L13.9362 13.075C14.4436 13.2782 14.8643 13.6518 15.1262 14.1315C15.3881 14.6112 15.4748 15.1671 15.3714 15.7038C15.268 16.2405 14.981 16.7244 14.5596 17.0724C14.1382 17.4205 13.6088 17.6109 13.0622 17.6111H12.3965C11.6963 17.6112 11.0161 17.3772 10.4642 16.9464C9.91221 16.5155 9.52013 15.9125 9.35028 15.2332L9.30556 15.0556M12.5 4.83333V7.38889M12.5 17.6111V20.1667M24 12.5C24 14.0102 23.7025 15.5056 23.1246 16.9009C22.5467 18.2961 21.6996 19.5639 20.6317 20.6317C19.5639 21.6996 18.2961 22.5467 16.9009 23.1246C15.5056 23.7025 14.0102 24 12.5 24C10.9898 24 9.49438 23.7025 8.09914 23.1246C6.7039 22.5467 5.43615 21.6996 4.36827 20.6317C3.3004 19.5639 2.45331 18.2961 1.87539 16.9009C1.29746 15.5056 1 14.0102 1 12.5C1 9.45001 2.2116 6.52494 4.36827 4.36827C6.52494 2.2116 9.45001 1 12.5 1C15.55 1 18.4751 2.2116 20.6317 4.36827C22.7884 6.52494 24 9.45001 24 12.5Z" stroke="#9E9E9E" stroke-width="2" stroke-linecap="round" stroke-linejoin="round"/>
</svg>
