<svg width="33" height="26" viewBox="0 0 33 26" fill="none" xmlns="http://www.w3.org/2000/svg">
<path d="M31.9993 19.812C31.8484 20.1212 31.599 20.2018 31.276 20.1995C29.7429 20.1878 28.209 20.194 26.6758 20.194H26.3134C26.3134 20.3349 26.3134 20.4461 26.3134 20.5573C26.3134 21.7965 26.3142 23.0366 26.3134 24.2758C26.3134 24.8277 26.1443 24.9992 25.6045 24.9992C19.541 24.9992 13.4774 24.9992 7.41391 24.9992C6.85282 24.9992 6.69056 24.8332 6.68981 24.2594C6.68905 23.0303 6.68981 21.8012 6.68981 20.5721C6.68981 20.4594 6.68981 20.3475 6.68981 20.194C6.55636 20.194 6.44945 20.194 6.34178 20.194C4.79804 20.194 3.25429 20.194 1.71131 20.194C1.16993 20.194 1.00464 20.0241 1.00388 19.4699C1.00237 18.543 0.995541 17.6153 1.00464 16.6884C1.038 13.3636 2.45588 10.8945 5.29922 9.31311C5.3523 9.28336 5.40462 9.25283 5.42585 9.24108C5.13241 8.76824 4.79197 8.32279 4.55692 7.8249C3.1997 4.95104 5.03005 1.47829 8.10238 1.05163C9.16162 0.904456 10.1466 1.11739 11.0746 1.6466C11.3802 1.82118 11.4825 2.09753 11.3552 2.37309C11.224 2.65649 10.9237 2.76374 10.6106 2.59073C9.83947 2.16564 9.03803 1.98088 8.16228 2.11632C6.50025 2.37309 5.19989 3.90123 5.13696 5.70101C5.0763 7.4413 6.31828 9.08843 7.95073 9.43367C8.52243 9.55423 9.0911 9.55109 9.65977 9.41253C10.0396 9.32015 10.3141 9.46028 10.3854 9.76716C10.4627 10.0991 10.2747 10.3457 9.88572 10.4428C8.77492 10.7191 7.70962 10.6017 6.68147 10.0787C6.55863 10.0161 6.36225 10.0114 6.23639 10.0678C3.64629 11.2319 2.24206 13.2806 2.05402 16.1858C1.99185 17.1487 2.04417 18.1187 2.04417 19.1074H6.73151C7.24103 15.363 9.14342 12.6661 12.4296 10.9681C11.0996 9.4548 10.5552 7.69181 10.9419 5.67753C11.2081 4.29109 11.8958 3.13716 12.9831 2.2721C15.3146 0.415955 18.4612 0.614017 20.5122 2.71598C22.5321 4.78664 22.9022 8.3956 20.5782 10.9649C23.8477 12.652 25.7432 15.3638 26.2702 19.1121H30.9234C30.9333 19.1011 30.9583 19.0855 30.9575 19.0706C30.9295 17.5354 31.1342 15.983 30.6777 14.4784C30.0401 12.3741 28.7299 10.8945 26.7539 10.056C26.6349 10.0052 26.4514 10.0138 26.3354 10.0725C25.2981 10.6017 24.2237 10.7215 23.1023 10.4404C22.7316 10.3473 22.5496 10.1077 22.6148 9.78282C22.677 9.47124 22.9545 9.32485 23.3283 9.40627C25.3603 9.84623 27.1437 8.79799 27.7199 6.82597C28.1256 5.43797 27.6775 3.86365 26.5598 2.93753C25.3747 1.95505 24.066 1.80396 22.6754 2.4459C22.5473 2.5054 22.4245 2.58055 22.2933 2.63065C22.0302 2.73242 21.7716 2.62909 21.6518 2.38718C21.5313 2.14372 21.5859 1.8431 21.8406 1.71001C22.2425 1.49943 22.655 1.28414 23.0879 1.16828C25.1374 0.618714 27.1581 1.49708 28.259 3.38063C29.2963 5.15614 29.0589 7.43269 27.6699 9.02736C27.6236 9.0806 27.5812 9.13775 27.5539 9.17141C28.0854 9.53857 28.6389 9.86189 29.1264 10.269C30.7612 11.6358 31.6938 13.4153 31.944 15.5736C31.9531 15.6542 31.9804 15.7325 31.9986 15.8116V19.812H31.9993ZM25.2701 23.9204C25.2746 23.8327 25.2807 23.7623 25.2807 23.6918C25.2807 22.505 25.3194 21.3166 25.2731 20.1314C25.12 16.2523 23.3222 13.4928 19.9094 11.8535C19.7244 11.765 19.5827 11.7666 19.4121 11.8801C18.7312 12.3318 17.9805 12.5894 17.1783 12.6849C15.8931 12.8383 14.6944 12.5776 13.5836 11.8864C13.4858 11.8253 13.3281 11.7752 13.234 11.8135C12.0747 12.2848 11.0496 12.9753 10.189 13.9069C8.50803 15.727 7.70734 17.9081 7.72023 20.4171C7.72554 21.4685 7.72099 22.5207 7.72099 23.572V23.9204H25.2701ZM16.4626 11.6664C18.973 11.722 21.0991 9.57067 21.1529 6.91992C21.2053 4.31536 19.1292 2.11632 16.5695 2.06465C14.0218 2.01298 11.9064 4.14 11.8488 6.80953C11.7927 9.42349 13.8687 11.6084 16.4618 11.6664H16.4626Z" fill="#3F3F3F" stroke="#3F3F3F" stroke-width="0.5"/>
</svg>
