<svg width="42" height="48" viewBox="0 0 42 48" fill="none" xmlns="http://www.w3.org/2000/svg">
<path d="M18.6923 42.4C18.2677 42.4061 17.9169 42.7435 17.9231 43.1667V43.9333C17.9231 45.62 19.3077 47 21 47C22.6923 47 24.0769 45.62 24.0769 43.9333V43.1667C24.0769 42.6561 23.6923 42.4 23.3077 42.4C22.9231 42.4 22.5385 42.6484 22.5385 43.1667V43.9333C22.5385 44.7966 21.8662 45.4667 21 45.4667C20.1338 45.4667 19.4615 44.7966 19.4615 43.9333V43.1667C19.4677 42.7343 19.1262 42.3939 18.6923 42.4ZM21 1C18.4615 1 16.3846 3.07 16.3846 5.6V6.36667C16.3846 7.36333 17.9231 7.37867 17.9231 6.36667V5.6C17.9231 3.898 19.2923 2.53333 21 2.53333C22.7077 2.53333 24.0769 3.898 24.0769 5.6V6.36667C24.0769 7.36947 25.6154 7.37867 25.6154 6.36667V5.6C25.6154 3.07 23.5385 1 21 1ZM32.5385 5.6C37.2062 5.6 41 9.38427 41 14.0333C41 15.053 39.4615 15.053 39.4615 14.0333C39.4615 10.2153 36.3754 7.13333 32.5385 7.13333C31.5123 7.13333 31.5185 5.6 32.5385 5.6ZM9.46154 5.6C4.79692 5.6 1 9.38427 1 14.0333C1 15.053 2.53846 15.053 2.53846 14.0333C2.53846 10.2153 5.63077 7.13333 9.46154 7.13333C10.4892 7.13333 10.4846 5.6 9.46154 5.6ZM21 8.66667C14.3538 8.66667 10.7108 11.442 8.94154 14.9564C7.17231 18.4708 7.15385 22.6139 7.15385 25.5333C7.15385 28.6 7.15385 34.4527 2.72308 39.6001C2.62701 39.7115 2.56506 39.848 2.54457 39.9934C2.52408 40.1388 2.54592 40.287 2.6075 40.4204C2.66907 40.5538 2.76779 40.6668 2.89192 40.7459C3.01605 40.825 3.16036 40.8669 3.30769 40.8667H38.6923C38.8396 40.8669 38.984 40.825 39.1081 40.7459C39.2322 40.6668 39.3309 40.5538 39.3925 40.4204C39.4541 40.287 39.4759 40.1388 39.4554 39.9934C39.4349 39.848 39.373 39.7115 39.2769 39.6001C34.8462 34.4527 34.8462 28.6 34.8462 25.5333C34.8462 22.6139 34.8262 18.4708 33.0585 14.9564C31.2892 11.442 27.6462 8.66667 21 8.66667ZM21 10.2C27.2369 10.2 30.1338 12.5659 31.6815 15.6433C33.2308 18.7253 33.3077 22.6323 33.3077 25.5333C33.3077 28.3731 33.4723 34.0694 37.2862 39.3333H4.71385C8.52923 34.0694 8.69231 28.3731 8.69231 25.5333C8.69231 22.6307 8.76923 18.7253 10.3185 15.6433C11.8662 12.5675 14.7646 10.2 21 10.2Z" fill="#FF6F3C" stroke="#FF6F3C"/>
</svg>
